<?xml version="1.0" standalone="no"?>
<!DOCTYPE svg PUBLIC "-//W3C//DTD SVG 20010904//EN"
 "http://www.w3.org/TR/2001/REC-SVG-20010904/DTD/svg10.dtd">
<svg version="1.0" xmlns="http://www.w3.org/2000/svg"
 width="1024.000000pt" height="1024.000000pt" viewBox="0 0 1024.000000 1024.000000"
 preserveAspectRatio="xMidYMid meet">
<metadata>
Created by potrace 1.16, written by Peter Selinger 2001-2019
</metadata>
<g transform="translate(0.000000,1024.000000) scale(0.100000,-0.100000)"
fill="#000000" stroke="none">
<path d="M7521 8934 c-53 -9 -114 -29 -166 -53 -54 -25 -87 -36 -96 -30 -60
38 -312 -33 -459 -130 -50 -33 -62 -36 -130 -37 -150 -2 -291 -106 -331 -244
-7 -25 -30 -64 -51 -87 -21 -24 -38 -47 -38 -53 0 -5 -18 -8 -42 -6 -39 4 -45
1 -94 -48 -42 -43 -69 -60 -150 -93 -56 -22 -98 -44 -96 -51 1 -7 -5 -12 -14
-12 -27 0 -74 -56 -74 -88 0 -28 -6 -32 -97 -72 -99 -43 -208 -108 -252 -150
-30 -29 -100 -137 -107 -166 -5 -19 -15 -22 -77 -29 -94 -9 -188 -57 -271
-140 -77 -77 -122 -165 -147 -287 -24 -119 -24 -167 0 -260 19 -74 81 -210
101 -223 5 -3 10 -18 10 -33 1 -36 31 -100 65 -136 15 -15 24 -31 19 -35 -5
-3 -9 -15 -9 -26 0 -17 -9 -21 -49 -26 -37 -4 -54 -12 -70 -32 -27 -34 -52
-34 -146 -2 -40 14 -123 32 -184 41 -61 9 -114 18 -117 19 -22 14 -280 36
-413 36 -330 0 -593 -81 -881 -272 -60 -41 -117 -74 -125 -74 -8 0 -20 -11
-27 -25 -6 -14 -63 -72 -125 -130 -288 -267 -374 -362 -484 -531 -148 -230
-216 -393 -264 -639 -39 -198 -46 -328 -31 -575 19 -301 68 -546 141 -698 24
-48 45 -86 47 -83 3 2 -16 58 -40 123 -44 115 -82 242 -74 249 2 2 14 -29 26
-69 36 -112 109 -282 143 -328 l30 -41 -114 61 c-258 141 -509 250 -685 297
-117 31 -306 39 -358 15 -16 -8 -35 -13 -41 -13 -17 3 -53 -84 -60 -143 -6
-50 -24 -69 -24 -24 0 10 -4 19 -10 19 -5 0 -10 -7 -10 -15 0 -34 60 -314 80
-369 22 -65 109 -233 144 -281 12 -16 33 -49 46 -72 13 -24 27 -43 31 -43 4 0
47 -37 96 -81 129 -119 438 -372 595 -486 176 -129 319 -217 548 -336 382
-198 678 -322 959 -404 208 -60 322 -81 468 -89 125 -7 333 10 333 27 0 12
-17 11 -100 -2 -38 -6 -86 -9 -107 -7 -33 3 -25 6 57 26 236 57 332 100 384
172 34 47 48 89 26 75 -6 -3 -10 1 -10 9 0 23 17 20 25 -4 11 -35 25 -21 23
24 -2 27 -6 42 -13 39 -6 -2 -17 8 -24 23 -39 85 -197 256 -389 419 l-82 70
157 7 c220 9 346 39 548 133 44 20 132 59 195 86 139 60 319 161 357 202 33
35 23 31 -93 -41 -93 -58 -124 -74 -124 -68 0 3 21 18 48 33 208 121 347 247
610 557 86 101 332 646 332 735 0 16 13 81 29 144 64 246 81 428 57 603 -17
126 -74 354 -89 354 -5 0 -7 -10 -3 -22 3 -13 22 -95 42 -183 36 -160 36 -160
30 -335 -8 -260 -21 -276 -22 -28 -1 326 -29 472 -143 763 -76 193 -81 201
-298 472 -61 76 -352 350 -384 361 -5 2 -9 22 -9 45 0 24 -9 56 -20 75 l-20
33 22 30 c17 22 28 29 43 24 78 -23 183 -11 172 19 -4 11 16 14 96 18 151 7
243 52 400 198 42 40 77 77 76 84 -1 6 3 25 10 41 27 65 44 165 45 265 1 102
0 107 -40 198 -23 52 -58 120 -78 151 -32 49 -131 145 -200 194 -18 13 -18 15
11 58 35 51 80 138 98 188 9 26 17 35 37 35 36 2 89 51 129 120 35 60 111 146
130 146 6 0 24 14 41 31 25 25 31 38 30 70 -1 21 1 39 6 39 4 0 23 10 42 21
29 18 52 22 135 23 88 1 107 5 156 29 31 15 76 44 100 66 43 37 46 38 105 33
95 -7 237 44 363 131 41 28 47 29 75 18 17 -7 79 -15 137 -18 117 -6 185 8
271 54 l46 25 69 -28 c60 -24 81 -27 185 -28 90 -1 118 -4 118 -14 0 -25 32
-75 88 -137 32 -35 75 -84 96 -110 21 -26 50 -52 62 -57 20 -9 24 -19 24 -57
0 -59 21 -135 58 -215 32 -69 101 -151 134 -162 18 -5 20 -12 15 -58 -5 -54
14 -212 32 -260 10 -25 7 -32 -28 -74 -45 -53 -73 -111 -96 -197 -18 -71 -20
-165 -2 -188 10 -15 12 -7 15 49 1 36 9 93 18 127 16 64 89 217 103 217 4 0
13 -12 19 -26 11 -22 9 -30 -14 -59 -37 -49 -74 -160 -74 -225 0 -54 -2 -57
-60 -118 -84 -89 -135 -197 -158 -335 -15 -93 -20 -107 -39 -112 -78 -19 -203
-283 -203 -429 l0 -61 -63 -46 c-131 -95 -256 -316 -206 -366 7 -7 0 -16 -25
-31 -19 -11 -41 -33 -50 -49 -35 -69 -73 -310 -61 -389 4 -29 2 -44 -4 -44 -6
0 -47 -35 -92 -77 -62 -59 -88 -93 -115 -150 -27 -56 -43 -77 -67 -88 -18 -8
-45 -23 -62 -33 -29 -18 -153 -152 -187 -202 -16 -25 -17 -24 -5 14 8 29 34
59 107 125 52 47 106 94 120 103 18 12 21 17 9 17 -25 1 -131 -73 -177 -123
-60 -65 -82 -114 -80 -180 1 -30 -1 -58 -5 -62 -4 -4 -7 6 -8 22 l-1 29 -11
-32 c-9 -23 -30 -43 -75 -70 -34 -21 -83 -58 -108 -83 -55 -54 -124 -187 -124
-239 0 -30 -5 -40 -30 -55 -35 -20 -97 -100 -130 -166 -30 -58 -58 -167 -67
-255 -5 -54 -13 -79 -35 -109 -38 -53 -69 -154 -75 -252 -5 -75 -4 -85 26
-146 28 -59 78 -117 138 -159 11 -8 41 -60 66 -117 55 -126 135 -247 220 -332
56 -57 65 -71 70 -112 10 -74 49 -136 126 -205 67 -61 99 -81 70 -46 -13 15
-12 15 8 5 37 -20 87 -15 112 12 25 27 11 48 -15 22 -19 -20 -40 -20 -94 -1
-68 24 -116 69 -155 147 -48 96 -47 107 8 101 31 -4 55 1 85 15 27 13 42 16
42 9 0 -7 7 -3 15 7 9 11 15 41 15 68 0 30 4 48 12 48 22 0 109 -63 144 -104
19 -22 49 -69 66 -103 25 -52 30 -71 25 -110 -2 -27 -8 -56 -12 -65 -4 -11 -3
-18 4 -18 22 0 43 70 36 119 -11 77 -78 203 -132 251 l-48 43 63 -33 c35 -18
75 -47 89 -64 43 -51 93 -169 93 -220 0 -28 5 -46 11 -46 8 0 10 23 7 73 -6
93 -39 158 -126 245 -48 48 -85 74 -147 103 l-82 39 -7 49 c-13 98 -93 276
-135 303 -17 10 -16 14 6 60 64 132 69 268 15 375 l-32 62 47 72 c25 40 59
104 74 143 15 39 28 63 28 54 1 -10 -8 -41 -19 -70 -25 -67 -25 -73 1 -50 25
24 47 94 55 181 6 59 10 70 45 106 44 46 85 138 95 213 6 51 7 52 77 93 38 23
107 79 153 124 66 67 86 94 104 142 20 56 24 60 83 88 84 40 201 158 245 247
17 36 32 74 32 86 0 11 15 31 33 45 85 65 140 260 106 380 l-10 37 95 93 c76
73 101 105 124 157 39 88 53 150 51 226 l-2 63 51 52 c60 61 152 195 187 272
39 83 41 133 11 191 l-25 49 33 38 c64 75 114 204 120 308 3 46 12 83 29 117
13 27 30 67 37 89 7 22 19 50 27 62 8 12 19 54 24 93 9 59 18 83 54 136 24 35
48 81 52 101 13 61 7 213 -11 280 -17 64 -67 158 -111 211 -14 17 -25 40 -25
52 0 83 -114 334 -178 392 -35 32 -39 41 -45 98 -8 74 -39 147 -95 222 -76
103 -158 156 -273 179 -35 7 -73 19 -84 27 -19 13 -19 13 5 6 22 -6 23 -5 12
9 -8 9 -51 31 -95 48 -74 29 -95 33 -212 37 -112 3 -138 1 -191 -17 -60 -20
-62 -20 -110 -2 l-49 19 35 4 c19 3 -1 5 -45 5 -44 0 -118 -6 -164 -13z m246
-38 c4 -4 -3 -13 -15 -21 -11 -9 -28 -23 -37 -31 -11 -11 -24 -14 -43 -9 -68
16 -86 16 -154 -5 -127 -39 -219 -98 -205 -134 7 -19 -48 -106 -68 -106 -9 0
-20 12 -26 27 -34 91 97 219 266 258 133 31 263 41 282 21z m433 -15 c31 -10
73 -29 93 -43 l38 -25 -25 -17 c-24 -15 -30 -15 -98 8 -40 14 -107 28 -148 31
-73 6 -78 5 -170 -37 -80 -36 -98 -49 -115 -80 -11 -20 -16 -40 -12 -45 7 -7
21 8 30 32 3 6 7 7 11 4 10 -9 -52 -71 -66 -67 -18 6 -41 83 -34 112 3 13 15
26 27 29 14 4 20 11 16 20 -7 20 16 39 82 66 102 43 255 48 371 12z m-956 -47
c13 -5 9 -13 -20 -43 -33 -33 -40 -36 -81 -32 -33 2 -42 6 -32 13 10 7 0 8
-30 5 -101 -12 -264 -131 -291 -212 -13 -40 -6 -101 13 -108 14 -5 -10 -58
-29 -64 -31 -10 -47 154 -20 205 19 37 60 72 131 114 145 86 308 142 359 122z
m446 -31 c0 -2 -7 -18 -16 -34 -8 -17 -12 -38 -9 -47 4 -10 11 -30 15 -47 4
-16 11 -37 14 -46 12 -27 -83 -61 -183 -67 l-84 -5 7 24 c4 13 10 45 13 71 5
41 2 49 -21 72 -26 23 -26 25 -8 35 23 12 165 49 207 53 31 3 65 -1 65 -9z
m-455 -50 c-14 -21 -25 -46 -25 -55 0 -10 -5 -18 -10 -18 -13 0 14 67 37 92
26 29 26 21 -2 -19z m944 26 c28 -6 53 -14 56 -19 3 -5 -6 -25 -20 -46 -24
-35 -27 -47 -30 -104 -1 -25 -2 -25 -81 -23 -89 1 -192 31 -185 54 11 41 12
99 2 117 -9 17 -8 21 7 25 35 9 202 7 251 -4z m335 -23 c76 -37 166 -128 205
-207 30 -62 60 -173 50 -184 -11 -11 -69 17 -69 33 0 46 -114 222 -143 222 -6
0 0 -12 14 -27 l24 -28 -27 24 c-15 13 -26 28 -25 34 3 15 -60 55 -105 68 -22
5 -54 7 -71 4 -33 -7 -110 -72 -102 -86 3 -4 -4 -5 -15 -2 -24 6 -25 29 -3 85
14 34 18 38 24 22 6 -17 8 -16 18 9 7 17 24 33 41 40 17 6 30 15 30 20 0 18
99 0 154 -27z m-609 -19 c4 -18 2 -43 -3 -57 -15 -38 -91 -120 -113 -120 -12
0 -16 -5 -13 -14 7 -18 -46 -47 -131 -72 -72 -21 -206 -23 -252 -3 l-32 14 29
34 c27 31 30 33 61 22 65 -22 159 -7 255 42 82 42 114 73 114 113 0 28 6 38
33 54 42 26 45 26 52 -13z m-733 -44 c-3 -50 0 -63 22 -96 l25 -37 -37 -23
c-44 -28 -132 -63 -187 -76 -37 -9 -38 -10 -15 -17 l25 -8 -30 -12 -30 -13 45
-1 c96 0 267 113 338 224 19 31 22 43 14 57 -8 13 -7 21 7 33 24 22 37 20 55
-6 27 -38 20 -108 -14 -155 -53 -72 -212 -178 -326 -217 -48 -16 -174 -22
-174 -8 0 4 7 16 16 27 45 60 41 176 -8 225 -34 35 -31 44 29 81 38 24 196 78
229 79 19 0 20 -5 16 -57z m1222 -29 c42 -16 -6 -90 -86 -130 -53 -27 -91 -28
-96 -4 -1 10 19 25 57 42 41 20 65 38 80 63 22 38 22 38 45 29z m-1676 -11
c-30 -61 -31 -63 -67 -63 -64 0 -111 -20 -156 -64 -23 -24 -48 -59 -54 -79
-11 -33 -16 -37 -46 -37 l-34 0 22 53 c45 108 170 197 280 197 32 0 57 -3 55
-7z m1773 -31 c59 -38 112 -99 148 -171 31 -61 31 -71 -3 -71 -37 0 -102 -39
-117 -71 l-15 -31 -49 42 c-54 46 -115 133 -115 163 0 10 13 29 29 43 39 32
74 91 67 109 -8 22 4 19 55 -13z m-566 -32 c30 -33 106 -52 194 -48 68 3 81 1
84 -14 3 -9 2 -19 -1 -22 -10 -10 -75 -6 -147 10 -38 8 -92 19 -120 25 -62 13
-70 21 -53 48 16 26 20 26 43 1z m-1046 -27 c36 -56 38 -103 7 -167 -38 -77
-106 -135 -205 -174 -98 -38 -150 -40 -211 -9 -49 25 -66 46 -57 71 9 22 54
20 66 -3 13 -24 87 -34 149 -20 62 13 140 66 177 119 26 38 30 53 32 119 2 99
2 101 11 101 4 0 18 -17 31 -37z m-207 -11 c-6 -46 16 -109 53 -148 42 -44 39
-51 -48 -94 -43 -21 -73 -30 -106 -29 -25 1 -38 3 -29 6 49 13 21 81 -43 107
-34 14 -39 20 -34 39 18 57 70 105 145 131 62 21 67 20 62 -12z m148 -43 c0
-17 -4 -28 -10 -24 -5 3 -10 17 -10 31 0 13 5 24 10 24 6 0 10 -14 10 -31z
m1504 -75 c18 -38 49 -78 98 -126 82 -77 137 -101 229 -97 50 3 54 1 91 -41
49 -55 104 -154 113 -202 6 -31 4 -37 -15 -43 -30 -10 -90 -64 -101 -92 -11
-30 -23 -29 -49 5 -61 79 -110 177 -110 222 0 17 7 20 40 20 32 0 48 7 80 36
22 20 39 39 37 41 -3 2 -26 -8 -52 -22 -27 -14 -65 -25 -85 -25 -41 0 -146 48
-176 81 -16 18 -12 17 36 -7 59 -29 140 -44 140 -25 0 6 -9 11 -20 11 -49 0
-160 60 -228 124 -28 25 -102 150 -102 171 0 4 20 15 47 24 1 1 13 -24 27 -55z
m-91 -16 c23 -56 16 -58 -11 -3 -12 25 -18 45 -13 45 4 0 15 -19 24 -42z
m-1793 -53 c0 -8 5 -15 10 -15 6 0 9 6 8 13 -4 17 34 9 50 -11 19 -25 15 -28
-27 -24 -55 5 -106 -14 -145 -54 -32 -33 -33 -34 -51 -14 -16 18 -16 20 4 46
12 15 36 38 53 51 37 27 98 32 98 8z m2241 -32 c8 -21 12 -24 19 -13 5 8 6 18
4 22 -7 11 1 10 31 -4 14 -6 25 -18 25 -25 0 -8 4 -12 9 -9 31 20 137 -147
159 -249 19 -90 22 -125 9 -125 -26 0 -41 21 -62 86 -35 107 -92 194 -151 226
-67 38 -110 45 -134 23 -21 -19 -60 -13 -60 10 0 35 41 60 138 84 1 1 7 -11
13 -26z m-2478 -79 c-5 -13 -2 -15 13 -10 15 4 30 -4 55 -31 67 -71 77 -118
32 -153 -16 -12 -29 -17 -31 -11 -7 21 -35 12 -29 -9 3 -10 -1 -27 -9 -37 -7
-10 -14 -13 -14 -8 0 6 -4 4 -8 -3 -6 -8 -15 0 -31 28 -21 38 -41 52 -41 29 0
-6 12 -31 26 -55 15 -25 24 -48 20 -51 -3 -4 -7 -4 -9 -2 -1 2 -24 32 -50 66
-51 66 -60 87 -25 57 15 -13 12 -7 -7 18 -32 39 -51 50 -36 21 42 -85 57 -113
78 -149 20 -36 21 -43 9 -53 -12 -10 -19 -5 -42 31 -27 45 -93 118 -105 118
-4 0 14 -36 41 -79 26 -44 52 -98 57 -120 10 -36 8 -42 -13 -62 l-24 -22 0 24
c-1 41 -35 102 -80 142 -53 49 -119 80 -137 65 -14 -12 0 -48 19 -48 26 0 -45
-57 -192 -155 -147 -97 -158 -107 -187 -162 -41 -76 -66 -165 -58 -202 8 -35
62 -93 103 -110 24 -10 36 -10 67 3 34 15 40 14 66 -1 15 -9 25 -21 22 -26
-13 -21 -90 -47 -138 -45 -45 1 -47 1 -15 7 41 7 32 16 -27 26 -48 8 -126 54
-143 84 -9 17 -8 21 5 21 8 0 15 5 15 10 0 6 -8 10 -19 10 -32 0 -33 31 -3
177 11 50 51 121 101 176 36 40 174 137 195 137 6 0 -8 -12 -32 -26 -24 -14
-41 -28 -39 -31 3 -2 56 25 119 62 101 57 115 68 111 88 -5 25 32 80 50 74 5
-1 69 27 141 63 116 58 133 69 149 103 11 24 24 37 37 37 14 0 18 -5 13 -16z
m167 -18 c0 -16 -18 -31 -27 -22 -8 8 5 36 17 36 5 0 10 -6 10 -14z m40 -36
c13 -9 12 -12 -4 -25 -11 -8 -23 -15 -27 -15 -14 0 -19 34 -7 42 17 10 20 10
38 -2z m2125 -106 c19 -5 23 -14 28 -63 7 -83 41 -152 101 -210 55 -51 101
-71 168 -71 27 0 38 5 40 18 6 25 71 -48 105 -115 21 -44 26 -69 27 -140 0
-49 -2 -96 -7 -107 -7 -17 -9 -17 -34 9 -27 26 -58 30 -112 14 -22 -6 -44 64
-46 147 l-2 72 39 5 c40 5 88 31 88 46 0 5 -18 2 -39 -6 -44 -17 -121 -11
-144 11 -7 8 -27 17 -44 20 -46 11 -104 80 -157 187 -49 102 -75 205 -49 195
8 -4 25 -9 38 -12z m-2210 -54 c-9 -14 -45 -32 -45 -23 0 7 24 22 48 32 2 0 0
-3 -3 -9z m-455 -60 c0 -5 -2 -10 -4 -10 -3 0 -8 5 -11 10 -3 6 -1 10 4 10 6
0 11 -4 11 -10z m3104 -32 c4 -17 2 -28 -4 -28 -5 0 -10 14 -10 32 0 36 4 35
14 -4z m-3020 -127 c-6 -7 -74 61 -74 73 0 6 18 -7 39 -29 22 -22 37 -42 35
-44z m2934 67 c9 -9 12 -9 12 0 0 24 44 11 76 -23 18 -19 34 -30 36 -24 2 7
18 -15 35 -47 69 -131 82 -286 37 -437 l-27 -87 -17 49 c-16 43 -16 54 -4 102
26 101 10 193 -52 299 -28 48 -45 66 -77 80 -41 19 -42 19 -64 -1 -16 -16 -29
-19 -52 -14 -28 6 -30 9 -20 28 18 35 71 87 89 87 9 0 21 -5 28 -12z m-2990
-61 c27 -27 39 -46 33 -52 -17 -17 -121 -187 -121 -197 0 -5 -7 -22 -16 -37
l-16 -27 -68 23 c-38 13 -102 29 -144 36 l-75 12 22 40 c17 31 57 62 177 142
84 57 157 103 160 103 3 0 25 -19 48 -43z m242 33 c0 -5 -5 -10 -11 -10 -5 0
-7 5 -4 10 3 6 8 10 11 10 2 0 4 -4 4 -10z m-158 -122 c-3 -13 -18 -43 -33
-68 -15 -25 -42 -80 -59 -122 l-32 -77 -33 16 -33 16 50 39 c40 32 58 57 91
128 40 86 61 114 49 68z m2721 -78 c-3 -11 -7 -20 -8 -20 -1 0 -5 9 -8 20 -3
12 0 20 8 20 8 0 11 -8 8 -20z m69 -76 c-5 -125 34 -256 87 -287 16 -9 31 -14
33 -11 11 10 28 -60 28 -111 0 -63 -32 -172 -61 -209 -20 -25 -101 -86 -115
-86 -3 0 -1 7 6 15 10 12 10 15 -2 15 -24 0 -123 -121 -161 -197 -56 -109 -79
-189 -71 -237 8 -50 49 -135 69 -143 25 -9 16 -20 -22 -26 -49 -8 -62 1 -89
64 -62 143 12 392 153 517 84 74 106 85 157 79 l41 -6 -24 20 c-28 23 -50 24
-96 5 l-35 -15 0 52 c1 48 34 141 76 212 11 18 12 18 30 0 18 -18 74 -45 94
-45 20 0 9 18 -15 24 -40 10 -133 168 -104 178 6 2 4 17 -5 38 -13 32 -20 112
-17 202 1 34 3 37 23 29 21 -8 23 -14 20 -77z m-81 15 c-9 -22 -10 -22 -10 -3
-1 11 2 24 6 27 12 12 14 0 4 -24z m-3388 -30 c-6 -6 -29 -15 -51 -20 -70 -15
-210 -99 -275 -164 -36 -35 -52 -47 -39 -28 33 47 114 116 168 144 27 13 52
28 55 33 8 11 108 45 134 46 13 0 16 -3 8 -11z m322 -46 c178 -49 293 -118
410 -246 79 -85 134 -205 144 -314 14 -148 -15 -253 -104 -378 -66 -93 -102
-117 -255 -168 -149 -50 -205 -63 -213 -50 -3 5 4 27 16 48 20 36 27 40 82 50
105 20 220 83 270 149 14 19 42 72 61 117 42 102 46 199 13 289 -11 30 -21 64
-22 75 0 11 -48 68 -111 131 -96 97 -123 117 -197 153 -56 27 -116 47 -170 56
-46 8 -85 15 -86 15 -7 0 -2 62 7 85 11 29 7 29 155 -12z m-325 -38 c0 -42 -2
-45 -27 -45 -50 0 -133 -48 -197 -113 -49 -49 -70 -82 -101 -152 -36 -83 -39
-97 -39 -180 0 -72 5 -100 23 -142 13 -29 29 -57 37 -63 10 -9 10 -17 2 -36
-6 -13 -14 -24 -18 -24 -4 0 -27 42 -51 93 -40 85 -44 99 -47 189 -7 181 45
310 156 391 73 54 178 105 260 126 1 1 2 -19 2 -44z m-2 -70 c-2 -5 -31 -19
-65 -30 -35 -12 -81 -36 -103 -54 -22 -17 -40 -27 -40 -22 0 18 107 92 152
106 47 15 61 15 56 0z m3833 -16 c-9 -22 -10 -22 -10 -3 -1 11 2 24 6 27 12
12 14 0 4 -24z m-174 -15 c28 -30 33 -42 28 -65 -4 -18 -2 -29 4 -29 6 0 11 5
11 11 0 5 5 7 11 4 22 -14 2 -169 -36 -282 -44 -129 -69 -175 -126 -228 -24
-22 -36 -31 -26 -19 9 11 17 27 17 35 0 9 -6 7 -18 -7 -30 -38 -92 -47 -122
-18 -21 21 -2 46 37 49 59 5 142 86 185 181 27 61 36 193 18 250 -16 49 -51
104 -66 104 -6 0 -17 7 -25 16 -10 13 -10 17 2 25 31 20 71 10 106 -27z
m-3447 18 c0 -5 19 -17 43 -27 42 -18 42 -18 13 -23 -18 -2 -38 3 -54 15 -31
23 -39 43 -18 43 9 0 16 -4 16 -8z m-46 -151 c40 -25 61 -31 104 -31 46 0 62
5 103 35 49 35 50 35 77 18 127 -80 217 -205 256 -354 22 -87 -2 -169 -80
-271 -55 -70 -94 -101 -157 -122 -76 -25 -92 -22 -109 23 l-16 39 33 5 c45 7
114 55 121 83 4 13 10 24 15 24 5 0 9 32 9 70 0 39 -4 70 -10 70 -5 0 -16 12
-24 28 -28 54 -112 135 -186 178 -91 54 -230 101 -256 86 -14 -8 -6 -13 42
-27 63 -18 184 -70 184 -79 0 -3 -25 5 -56 19 -126 56 -262 82 -279 54 -4 -5
-18 -14 -31 -20 -40 -14 -55 -67 -51 -169 4 -88 4 -88 -22 -93 -58 -12 -79 1
-101 62 -53 141 -35 252 58 353 62 66 107 98 180 127 l47 19 50 -48 c28 -26
72 -62 99 -79z m309 46 c18 -16 25 -25 17 -21 -24 12 -110 75 -110 81 0 8 60
-31 93 -60z m3103 36 c20 -27 16 -38 -6 -18 -20 18 -26 35 -14 35 4 0 13 -8
20 -17z m-4001 -169 c-8 -32 -15 -85 -15 -118 0 -45 -3 -57 -11 -49 -14 14 2
163 22 206 19 42 21 25 4 -39z m1084 -37 c41 -65 84 -162 78 -180 -2 -6 -11
12 -21 39 -21 54 -50 108 -76 139 -10 11 -25 32 -35 48 -15 23 -15 26 -2 21 9
-3 34 -33 56 -67z m-680 -103 c-21 -41 -29 -70 -29 -108 0 -61 -2 -65 -35 -58
-23 4 -25 9 -25 56 0 76 15 118 52 144 18 12 40 22 50 22 14 0 13 -8 -13 -56z
m116 31 c17 -7 24 -14 18 -14 -18 -1 -70 -97 -84 -153 -8 -36 -15 -48 -28 -46
-28 6 -24 34 18 120 21 46 38 85 36 86 -4 4 -20 -14 -50 -53 -14 -19 -15 -19
-6 7 25 69 42 78 96 53z m86 -31 c29 -15 30 -16 15 -37 -9 -12 -34 -57 -57
-100 -29 -58 -44 -77 -55 -73 -9 3 -20 6 -25 6 -20 0 -7 54 33 135 23 47 46
85 51 85 4 0 22 -7 38 -16z m117 -88 c-25 -47 -112 -166 -122 -166 -6 0 -19 7
-29 15 -18 13 -16 19 33 114 l52 101 38 -21 c35 -20 38 -25 28 -43z m106 -50
c23 -22 47 -58 53 -79 11 -38 10 -40 -33 -98 -25 -32 -55 -66 -67 -74 -20 -14
-23 -14 -34 1 -9 13 -5 22 27 50 36 33 85 112 75 123 -3 2 -32 -26 -66 -63
-49 -53 -64 -64 -75 -55 -11 9 -6 20 27 58 40 45 79 110 79 131 0 24 -19 6
-67 -63 -65 -93 -73 -99 -97 -82 -18 13 -17 16 18 56 39 46 76 115 76 143 0
23 30 6 84 -48z m-699 -34 c-7 -7 -25 47 -24 71 0 13 6 4 14 -23 8 -24 12 -46
10 -48z m794 -65 c0 -21 -1 -21 -9 -2 -12 28 -12 37 0 30 6 -3 10 -16 9 -28z
m-554 13 c13 -5 14 -9 5 -9 -8 0 -24 4 -35 9 -13 5 -14 9 -5 9 8 0 24 -4 35
-9z m-325 -25 c14 -19 14 -19 -2 -6 -10 7 -18 18 -18 24 0 6 1 8 3 6 1 -2 9
-13 17 -24z m3970 -58 c-43 -121 -131 -246 -164 -234 -15 6 -15 10 8 40 37 49
96 165 96 190 0 23 72 93 79 75 2 -5 -7 -37 -19 -71z m-3660 53 c50 -20 168
-84 261 -142 26 -16 49 -38 52 -48 3 -12 14 -20 26 -20 34 0 41 -29 15 -57
-32 -35 -64 -104 -64 -138 0 -16 7 -37 17 -47 15 -17 15 -18 -8 -18 -41 0
-104 21 -90 30 51 31 -139 186 -276 224 -83 24 -103 27 -103 16 0 -5 6 -10 13
-10 6 0 30 -9 52 -19 l40 -18 -50 5 c-40 3 -57 11 -87 40 -42 40 -50 72 -18
72 11 0 20 5 20 12 0 6 10 32 23 58 37 79 86 96 177 60z m86 5 c10 -8 14 -15
8 -15 -5 0 -19 7 -30 15 -10 8 -14 15 -8 15 5 0 19 -7 30 -15z m3429 -41 c23
5 27 3 15 -5 -12 -8 -8 -9 17 -5 l32 5 -53 -104 c-30 -58 -56 -109 -58 -115
-4 -13 -130 17 -140 34 -14 21 20 106 79 199 l24 39 27 -27 c21 -21 33 -25 57
-21z m-3370 16 c3 -6 -1 -7 -9 -4 -18 7 -21 14 -7 14 6 0 13 -4 16 -10z m92
-46 c19 -14 32 -28 30 -31 -5 -4 -87 46 -87 53 0 11 27 1 57 -22z m671 -85
c-12 -22 -28 -45 -36 -51 -7 -7 1 12 19 40 38 62 50 69 17 11z m-493 -69 c3
-5 2 -10 -4 -10 -5 0 -13 5 -16 10 -3 6 -2 10 4 10 5 0 13 -4 16 -10z m-440
-97 c84 -43 177 -104 182 -119 2 -5 -10 -25 -27 -44 -16 -18 -30 -30 -30 -25
0 5 10 19 22 32 12 13 18 26 15 29 -4 4 -16 -5 -28 -20 l-22 -27 -26 24 c-31
30 -129 83 -182 98 -35 11 -37 13 -27 40 6 16 7 36 4 45 -9 23 32 12 119 -33z
m542 41 c-3 -3 -12 -4 -19 -1 -8 3 -5 6 6 6 11 1 17 -2 13 -5z m2945 -20 c37
-19 43 -32 24 -53 -31 -34 -13 -57 19 -25 15 15 17 15 30 -2 35 -47 27 -111
-27 -219 -41 -81 -74 -126 -157 -215 -38 -41 -65 -77 -60 -81 12 -7 -39 -48
-98 -78 -46 -23 -87 -27 -129 -11 -26 10 -26 11 -8 25 10 8 37 18 58 21 71 13
169 102 268 244 14 20 16 21 12 5 -12 -42 25 17 47 74 16 44 20 71 16 124 -4
61 -8 72 -37 102 -18 19 -46 37 -62 40 -24 6 -28 11 -28 41 l0 35 53 -7 c28
-4 64 -13 79 -20z m-4632 -24 c-19 -5 -85 -13 -145 -19 -189 -19 -398 -79
-580 -166 -84 -41 -259 -151 -315 -199 -19 -15 -17 -13 5 12 16 18 68 59 115
91 220 151 469 251 695 280 92 11 274 12 225 1z m1528 -10 c-7 -10 -14 -18
-15 -16 -6 6 9 36 18 36 5 0 4 -9 -3 -20z m-1083 -54 c145 -31 295 -73 368
-105 63 -27 76 -27 48 3 -28 30 -12 43 26 22 16 -9 66 -33 113 -54 47 -21 116
-58 154 -81 73 -45 102 -46 49 -2 -51 42 -161 100 -243 128 -41 13 -79 28 -83
33 -13 12 33 40 65 40 42 0 155 -46 207 -84 58 -43 129 -116 131 -136 6 -45 1
-52 -33 -46 -41 8 -55 -3 -24 -19 12 -6 21 -19 21 -29 -1 -11 4 -16 15 -14 20
3 55 -21 64 -45 6 -16 3 -16 -24 3 -53 39 -42 14 17 -36 268 -228 401 -412
521 -723 58 -152 91 -280 109 -425 14 -121 24 -159 24 -92 0 194 -63 442 -169
662 -89 185 -222 368 -367 505 -33 31 -58 61 -56 67 1 5 -10 20 -25 32 -17 13
-21 21 -11 19 9 -2 68 -49 132 -103 254 -218 453 -534 570 -905 20 -63 36
-124 36 -136 0 -11 4 -25 9 -30 17 -19 43 -183 48 -310 7 -176 -25 -457 -68
-595 -27 -83 -112 -275 -163 -365 -63 -113 -212 -317 -366 -500 -273 -326
-481 -466 -889 -600 -173 -56 -174 -56 -305 -58 -153 -2 -353 16 -412 37 -23
8 -60 26 -83 40 -49 31 -55 32 -48 6 3 -11 3 -20 1 -20 -13 0 -107 53 -124 70
-11 11 -24 20 -29 20 -9 0 -173 95 -207 120 -18 13 -40 50 -30 50 2 0 55 -26
118 -58 62 -32 147 -68 188 -80 41 -12 109 -33 150 -48 67 -24 94 -28 255 -33
168 -6 175 -7 100 -14 -61 -6 -237 -15 -333 -17 -4 0 0 -5 8 -10 8 -5 97 -10
198 -10 198 0 310 16 460 66 92 30 276 114 367 167 172 99 443 317 569 458 66
74 31 15 -58 -97 -78 -98 -159 -170 -373 -331 -84 -63 -155 -119 -159 -124
-38 -62 370 245 482 362 100 106 280 364 388 556 75 134 80 149 136 349 80
287 110 469 109 659 -1 133 -13 92 -29 -94 -6 -79 -18 -180 -25 -225 -17 -95
-46 -218 -51 -214 -2 2 4 42 12 88 30 170 33 189 33 281 0 52 -3 132 -8 179
-10 105 -92 436 -132 539 -69 173 -235 459 -335 577 -113 134 -355 332 -521
428 -162 93 -374 165 -602 202 -112 19 -356 21 -488 4 -183 -24 -408 -86 -553
-153 -155 -71 -382 -238 -536 -393 -157 -158 -189 -203 -383 -540 -100 -173
-173 -390 -202 -594 -17 -124 -15 -358 4 -465 40 -223 126 -452 232 -615 65
-102 126 -182 132 -176 3 2 -17 42 -45 88 -149 250 -199 357 -252 537 -71 242
-81 446 -34 700 19 104 84 308 130 410 34 74 58 97 29 28 -17 -42 -20 -66 -6
-51 6 5 42 78 81 163 94 206 187 338 355 507 205 206 404 343 608 418 289 107
618 149 877 112 379 -56 649 -172 882 -380 183 -165 312 -343 454 -629 96
-194 139 -308 174 -461 25 -110 44 -145 35 -66 -17 146 -89 356 -188 550 -85
165 -163 294 -230 380 -29 38 -39 55 -22 40 78 -70 269 -369 348 -546 52 -116
73 -184 82 -270 3 -34 15 -92 25 -130 52 -180 48 -503 -9 -704 -62 -220 -109
-333 -200 -479 -26 -42 -64 -106 -84 -143 -57 -102 -156 -216 -243 -278 -42
-30 -125 -96 -183 -146 -316 -270 -452 -343 -761 -409 -69 -14 -141 -30 -160
-35 l-35 -8 46 -1 c63 -1 223 32 339 71 52 18 104 33 115 33 22 1 95 41 240
132 263 165 355 221 350 213 -9 -14 -198 -156 -270 -202 -175 -113 -420 -212
-608 -244 -127 -22 -380 -15 -532 16 -92 18 -130 32 -230 84 -188 98 -473 266
-647 384 -87 59 -180 120 -206 136 -26 15 -63 41 -82 56 -29 23 -169 88 -242
113 -37 13 -187 267 -246 417 -66 167 -100 423 -88 675 8 171 21 248 76 435
23 80 44 154 47 165 4 20 4 20 -12 0 -17 -21 -42 -100 -86 -270 -32 -124 -37
-114 -13 26 37 223 167 491 328 679 26 30 96 122 154 204 140 196 279 322 497
449 132 77 399 181 625 243 174 48 213 53 400 50 133 -3 191 -9 295 -30z
m3929 -13 c5 -17 3 -23 -7 -23 -21 0 -63 -52 -99 -124 -23 -45 -33 -83 -40
-146 -4 -46 -11 -87 -16 -91 -4 -4 -19 -11 -34 -14 -25 -6 -28 -4 -28 16 1
101 73 273 156 372 49 58 54 58 68 10z m202 -11 c13 -20 14 -26 3 -33 -18 -11
-29 -11 -29 -1 0 5 -9 19 -20 32 -11 13 -20 29 -20 36 0 20 46 -3 66 -34z
m-3478 -2 c14 -9 13 -10 -7 -4 -34 9 -91 33 -91 39 0 6 76 -21 98 -35z m3202
26 c0 -2 -8 -10 -17 -17 -16 -13 -17 -12 -4 4 13 16 21 21 21 13z m-4603 -12
c-3 -3 -12 -4 -19 -1 -8 3 -5 6 6 6 11 1 17 -2 13 -5z m-117 -34 c-47 -15
-151 -55 -232 -88 -82 -33 -148 -58 -148 -55 0 13 256 121 365 153 96 29 108
22 15 -10z m1910 10 c0 -11 -4 -20 -9 -20 -5 0 -7 9 -4 20 3 11 7 20 9 20 2 0
4 -9 4 -20z m77 -6 c-3 -3 -12 -4 -19 -1 -8 3 -5 6 6 6 11 1 17 -2 13 -5z
m2935 -60 c34 3 67 11 72 16 39 39 17 -61 -36 -162 -57 -110 -186 -246 -211
-222 -8 8 -93 -23 -135 -50 -95 -60 -211 -184 -212 -226 0 -13 1 -13 11 0 9
13 10 13 5 0 -3 -8 -11 -34 -18 -57 -12 -42 -13 -43 -54 -43 -42 0 -43 0 -34
30 38 133 213 309 355 356 12 4 15 8 8 11 -25 9 -109 -28 -175 -77 -83 -61
-168 -173 -205 -268 l-14 -37 5 36 c6 50 90 184 155 248 92 90 301 165 344
122 14 -14 27 -14 27 0 0 18 -72 41 -113 36 -32 -4 -37 -3 -33 11 3 10 14 50
25 90 24 88 64 179 93 210 l22 22 27 -26 c26 -25 32 -27 91 -20z m-298 -455
c-32 -23 -84 -62 -114 -88 -30 -25 -48 -37 -40 -27 17 21 146 127 175 144 46
26 34 9 -21 -29z m274 -47 c-4 -33 -17 -80 -31 -109 -33 -64 -164 -240 -205
-275 -46 -39 -139 -90 -159 -87 -10 1 -35 -1 -56 -6 -22 -4 -42 -4 -48 2 -5 5
5 9 26 9 19 0 40 5 45 10 7 7 -4 11 -35 11 -25 0 -50 4 -55 9 -7 7 3 9 25 6
20 -2 42 1 51 9 13 10 17 10 23 0 27 -43 229 157 299 294 11 22 23 62 27 87 5
32 13 49 25 53 9 3 25 14 35 25 30 33 38 24 33 -38z m-248 -7 c29 -17 78 -19
114 -5 14 5 26 8 26 7 0 -2 -7 -26 -15 -54 -16 -54 -69 -132 -153 -223 l-50
-55 -22 27 c-13 18 -41 34 -76 44 -66 19 -67 28 -18 110 42 70 65 97 118 135
45 33 43 33 76 14z m-5612 -32 c-44 -50 -285 -397 -320 -461 -22 -40 -42 -71
-45 -69 -11 11 143 283 210 372 31 41 158 175 166 175 2 0 -3 -8 -11 -17z
m-58 -137 c0 -2 -8 -10 -17 -17 -16 -13 -17 -12 -4 4 13 16 21 21 21 13z
m3395 -251 c30 -60 55 -114 55 -120 0 -14 -58 83 -120 202 -46 87 -48 94 -21
63 18 -19 56 -84 86 -145z m2011 103 c-45 -53 -91 -169 -117 -301 -31 -156
-34 -210 -16 -245 l15 -31 -24 16 c-37 24 -50 54 -30 65 22 12 20 28 -4 28
-24 0 -25 13 -3 47 l17 26 -33 -5 -33 -5 4 100 c3 87 7 102 25 117 12 9 25 35
28 56 9 50 52 130 83 155 17 13 41 19 74 19 l50 0 -36 -42z m-132 -3 c-32 -43
-40 -45 -19 -6 12 25 24 35 43 40 2 1 -9 -15 -24 -34z m293 -11 c2 -6 -19 -21
-46 -33 -27 -11 -53 -26 -56 -31 -8 -12 -45 -13 -64 -1 -12 7 -10 15 7 42 11
19 31 40 42 47 19 12 25 11 44 -7 31 -29 42 -26 21 6 l-18 26 33 -19 c19 -10
35 -24 37 -30z m-111 -170 c19 -3 47 -4 63 -1 l28 6 -8 -48 c-10 -65 -28 -131
-46 -164 -13 -26 -16 -27 -31 -14 -26 23 -99 57 -122 57 -13 0 -20 7 -20 18 0
27 19 132 31 170 l11 32 29 -24 c16 -14 45 -28 65 -32z m203 -60 c1 -90 -19
-156 -71 -234 l-41 -62 -26 54 c-23 47 -24 54 -9 60 36 15 83 202 59 232 -10
12 -7 18 18 30 20 11 31 12 33 5 9 -27 -11 -140 -36 -202 -31 -77 -30 -109 3
-57 33 53 54 137 55 213 0 39 3 61 7 50 4 -10 8 -50 8 -89z m-2135 -185 c13
-35 26 -80 30 -99 5 -29 -36 77 -60 153 -14 45 6 9 30 -54z m1860 30 c6 -5 26
-20 44 -35 17 -14 32 -35 32 -46 0 -14 5 -18 15 -14 26 10 51 -73 26 -88 -5
-3 -7 -15 -4 -26 14 -53 -155 -251 -264 -309 -13 -6 -23 -7 -23 -2 0 5 16 17
35 28 70 36 175 136 160 151 -2 3 -30 -18 -62 -45 -61 -52 -117 -93 -127 -93
-16 0 -3 31 17 41 90 47 191 173 207 257 13 73 -3 110 -69 152 -28 18 -48 37
-45 42 6 9 40 2 58 -13z m-5814 -99 c-16 -52 -29 -88 -29 -80 -1 19 16 83 36
138 27 72 23 42 -7 -58z m5778 55 c43 -17 72 -59 72 -102 0 -45 -45 -125 -111
-197 -82 -90 -95 -95 -112 -54 -21 50 -51 70 -107 76 -41 4 -50 2 -50 -12 0
-12 10 -16 41 -16 42 0 79 -14 79 -30 0 -6 -7 -10 -15 -10 -12 0 -11 -4 5 -20
31 -31 28 -128 -5 -180 -64 -101 -280 -312 -299 -292 -4 4 -14 -1 -21 -11 -8
-11 -31 -21 -55 -24 -40 -6 -42 -5 -35 16 5 15 2 21 -9 21 -9 0 -16 -7 -16
-15 0 -25 -40 -17 -71 14 -38 39 -38 67 1 76 22 5 38 1 61 -16 29 -21 35 -21
82 -9 27 7 73 29 101 49 99 72 226 203 226 235 0 3 -6 6 -13 6 -9 0 -13 15
-13 48 1 28 -5 56 -13 66 -19 22 -26 13 -9 -13 9 -15 9 -24 2 -31 -19 -19 -47
65 -38 114 13 85 43 131 126 197 l37 30 41 -41 c33 -33 46 -40 63 -34 12 4 30
7 40 6 9 0 17 3 17 9 0 5 -6 9 -14 9 -19 0 -46 44 -46 74 0 23 22 41 48 37 6
-1 12 3 12 9 0 5 -11 10 -25 10 -14 0 -25 5 -25 10 0 13 3 13 48 -5z m-176
-31 c4 -3 -25 -36 -63 -73 -78 -77 -96 -111 -104 -202 -7 -76 4 -120 32 -135
13 -6 19 -15 14 -22 -11 -18 -80 34 -97 73 -10 25 -11 41 -3 64 6 17 9 38 6
45 -11 27 53 124 125 191 70 64 79 71 90 59z m-1605 -126 c-3 -7 -5 -2 -5 12
0 14 2 19 5 13 2 -7 2 -19 0 -25z m-4006 -104 c-6 -32 -12 -186 -12 -343 -2
-301 -7 -306 -30 -25 -12 161 -6 255 27 373 21 75 29 73 15 -5z m5349 -78 c0
-7 3 -27 6 -43 5 -26 2 -31 -24 -42 -17 -7 -46 -24 -64 -37 -51 -37 -148 -136
-148 -149 0 -7 -11 -15 -25 -17 -40 -8 -31 22 34 109 63 84 91 113 160 162 49
34 61 38 61 17z m67 -128 c16 -10 38 -18 51 -18 27 0 27 -6 1 -50 -39 -64 -90
-118 -139 -150 l-49 -31 -39 39 c-22 22 -49 43 -61 47 -12 3 -21 10 -21 15 0
15 130 128 173 150 23 12 32 20 20 17 -27 -6 -29 1 -5 19 14 11 19 11 29 -3 7
-9 25 -25 40 -35z m-1606 -144 c0 -37 -3 -69 -6 -72 -3 -3 -5 30 -5 73 0 43 3
76 6 72 3 -3 6 -36 5 -73z m1407 -85 c17 -16 32 -34 32 -38 0 -24 -81 -28
-100 -6 -16 19 -55 19 -113 -1 -59 -20 -120 -86 -171 -186 -42 -82 -54 -144
-36 -177 15 -30 69 -61 103 -61 27 0 28 -2 22 -32 -11 -48 -14 -50 -54 -43
-70 13 -139 73 -125 109 4 10 1 16 -9 16 -21 0 -30 75 -17 134 25 112 113 214
239 279 61 31 83 37 135 37 54 0 65 -3 94 -31z m-178 -104 c0 -33 31 -74 65
-86 19 -7 35 -16 35 -21 0 -9 -31 -101 -35 -107 -2 -1 -20 10 -40 25 -64 49
-162 34 -178 -27 -7 -26 6 -24 18 4 9 19 17 22 62 22 65 -1 108 -34 98 -74 -5
-20 -4 -23 8 -13 12 10 16 5 26 -31 18 -62 -1 -152 -54 -262 -52 -106 -143
-231 -168 -229 -11 1 -17 -6 -17 -20 0 -23 -21 -46 -77 -85 -23 -15 -54 -24
-102 -28 -61 -5 -71 -3 -90 16 -36 36 -25 71 29 99 24 12 62 22 83 22 l39 0
-23 -20 c-33 -27 -10 -25 49 5 57 29 84 66 148 203 54 116 74 187 74 264 0 48
-4 61 -25 82 -21 21 -25 22 -25 7 0 -9 7 -26 15 -37 20 -26 20 -58 -1 -50 -9
3 -22 6 -30 6 -8 0 -26 11 -39 25 -29 29 -33 77 -10 133 21 51 97 162 111 162
6 0 17 7 24 15 16 19 30 19 30 0z m220 -97 c0 -21 -51 -140 -80 -186 l-28 -45
-20 44 c-19 42 -19 45 -2 74 10 17 23 46 29 67 10 30 19 38 49 46 51 14 52 14
52 0z m-5263 -20 c-3 -8 -6 -5 -6 6 -1 11 2 17 5 13 3 -3 4 -12 1 -19z m3760
-90 c-3 -8 -6 -5 -6 6 -1 11 2 17 5 13 3 -3 4 -12 1 -19z m-3750 -30 c-3 -8
-6 -5 -6 6 -1 11 2 17 5 13 3 -3 4 -12 1 -19z m3703 -153 c-45 -154 -118 -313
-201 -439 -60 -91 -255 -291 -350 -358 -95 -68 -236 -154 -220 -134 19 23 202
172 261 213 84 59 224 216 283 319 150 261 181 318 207 387 17 43 36 101 43
130 6 29 13 45 15 37 1 -8 -16 -78 -38 -155z m-3693 113 c-3 -8 -6 -5 -6 6 -1
11 2 17 5 13 3 -3 4 -12 1 -19z m4677 -115 c-55 -71 -97 -167 -91 -206 7 -46
-3 -65 -51 -93 l-42 -25 0 28 c0 45 26 131 64 216 42 91 78 142 115 162 24 12
27 12 34 -10 6 -19 1 -33 -29 -72z m-4650 17 c4 -24 3 -29 -3 -15 -4 11 -11
36 -15 55 -4 24 -3 29 3 15 4 -11 11 -36 15 -55z m3703 -2 c-3 -8 -6 -5 -6 6
-1 11 2 17 5 13 3 -3 4 -12 1 -19z m1024 -32 c24 -31 99 -60 139 -54 16 3 30
3 30 1 0 -16 -81 -204 -95 -221 -1 -1 -23 7 -50 19 -36 16 -62 20 -105 17
l-57 -4 22 65 c23 67 85 201 93 201 2 0 13 -11 23 -24z m-5406 -80 c154 -40
303 -99 503 -198 100 -50 181 -92 179 -95 -3 -2 -69 22 -148 53 -129 50 -199
77 -494 186 -117 43 -221 68 -295 69 -48 0 -60 3 -45 10 34 16 194 2 300 -25z
m-338 -33 c7 -123 11 -141 36 -188 93 -170 315 -385 622 -604 260 -185 476
-320 845 -526 96 -53 213 -119 260 -145 280 -158 548 -279 817 -369 269 -90
620 -170 685 -157 13 3 42 7 66 10 39 6 42 5 42 -17 0 -14 -16 -39 -41 -62
-27 -27 -38 -33 -33 -20 7 19 6 19 -17 -2 -55 -50 -237 -114 -264 -93 -5 4
-57 10 -115 14 -132 9 -304 38 -350 60 l-35 16 40 -5 c156 -18 339 -35 388
-35 92 0 65 17 -40 25 -53 4 -104 11 -112 16 -9 5 -58 22 -109 38 -96 30 -124
22 -36 -11 l49 -18 -75 6 c-41 3 -118 13 -170 24 -155 29 -165 31 -155 22 6
-5 39 -19 75 -30 87 -27 198 -71 183 -71 -13 -1 -78 18 -258 76 -217 70 -787
329 -987 449 -236 142 -596 393 -692 483 -80 75 -286 325 -317 384 -12 22 -12
22 10 3 36 -32 23 -8 -22 42 -24 26 -65 78 -91 115 -26 37 -85 104 -131 149
-73 70 -87 90 -109 150 -32 86 -34 165 -5 227 16 37 37 71 43 71 0 0 2 -12 3
-27z m20 -25 c-2 -13 -4 -5 -4 17 -1 22 1 32 4 23 2 -10 2 -28 0 -40z m62 21
c-22 -42 15 -147 87 -245 l35 -49 -45 50 c-62 67 -116 171 -116 224 0 37 2 41
25 41 23 0 25 -2 14 -21z m136 -19 c44 -11 98 -26 119 -34 39 -14 39 -14 -50
-13 -62 0 -100 -5 -124 -16 l-35 -16 50 7 c80 11 194 3 274 -19 78 -21 174
-59 168 -66 -3 -2 -47 7 -99 21 -51 13 -129 29 -172 35 -80 11 -193 15 -184 6
3 -3 61 -12 129 -20 236 -28 376 -72 680 -214 129 -60 248 -116 264 -124 17
-9 120 -57 230 -107 110 -50 249 -122 310 -159 60 -38 166 -101 235 -141 210
-121 261 -153 256 -157 -10 -10 -616 323 -673 369 -7 6 -13 7 -13 2 1 -30 599
-376 720 -417 106 -36 338 -159 430 -228 153 -116 251 -202 331 -291 l74 -82
-95 80 c-192 162 -480 363 -480 335 0 -6 26 -28 58 -48 121 -77 362 -265 469
-368 99 -93 114 -113 130 -161 21 -66 38 -71 29 -8 -15 115 -221 358 -433 511
-35 24 -63 47 -63 49 0 31 342 -263 496 -427 86 -90 103 -115 116 -160 l15
-54 -41 -6 c-23 -4 -57 -9 -76 -13 -34 -5 -34 -5 5 8 52 18 35 23 -90 29 -121
6 -161 20 -501 172 -322 144 -588 274 -769 374 -143 80 -315 181 -315 186 0 1
12 0 28 -2 16 -3 -12 17 -68 49 -114 64 -184 111 -227 151 -17 16 -37 27 -44
25 -11 -4 53 -62 121 -110 55 -39 -260 132 -531 288 -196 113 -437 275 -511
343 -127 117 -268 337 -268 417 0 30 17 31 125 4z m4608 -45 c-3 -9 -8 -14
-10 -11 -3 3 -2 9 2 15 9 16 15 13 8 -4z m-41 -96 c-61 -145 -186 -327 -314
-460 -34 -36 -54 -55 -44 -42 11 12 17 25 14 28 -3 3 -54 -51 -113 -120 -59
-69 -110 -125 -113 -125 -10 0 136 174 273 325 15 17 11 8 -10 -18 -60 -78
-33 -65 32 15 75 92 188 261 250 378 26 49 49 87 50 86 2 -1 -10 -31 -25 -67z
m-4692 -44 c36 -59 180 -204 335 -339 181 -157 548 -419 775 -552 33 -19 60
-37 60 -40 0 -16 -302 171 -505 314 -288 202 -432 318 -536 430 -71 78 -189
244 -189 265 1 14 12 -1 60 -78z m5669 42 c34 -17 35 -28 6 -60 -23 -24 -33
-27 -85 -27 -63 0 -136 -23 -158 -49 -87 -107 -99 -284 -28 -418 14 -26 26
-61 26 -77 l0 -30 -41 39 c-83 81 -112 181 -89 311 17 96 61 200 83 196 10 -2
17 4 17 13 0 45 68 98 96 74 14 -11 15 -10 18 12 3 28 111 39 155 16z m-4549
-95 c43 -73 50 -92 24 -71 -14 11 -74 120 -74 134 0 15 13 -1 50 -63z m-150
-54 c63 -22 131 -50 150 -62 19 -13 110 -67 202 -121 92 -55 166 -100 164
-102 -3 -3 -318 149 -346 167 -8 5 -85 46 -170 91 -85 44 -146 78 -135 74 11
-4 72 -25 135 -47z m4875 -49 c14 -65 14 -79 0 -160 -18 -109 -18 -119 0 -95
8 11 15 15 15 9 0 -7 -6 -18 -14 -25 -18 -18 -46 -74 -41 -80 12 -12 -94 -106
-133 -119 -23 -8 -41 -18 -39 -24 3 -15 36 -8 89 20 l48 24 35 -72 c54 -110
70 -221 35 -232 -11 -4 -34 -18 -51 -32 l-31 -27 -19 25 c-43 55 -91 154 -124
255 -19 59 -35 109 -35 110 0 1 15 6 33 9 69 15 123 78 171 197 29 73 33 145
12 213 -10 33 -10 44 2 62 8 13 18 21 22 18 5 -3 16 -37 25 -76z m-5951 -41
c19 -43 33 -78 31 -78 -6 0 -61 109 -70 140 -13 42 1 19 39 -62z m1364 24 c55
-32 53 -36 -5 -11 -50 21 -99 57 -58 43 11 -4 39 -18 63 -32z m4178 22 c-10
-25 40 -103 70 -110 57 -14 154 22 220 83 21 18 40 31 43 28 3 -4 7 -39 9 -78
3 -56 -1 -85 -18 -129 -12 -32 -23 -58 -26 -58 -2 0 -22 12 -44 26 -33 22 -48
26 -86 21 -25 -2 -59 -14 -75 -26 -32 -24 -47 -27 -30 -7 18 21 -4 29 -22 8
-9 -10 -24 -36 -35 -60 l-19 -42 -23 76 c-27 91 -23 167 12 238 21 44 37 63
24 30z m-5332 -235 c13 -22 15 -30 5 -23 -129 97 -137 105 -163 159 -14 30
-26 59 -26 63 1 13 164 -164 184 -199z m-165 52 c40 -71 74 -138 76 -150 6
-33 82 -116 265 -293 120 -116 150 -149 110 -122 -104 71 -407 394 -407 434 0
8 -14 36 -31 61 -27 40 -92 176 -92 193 0 17 14 -6 79 -123z m1506 51 c44 -31
82 -57 84 -59 2 -1 -2 -9 -8 -17 -11 -12 -29 -5 -124 50 -126 73 -146 89 -104
82 19 -4 27 -1 27 9 0 18 20 8 125 -65z m4081 40 c-10 -2 -22 0 -28 6 -6 6 0
7 19 4 21 -5 23 -7 9 -10z m-5546 -112 c6 -11 8 -20 6 -20 -3 0 -10 9 -16 20
-6 11 -8 20 -6 20 3 0 10 -9 16 -20z m147 -96 c18 -18 50 -59 71 -92 21 -33
54 -79 72 -103 25 -34 15 -26 -44 31 -78 75 -176 189 -212 245 -18 29 -17 29
31 -9 28 -22 64 -54 82 -72z m1570 5 c58 -38 102 -69 97 -69 -4 0 -62 30 -130
66 -84 45 -121 70 -117 80 6 17 12 14 150 -77z m258 -180 c66 -37 137 -75 158
-85 21 -10 36 -23 33 -30 -2 -6 1 -17 7 -23 18 -18 -5 -12 -43 11 -19 11 -100
59 -180 106 -80 47 -158 95 -175 107 -16 13 -68 43 -115 68 -47 26 -94 53
-105 62 -27 21 273 -133 420 -216z m3729 210 l44 -22 -21 -35 c-23 -39 -71
-72 -105 -72 -22 0 -22 1 -7 37 20 46 32 55 70 47 27 -6 28 -5 16 10 -21 25
-63 19 -101 -13 -34 -28 -35 -31 -33 -92 2 -79 42 -208 84 -274 74 -116 105
-159 128 -176 28 -23 95 -25 131 -4 57 32 89 9 75 -55 -7 -33 -38 -55 -62 -46
-9 4 -21 0 -27 -9 -10 -13 -16 -12 -52 4 -95 43 -186 140 -251 266 -81 160
-104 225 -101 292 2 47 7 65 31 95 31 39 78 67 114 68 12 0 42 -10 67 -21z
m-5014 -121 c93 -56 500 -291 595 -343 39 -21 151 -87 250 -145 360 -214 493
-283 1113 -576 51 -24 115 -53 142 -65 28 -12 49 -23 47 -26 -9 -8 -351 102
-502 162 -192 76 -433 189 -573 268 -56 32 -102 60 -102 62 0 2 76 -35 169
-81 93 -46 213 -100 267 -120 109 -39 116 -33 14 11 -143 62 -453 218 -585
296 -246 144 -618 378 -730 459 -158 114 -275 203 -275 207 0 3 21 -11 48 -29
26 -19 81 -55 122 -80z m-363 -177 c163 -158 171 -168 94 -109 -107 80 -277
247 -324 318 -50 75 -46 83 7 18 24 -30 125 -132 223 -227z m5577 71 c24 -48
51 -118 60 -157 9 -38 19 -76 21 -82 3 -9 -6 -13 -24 -13 -25 0 -30 5 -36 38
-8 43 -88 217 -112 244 -15 17 -15 20 7 43 13 13 27 22 32 19 5 -3 28 -45 52
-92z m-1774 -35 c0 -2 -10 -12 -22 -23 l-23 -19 19 23 c18 21 26 27 26 19z
m-2640 -283 c0 -2 -13 2 -30 11 -16 9 -30 18 -30 21 0 2 14 -2 30 -11 17 -9
30 -18 30 -21z m4523 20 c66 -21 86 -39 32 -27 -51 10 -123 7 -139 -7 -7 -5
-15 -8 -18 -5 -3 3 -11 -1 -18 -10 -15 -17 -46 -20 -56 -4 -14 23 61 69 114
69 18 0 57 -7 85 -16z m-5275 -179 c179 -120 227 -154 227 -163 0 -4 22 -21
50 -38 27 -17 145 -88 260 -159 116 -70 215 -132 220 -137 38 -35 -290 139
-442 234 -114 72 -311 207 -317 217 -4 5 41 -19 100 -55 58 -36 108 -64 110
-62 2 2 -51 39 -117 83 -188 122 -339 237 -339 257 0 5 27 -14 61 -42 33 -28
118 -89 187 -135z m522 149 c0 -2 -13 2 -30 11 -16 9 -30 18 -30 21 0 2 14 -2
30 -11 17 -9 30 -18 30 -21z m70 -40 c0 -2 -13 2 -30 11 -16 9 -30 18 -30 21
0 2 14 -2 30 -11 17 -9 30 -18 30 -21z m50 -30 c0 -2 -9 0 -20 6 -11 6 -20 13
-20 16 0 2 9 0 20 -6 11 -6 20 -13 20 -16z m2159 22 c-7 -7 -114 -46 -124 -45
-5 0 17 11 50 24 57 23 84 30 74 21z m2622 -53 c8 -9 -5 -2 -28 17 -24 18 -43
35 -43 37 0 7 56 -35 71 -54z m-3346 -13 c24 -7 21 -8 -18 -5 -27 2 -51 6 -54
9 -9 8 35 5 72 -4z m365 -46 c-65 -13 -127 -18 -119 -9 8 7 109 23 149 23 25
0 17 -4 -30 -14z m-192 -4 c20 0 31 -4 27 -10 -3 -5 -44 -10 -89 -10 -66 0
-86 4 -97 17 -13 15 -9 16 56 10 39 -4 85 -7 103 -7z m-1031 -624 c72 -31 137
-56 145 -57 9 0 10 -2 1 -6 -20 -8 -343 126 -343 142 0 3 15 -1 33 -9 17 -7
91 -39 164 -70z m1393 41 c0 -5 -4 -5 -10 -2 -5 3 -10 14 -10 23 0 15 2 15 10
2 5 -8 10 -19 10 -23z m-1482 -58 c40 -17 70 -34 68 -36 -2 -2 -41 14 -87 37
-97 47 -87 47 19 -1z m393 -119 c184 -53 396 -84 624 -91 30 -1 30 -1 5 -9
-55 -20 -218 -28 -292 -15 -141 25 -313 75 -408 119 -72 34 -55 33 71 -4z"/>
<path d="M8590 7865 c0 -14 30 -63 46 -76 16 -12 17 -12 10 1 -4 8 1 4 12 -10
12 -14 24 -21 28 -17 9 9 -36 58 -47 51 -4 -2 -15 9 -24 26 -14 28 -25 38 -25
25z"/>
<path d="M3855 6125 c-38 -7 -115 -28 -170 -45 -55 -17 -131 -35 -170 -39 -38
-5 -95 -18 -126 -30 -68 -26 -275 -160 -345 -224 -47 -43 -259 -311 -362 -460
-94 -135 -205 -394 -249 -580 -24 -100 -26 -130 -25 -282 2 -196 14 -316 47
-470 29 -134 53 -197 134 -345 107 -195 227 -350 303 -390 23 -12 76 -50 118
-85 170 -141 480 -318 670 -382 96 -32 151 -33 475 -16 94 6 171 9 173 7 2 -1
-23 -8 -55 -14 -84 -18 -102 -33 -28 -25 144 16 440 110 573 181 258 140 461
306 634 518 110 135 154 199 206 301 40 80 89 222 80 231 -3 2 -20 -35 -38
-83 -33 -88 -99 -217 -106 -210 -3 2 4 25 15 50 55 129 157 497 176 635 26
191 -8 431 -88 624 -54 130 -154 331 -219 442 -107 181 -327 429 -421 475 -61
29 -86 21 -27 -9 62 -31 240 -213 335 -342 93 -126 179 -282 275 -498 102
-231 138 -397 127 -599 -7 -131 -13 -159 -99 -466 -68 -247 -105 -342 -166
-432 -46 -68 -73 -93 -48 -45 19 36 19 42 6 42 -5 0 -10 -6 -10 -12 0 -7 -12
-36 -27 -65 -19 -39 -58 -81 -155 -167 -84 -76 -133 -113 -143 -110 -9 4 -45
-14 -88 -43 -107 -74 -199 -124 -343 -185 -170 -73 -290 -111 -454 -143 -158
-31 -275 -29 -449 5 -57 11 -106 18 -109 16 -9 -9 43 -27 138 -46 l95 -20 -83
5 c-55 3 -112 15 -173 35 -93 31 -149 57 -99 46 82 -19 94 -13 20 9 -83 26
-258 116 -386 199 -77 50 -104 69 -85 60 33 -17 -4 18 -77 71 -190 136 -382
424 -449 673 -25 93 -43 129 -43 84 0 -15 27 -123 45 -177 6 -16 5 -17 -4 -5
-7 10 -11 11 -11 2 0 -33 186 -334 268 -430 61 -73 47 -76 -18 -5 -60 65 -162
216 -209 309 -37 74 -64 147 -51 139 14 -9 13 -6 -16 71 -52 137 -92 424 -66
477 5 12 15 69 22 127 23 213 67 412 120 555 22 60 153 293 238 423 8 12 12
22 8 22 -3 0 -27 -32 -52 -70 -26 -39 -49 -68 -51 -66 -11 11 89 140 181 235
62 65 86 94 61 76 -31 -22 -36 -24 -21 -7 40 46 131 107 273 184 315 170 628
252 953 250 150 0 252 -22 388 -81 91 -39 128 -40 55 -2 -48 26 -40 26 30 2
32 -11 57 -18 57 -15 0 9 -121 61 -180 77 -246 69 -533 95 -705 62z m270 -15
l50 -7 -55 -2 c-100 -2 -223 -21 -365 -56 -173 -42 -219 -58 -369 -129 -65
-31 -120 -55 -122 -53 -2 2 34 26 80 54 83 49 144 73 374 148 143 46 294 63
407 45z m-706 -129 c-132 -67 -336 -211 -448 -315 l-45 -41 42 51 c91 112 325
275 472 330 63 23 56 15 -21 -25z m-664 -651 c-1 -3 -27 -48 -58 -100 -60
-102 -185 -398 -214 -505 -10 -38 -23 -65 -30 -65 -15 0 -14 6 24 149 43 166
112 323 204 467 50 77 64 93 70 78 3 -10 6 -21 4 -24z m-254 -716 c-29 -217
-30 -219 -26 -99 3 99 30 263 41 252 3 -3 -4 -72 -15 -153z m-60 -99 l-8 -80
-2 85 c-1 89 11 167 17 105 1 -16 -2 -66 -7 -110z m2688 -1341 c-23 -27 -216
-150 -317 -202 -145 -74 -266 -118 -386 -141 -140 -27 -163 -26 -51 3 179 47
474 180 655 295 97 62 123 73 99 45z"/>
<path d="M3813 5953 c-63 -15 -84 -33 -39 -33 l24 0 -21 -57 c-11 -32 -21 -59
-22 -61 -2 -3 -85 78 -85 83 0 2 9 5 20 7 22 3 23 21 2 25 -19 2 -102 -30
-102 -39 0 -4 8 -8 18 -8 9 0 43 -29 74 -64 l58 -65 -22 -83 c-12 -49 -29 -89
-40 -97 -46 -35 9 -43 72 -11 48 24 51 34 10 28 -35 -5 -37 2 -12 81 l17 53
52 -60 c33 -38 48 -62 40 -65 -6 -2 -9 -7 -6 -11 4 -4 41 2 83 14 41 11 78 20
81 20 3 0 5 5 5 10 0 6 -11 10 -25 10 -29 0 -27 -7 -51 178 -17 130 -17 132 2
147 18 13 16 14 -26 14 -25 -1 -73 -8 -107 -16z m67 -16 c0 -24 33 -225 43
-264 8 -29 12 -55 9 -58 -17 -16 -43 5 -94 75 l-58 78 20 57 c11 32 20 67 20
77 0 10 10 23 23 28 24 9 37 12 37 7z m17 -19 c-3 -8 -6 -5 -6 6 -1 11 2 17 5
13 3 -3 4 -12 1 -19z"/>
<path d="M4390 5951 c0 -5 8 -12 18 -15 15 -5 17 -18 16 -103 l-2 -98 -53 -44
c-29 -24 -64 -47 -76 -52 -13 -5 -23 -12 -23 -16 0 -9 78 -43 98 -43 21 0 13
16 -15 29 l-28 13 49 44 c28 24 52 42 54 40 2 -2 7 -32 12 -66 8 -56 7 -65
-12 -90 -26 -35 -19 -55 21 -63 17 -4 31 -10 31 -15 0 -5 -52 -103 -116 -218
-162 -291 -224 -414 -263 -521 l-33 -93 -38 0 c-47 0 -85 -33 -100 -89 -15
-56 -4 -106 32 -141 28 -28 39 -32 97 -35 19 -1 27 -11 43 -53 20 -54 47 -86
237 -286 100 -107 103 -110 83 -126 -11 -9 -23 -30 -26 -46 -6 -28 -4 -31 61
-62 37 -19 98 -52 135 -74 37 -22 72 -37 77 -34 5 4 14 -2 20 -11 19 -33 10 2
-42 161 -51 155 -53 159 -82 162 -16 2 -37 -4 -46 -12 -16 -14 -20 -12 -46 28
-16 24 -59 93 -95 153 -58 97 -174 244 -198 253 -5 2 -5 14 1 28 15 41 10 90
-11 117 l-21 26 71 106 c69 102 167 306 230 475 16 41 47 115 70 163 34 73 44
88 58 81 18 -8 60 -9 68 -2 2 3 9 44 15 91 7 48 15 85 19 82 4 -2 27 38 51 90
40 85 46 93 67 88 19 -5 23 -2 20 12 -5 25 -259 137 -275 121 -4 -3 2 -13 13
-21 18 -14 17 -16 -26 -54 -25 -22 -48 -37 -52 -33 -3 4 -8 31 -10 60 -3 48
-1 52 20 52 39 0 23 19 -30 35 -60 18 -68 18 -68 6z m245 -103 c14 -6 25 -17
25 -25 0 -16 17 -18 22 -2 2 7 18 3 41 -11 31 -18 35 -25 25 -37 -6 -8 -24
-40 -40 -71 l-28 -57 4 60 c2 32 1 65 -2 73 -3 9 -37 -19 -103 -84 -54 -54
-100 -96 -103 -93 -2 2 -2 37 1 76 l6 73 56 47 c31 27 58 51 59 55 5 10 6 10
37 -4z m-74 -275 c-18 -31 -34 -47 -44 -45 -10 2 -17 -3 -17 -9 0 -7 -3 -9 -7
-5 -5 5 84 106 94 106 1 0 -10 -21 -26 -47z m35 -47 c-8 -44 -23 -55 -22 -17
1 16 4 27 9 24 4 -2 7 6 7 18 0 12 3 20 6 16 4 -3 3 -22 0 -41z m-63 -101 c-3
-9 -8 -14 -10 -11 -3 3 -2 9 2 15 9 16 15 13 8 -4z m-242 -478 c-10 -9 -11 -8
-5 6 3 10 9 15 12 12 3 -3 0 -11 -7 -18z m-25 -49 c-18 -26 -22 -17 -5 14 6
11 13 17 16 15 3 -3 -2 -16 -11 -29z m-187 -382 c9 -10 8 -16 -4 -26 -17 -14
-45 -7 -45 13 0 29 30 37 49 13z m61 -126 c0 -5 -2 -10 -4 -10 -3 0 -8 5 -11
10 -3 6 -1 10 4 10 6 0 11 -4 11 -10z m365 -545 c4 -30 2 -30 -16 -8 -12 14
-12 15 0 9 10 -7 12 -3 6 15 -4 13 -4 21 0 17 4 -4 9 -19 10 -33z"/>
<path d="M4826 5927 c2 -7 36 -29 74 -50 101 -55 285 -202 347 -277 61 -74
142 -207 198 -325 21 -44 52 -96 70 -116 39 -44 87 -143 127 -264 28 -84 30
-102 35 -285 9 -323 -25 -505 -162 -869 -25 -68 -44 -125 -41 -128 11 -11 87
171 139 332 63 197 79 296 86 535 6 202 7 211 18 155 7 -33 16 -80 21 -105
l10 -45 1 60 c1 64 -17 151 -67 331 -41 147 -70 223 -133 345 -126 245 -280
429 -480 576 -118 87 -255 160 -243 130z m622 -570 c38 -60 102 -181 102 -192
0 -3 -13 9 -29 27 -24 28 -126 228 -116 228 2 0 21 -28 43 -63z m249 -649 c-3
-8 -6 -5 -6 6 -1 11 2 17 5 13 3 -3 4 -12 1 -19z"/>
<path d="M3143 5624 c-37 -28 -43 -49 -14 -39 17 5 20 0 26 -42 3 -26 8 -58
11 -70 2 -13 3 -23 2 -23 -2 1 -32 9 -66 18 -55 16 -62 20 -48 31 18 15 21 31
6 31 -13 0 -90 -77 -90 -90 0 -13 13 -13 27 1 13 13 157 -25 171 -45 5 -6 16
-44 25 -84 13 -58 14 -76 5 -92 -24 -38 3 -33 44 8 23 23 39 44 35 48 -3 4
-13 1 -21 -5 -18 -15 -22 -8 -31 63 -6 53 -5 58 10 52 10 -3 37 -11 61 -17 43
-11 54 -22 34 -34 -5 -3 -10 -10 -10 -16 0 -19 22 -8 63 32 35 34 38 40 19 36
-21 -5 -167 37 -184 52 -15 13 -40 173 -29 184 6 6 11 15 11 19 0 15 -25 8
-57 -18z"/>
<path d="M5140 5513 c0 -3 7 -14 15 -23 14 -16 11 -21 -32 -56 -27 -21 -82
-71 -124 -111 -66 -64 -78 -72 -89 -58 -15 18 -30 20 -30 2 0 -20 69 -97 87
-97 9 0 13 6 9 15 -3 8 -8 21 -11 28 -4 8 14 30 42 53 26 21 81 68 122 103 66
57 75 62 86 48 13 -18 35 -23 35 -8 0 17 -80 111 -95 111 -8 0 -15 -3 -15 -7z"/>
<path d="M2762 5090 c-11 -24 -18 -48 -15 -53 3 -5 9 -4 13 3 4 7 18 -7 38
-37 l32 -48 -38 -7 c-64 -12 -75 -10 -69 12 3 12 0 20 -8 20 -14 0 -73 -116
-82 -162 -4 -21 -2 -28 11 -28 9 0 16 7 16 15 0 21 8 19 96 -22 43 -20 104
-44 134 -54 50 -16 55 -19 52 -44 -5 -48 19 -22 49 50 15 39 28 78 28 88 1 24
-20 22 -26 -3 -3 -11 -8 -20 -12 -20 -3 1 -23 25 -44 55 -32 46 -35 55 -20 56
10 0 42 4 71 8 52 7 53 7 47 -16 -9 -39 14 -26 37 22 21 44 19 70 -4 47 -8 -8
-47 -12 -104 -12 l-92 0 -38 53 c-21 28 -41 68 -44 87 l-7 35 -21 -45z m152
-258 c27 -39 48 -74 45 -76 -3 -3 -32 5 -64 18 -33 13 -95 35 -137 51 -59 20
-78 32 -78 45 0 19 22 25 125 33 58 5 55 7 109 -71z"/>
<path d="M5460 4940 c0 -24 -8 -27 -133 -60 -72 -19 -147 -42 -165 -52 -33
-16 -33 -16 -44 8 -13 27 -28 32 -28 8 0 -17 37 -156 51 -192 12 -31 30 -18
23 17 -6 27 -5 28 48 34 29 3 104 20 166 38 92 27 115 31 121 20 10 -16 31 -6
31 16 0 26 -41 150 -55 170 -14 17 -14 17 -15 -7z m16 -95 c4 -14 5 -27 3 -28
-2 -1 -65 -18 -139 -36 -74 -19 -147 -40 -162 -47 -25 -13 -27 -13 -33 17 -4
17 -5 33 -2 35 2 3 44 16 93 29 49 13 107 30 129 39 22 8 55 15 72 15 27 1 34
-4 39 -24z"/>
<path d="M2905 4460 c-5 -16 -15 -20 -48 -20 -23 -1 -91 -14 -152 -29 -60 -16
-111 -24 -113 -20 -2 5 -8 9 -14 9 -19 0 9 -189 43 -297 12 -39 29 -43 29 -8
l0 25 132 0 c72 0 129 -3 125 -6 -7 -8 -227 -132 -241 -137 -11 -4 15 -67 26
-67 5 0 8 8 8 18 0 13 31 36 108 77 138 75 182 104 182 121 0 8 -10 15 -22 15
-13 1 -93 4 -178 8 -128 5 -155 9 -158 21 -2 12 13 19 66 28 38 6 107 25 155
41 l86 29 14 -21 c23 -34 25 -6 6 78 -10 44 -21 97 -24 118 -6 40 -20 48 -30
17z m5 -74 c0 -20 -6 -24 -46 -30 -25 -3 -92 -19 -149 -36 -56 -16 -106 -30
-109 -30 -3 0 -6 13 -6 30 0 23 5 31 23 34 12 3 72 16 132 29 146 33 155 33
155 3z m20 -75 c0 -14 -10 -20 -42 -24 -37 -5 -201 -52 -249 -72 -12 -4 -18 1
-21 20 -4 20 -1 26 16 30 11 2 75 18 141 34 147 35 155 36 155 12z"/>
<path d="M5120 4273 c-12 -32 -23 -69 -25 -83 -1 -14 -9 -41 -18 -60 -21 -51
-30 -97 -18 -104 5 -4 12 3 16 14 6 19 8 19 63 -9 31 -16 86 -38 122 -51 147
-50 151 -52 146 -66 -3 -8 1 -14 8 -14 7 0 19 19 26 43 8 23 17 47 21 52 16
22 49 131 49 162 0 40 -17 44 -26 6 -6 -23 -8 -24 -19 -9 -13 17 -185 88 -261
107 -39 10 -44 14 -44 40 0 46 -17 34 -40 -28z m190 -97 c74 -31 141 -56 148
-56 14 0 16 -28 3 -49 -7 -11 -24 -7 -92 22 -46 19 -119 48 -161 62 -43 15
-78 30 -78 34 0 3 3 16 7 29 7 28 -4 30 173 -42z m5 -111 c44 -13 92 -27 106
-30 25 -6 26 -8 16 -41 -10 -34 -33 -44 -53 -24 -6 6 -71 34 -144 64 -74 30
-136 58 -137 63 -2 6 1 22 6 36 l10 26 58 -35 c32 -19 94 -46 138 -59z"/>
<path d="M3051 3904 c15 -18 17 -16 -148 -152 -45 -37 -83 -74 -83 -82 0 -12
-4 -11 -15 4 -8 11 -18 17 -21 13 -13 -12 7 -58 59 -133 55 -82 81 -103 75
-63 -3 21 10 31 117 86 66 33 121 60 123 58 2 -2 -12 -23 -30 -48 -18 -24 -53
-72 -77 -106 -33 -46 -50 -61 -68 -61 -27 0 -27 0 6 -52 27 -45 42 -49 39 -10
-1 21 17 52 74 127 72 95 128 179 128 190 0 17 -60 -3 -193 -65 -104 -48 -153
-66 -158 -59 -4 7 13 28 44 52 29 22 87 72 130 110 72 64 79 68 91 52 7 -10
16 -14 19 -9 8 15 -91 164 -110 164 -13 0 -13 -2 -2 -16z m27 -123 c-18 -14
-69 -58 -113 -96 -119 -104 -110 -99 -128 -71 -16 23 -15 24 39 60 30 20 87
68 127 106 l72 69 18 -21 c18 -21 17 -22 -15 -47z"/>
<path d="M4846 3713 c-38 -40 -46 -59 -21 -49 10 4 55 -35 139 -119 165 -168
152 -176 -68 -45 -92 55 -171 98 -176 95 -19 -12 93 -255 148 -317 14 -16 13
-20 -3 -38 -11 -13 -15 -24 -9 -29 5 -6 29 9 58 35 50 43 58 66 16 44 -12 -6
-23 -10 -25 -8 -9 9 -123 243 -120 246 3 4 233 -133 249 -148 5 -6 4 -15 -4
-25 -7 -8 -10 -19 -6 -22 7 -7 146 126 146 139 0 13 -22 9 -41 -8 -16 -14 -20
-12 -62 33 -24 26 -67 76 -95 109 -28 34 -62 71 -76 82 -22 17 -24 21 -11 32
8 7 15 16 15 21 0 18 -20 8 -54 -28z m80 -75 l29 -33 -32 29 c-31 28 -38 36
-30 36 2 0 16 -15 33 -32z"/>
<path d="M3478 3462 l23 -18 -35 -74 c-19 -41 -47 -116 -62 -167 -23 -78 -30
-91 -44 -83 -9 5 -22 5 -29 1 -9 -6 -5 -14 16 -28 70 -50 153 -79 153 -53 0 5
-9 14 -21 20 -18 10 -19 14 -7 29 7 10 44 64 82 120 38 55 71 99 73 97 2 -2
-5 -63 -17 -136 -11 -73 -20 -137 -20 -142 0 -5 -9 -4 -19 2 -25 13 -31 13
-31 -3 0 -14 77 -57 103 -57 23 0 22 17 -3 30 -10 6 -17 16 -15 23 10 26 45
282 45 323 0 24 -4 44 -10 44 -12 0 -100 -110 -170 -213 -58 -85 -67 -94 -81
-80 -6 6 4 38 25 84 19 41 49 116 66 166 29 84 34 91 51 82 15 -7 19 -6 19 5
0 14 -67 46 -98 46 -14 0 -13 -3 6 -18z m179 -164 c-3 -8 -6 -5 -6 6 -1 11 2
17 5 13 3 -3 4 -12 1 -19z"/>
<path d="M4196 3328 c-3 -24 -11 -108 -17 -187 -9 -128 -13 -146 -32 -162 -22
-18 -22 -18 19 -19 25 0 47 6 54 15 10 12 10 15 -2 15 -13 0 -15 16 -11 98 2
53 6 117 9 142 l6 44 52 -99 c28 -55 59 -112 69 -126 10 -15 16 -31 15 -35 -5
-14 9 -17 47 -10 37 7 48 26 15 26 -15 0 -31 26 -73 113 -58 122 -121 227
-136 227 -5 0 -12 -19 -15 -42z"/>
<path d="M1250 3409 c0 -18 71 -136 141 -234 118 -167 430 -430 790 -668 219
-144 518 -306 830 -447 678 -308 856 -375 1164 -435 97 -19 146 -23 193 -19
92 10 86 24 -10 24 -97 0 -313 42 -463 90 -317 101 -1123 467 -1472 669 -239
138 -533 345 -737 521 -151 130 -267 257 -356 392 -44 66 -80 115 -80 107z"/>
<path d="M1545 3496 c267 -82 592 -216 810 -333 663 -357 1144 -661 1494 -945
83 -66 130 -92 81 -44 -57 56 -386 305 -535 403 -306 203 -806 494 -1120 650
-265 133 -650 279 -759 289 -49 4 -48 4 29 -20z"/>
<path d="M2570 2742 c0 -5 53 -38 118 -75 65 -36 176 -105 246 -152 136 -91
183 -110 72 -28 -129 95 -436 274 -436 255z"/>
<path d="M2875 2492 c12 -13 146 -65 151 -59 2 2 -28 17 -68 33 -99 40 -95 38
-83 26z"/>
<path d="M6988 2404 c-5 -4 -8 -28 -8 -54 0 -72 58 -179 141 -261 110 -109
260 -170 305 -125 24 24 16 35 -20 29 -53 -8 -166 31 -225 79 -85 70 -169 205
-180 291 -3 27 -9 45 -13 41z"/>
</g>
</svg>
