<?xml version="1.0" standalone="no"?>
<!DOCTYPE svg PUBLIC "-//W3C//DTD SVG 20010904//EN"
 "http://www.w3.org/TR/2001/REC-SVG-20010904/DTD/svg10.dtd">
<svg version="1.0" xmlns="http://www.w3.org/2000/svg"
 width="1024.000000pt" height="1024.000000pt" viewBox="0 0 1024.000000 1024.000000"
 preserveAspectRatio="xMidYMid meet">
<metadata>
Created by potrace 1.16, written by Peter Selinger 2001-2019
</metadata>
<g transform="translate(0.000000,1024.000000) scale(0.100000,-0.100000)"
fill="#000000" stroke="none">
<path d="M5165 8618 c-86 -10 -205 -43 -262 -72 -55 -28 -124 -97 -206 -206
-31 -41 -73 -95 -93 -120 -38 -48 -87 -138 -111 -204 -47 -132 -71 -402 -53
-583 15 -145 5 -268 -40 -493 -28 -138 -70 -290 -88 -318 -6 -9 -44 -3 -168
27 -292 72 -527 100 -859 100 -316 1 -427 -26 -560 -134 -87 -70 -138 -142
-168 -236 -21 -63 -32 -182 -23 -232 7 -38 60 -115 128 -185 37 -38 142 -98
206 -117 25 -7 24 -16 -14 -129 -22 -65 -46 -111 -29 -56 17 52 24 96 24 130
-1 27 -4 21 -15 -30 -37 -168 -109 -284 -285 -460 -125 -124 -174 -197 -242
-357 -80 -186 -88 -220 -94 -425 -5 -161 -8 -178 -23 -178 -15 0 -17 -6 -13
-38 9 -67 -13 -120 -76 -181 -72 -69 -88 -100 -103 -196 -13 -84 -4 -190 33
-385 25 -129 20 -199 -21 -263 -28 -44 -35 -48 -173 -100 -63 -23 -69 -68 -28
-212 11 -38 19 -74 18 -80 -3 -17 81 -53 142 -60 48 -5 68 -3 105 14 39 17 46
24 46 48 0 37 23 73 100 157 85 94 107 148 131 324 20 151 41 248 64 292 21
40 89 97 132 110 21 7 70 14 108 16 56 2 69 6 67 18 -2 9 3 14 10 12 7 -3 37
-12 67 -22 114 -36 269 -161 392 -318 44 -55 90 -113 102 -127 23 -28 182
-126 300 -186 86 -43 299 -122 452 -168 73 -21 162 -38 260 -49 83 -10 195
-28 250 -41 138 -33 222 -40 284 -24 61 15 117 5 224 -42 192 -84 288 -222
291 -414 1 -119 -25 -200 -116 -367 -39 -71 -79 -156 -89 -189 -21 -68 -25
-179 -8 -228 13 -37 3 -185 -12 -175 -5 3 -12 -2 -15 -11 -13 -32 87 -112 169
-133 73 -20 127 16 234 156 38 50 41 77 14 131 -68 131 -15 294 159 491 139
157 202 266 240 412 21 81 26 89 66 118 24 17 56 36 71 43 15 7 93 56 173 108
80 53 153 99 163 102 24 9 22 -15 -7 -104 -38 -115 -49 -179 -42 -244 4 -33 8
-80 11 -105 9 -92 10 -94 46 -112 20 -10 64 -21 100 -24 35 -4 70 -11 77 -17
8 -7 12 -5 12 7 0 9 25 53 55 97 30 44 55 90 55 101 0 28 -38 88 -56 88 -10 0
-14 13 -14 48 0 81 27 147 106 260 40 59 98 157 128 219 30 61 60 114 66 118
5 3 10 11 10 16 0 6 -5 7 -12 3 -7 -4 -8 -3 -4 5 4 6 11 9 16 6 10 -6 38 51
47 95 4 22 2 35 -8 41 -11 7 -9 13 10 28 13 10 29 33 36 52 7 19 37 95 65 169
28 74 87 242 130 373 44 132 107 311 142 399 63 159 63 159 113 190 81 50 179
156 204 221 49 132 47 317 -3 417 -20 40 -22 49 -10 65 10 14 14 15 14 4 1 -8
13 22 29 66 60 173 145 319 332 570 236 317 356 527 422 737 20 62 54 172 77
243 50 158 60 247 36 330 -34 115 -139 236 -254 291 -31 16 -79 42 -107 59
-69 43 -168 85 -196 84 -20 0 -17 -4 16 -19 55 -25 41 -24 -46 4 -41 13 -101
30 -133 37 -51 11 -69 22 -130 78 -39 36 -100 89 -136 117 -83 66 -292 205
-350 234 -25 13 -63 35 -86 51 -72 49 -190 107 -261 128 -77 22 -357 72 -538
96 -76 9 -197 15 -329 15 -201 -1 -242 -6 -153 -21 l42 -6 -47 -2 c-30 -1 -50
4 -55 13 -19 32 -299 166 -413 196 -67 18 -177 26 -245 18z m190 -38 c21 -5 0
-8 -65 -9 -52 0 -102 4 -110 9 -18 12 129 12 175 0z m-360 -29 c-6 -4 -46 -32
-90 -61 -44 -29 -91 -62 -104 -74 l-24 -21 12 23 c17 31 109 101 162 123 51
21 56 22 44 10z m122 -7 c-3 -3 -12 -4 -19 -1 -8 3 -5 6 6 6 11 1 17 -2 13 -5z
m-40 -10 c-3 -3 -12 -4 -19 -1 -8 3 -5 6 6 6 11 1 17 -2 13 -5z m226 -5 c135
-20 350 -80 404 -112 29 -17 49 -35 46 -40 -4 -6 0 -8 9 -4 11 4 18 -1 21 -14
5 -20 32 -26 42 -9 6 10 55 15 55 5 0 -2 -21 -37 -47 -77 -64 -100 -135 -307
-174 -510 -9 -52 -13 -58 -35 -58 -19 0 -28 -8 -40 -35 -26 -63 -15 -108 33
-133 33 -18 49 -15 88 19 37 33 45 68 20 89 -8 7 -15 23 -15 35 0 33 45 182
85 283 19 48 27 78 19 67 -26 -33 -74 -145 -100 -234 -13 -47 -27 -87 -29 -90
-27 -27 6 146 59 311 61 188 133 308 185 308 15 0 32 5 37 10 15 15 554 -7
664 -26 134 -24 384 -140 660 -307 145 -87 166 -103 272 -204 79 -76 108 -96
108 -75 0 11 -166 161 -225 204 -67 48 -178 114 -365 216 -85 46 -146 81 -135
77 68 -24 200 -77 237 -96 170 -86 584 -409 603 -470 7 -20 35 -27 35 -9 0 6
-4 10 -10 10 -5 0 -10 5 -10 10 0 14 16 12 32 -3 22 -22 138 -65 248 -93 116
-28 205 -70 249 -118 153 -165 171 -196 192 -359 11 -88 11 -98 -4 -110 -11
-8 -19 -34 -23 -77 -6 -55 -35 -140 -48 -140 -2 0 4 26 14 59 28 88 42 234 30
311 -11 68 -37 140 -52 140 -11 0 -10 -7 7 -40 27 -52 37 -171 25 -276 -20
-168 -50 -235 -218 -496 -82 -129 -166 -261 -185 -293 -19 -33 -77 -119 -128
-190 -141 -199 -153 -216 -186 -276 -40 -71 -82 -172 -77 -181 3 -4 28 37 55
90 48 91 154 257 200 312 20 25 20 24 -1 -19 -12 -24 -73 -129 -136 -233 -63
-105 -129 -227 -146 -272 -17 -44 -32 -83 -34 -85 -2 -2 -31 25 -63 61 -112
121 -233 151 -446 109 -150 -30 -270 -66 -379 -113 -50 -22 -118 -51 -151 -65
-109 -46 -243 -144 -331 -241 -45 -50 -90 -104 -100 -121 -10 -17 -22 -31 -26
-31 -4 0 -49 25 -100 56 -200 122 -652 319 -911 398 -60 19 -87 31 -84 40 3 7
23 71 46 142 30 94 59 162 111 253 38 68 68 127 65 129 -12 12 -98 -129 -145
-238 -43 -99 -90 -238 -90 -268 0 -20 -4 -22 -22 -16 -13 3 -98 31 -191 61
-92 30 -179 53 -195 51 -21 -2 -10 -9 53 -30 81 -28 62 -29 -30 -3 -74 22 -82
29 -60 52 17 17 17 18 1 21 -11 2 -15 10 -12 20 17 52 65 319 72 391 4 54 10
78 15 68 9 -15 -4 -190 -21 -302 -13 -79 -13 -136 0 -114 31 53 67 533 41 549
-7 4 -14 27 -17 51 -2 24 -1 38 2 32 3 -7 12 -13 21 -13 10 0 12 6 8 23 -14
46 -43 103 -74 145 -38 51 -178 158 -221 167 -25 5 -28 10 -20 24 19 37 71
200 95 301 22 91 25 97 20 45 -5 -48 -36 -180 -71 -297 -3 -10 -1 -18 5 -18
11 0 53 126 76 228 20 91 33 203 41 350 l7 122 33 0 c58 0 323 -65 366 -90 21
-12 58 -13 58 -2 -1 12 -317 165 -332 159 -7 -3 24 -22 69 -43 46 -20 82 -39
80 -40 -2 -2 -45 6 -97 16 -52 11 -114 20 -136 20 l-41 0 -7 58 c-16 149 27
422 99 622 58 159 101 228 199 322 90 87 101 103 48 72 -25 -15 -26 -15 -7 1
38 32 120 68 175 77 171 30 176 30 263 17z m240 -20 c21 -6 37 -12 35 -14 -2
-2 -35 5 -73 16 -39 10 -54 17 -36 14 19 -3 52 -10 74 -16z m552 -135 c-20 -8
-195 -20 -195 -13 0 4 12 10 28 12 36 5 180 7 167 1z m314 -10 c2 -2 -63 -4
-145 -3 -93 1 -140 4 -124 9 23 8 260 2 269 -6z m454 -69 c87 -25 197 -69 197
-80 0 -3 -17 2 -37 11 -21 9 -85 32 -142 50 -92 30 -127 44 -109 44 3 0 44
-11 91 -25z m-2209 -117 c-10 -18 -35 -80 -55 -138 -41 -112 -51 -124 -20 -23
21 68 82 206 88 199 3 -2 -3 -19 -13 -38z m-79 -85 c-38 -99 -60 -209 -70
-348 -9 -121 -34 -327 -40 -333 -3 -3 -5 66 -5 154 0 162 16 305 45 404 15 50
95 223 101 217 2 -1 -12 -44 -31 -94z m3390 -449 c30 -8 55 -18 55 -21 0 -8
-62 8 -104 28 -23 11 -33 17 -23 14 10 -2 42 -12 72 -21z m-2287 4 c20 -20 14
-48 -14 -58 -19 -7 -31 -7 -40 1 -27 22 -10 69 26 69 9 0 21 -5 28 -12z m34
-60 c-7 -7 -12 -8 -12 -2 0 14 12 26 19 19 2 -3 -1 -11 -7 -17z m2385 16 c-3
-3 -12 -4 -19 -1 -8 3 -5 6 6 6 11 1 17 -2 13 -5z m324 -219 l10 -20 -16 20
c-9 11 -21 29 -26 40 l-10 20 16 -20 c9 -11 21 -29 26 -40z m104 -62 c42 -71
57 -146 45 -237 -12 -93 -20 -110 -20 -39 0 115 -51 278 -116 373 -11 15 -1 9
25 -15 23 -22 53 -59 66 -82z m-4019 -30 c-6 -140 -15 -188 -17 -92 -2 71 -1
82 6 162 11 115 17 74 11 -70z m-41 -228 c-4 -36 -10 -64 -12 -61 -3 3 -2 35
2 71 4 37 9 64 12 62 3 -3 2 -35 -2 -72z m22 -27 c-3 -7 -5 -2 -5 12 0 14 2
19 5 13 2 -7 2 -19 0 -25z m-867 -328 c133 -11 496 -68 487 -76 -2 -2 -48 3
-103 11 -168 24 -491 55 -654 62 -147 5 -201 2 -445 -32 l-30 -4 33 15 c77 34
180 44 397 38 116 -3 257 -9 315 -14z m4769 -107 c-29 -64 -104 -188 -181
-303 -217 -324 -200 -273 28 81 72 113 146 233 163 267 51 100 44 71 -10 -45z
m-4794 57 c239 -20 565 -65 659 -91 28 -8 35 -14 27 -22 -15 -15 -14 -27 3
-27 8 0 17 9 21 19 5 17 10 18 38 9 44 -16 97 -50 135 -88 48 -47 100 -163
113 -250 17 -109 7 -194 -46 -396 -25 -98 -50 -195 -56 -215 l-9 -36 -84 -1
c-122 -2 -266 -26 -490 -82 -153 -38 -237 -54 -360 -65 -89 -9 -174 -17 -191
-20 -110 -16 -110 -16 -92 -5 37 23 83 137 137 340 23 89 30 104 28 68 -2 -27
0 -48 4 -48 13 0 20 114 14 233 -10 182 -16 226 -31 221 -13 -5 -29 22 -20 35
2 4 -2 8 -9 8 -9 0 -8 -18 7 -76 13 -52 20 -112 21 -191 1 -115 1 -115 -57
-282 -31 -92 -57 -172 -57 -179 0 -21 -74 -138 -90 -144 -23 -7 -193 -25 -198
-21 -2 3 10 30 27 61 33 61 35 65 23 65 -4 0 -27 -34 -52 -75 -24 -41 -50 -77
-57 -80 -18 -6 62 133 91 160 45 41 90 145 133 305 22 85 24 108 20 220 -3 69
-8 135 -12 146 -6 19 0 24 40 39 25 10 50 26 56 37 13 24 3 23 -50 -7 -53 -31
-58 -31 -66 -2 -4 12 -21 44 -37 71 l-30 49 20 26 c34 47 54 93 44 103 -9 9
-72 -77 -72 -100 0 -17 -8 -15 -69 15 -30 16 -56 36 -59 47 -5 20 -5 20 -13 0
-5 -12 -8 5 -9 46 -1 65 -1 65 -19 43 -17 -20 -17 -27 -6 -78 7 -30 10 -57 7
-59 -4 -2 -27 -7 -52 -11 -35 -5 -42 -4 -33 5 6 7 26 16 45 21 l33 8 -40 -3
c-22 -1 -46 -5 -54 -7 -7 -2 -22 12 -33 34 -11 21 -22 36 -25 33 -3 -2 0 -14
7 -25 6 -12 8 -21 6 -21 -12 0 -36 62 -36 93 0 34 30 72 75 95 67 33 249 15
332 -33 99 -59 181 -160 207 -255 8 -30 15 -50 15 -45 1 6 6 3 12 -5 22 -31
-2 45 -38 120 -25 52 -56 94 -98 137 -35 34 -55 58 -45 53 47 -25 128 -132
185 -243 57 -113 82 -147 66 -89 -5 15 -34 77 -64 138 -80 159 -170 238 -296
259 -23 4 -40 10 -36 13 22 22 284 23 540 2z m4772 -193 c-60 -121 -291 -465
-428 -637 -55 -70 47 92 127 200 80 109 264 395 306 476 51 98 47 65 -5 -39z
m-5639 59 c-9 -29 -7 -40 14 -77 13 -24 29 -43 34 -42 21 4 13 -45 -11 -67
-18 -17 -31 -21 -55 -17 -17 4 -30 2 -30 -4 0 -9 9 -13 46 -24 9 -3 9 -14 1
-43 -25 -95 38 -218 125 -244 47 -14 50 -19 46 -86 l-3 -51 -70 33 c-76 35
-112 66 -79 66 12 0 -2 13 -33 32 -30 19 -59 46 -67 63 -32 67 -50 213 -24
187 14 -14 38 -16 38 -4 0 5 -12 15 -26 23 -25 13 -26 17 -21 75 5 67 32 128
81 182 38 41 47 41 34 -2z m273 -202 c16 -8 43 -33 59 -56 35 -47 40 -40 9 12
-18 28 -18 32 -4 20 24 -20 75 -129 75 -160 0 -14 7 -47 15 -74 19 -63 19
-178 0 -243 -8 -27 -31 -83 -51 -124 -19 -41 -33 -67 -31 -58 3 8 17 53 32
100 43 134 46 383 5 449 -17 27 -19 4 -5 -50 37 -140 4 -378 -79 -573 -9 -21
-14 -43 -10 -50 4 -7 4 -9 -1 -5 -13 12 -43 -36 -39 -62 4 -17 -6 -43 -30 -80
-20 -30 -44 -68 -53 -84 -10 -16 -34 -48 -54 -70 -101 -114 -225 -319 -254
-419 -19 -66 -45 -204 -45 -237 0 -14 7 -38 15 -54 14 -26 13 -35 -10 -107
-28 -90 -43 -203 -27 -213 12 -7 15 0 58 147 53 182 89 215 171 156 45 -32
140 -75 286 -130 43 -16 153 -66 245 -113 322 -161 628 -305 792 -371 91 -37
239 -102 330 -145 210 -99 294 -133 509 -209 268 -95 386 -124 516 -127 121
-3 149 1 141 21 -3 9 8 18 32 26 20 6 42 16 48 20 6 5 19 7 28 3 11 -4 16 -1
16 14 0 11 6 24 13 30 41 35 130 306 152 467 9 61 20 124 25 140 5 17 17 56
25 87 16 62 156 400 212 513 58 116 109 197 162 260 28 32 51 64 51 70 0 16
80 90 117 109 18 9 74 27 124 41 156 42 318 19 445 -63 78 -50 110 -91 132
-163 20 -70 33 -78 21 -13 -13 68 -37 110 -88 155 -125 108 -317 152 -495 114
-38 -8 -71 -13 -73 -12 -1 2 40 24 92 50 163 81 448 174 546 179 72 3 229 -31
296 -64 95 -46 135 -85 143 -139 3 -27 11 -43 18 -41 23 4 35 -53 36 -169 1
-112 0 -117 -34 -183 -19 -38 -61 -97 -95 -131 -50 -53 -82 -75 -190 -130 -71
-37 -128 -65 -125 -62 3 2 67 46 143 97 75 50 137 96 137 101 0 13 -28 -3
-135 -75 -194 -131 -269 -178 -252 -159 36 41 79 174 84 263 5 80 3 91 -27
163 -50 121 -106 189 -183 226 -59 28 -157 52 -157 38 0 -3 31 -14 68 -26 117
-35 187 -109 239 -249 22 -61 28 -94 28 -157 0 -178 -106 -297 -302 -336 -85
-18 -157 -1 -213 49 -39 34 -41 39 -30 63 12 25 15 26 75 21 131 -10 215 35
250 133 l18 51 53 -1 c43 0 58 4 76 24 l23 23 -25 -5 c-14 -3 -41 -10 -60 -14
-51 -13 -70 -6 -70 25 -1 45 -36 109 -78 139 l-39 29 18 37 c11 20 22 37 24
37 3 0 -2 -14 -10 -31 -9 -17 -14 -33 -11 -36 2 -3 12 9 20 26 9 17 33 40 54
50 31 17 33 20 14 21 -42 0 -87 -26 -107 -63 -19 -36 -20 -37 -75 -32 -30 2
-44 2 -30 -1 14 -3 30 -10 35 -16 7 -7 4 -8 -10 -4 -11 3 -45 2 -75 -3 -30 -5
-56 -8 -58 -6 -2 2 16 10 40 18 l43 15 -34 1 c-18 1 -60 -11 -93 -26 -57 -25
-59 -26 -73 -7 -9 10 -18 33 -22 49 l-7 30 -7 -25 c-6 -23 -7 -22 -10 10 -1
19 -2 41 -2 48 1 6 -4 12 -9 12 -17 0 0 -92 22 -122 11 -15 20 -31 20 -35 -1
-4 -23 -24 -51 -43 -97 -68 -225 -233 -289 -373 -33 -71 -48 -133 -31 -123 6
4 11 14 11 22 0 41 160 308 207 344 17 14 17 14 1 -6 -32 -37 -156 -298 -183
-384 -102 -325 -168 -516 -202 -585 -95 -191 -234 -400 -261 -390 -7 3 -17 -6
-21 -19 -5 -12 -23 -28 -39 -35 -25 -10 -36 -25 -41 -54 0 -1 -12 -33 -27 -72
-34 -88 -54 -169 -54 -220 l0 -40 -36 42 c-62 75 -236 171 -394 218 -89 27
-285 55 -380 55 -31 0 -98 9 -150 20 -51 12 -103 19 -114 17 -12 -2 4 -9 37
-16 32 -7 56 -15 53 -18 -6 -7 -134 15 -156 27 -9 5 -95 32 -191 60 -96 28
-216 71 -268 96 -51 24 -102 44 -113 44 -29 0 -145 71 -229 139 -40 33 -76 58
-80 56 -12 -8 -139 95 -222 181 -82 86 -114 111 -125 100 -3 -3 5 -18 19 -32
21 -23 15 -21 -56 16 -44 23 -84 47 -90 52 -5 6 12 -1 39 -16 56 -30 74 -29
22 2 -80 48 -304 129 -431 157 -41 9 -75 19 -75 22 0 17 201 -28 262 -59 54
-26 70 -22 23 7 -78 49 -159 67 -279 63 l-109 -3 -50 85 c-27 47 -57 98 -66
114 -9 16 -26 34 -36 40 -32 18 -35 27 -35 115 0 63 7 108 31 190 87 302 180
458 434 731 119 127 159 186 191 278 26 75 35 223 16 272 -8 22 -6 27 22 40
l31 14 -42 4 c-24 2 -43 7 -43 11 0 5 -22 31 -50 59 -58 58 -74 93 -65 141 18
98 109 135 206 85z m-417 -213 c6 -9 5 -12 -2 -7 -18 11 -33 106 -25 155 7 42
8 39 13 -44 3 -49 9 -96 14 -104z m236 -15 c29 -33 31 -37 10 -24 -14 8 -34
31 -44 49 -11 19 -15 30 -10 24 5 -5 25 -28 44 -49z m105 -301 c-11 -78 -43
-154 -90 -221 -25 -35 -47 -64 -49 -64 -2 0 21 48 50 108 28 59 60 133 69 165
20 68 30 74 20 12z m1622 -87 c-3 -8 -6 -5 -6 6 -1 11 2 17 5 13 3 -3 4 -12 1
-19z m-10 -50 c-3 -7 -5 -2 -5 12 0 14 2 19 5 13 2 -7 2 -19 0 -25z m-7 -41
c0 -13 -6 -32 -14 -43 -13 -17 -13 -14 -3 24 13 47 17 52 17 19z m-170 -88
c-30 -5 -102 -18 -160 -29 -134 -26 -233 -39 -223 -29 19 18 304 67 388 67
l50 0 -55 -9z m130 -33 c0 -3 -4 -16 -10 -30 -14 -38 14 -34 30 4 14 34 20 36
58 16 15 -7 70 -26 122 -41 52 -15 187 -66 300 -112 113 -47 255 -105 315
-130 197 -80 347 -145 538 -235 104 -48 200 -91 213 -94 13 -3 24 -8 24 -10 0
-3 -18 -41 -40 -85 -22 -44 -51 -108 -65 -142 -13 -34 -44 -111 -68 -172 -25
-60 -51 -136 -57 -167 -7 -32 -17 -55 -23 -51 -5 3 -7 -6 -3 -23 3 -16 2 -42
-2 -59 -7 -26 -12 -30 -39 -27 -17 2 -50 -2 -73 -8 -36 -10 -57 -7 -148 15
-59 15 -136 41 -172 60 -187 96 -456 203 -870 345 -321 110 -464 170 -663 277
-236 127 -345 175 -522 232 -213 68 -325 117 -325 143 0 30 51 72 111 90 82
26 164 37 399 53 220 15 315 30 550 85 222 53 420 84 420 66z m2877 -21 c28
-8 75 -31 105 -51 61 -42 101 -79 48 -45 -86 55 -159 82 -257 96 l-98 13 76 1
c41 1 98 -6 126 -14z m-3459 -51 c-10 -9 -220 -44 -262 -43 -28 1 -13 5 49 15
50 8 113 18 140 23 64 11 80 12 73 5z m-311 -50 c-3 -3 -12 -4 -19 -1 -8 3 -5
6 6 6 11 1 17 -2 13 -5z m1419 -18 c128 -45 516 -195 648 -252 155 -67 199
-88 329 -161 169 -96 129 -81 -208 77 -126 59 -277 126 -335 150 -58 24 -136
56 -175 73 -38 16 -133 53 -210 83 -143 55 -173 73 -49 30z m2663 -19 c-9 -34
-29 -60 -29 -38 0 13 32 82 37 78 1 -2 -2 -20 -8 -40z m-4610 -21 c-2 -1 -20
-8 -39 -14 -32 -11 -33 -10 -16 3 16 12 69 23 55 11z m-63 -71 c-13 -40 -22
-44 -32 -13 -4 15 -1 25 12 35 28 20 32 16 20 -22z m-446 11 c0 -2 -8 -10 -17
-17 -16 -13 -17 -12 -4 4 13 16 21 21 21 13z m5104 -38 c18 -43 30 -84 23 -78
-9 8 -47 110 -41 110 3 0 11 -15 18 -32z m-4789 -93 c-24 -49 -44 -86 -44 -82
-1 12 40 106 62 145 35 60 26 28 -18 -63z m78 81 c4 -10 1 -13 -9 -9 -7 3 -14
9 -14 14 0 14 17 10 23 -5z m3456 -38 c-30 -23 -76 -59 -104 -82 -47 -37 -48
-38 -20 -6 32 35 154 130 169 130 5 0 -16 -19 -45 -42z m-3572 0 c-20 -30 -61
-170 -83 -278 -9 -48 -17 -138 -18 -207 -1 -121 -1 -122 -23 -117 -14 4 -40
-4 -69 -20 -26 -15 -49 -24 -51 -22 -2 2 -7 28 -10 58 -4 39 -1 65 10 89 9 19
26 61 38 94 29 81 167 373 192 407 24 33 35 30 14 -4z m-357 -20 c-18 -24 -41
-58 -52 -75 -28 -46 -33 -41 -8 7 19 37 76 110 87 110 3 0 -10 -19 -27 -42z
m499 7 c25 -13 89 -43 141 -65 52 -23 156 -68 230 -100 74 -32 184 -81 244
-109 60 -28 111 -50 113 -48 3 4 -186 97 -329 162 -47 22 -85 41 -84 42 4 4
127 -34 201 -62 107 -40 359 -175 465 -247 108 -75 239 -142 426 -221 258
-108 401 -158 764 -266 58 -18 137 -44 175 -59 39 -14 73 -25 78 -24 8 2 59
-24 117 -61 31 -20 47 -22 147 -20 61 1 121 7 132 13 18 9 21 8 21 -11 0 -26
-142 -458 -175 -533 -32 -73 -43 -80 -91 -56 -21 10 -75 26 -119 35 -237 47
-473 125 -850 280 -88 36 -277 108 -420 161 -274 101 -705 281 -888 371 -87
43 -119 65 -163 113 -53 57 -136 120 -158 120 -6 0 3 -9 19 -19 17 -10 59 -46
95 -80 l65 -61 -60 33 c-104 57 -209 120 -228 136 -18 15 -18 16 0 23 14 7 13
8 -5 4 -32 -6 -51 28 -59 107 -7 82 8 164 51 271 36 89 88 196 94 196 2 0 25
-11 51 -25z m3273 -167 c-33 -40 -70 -82 -82 -93 l-23 -20 13 25 c11 22 139
160 148 160 2 0 -23 -33 -56 -72z m-3878 -20 c-10 -18 -35 -85 -55 -148 -27
-81 -37 -102 -33 -70 3 25 10 61 16 80 12 43 80 181 85 176 3 -2 -3 -19 -13
-38z m5297 -129 c-12 -30 -33 -67 -47 -84 l-26 -30 20 30 c11 17 30 61 43 98
13 37 25 62 27 54 2 -8 -6 -38 -17 -68z m-1125 56 c-11 -8 -25 -15 -30 -15 -6
1 0 7 14 15 32 19 40 18 16 0z m317 -12 c29 -31 58 -92 56 -120 -1 -10 -7 1
-14 23 -20 63 -33 83 -68 104 -18 11 -25 20 -16 20 8 0 27 -12 42 -27z m-76
-24 c49 -15 83 -62 83 -112 -1 -23 -7 -53 -14 -66 -17 -30 -93 -81 -121 -81
-54 0 -84 12 -93 39 l-9 26 -7 -23 c-5 -15 -2 -31 8 -47 16 -24 16 -25 -7 -25
-13 0 -32 -7 -43 -15 -18 -15 -18 -15 0 -8 13 4 17 3 12 -5 -4 -7 -17 -12 -30
-12 -17 0 -37 -21 -81 -85 -32 -47 -60 -85 -62 -85 -5 0 58 122 79 153 28 39
13 48 -17 12 -66 -80 -104 -171 -145 -344 -21 -94 -43 -179 -48 -189 -5 -9
-14 -46 -21 -82 -15 -80 -46 -231 -68 -325 -42 -187 -156 -467 -220 -538 -17
-20 -50 -47 -72 -61 -23 -15 -41 -31 -41 -36 0 -16 10 -12 53 22 61 49 79 68
118 134 108 176 156 321 219 654 32 172 67 308 83 325 7 7 8 6 4 -1 -4 -6 -11
-62 -17 -125 -6 -63 -15 -139 -20 -169 -5 -30 -14 -86 -20 -125 -6 -38 -26
-117 -44 -175 -19 -58 -46 -143 -60 -189 -30 -95 -83 -180 -179 -290 -94 -106
-111 -115 -187 -100 -70 14 -180 7 -253 -16 -60 -18 -63 -12 -39 80 58 218 76
267 100 276 13 5 48 32 78 61 30 28 52 44 48 35 -15 -39 10 -10 85 101 143
214 212 369 291 657 56 205 131 400 184 480 70 104 171 210 235 243 93 50 151
58 238 31z m-707 -99 c-52 -87 -65 -99 -29 -27 31 60 70 120 75 115 2 -3 -18
-42 -46 -88z m21 -42 c-32 -68 -75 -164 -96 -215 -22 -51 -41 -91 -43 -89 -11
12 46 175 93 264 47 88 93 162 101 162 2 0 -23 -55 -55 -122z m349 119 c0 -2
-10 -12 -22 -23 l-23 -19 19 23 c18 21 26 27 26 19z m-2382 -136 c98 -49 221
-97 464 -180 229 -78 482 -175 603 -230 33 -16 71 -31 83 -35 13 -5 22 -9 20
-12 -6 -6 -260 70 -423 126 -256 88 -670 266 -780 334 -54 34 -37 32 33 -3z
m-1294 -14 c4 -19 3 -26 -4 -22 -5 3 -10 18 -10 32 0 32 5 28 14 -10z m4046
-91 c0 -2 -7 -7 -16 -10 -8 -3 -12 -2 -9 4 6 10 25 14 25 6z m-3955 -84 c17
-8 24 -17 18 -19 -17 -6 -81 34 -93 57 -17 32 -11 34 17 5 15 -15 41 -34 58
-43z m-165 27 c-26 -5 -53 -18 -62 -30 -13 -15 -18 -17 -18 -6 0 24 42 46 85
45 l40 0 -45 -9z m4610 -4 c0 -2 -18 -14 -40 -25 -22 -11 -40 -18 -40 -15 0 2
17 13 38 24 42 23 42 23 42 16z m-4524 -20 c10 -8 14 -15 8 -15 -5 0 -19 7
-30 15 -10 8 -14 15 -8 15 5 0 19 -7 30 -15z m4552 -67 c-16 -40 -52 -127 -79
-193 -27 -66 -49 -115 -49 -108 0 26 119 356 131 364 28 17 27 8 -3 -63z
m-788 32 c0 -5 -9 -14 -20 -20 -19 -10 -20 -10 -8 9 13 22 28 28 28 11z
m-3629 -43 c14 -10 1 -6 -28 8 -29 14 -53 27 -53 30 0 7 54 -18 81 -38z m4369
39 c0 -23 -175 -472 -319 -818 -33 -81 -61 -154 -61 -162 0 -18 -76 -66 -343
-215 -124 -69 -360 -210 -409 -242 -31 -22 -60 -39 -63 -39 -3 0 7 19 23 43
107 155 174 362 236 727 19 113 48 255 65 315 17 61 33 130 37 155 5 36 53
150 70 169 2 2 12 -3 22 -12 29 -26 192 -79 225 -73 15 3 26 2 23 -3 -10 -15
57 -19 94 -6 91 34 309 124 345 143 39 21 55 26 55 18z m-1372 -127 c-18 -62
-34 -104 -36 -92 -3 22 57 218 65 210 3 -3 -10 -56 -29 -118z m686 86 c26 -34
26 -34 4 -25 -13 6 -31 13 -40 16 -10 4 -18 11 -18 16 0 6 7 7 16 4 12 -4 15
-2 10 9 -9 24 -1 18 28 -20z m-113 -41 c-12 -21 -21 -33 -21 -26 0 18 30 75
36 69 3 -3 -4 -22 -15 -43z m509 20 c0 -3 -19 -14 -42 -24 -48 -21 -183 -39
-158 -21 8 6 29 11 45 12 22 0 130 27 153 38 1 0 2 -2 2 -5z m-3775 -106 c6
-5 -27 8 -72 31 -45 22 -85 46 -89 53 -8 12 144 -66 161 -84z m3465 77 c19 -7
28 -14 20 -14 -8 0 -28 6 -45 14 -39 17 -21 18 25 0z m-4430 -15 c0 -5 25 -40
55 -77 30 -38 68 -95 85 -128 31 -61 29 -59 -25 24 -16 25 -53 62 -82 81 -47
32 -52 39 -53 73 0 20 5 37 10 37 6 0 10 -4 10 -10z m4150 -146 c-16 -45 -34
-109 -41 -143 -6 -34 -14 -60 -16 -57 -10 9 29 173 54 229 14 31 27 56 29 54
1 -1 -10 -39 -26 -83z m-4115 8 c45 -34 82 -88 100 -146 4 -15 8 -16 20 -6 13
10 15 8 15 -13 0 -37 19 -44 26 -9 6 29 7 29 77 31 97 2 237 -34 368 -96 135
-64 184 -96 414 -268 274 -205 456 -308 718 -408 182 -70 274 -92 477 -112
402 -41 621 -85 755 -152 108 -55 234 -156 235 -190 0 -19 -20 -16 -39 5 -39
44 -181 152 -237 180 -143 72 -338 102 -729 112 -318 9 -401 19 -540 65 -79
26 -253 112 -308 151 -48 34 -292 239 -420 352 -184 161 -442 271 -612 259
-38 -3 -78 -8 -87 -12 -29 -11 -21 -26 10 -18 15 5 65 7 112 7 96 -2 188 -28
325 -94 102 -48 154 -88 405 -305 113 -98 228 -193 255 -210 149 -96 386 -189
521 -204 44 -5 201 -12 349 -16 280 -6 425 -21 554 -57 109 -30 222 -77 251
-105 14 -13 59 -53 101 -88 59 -50 80 -63 98 -58 14 3 20 11 17 20 -7 18 27
31 106 37 34 3 54 3 43 0 -58 -15 -117 -37 -128 -47 -6 -7 -25 -18 -40 -25
-26 -11 -45 -37 -35 -47 2 -3 29 7 59 22 30 15 65 32 79 39 57 27 137 38 195
25 77 -17 92 -36 93 -119 1 -37 -3 -81 -7 -97 -9 -29 -9 -28 -10 13 -1 23 -5
42 -11 42 -5 0 -10 9 -10 20 0 11 -3 20 -7 20 -5 0 -9 -48 -9 -108 -1 -82 -6
-122 -23 -171 -28 -81 -83 -190 -133 -263 -21 -32 -34 -58 -28 -58 5 0 10 4
10 9 0 5 8 12 18 15 9 4 -21 -31 -68 -76 -47 -46 -96 -96 -108 -113 l-23 -30
19 36 c11 20 59 92 107 160 116 166 171 280 185 382 13 99 13 157 0 157 -5 0
-10 -21 -10 -47 0 -144 -38 -244 -158 -421 -42 -63 -94 -142 -115 -175 -34
-55 -39 -57 -19 -8 3 9 1 12 -6 7 -23 -14 -93 -217 -99 -285 -5 -64 -4 -70 26
-111 17 -24 31 -50 31 -59 0 -42 -25 -97 -61 -136 -22 -24 -40 -47 -39 -52 5
-32 -101 2 -148 48 -31 31 -42 59 -22 59 6 0 10 9 10 20 0 27 14 25 28 -4 10
-23 98 -74 109 -63 9 10 -7 27 -45 46 -20 11 -48 31 -61 45 -23 24 -24 29 -18
138 7 163 50 317 126 461 92 175 126 343 92 460 -7 26 -19 47 -25 47 -6 0 -21
20 -34 44 -32 60 -73 96 -173 154 -110 63 -187 92 -247 92 -50 0 -223 28 -232
37 -3 3 42 2 100 -2 58 -4 150 -8 206 -9 96 -2 103 -4 174 -42 41 -21 104 -68
142 -103 67 -62 88 -67 48 -11 -27 38 -155 123 -222 148 -85 31 -243 46 -523
47 -308 1 -380 11 -640 90 -235 71 -559 276 -800 505 -98 93 -122 111 -257
193 -158 96 -179 102 -334 102 -115 0 -135 -2 -153 -19 -11 -10 -19 -22 -16
-26 2 -4 -14 -22 -35 -39 -71 -57 -100 -133 -120 -316 -12 -114 -50 -266 -86
-341 -23 -48 -83 -113 -130 -140 -29 -18 -12 -25 20 -9 l28 15 -27 -36 c-28
-36 -28 -57 0 -34 25 21 17 -6 -11 -37 -19 -20 -24 -23 -20 -9 6 16 4 17 -9 6
-22 -18 -73 -7 -132 29 -44 27 -51 36 -57 74 -4 23 -7 50 -7 60 0 33 30 66 71
78 21 7 37 16 34 20 -2 5 8 15 24 23 16 8 37 27 46 41 10 15 20 24 23 22 9
-10 -19 -48 -50 -67 -38 -24 -19 -27 24 -4 37 18 51 51 74 164 20 99 16 180
-16 322 -29 130 -23 216 23 331 20 48 29 82 21 75 -18 -15 -43 -61 -65 -118
-21 -57 -24 -20 -3 41 10 30 34 63 68 95 28 27 43 39 33 27 -23 -28 -4 -31 23
-4 27 27 53 79 46 92 -8 11 4 69 13 69 4 0 30 -17 57 -38z m1735 -242 c268
-98 400 -149 610 -235 297 -121 402 -156 649 -219 158 -39 246 -66 249 -75 4
-11 -4 -13 -40 -8 -61 8 -232 50 -408 98 -202 56 -222 63 -425 141 -267 102
-343 134 -525 216 -91 40 -221 96 -290 124 -133 52 -352 156 -385 182 -11 8
63 -21 165 -65 102 -44 282 -116 400 -159z m2387 138 c-3 -8 -6 -5 -6 6 -1 11
2 17 5 13 3 -3 4 -12 1 -19z m-3900 -24 c-3 -3 -12 -4 -19 -1 -8 3 -5 6 6 6
11 1 17 -2 13 -5z m3090 0 c-3 -3 -12 -4 -19 -1 -8 3 -5 6 6 6 11 1 17 -2 13
-5z m788 -65 c-9 -35 -19 -66 -22 -69 -6 -6 4 49 19 103 18 62 20 34 3 -34z
m713 -139 c-151 -439 -140 -414 -181 -449 -20 -18 -37 -28 -37 -22 0 5 9 15
20 21 11 6 20 17 20 26 0 8 36 105 81 215 44 110 95 241 114 292 44 121 47
128 51 125 1 -2 -29 -96 -68 -208z m48 -30 c-74 -216 -126 -353 -132 -348 -2
3 30 98 70 214 95 267 120 336 124 326 1 -4 -27 -90 -62 -192z m-3238 115 c24
-10 41 -19 39 -22 -3 -2 -29 8 -58 22 -59 27 -50 28 19 0z m82 -35 c8 -5 11
-10 5 -10 -5 0 -17 5 -25 10 -8 5 -10 10 -5 10 6 0 17 -5 25 -10z m2367 -12
c-3 -8 -6 -5 -6 6 -1 11 2 17 5 13 3 -3 4 -12 1 -19z m-10 -40 c-3 -8 -6 -5
-6 6 -1 11 2 17 5 13 3 -3 4 -12 1 -19z m-597 -123 c-31 -97 -38 -90 -8 9 12
41 24 73 27 71 2 -3 -6 -39 -19 -80z m-3270 36 c-19 -16 -37 -27 -40 -24 -7 6
48 53 63 53 6 0 -4 -13 -23 -29z m159 15 c-2 -2 -22 -6 -44 -10 -29 -5 -36 -4
-25 3 13 10 79 16 69 7z m-231 -61 c-6 -14 -14 -25 -18 -25 -8 0 -54 -123 -70
-185 -9 -36 -9 -34 -5 25 4 73 25 130 64 177 32 38 45 42 29 8z m3297 -144
c-9 -27 -23 -55 -31 -61 -9 -9 -6 9 11 54 14 37 25 70 26 74 0 4 3 1 6 -5 2
-7 -3 -35 -12 -62z m-1023 20 c65 -25 209 -73 521 -170 53 -17 105 -31 115
-32 9 0 12 -3 6 -5 -19 -8 -160 32 -391 110 -206 70 -323 112 -332 122 -9 9
12 3 81 -25z m1565 -183 c-3 -8 -6 -5 -6 6 -1 11 2 17 5 13 3 -3 4 -12 1 -19z
m-2757 -173 c36 -23 115 -71 175 -105 123 -69 108 -71 -35 -3 -158 74 -283
156 -341 225 l-42 50 89 -62 c49 -34 118 -81 154 -105z m2744 121 c-3 -15 -8
-25 -11 -23 -2 3 -1 17 3 31 3 15 8 25 11 23 2 -3 1 -17 -3 -31z m610 3 c-36
-39 -90 -74 -152 -98 -79 -31 -380 -208 -481 -283 -107 -78 -179 -123 -187
-115 -16 16 104 95 453 299 213 125 390 227 392 228 3 0 -8 -14 -25 -31z
m-4564 -134 c-13 -44 -57 -135 -66 -135 -2 0 -1 8 5 18 14 26 61 203 63 237 1
17 3 5 6 -25 2 -30 -2 -73 -8 -95z m4649 74 c-12 -51 -21 -69 -48 -93 -29 -26
-26 -7 4 34 14 19 25 37 25 41 0 12 19 59 24 59 2 0 0 -19 -5 -41z m-65 -48
c-42 -71 -63 -88 -189 -161 -49 -29 -128 -75 -175 -103 -47 -27 -119 -69 -160
-93 -41 -24 -147 -90 -235 -148 -158 -104 -160 -105 -163 -78 -2 15 -10 31
-18 35 -8 4 -14 17 -14 29 0 18 4 20 30 14 22 -4 32 -1 36 9 3 7 117 80 252
161 332 198 411 247 515 316 82 55 148 90 155 83 1 -1 -14 -30 -34 -64z
m-1951 -118 c-7 -2 -19 -2 -25 0 -7 3 -2 5 12 5 14 0 19 -2 13 -5z m1617 3 c0
-3 -42 -28 -92 -57 -51 -28 -117 -67 -146 -85 -29 -19 -56 -34 -60 -34 -16 1
272 178 291 179 4 1 7 -1 7 -3z m-1515 -21 c53 -17 34 -18 -35 0 -30 7 -44 13
-30 13 14 0 43 -5 65 -13z m1810 -65 c-14 -27 -27 -50 -29 -50 -2 0 5 23 17
50 11 28 25 50 29 50 5 0 -3 -22 -17 -50z m-5013 8 c-8 -18 -17 -27 -19 -21
-5 15 14 53 27 53 4 0 1 -14 -8 -32z m4982 -10 c-26 -51 -152 -236 -166 -244
-7 -4 0 9 16 30 15 20 26 40 23 42 -7 7 -50 -56 -52 -75 -1 -9 -7 -26 -13 -38
-39 -72 -55 -242 -26 -279 14 -18 15 -18 10 6 -5 20 -3 19 9 -6 8 -17 21 -34
30 -37 27 -11 16 -49 -32 -105 l-47 -54 -50 6 c-79 9 -81 14 -81 184 0 171 14
238 52 253 13 5 22 13 19 18 -3 5 0 8 7 7 7 0 48 32 92 72 43 39 75 72 71 72
-9 0 -150 -104 -177 -131 -11 -11 -23 -19 -25 -16 -11 11 47 63 137 123 95 64
125 93 60 59 -47 -24 -37 -9 14 21 25 14 43 30 39 35 -7 13 -71 -22 -149 -81
-37 -28 -65 -45 -63 -38 7 20 285 206 311 207 4 1 0 -14 -9 -31z m-703 -21
c-10 -9 -11 -8 -5 6 3 10 9 15 12 12 3 -3 0 -11 -7 -18z m-27 -44 c-33 -52
-49 -72 -57 -73 -4 0 9 23 30 50 40 54 56 67 27 23z m696 -43 c-6 -11 -13 -20
-16 -20 -2 0 0 9 6 20 6 11 13 20 16 20 2 0 0 -9 -6 -20z m-215 0 c-3 -5 -12
-10 -18 -10 -7 0 -6 4 3 10 19 12 23 12 15 0z m65 -24 c0 -2 -25 -20 -55 -40
-67 -44 -72 -39 -7 9 43 31 62 41 62 31z m-1915 -33 c49 -8 92 -16 94 -19 11
-10 -108 -1 -249 21 l-155 23 110 -5 c61 -2 150 -11 200 -20z m1297 -20 c-11
-16 -30 -37 -42 -48 -18 -16 -23 -17 -30 -5 -14 21 -13 22 28 52 50 36 69 36
44 1z m-4086 -28 c10 -8 14 -15 8 -15 -5 0 -19 7 -30 15 -10 8 -14 15 -8 15 5
0 19 -7 30 -15z m4449 6 c-17 -15 -125 -82 -125 -77 0 3 28 24 63 46 61 39 80
49 62 31z m-370 -41 c-3 -5 -12 -10 -18 -10 -7 0 -6 4 3 10 19 12 23 12 15 0z
m-765 -76 c0 -2 -9 0 -20 6 -11 6 -20 13 -20 16 0 2 9 0 20 -6 11 -6 20 -13
20 -16z m113 -118 c28 -53 17 -52 -16 1 -15 25 -22 43 -15 41 6 -2 20 -21 31
-42z m644 4 c-14 -11 -29 -20 -34 -20 -11 1 37 40 49 40 6 0 -1 -9 -15 -20z
m403 -60 c-4 -41 -8 -61 -10 -45 -3 39 -3 43 5 89 10 61 13 38 5 -44z m-1204
-750 c-11 -44 -23 -75 -24 -70 -6 18 31 150 42 150 2 0 -6 -36 -18 -80z m294
-8 c-15 -38 -20 -78 -21 -150 -1 -90 -2 -95 -14 -67 -26 56 -16 140 27 233 28
58 32 48 8 -16z m20 -286 c0 -13 -9 -34 -20 -47 l-20 -24 10 28 c5 16 10 40
10 53 0 14 4 22 10 19 6 -3 10 -17 10 -29z m-340 -121 c11 -13 10 -14 -4 -9
-9 3 -16 10 -16 15 0 13 6 11 20 -6z"/>
<path d="M6613 8224 c-132 -140 -258 -431 -307 -706 -6 -35 -27 -51 -40 -30
-7 11 12 159 28 215 15 50 7 64 -12 21 -12 -26 -42 -180 -42 -216 0 -11 -9
-31 -20 -45 -22 -29 -26 -79 -8 -118 9 -21 18 -25 52 -25 54 0 84 22 92 66 5
28 2 42 -15 65 -20 27 -21 34 -11 96 13 83 87 304 139 417 42 90 103 186 159
248 46 51 33 62 -15 12z m-285 -809 c-2 -12 -7 -7 -15 16 -12 30 -11 32 3 17
9 -8 14 -23 12 -33z m-32 -29 c-18 -28 -33 -30 -41 -6 -4 13 0 31 10 47 l18
26 13 -24 c10 -19 10 -28 0 -43z m-56 -7 c0 -6 -4 -7 -10 -4 -5 3 -10 11 -10
16 0 6 5 7 10 4 6 -3 10 -11 10 -16z"/>
<path d="M7122 7915 c-123 -140 -212 -328 -248 -527 -13 -70 -20 -88 -34 -88
-22 0 -44 -26 -59 -69 -16 -48 -14 -59 12 -85 17 -17 31 -22 51 -19 27 6 76
55 76 77 0 24 -22 76 -32 76 -7 0 -8 15 -5 38 9 51 64 243 84 289 9 21 17 45
18 54 2 27 71 142 130 218 56 73 61 98 7 36z m-282 -695 c4 0 11 7 14 16 8 22
26 8 26 -21 0 -27 -26 -58 -44 -52 -6 2 -11 14 -10 27 1 22 0 22 -13 5 -12
-17 -13 -17 -13 9 0 15 6 37 12 49 13 22 13 22 16 -5 2 -16 7 -28 12 -28z"/>
<path d="M7683 7643 c-51 -48 -156 -205 -199 -297 -18 -39 -33 -65 -33 -59 -1
22 79 191 130 275 56 91 59 114 6 41 -81 -111 -174 -330 -163 -384 6 -34 -17
-113 -35 -117 -12 -2 -13 10 -8 70 4 40 10 88 15 107 5 23 4 32 -3 28 -13 -8
-30 -78 -39 -162 -4 -33 -13 -69 -20 -80 -36 -51 -4 -135 50 -135 60 0 101
106 59 152 -16 18 -16 23 0 86 10 37 45 123 79 192 62 127 110 200 181 278 49
52 35 56 -20 5z m-246 -425 c-3 -8 -6 -5 -6 6 -1 11 2 17 5 13 3 -3 4 -12 1
-19z m-37 -147 c0 -6 -4 -12 -9 -15 -4 -3 -6 -18 -3 -33 5 -26 5 -26 13 -5 7
18 29 32 29 18 0 -21 -26 -67 -41 -71 -47 -15 -64 42 -27 88 22 27 38 35 38
18z"/>
<path d="M5435 7545 c-82 -40 -219 -149 -256 -204 -19 -28 -39 -49 -45 -47 -5
2 -21 -2 -35 -10 -32 -18 -49 -17 -25 1 15 12 16 15 5 15 -24 0 -59 -44 -59
-74 0 -31 16 -65 39 -83 28 -22 58 -14 90 22 31 36 39 72 22 104 -23 41 130
181 270 249 43 20 78 40 78 45 2 14 -34 6 -84 -18z m-287 -313 c4 -29 -24 -62
-51 -62 -27 0 -57 28 -57 54 1 20 2 20 14 4 17 -23 26 -23 26 0 0 26 10 33 40
30 17 -2 26 -10 28 -26z"/>
<path d="M4543 7465 c0 -22 2 -30 4 -17 2 12 2 30 0 40 -3 9 -5 -1 -4 -23z"/>
<path d="M5686 7448 c-9 -62 11 -227 39 -311 17 -52 20 -74 12 -79 -11 -7 -37
-11 -37 -5 0 1 -11 47 -25 102 -26 105 -33 224 -16 283 5 17 6 32 1 32 -32 0
-29 -215 5 -333 27 -93 30 -124 16 -146 -20 -32 23 -90 67 -91 27 0 82 50 82
75 0 22 209 235 287 293 35 25 61 47 59 50 -12 11 -164 -109 -253 -201 -57
-58 -103 -100 -103 -93 0 7 -13 22 -29 34 -47 34 -74 135 -86 322 -4 58 -8
106 -10 108 -1 2 -6 -17 -9 -40z m95 -445 c11 -26 12 -27 20 -8 7 15 8 13 3
-10 -7 -37 -21 -55 -43 -55 -39 0 -55 54 -25 84 22 23 33 20 45 -11z m-78 -33
c3 -11 1 -20 -4 -20 -5 0 -9 9 -9 20 0 11 2 20 4 20 2 0 6 -9 9 -20z"/>
<path d="M6070 7298 c-70 -45 -189 -157 -210 -198 -7 -14 32 18 86 70 54 53
125 111 157 129 31 18 57 34 57 37 0 13 -33 -1 -90 -38z"/>
<path d="M6254 7236 c-11 -45 2 -182 30 -303 23 -101 24 -115 11 -140 -20 -38
-19 -77 4 -97 45 -41 105 -24 123 36 10 34 9 42 -9 66 -13 17 -33 29 -54 32
-31 5 -35 9 -46 53 -26 107 -45 244 -40 297 7 63 -7 103 -19 56z m57 -483 c-4
-28 -6 -32 -9 -15 -3 22 3 52 11 52 1 0 1 -17 -2 -37z m55 23 c7 -8 19 -16 26
-18 21 -7 -12 -39 -36 -36 -21 3 -32 28 -22 54 7 18 14 18 32 0z"/>
<path d="M6663 7115 c-57 -26 -224 -179 -249 -227 -23 -44 -7 -33 64 43 80 87
182 165 233 181 21 6 36 15 33 19 -8 14 -25 11 -81 -16z"/>
<path d="M5070 7048 c0 -56 35 -242 60 -312 14 -40 17 -70 13 -111 l-6 -56
-63 -30 c-35 -17 -64 -35 -64 -40 0 -15 16 -10 79 26 52 29 65 33 86 23 13 -6
35 -8 49 -4 29 7 59 56 54 89 -4 25 -66 70 -86 62 -8 -3 -19 8 -28 31 -28 66
-74 262 -74 313 0 28 -4 51 -10 51 -5 0 -10 -19 -10 -42z m174 -404 c9 -8 16
-19 16 -22 0 -17 -33 -52 -48 -52 -26 1 -52 25 -51 46 1 17 2 17 6 2 7 -27 21
-21 28 12 7 33 25 38 49 14z"/>
<path d="M6807 7053 c-33 -55 -35 -321 -3 -381 25 -47 30 -34 12 29 -21 68
-20 193 0 275 12 45 13 69 7 75 -6 6 -13 7 -16 2z"/>
<path d="M7215 6921 c-55 -25 -192 -129 -238 -180 -21 -23 -45 -57 -54 -76 -9
-18 -26 -36 -38 -39 -27 -7 -49 -55 -43 -95 4 -27 2 -29 -34 -34 -21 -3 -59
-15 -85 -28 -52 -25 -176 -138 -218 -199 -48 -69 -21 -54 45 26 79 95 172 160
252 174 41 8 63 8 78 0 24 -13 25 -18 3 -72 -25 -59 -24 -273 0 -336 12 -31
14 -49 7 -62 -6 -10 -10 -32 -10 -48 0 -26 -5 -31 -33 -36 -43 -8 -161 -66
-212 -103 -22 -16 -66 -53 -97 -82 -32 -29 -59 -47 -63 -41 -3 5 -19 10 -34
10 -26 0 -30 6 -50 65 -26 81 -36 183 -23 258 6 41 6 57 -2 54 -32 -11 -35
-204 -6 -301 11 -36 25 -68 30 -71 6 -4 2 -17 -10 -32 -26 -34 -26 -87 1 -114
17 -17 29 -20 58 -15 47 7 71 37 71 90 0 38 5 46 68 104 76 73 119 100 230
147 65 27 80 30 88 19 5 -8 23 -17 39 -20 38 -7 85 26 85 61 0 28 47 111 97
172 32 41 128 115 183 143 24 13 25 12 7 -7 -26 -30 -8 -36 26 -7 53 44 104
66 128 53 30 -16 74 6 93 46 15 31 18 33 59 28 48 -6 141 -37 175 -59 25 -16
39 -13 27 5 -14 23 -91 54 -168 67 -61 11 -85 20 -103 39 -13 14 -34 25 -48
25 -22 0 -27 7 -40 53 -35 122 -51 323 -32 385 5 16 3 22 -7 22 -38 0 -24
-273 20 -414 12 -37 13 -54 4 -72 -6 -14 -11 -42 -11 -62 0 -35 -3 -39 -37
-52 -21 -8 -44 -14 -52 -13 -20 2 -86 -32 -147 -77 -65 -49 -123 -114 -153
-176 -14 -26 -26 -43 -29 -36 -5 17 -61 45 -78 38 -33 -13 -54 175 -34 317 10
71 18 98 36 117 22 24 44 70 44 91 0 5 -12 22 -26 36 -30 30 -28 39 31 109 50
59 223 190 264 199 17 4 33 11 36 16 10 15 -27 10 -70 -10z m-302 -343 c4 -10
8 -10 15 1 8 11 11 9 17 -9 8 -25 -7 -44 -43 -55 -26 -8 -37 12 -28 50 7 26
31 34 39 13z m617 -197 c0 -24 -34 -54 -57 -49 -12 2 -19 13 -21 33 l-2 30 14
-30 14 -30 1 36 c1 20 4 39 7 42 11 11 44 -13 44 -32z m-550 -421 c0 -22 -25
-44 -40 -35 -14 8 -13 48 2 63 15 15 38 -2 38 -28z m-56 -51 c4 -8 -2 -3 -13
10 -22 24 -26 42 -14 55 5 4 11 -6 14 -22 3 -16 9 -35 13 -43z m-460 -247 c-6
-4 -10 -20 -10 -37 1 -35 -27 -43 -32 -9 -3 23 21 54 41 54 8 0 9 -3 1 -8z
m-68 -18 c-3 -8 1 -28 9 -45 16 -31 16 -32 -9 -23 -23 9 -21 84 2 84 2 0 1 -7
-2 -16z"/>
<path d="M5488 6821 c-113 -76 -207 -155 -197 -166 4 -3 22 7 40 23 46 39 160
126 227 173 96 68 38 42 -70 -30z"/>
<path d="M5751 6828 c-27 -85 -19 -222 20 -345 8 -26 7 -37 -5 -55 -44 -62 18
-139 89 -112 39 15 61 119 29 144 -8 8 -32 16 -52 19 -35 6 -38 10 -50 56 -18
69 -26 231 -14 283 12 49 -2 57 -17 10z m90 -408 c14 -40 27 -38 21 3 -4 30
-3 31 12 16 22 -21 12 -65 -19 -85 -28 -18 -53 -9 -61 22 -3 13 -10 24 -15 24
-5 0 -9 5 -9 11 0 8 5 8 15 -1 12 -10 16 -8 25 14 12 34 19 33 31 -4z"/>
<path d="M6170 6669 c-95 -52 -242 -214 -211 -233 5 -3 14 7 21 24 27 64 184
199 253 216 15 3 27 10 27 15 0 17 -35 9 -90 -22z"/>
<path d="M6338 6598 c-9 -16 -13 -67 -13 -178 0 -120 -3 -157 -13 -166 -8 -5
-16 -31 -19 -56 -5 -40 -2 -47 22 -66 36 -28 60 -28 90 3 32 31 34 96 5 125
-11 11 -26 20 -34 20 -8 0 -17 8 -21 18 -12 32 -17 196 -7 257 11 68 9 77 -10
43z m48 -404 c6 -30 -14 -64 -36 -64 -16 0 -23 70 -11 97 10 23 14 24 26 12 8
-8 17 -28 21 -45z m14 35 c0 -6 -4 -7 -10 -4 -5 3 -10 11 -10 16 0 6 5 7 10 4
6 -3 10 -11 10 -16z"/>
<path d="M4957 6526 c-86 -36 -164 -85 -208 -133 -35 -38 -48 -63 -34 -63 2 0
23 20 46 45 50 55 133 106 225 141 38 14 71 28 73 30 13 13 -53 0 -102 -20z"/>
<path d="M5200 6474 c-16 -48 -5 -174 24 -275 22 -77 22 -78 3 -97 -11 -12
-19 -33 -19 -55 0 -68 38 -100 91 -77 76 31 68 160 -9 160 -25 0 -27 5 -50 95
-18 77 -22 111 -17 173 3 43 9 86 13 95 4 11 1 17 -9 17 -9 0 -21 -16 -27 -36z
m107 -388 c-3 -7 -1 -18 4 -23 16 -16 0 -41 -33 -52 -45 -16 -48 -15 -47 27 1
33 2 34 9 12 5 -17 8 -19 9 -7 1 19 35 57 52 57 6 0 9 -6 6 -14z"/>
<path d="M7600 6337 c3 -3 40 -17 82 -30 42 -13 115 -48 162 -76 47 -28 97
-56 111 -61 14 -5 25 -14 25 -20 0 -5 5 -10 12 -10 7 0 -6 18 -27 40 -22 22
-45 38 -53 35 -7 -2 -11 -1 -8 3 6 10 -77 61 -145 91 -42 19 -171 41 -159 28z"/>
<path d="M5632 6270 c-96 -58 -217 -152 -232 -180 -17 -32 -3 -24 75 44 72 63
187 137 233 151 20 6 32 35 14 35 -5 0 -45 -22 -90 -50z"/>
<path d="M5810 6224 c-18 -58 -18 -217 -1 -254 9 -21 11 -12 6 48 -3 41 0 102
6 136 6 35 9 76 7 91 -3 25 -5 23 -18 -21z"/>
<path d="M6182 6095 c-64 -30 -148 -94 -221 -168 -50 -51 -56 -54 -91 -50 -36
5 -41 3 -59 -28 -27 -44 -26 -75 3 -104 24 -24 18 -49 -9 -39 -7 3 -24 -10
-38 -28 -40 -52 -129 -236 -124 -255 3 -12 11 -2 26 32 47 106 83 171 112 205
l31 35 -20 -35 c-122 -218 -202 -387 -202 -431 0 -49 14 -32 39 49 25 77 113
258 187 384 25 42 47 69 62 72 32 9 64 64 56 99 -5 24 3 36 63 96 74 74 172
143 231 162 48 15 63 29 32 29 -14 0 -49 -11 -78 -25z m-300 -307 c-14 -14
-46 -6 -50 13 -2 9 5 24 14 34 16 16 18 16 32 -10 9 -18 10 -31 4 -37z m-62
37 c0 -8 -4 -15 -10 -15 -5 0 -7 7 -4 15 4 8 8 15 10 15 2 0 4 -7 4 -15z"/>
<path d="M5163 5901 c-69 -94 -152 -281 -125 -281 6 0 14 15 17 33 10 45 70
161 121 235 24 35 44 65 44 67 0 16 -21 -3 -57 -54z"/>
<path d="M6678 5780 c-57 -38 -117 -84 -133 -101 -17 -18 -23 -28 -14 -23 26
15 212 146 242 171 57 47 5 21 -95 -47z"/>
<path d="M6934 5794 c-12 -103 15 -248 57 -296 18 -20 20 -20 13 -3 -36 100
-46 157 -46 253 0 111 -12 135 -24 46z"/>
<path d="M6398 5500 c-27 -16 -115 -143 -157 -228 -39 -75 -69 -168 -58 -178
7 -8 68 127 61 137 -3 5 0 8 6 7 6 -2 32 35 57 82 25 47 63 109 84 138 39 51
41 61 7 42z"/>
<path d="M6840 4546 c0 -36 64 -76 120 -76 47 0 43 17 -6 25 -29 4 -57 17 -79
37 -26 22 -35 26 -35 14z"/>
<path d="M3740 4816 c0 -3 9 -10 20 -16 11 -6 20 -8 20 -6 0 3 -9 10 -20 16
-11 6 -20 8 -20 6z"/>
<path d="M2415 3934 c-59 -29 -96 -63 -136 -126 -43 -66 -55 -113 -79 -304
-30 -236 -72 -348 -159 -427 -45 -40 -62 -45 -81 -22 -16 19 -40 19 -40 1 0
-24 29 -46 60 -46 35 0 87 43 131 106 56 82 99 229 114 389 23 239 80 352 215
420 28 14 50 28 50 30 0 10 -27 3 -75 -21z"/>
<path d="M5441 2716 c-1 -11 9 -54 21 -95 16 -54 22 -104 22 -171 1 -86 -2
-102 -31 -168 -18 -40 -44 -87 -57 -105 -35 -46 -99 -187 -126 -277 -24 -79
-37 -233 -26 -294 7 -34 53 -102 64 -92 3 3 -1 13 -9 22 -12 15 -11 16 10 9
16 -5 21 -4 17 4 -4 6 -14 11 -21 11 -55 0 -56 206 -1 368 25 73 105 238 137
284 11 15 32 56 47 91 39 94 36 190 -10 327 -20 58 -37 96 -37 86z"/>
</g>
</svg>
