<?xml version="1.0" standalone="no"?>
<!DOCTYPE svg PUBLIC "-//W3C//DTD SVG 20010904//EN"
 "http://www.w3.org/TR/2001/REC-SVG-20010904/DTD/svg10.dtd">
<svg version="1.0" xmlns="http://www.w3.org/2000/svg"
 width="1408.000000pt" height="768.000000pt" viewBox="0 0 1408.000000 768.000000"
 preserveAspectRatio="xMidYMid meet">
<metadata>
Created by potrace 1.16, written by Peter Selinger 2001-2019
</metadata>
<g transform="translate(0.000000,768.000000) scale(0.100000,-0.100000)"
fill="#000000" stroke="none">
<path d="M6999 7298 c-17 -24 -35 -61 -41 -84 -11 -40 -12 -41 -55 -41 -32 0
-50 -6 -68 -23 -37 -35 -33 -60 9 -60 46 0 88 -37 120 -103 36 -76 37 -99 4
-108 -25 -6 -28 -4 -39 29 -76 233 -375 303 -686 162 -129 -59 -240 -147 -483
-385 -259 -253 -327 -309 -443 -366 -88 -42 -164 -56 -223 -40 -41 11 -92 43
-64 40 70 -7 122 30 134 95 9 45 -18 110 -55 137 -123 87 -288 -34 -266 -196
19 -138 146 -235 305 -235 122 0 231 38 372 128 76 49 171 86 285 112 294 68
639 -45 859 -281 121 -131 191 -277 231 -489 14 -73 19 -142 18 -295 0 -174
-2 -210 -21 -280 -44 -161 -117 -261 -228 -316 -123 -61 -265 -37 -342 56 -87
106 -59 255 59 315 124 64 265 -53 204 -169 -16 -32 -33 -41 -74 -41 -31 0
-51 16 -51 42 0 10 -6 18 -14 18 -21 0 -27 -42 -10 -68 35 -54 109 -54 162 1
76 79 44 210 -63 258 -106 49 -228 -2 -281 -116 -76 -163 46 -352 240 -372
158 -16 331 101 400 271 l23 56 7 -396 c4 -218 6 -398 3 -400 -2 -2 -18 7 -37
21 -134 99 -352 18 -445 -165 -83 -164 -72 -375 30 -573 23 -45 93 -163 155
-262 166 -264 252 -456 280 -627 17 -106 13 -285 -9 -370 -46 -181 -160 -308
-275 -308 -48 0 -91 39 -82 75 12 48 -62 41 -103 -11 -30 -38 -28 -94 5 -133
l26 -31 -46 0 c-141 0 -276 119 -293 258 -11 99 44 197 120 209 40 6 53 -11
17 -22 -24 -8 -50 -54 -50 -88 0 -37 41 -90 82 -105 130 -50 242 112 173 248
-17 33 -61 73 -105 96 -52 27 -152 25 -209 -5 -49 -26 -105 -82 -122 -123 -15
-36 -22 -35 -37 5 -16 44 -76 103 -119 118 -20 6 -53 9 -76 6 -76 -10 -75 -17
42 -193 58 -88 148 -225 200 -305 52 -79 136 -207 187 -284 50 -77 135 -207
189 -290 54 -82 126 -193 160 -245 34 -52 149 -229 255 -393 105 -163 196
-299 200 -302 4 -3 54 68 111 158 57 89 149 232 204 317 56 85 243 371 415
635 172 264 370 566 439 670 69 105 127 196 129 202 4 16 -39 33 -81 33 -73
-1 -168 -74 -183 -143 l-6 -29 -25 43 c-34 61 -60 87 -116 116 -92 46 -184 38
-264 -23 -96 -73 -99 -249 -4 -298 97 -51 201 -6 201 86 0 50 -13 74 -53 98
l-32 20 36 0 c82 0 139 -74 139 -180 0 -153 -114 -273 -272 -287 l-61 -6 24
32 c44 59 25 141 -38 167 -47 20 -71 12 -65 -25 7 -49 -44 -80 -111 -67 -144
27 -252 216 -264 461 -13 265 66 485 316 883 57 90 120 200 142 245 44 94 79
219 79 286 0 195 -94 368 -240 439 -44 22 -69 27 -125 27 -73 -1 -116 -16
-164 -59 l-24 -21 7 100 c3 55 6 240 6 410 l0 310 36 -72 c41 -86 124 -179
191 -215 155 -85 332 -49 424 84 28 42 34 61 37 118 5 84 -9 130 -57 183 -66
74 -162 96 -247 58 -99 -45 -134 -172 -68 -250 28 -34 83 -56 116 -46 57 17
87 77 53 105 -12 10 -15 9 -15 -7 0 -11 -8 -27 -18 -36 -53 -48 -139 10 -129
87 14 103 122 155 222 106 123 -60 141 -235 34 -337 -49 -46 -103 -66 -179
-66 -93 0 -172 37 -245 114 -105 110 -146 254 -147 514 0 343 67 566 227 757
111 131 279 239 461 294 81 25 103 28 244 28 140 0 164 -3 243 -27 95 -29 167
-63 235 -109 117 -80 256 -123 377 -115 170 10 285 114 285 257 0 79 -28 133
-86 170 -77 49 -150 38 -208 -30 -20 -25 -26 -42 -26 -82 0 -44 4 -54 34 -84
24 -24 43 -34 65 -34 38 0 40 -13 5 -29 -103 -47 -248 -2 -424 132 -30 23
-149 136 -265 251 -115 114 -248 237 -295 272 -173 131 -340 194 -510 195
-185 0 -306 -71 -373 -220 -20 -43 -24 -48 -44 -40 -26 9 -28 22 -11 70 26 78
87 139 140 139 33 0 42 13 28 41 -16 28 -72 50 -109 43 -27 -6 -31 -4 -31 15
0 38 -68 151 -90 151 -6 0 -24 -19 -41 -42z m78 -58 c15 -28 23 -60 23 -92 l0
-49 26 20 c28 22 78 28 89 11 3 -5 -1 -10 -9 -10 -23 0 -94 -68 -116 -109 -10
-20 -23 -55 -29 -79 -7 -23 -16 -42 -21 -42 -5 0 -16 26 -25 58 -22 77 -61
132 -112 158 -23 12 -39 24 -36 28 13 13 61 5 86 -14 14 -11 27 -20 30 -20 3
0 3 18 0 40 -4 30 1 53 22 95 15 31 32 54 38 52 6 -2 21 -23 34 -47z m-368
-163 c65 -24 142 -92 170 -150 60 -128 16 -279 -100 -338 -81 -41 -201 -16
-250 52 -29 42 -36 116 -15 157 34 65 118 82 167 33 34 -35 37 -64 9 -109 -17
-27 -18 -34 -6 -38 40 -16 96 56 96 124 0 58 -21 103 -65 139 -134 111 -390
53 -636 -143 -49 -39 -178 -156 -287 -259 -270 -258 -366 -327 -517 -370 -78
-23 -204 -17 -261 13 -78 40 -134 125 -134 202 1 36 34 105 61 124 58 41 144
24 174 -34 30 -57 -2 -120 -61 -120 -35 0 -59 17 -69 50 -10 31 -25 13 -25
-28 0 -106 112 -170 252 -144 144 27 285 128 568 412 215 215 310 295 432 359
177 94 361 119 497 68z m976 6 c87 -21 229 -93 326 -164 46 -35 188 -164 314
-289 127 -124 260 -247 296 -273 185 -131 358 -160 455 -75 42 37 62 95 43
129 l-12 24 -12 -28 c-14 -34 -31 -47 -64 -47 -39 0 -71 37 -71 82 0 104 146
129 213 36 25 -34 33 -114 17 -163 -20 -59 -88 -121 -156 -141 -79 -23 -199
-15 -281 18 -140 57 -210 112 -565 446 -159 149 -281 243 -383 295 -194 97
-398 88 -470 -22 -48 -72 -42 -168 12 -211 47 -37 84 -19 46 22 -27 30 -22 86
11 114 54 47 135 22 167 -52 35 -77 3 -151 -84 -195 -60 -31 -152 -24 -208 16
-98 70 -130 207 -75 320 76 154 256 213 481 158z m-1027 -145 c24 -11 52 -35
63 -52 25 -41 25 -66 -1 -34 -82 105 -260 25 -260 -117 0 -76 33 -132 100
-172 132 -80 305 -17 367 133 l18 42 66 -5 c37 -3 80 -1 97 5 29 10 30 9 48
-36 22 -58 87 -129 139 -153 57 -26 156 -25 212 2 111 54 152 193 84 287 -57
81 -193 81 -237 0 -18 -32 -17 -3 1 31 38 75 129 109 239 91 186 -30 329 -122
627 -407 103 -98 186 -179 185 -179 0 -1 -44 9 -96 23 -85 22 -110 24 -235 20
-114 -4 -157 -10 -229 -31 -161 -48 -312 -134 -424 -240 -96 -90 -204 -273
-242 -408 -48 -172 -50 -210 -50 -939 0 -609 -2 -690 -16 -725 -34 -81 5 -192
79 -227 19 -10 56 -17 82 -17 42 0 52 5 86 39 34 34 39 45 39 84 0 54 -34 101
-83 117 -28 8 -25 9 26 7 46 -3 65 -10 95 -34 138 -111 162 -332 55 -491 -44
-65 -104 -102 -166 -104 -24 0 -53 4 -63 10 -11 7 -13 12 -6 12 7 0 24 11 37
25 56 55 12 145 -71 145 -94 0 -150 -99 -109 -197 11 -25 15 -75 16 -172 1
-75 5 -163 9 -196 7 -56 11 26 14 268 1 32 0 32 40 8 93 -58 225 -39 326 46
33 27 33 27 20 3 -7 -14 -67 -113 -133 -220 -176 -285 -252 -467 -276 -665
-15 -127 -14 -196 8 -303 47 -224 174 -372 320 -372 45 0 57 4 82 29 16 16 29
39 29 50 0 28 25 27 44 -1 40 -56 -4 -131 -83 -144 -55 -9 -44 -20 31 -33 167
-29 337 55 401 197 32 72 29 184 -6 245 -44 75 -125 111 -190 83 -36 -15 -57
-41 -57 -71 0 -13 5 -15 18 -9 53 23 95 -7 90 -66 -3 -29 -9 -38 -41 -54 -34
-16 -42 -17 -75 -4 -103 38 -91 202 18 258 125 64 280 -19 310 -167 35 -167
-59 -349 -217 -420 -70 -31 -198 -42 -284 -24 -254 53 -424 296 -445 636 -7
105 13 252 56 415 10 41 18 76 16 77 -5 6 -35 -70 -58 -149 l-23 -78 0 1373
c0 1774 -9 2363 -36 2315 -23 -41 -29 -475 -30 -2033 l0 -1650 -35 108 c-20
60 -38 107 -40 104 -3 -3 4 -40 15 -83 86 -342 64 -597 -68 -807 -69 -108
-165 -182 -284 -219 -55 -16 -87 -20 -166 -16 -89 3 -105 7 -174 41 -128 63
-197 167 -205 308 -8 134 34 226 121 268 147 71 315 -36 277 -178 -13 -48 -47
-80 -93 -88 -31 -5 -40 -1 -67 25 -36 37 -38 65 -6 97 20 20 31 23 55 19 56
-11 24 57 -36 77 -69 22 -165 -40 -193 -126 -18 -55 -9 -161 20 -220 31 -63
91 -124 155 -155 41 -19 70 -25 155 -28 69 -2 115 0 135 9 l30 12 -44 8 c-24
5 -54 16 -68 24 -45 30 -53 93 -17 129 22 22 34 20 34 -7 0 -57 101 -95 183
-68 56 19 126 78 168 144 61 94 90 199 96 347 12 278 -66 506 -292 860 -51 80
-103 163 -115 184 l-22 40 36 -28 c104 -79 229 -99 320 -51 l46 24 1 -137 c1
-75 5 -148 9 -162 5 -15 8 46 9 148 1 129 5 182 16 209 19 46 19 116 0 153
-42 81 -179 76 -200 -7 -8 -35 11 -78 42 -92 31 -14 21 -27 -27 -36 -51 -9
-135 36 -181 98 -51 69 -72 135 -72 231 0 174 98 306 228 306 l40 0 -42 -19
c-44 -20 -73 -62 -73 -103 0 -37 34 -90 71 -110 69 -37 151 -15 202 54 26 35
34 123 16 174 -11 32 -14 172 -14 734 0 617 -2 705 -17 785 -46 241 -127 398
-283 550 -95 93 -206 163 -335 212 -143 53 -224 66 -375 60 -114 -5 -164 -13
-252 -41 -23 -7 228 242 343 340 256 219 470 295 622 222z m450 -94 c29 -8 30
-49 1 -65 -12 -6 -43 -11 -69 -11 -26 0 -57 5 -69 11 -25 14 -28 46 -3 60 19
11 104 14 140 5z m-256 -2695 c104 -53 118 -202 25 -259 -38 -24 -68 -25 -106
-6 -26 14 -51 53 -51 80 0 27 41 66 69 66 35 0 51 -17 51 -52 0 -32 15 -37 30
-9 28 53 -12 123 -81 141 -58 16 -136 -9 -188 -58 -185 -176 -122 -552 104
-629 93 -31 175 5 175 76 -1 29 -2 33 -11 19 -21 -37 -69 -14 -69 32 0 36 17
50 60 50 50 0 81 -34 82 -88 1 -117 -129 -182 -268 -135 -59 20 -150 107 -183
177 -85 174 -62 405 52 524 90 94 209 121 309 71z m594 -4 c103 -46 173 -152
195 -297 23 -145 -29 -307 -128 -399 -75 -70 -106 -83 -195 -84 -83 0 -110 12
-152 69 -28 37 -29 115 -2 145 28 31 90 29 112 -4 15 -23 15 -27 0 -50 -19
-29 -38 -32 -57 -9 -22 27 -33 -9 -14 -47 32 -61 119 -75 202 -33 64 31 117
89 151 163 34 73 42 210 18 293 -21 72 -70 145 -124 182 -56 40 -150 48 -198
17 -39 -24 -59 -76 -45 -115 13 -33 31 -34 31 -2 0 52 62 74 100 36 46 -46 8
-127 -65 -136 -81 -11 -145 68 -129 159 9 54 64 113 123 132 55 17 108 11 177
-20z m-1560 -1826 c60 -19 114 -108 113 -189 l0 -45 -25 62 c-15 35 -44 82
-66 105 -22 24 -29 29 -15 11 29 -37 71 -124 81 -168 5 -18 -21 13 -69 85 -43
63 -83 122 -91 131 -8 8 -14 18 -14 22 0 7 43 0 86 -14z m2307 -116 c-47 -71
-87 -130 -89 -132 -19 -20 45 126 73 169 20 30 28 49 19 41 -27 -22 -73 -93
-96 -147 l-21 -49 5 53 c10 103 82 192 157 192 l37 0 -85 -127z m-1101 -273
c54 -217 56 -311 10 -401 l-31 -59 25 -16 c17 -12 34 -14 60 -9 73 13 110 57
123 143 l6 45 47 -84 c54 -95 84 -205 74 -275 -11 -82 -64 -154 -112 -154 -16
0 -16 2 1 20 23 25 23 91 1 126 -19 28 -71 54 -111 54 -46 0 -101 -36 -123
-81 l-20 -41 -16 30 c-20 39 -68 79 -106 87 -98 22 -189 -95 -134 -173 14 -20
14 -22 -4 -22 -28 0 -90 72 -98 115 -18 95 12 221 78 335 l32 55 9 -35 c13
-54 39 -101 68 -122 35 -26 98 -34 124 -15 19 15 19 16 -10 72 -23 46 -30 75
-33 140 -4 72 1 104 36 247 23 89 44 177 48 193 6 24 8 26 11 10 2 -11 23 -94
45 -185z m58 -37 c17 -49 38 -131 45 -183 l13 -95 1 65 c0 36 -6 92 -13 125
-8 33 -13 61 -11 63 1 2 51 -61 109 -140 176 -236 236 -384 207 -512 -28 -125
-123 -206 -243 -206 -64 0 -88 9 -130 48 -75 70 -50 197 42 217 62 14 121 -45
100 -99 -12 -33 -53 -50 -80 -34 -27 17 -36 3 -17 -26 20 -31 78 -50 123 -41
49 9 109 66 128 122 35 101 13 239 -55 362 -31 55 -129 194 -134 189 -1 -2 3
-35 8 -75 9 -61 8 -78 -7 -117 -18 -48 -54 -76 -96 -76 -25 0 -25 -3 2 56 41
88 28 283 -27 427 -4 9 -5 17 -2 17 3 0 19 -39 37 -87z m-204 -4 c-41 -142
-40 -287 3 -370 l21 -39 -29 0 c-15 0 -40 9 -53 20 -40 31 -51 70 -46 165 2
47 3 85 2 85 -4 0 -132 -196 -147 -225 -8 -16 -25 -63 -37 -103 -53 -173 11
-327 143 -349 40 -6 91 17 108 48 14 26 6 34 -20 20 -27 -15 -70 5 -77 36 -17
66 43 115 113 92 100 -33 93 -193 -11 -243 -49 -23 -140 -21 -193 5 -54 26
-116 96 -131 147 -18 59 -14 162 8 234 23 74 92 189 201 333 42 55 81 111 88
123 19 36 22 21 6 -26 -19 -54 -29 -198 -16 -237 7 -24 9 -13 10 60 2 98 10
145 42 230 26 70 36 66 15 -6z m-252 -221 c-30 -40 -75 -115 -101 -167 -44
-88 -47 -101 -52 -192 l-6 -98 -141 217 c-77 119 -151 234 -163 254 l-22 37
58 -26 c115 -51 310 -42 432 21 25 14 47 25 48 25 1 1 -23 -32 -53 -71z m801
6 c83 -24 202 -22 287 5 37 12 70 26 73 31 3 6 10 10 16 10 5 0 -6 -22 -24
-49 -17 -28 -90 -139 -161 -248 -71 -109 -132 -201 -136 -206 -3 -4 -4 19 -2
52 3 43 -2 80 -18 133 -29 94 -49 133 -127 246 l-65 93 49 -24 c27 -14 76 -33
108 -43z m-379 -662 c21 -17 56 -35 78 -39 l39 -8 -37 -25 c-71 -48 -120 -156
-101 -222 4 -12 20 -40 37 -61 l29 -37 -22 -38 c-13 -20 -40 -62 -59 -94 l-37
-56 -62 95 -62 96 24 26 c36 38 47 65 47 112 0 59 -33 122 -87 166 l-45 37 40
12 c58 17 95 47 122 98 l24 44 17 -37 c9 -21 34 -52 55 -69z m-329 -76 c33
-24 72 -59 88 -77 27 -33 27 -33 11 -4 -10 17 -39 50 -64 73 -43 40 -44 42
-13 25 106 -58 164 -149 142 -223 -17 -57 -27 -57 -46 0 -20 61 -85 150 -150
208 -62 55 -44 54 32 -2z m515 -24 c-63 -62 -110 -137 -137 -217 -6 -19 -7
-19 -20 5 -46 82 13 192 135 255 31 16 29 13 -18 -30 -29 -26 -57 -57 -63 -69
-9 -18 -7 -17 11 4 25 28 141 119 153 120 4 0 -23 -31 -61 -68z m-495 -77 c44
-58 78 -124 69 -132 -4 -4 -123 168 -151 217 -18 32 40 -28 82 -85z m475 -30
c-42 -63 -78 -113 -80 -110 -10 10 60 132 102 178 24 26 46 47 48 47 3 0 -29
-52 -70 -115z"/>
<path d="M6235 6957 c-94 -46 -211 -136 -320 -248 l-90 -92 103 94 c119 108
239 197 332 245 85 43 65 44 -25 1z"/>
<path d="M7740 6996 c0 -2 29 -18 64 -34 114 -53 223 -134 376 -276 65 -61 63
-58 -20 28 -99 101 -193 178 -270 220 -49 26 -150 68 -150 62z"/>
<path d="M6147 6455 c264 -48 524 -211 663 -415 23 -34 62 -103 86 -154 l44
-91 -1 153 c-1 83 -5 152 -10 152 -5 0 -9 -29 -9 -64 0 -102 -6 -105 -60 -22
-120 184 -315 337 -520 408 -74 26 -183 48 -228 47 -27 -1 -18 -4 35 -14z"/>
<path d="M7860 6454 c-278 -60 -524 -237 -658 -473 l-30 -54 -6 64 c-3 35 -7
78 -9 94 -2 17 -7 -35 -11 -116 -10 -183 -7 -201 22 -124 118 311 432 557 777
611 70 10 74 12 30 12 -27 0 -79 -6 -115 -14z"/>
<path d="M7307 1857 c3 -5 29 -20 57 -33 67 -31 153 -33 187 -4 l24 20 -40
-16 c-51 -21 -119 -14 -184 18 -27 13 -47 20 -44 15z"/>
<path d="M6725 1838 c-42 -23 -137 -30 -185 -15 -24 8 -24 7 -6 -7 41 -33 204
-9 230 33 9 14 8 14 -39 -11z"/>
<path d="M7191 1594 c0 -11 3 -14 6 -6 3 7 2 16 -1 19 -3 4 -6 -2 -5 -13z"/>
</g>
</svg>
