<?xml version="1.0" standalone="no"?>
<!DOCTYPE svg PUBLIC "-//W3C//DTD SVG 20010904//EN"
 "http://www.w3.org/TR/2001/REC-SVG-20010904/DTD/svg10.dtd">
<svg version="1.0" xmlns="http://www.w3.org/2000/svg"
 width="1024.000000pt" height="1024.000000pt" viewBox="0 0 1024.000000 1024.000000"
 preserveAspectRatio="xMidYMid meet">
<metadata>
Created by potrace 1.16, written by Peter Selinger 2001-2019
</metadata>
<g transform="translate(0.000000,1024.000000) scale(0.100000,-0.100000)"
fill="#000000" stroke="none">
<path d="M4980 8920 c0 -6 -8 -23 -19 -38 -28 -41 -125 -192 -231 -361 -52
-83 -97 -151 -100 -151 -3 1 -27 30 -55 66 -27 35 -83 97 -123 137 -84 83 -74
86 -144 -40 -22 -40 -43 -73 -46 -73 -4 0 -16 7 -27 16 -32 24 -113 44 -139
34 -31 -11 -125 -180 -236 -425 -152 -334 -505 -953 -780 -1370 -82 -123 -474
-650 -492 -661 -7 -4 -4 4 8 17 52 61 154 215 285 430 78 129 181 295 229 369
145 226 285 469 461 800 143 271 335 612 373 660 6 8 22 37 36 63 14 27 36 60
49 73 13 13 21 24 17 24 -20 0 -47 -25 -76 -70 -37 -57 -57 -62 -120 -30 -54
28 -63 26 -86 -21 l-19 -40 -55 39 c-81 57 -150 95 -150 83 0 -6 5 -11 11 -11
6 0 9 -6 6 -12 -2 -7 -11 -12 -21 -10 -9 2 -16 -3 -16 -10 0 -10 -2 -10 -9 1
-14 22 -91 -95 -286 -439 -26 -47 -124 -202 -218 -345 -94 -143 -205 -317
-248 -386 -198 -318 -392 -600 -544 -789 -134 -166 -310 -410 -505 -700 -114
-168 -222 -326 -240 -353 -26 -36 -31 -50 -22 -59 8 -8 16 -5 32 13 29 33 10
-1 -35 -65 -34 -46 -35 -50 -19 -67 16 -18 16 -19 1 -19 -10 0 -17 6 -17 13 0
6 -5 4 -11 -6 -12 -20 -4 -38 14 -32 7 3 44 -25 82 -61 68 -63 71 -72 12 -31
-16 10 -30 17 -33 15 -2 -3 35 -31 83 -63 49 -32 133 -92 188 -134 89 -67 259
-186 690 -484 72 -50 183 -131 248 -181 298 -229 944 -687 987 -701 11 -3 20
-14 20 -23 0 -12 -3 -13 -12 -4 -44 44 -33 -52 17 -150 61 -118 103 -175 168
-226 89 -70 214 -151 273 -179 98 -45 323 -56 351 -17 14 20 45 11 37 -10 -4
-10 6 -20 28 -32 18 -9 107 -72 198 -139 137 -101 1032 -702 1250 -840 35 -22
110 -76 167 -120 57 -45 183 -129 281 -188 97 -59 220 -134 272 -167 52 -33
136 -83 185 -111 50 -29 92 -56 93 -60 2 -5 17 -9 34 -9 27 0 29 2 17 16 -11
14 -10 18 6 27 11 7 29 14 39 17 11 3 22 12 24 19 3 8 0 11 -7 7 -18 -12 -13
1 33 82 73 130 280 547 361 730 42 96 174 370 293 610 120 240 273 568 341
727 69 160 192 430 274 600 221 459 261 547 353 783 101 259 103 274 36 317
-26 17 -68 39 -94 49 -26 9 -49 25 -52 34 -10 32 -36 243 -35 275 2 30 2 30 6
5 7 -45 19 -32 15 15 -3 23 -11 46 -18 50 -8 4 -14 20 -14 35 0 25 -1 25 -13
7 -7 -11 -20 -36 -27 -55 -8 -19 -86 -172 -175 -340 -88 -168 -190 -373 -227
-455 -73 -163 -298 -668 -358 -805 -21 -47 -102 -236 -180 -420 -79 -184 -165
-380 -192 -435 -125 -251 -280 -509 -373 -625 -78 -97 -89 -119 -29 -55 27 28
41 39 33 25 -49 -79 -70 -120 -60 -120 11 0 16 7 122 175 244 388 301 504 619
1265 119 285 441 994 541 1195 50 99 139 270 197 380 115 214 119 218 121 98
1 -48 -5 -61 -82 -185 -204 -325 -300 -532 -403 -873 -15 -49 -75 -200 -134
-335 -60 -135 -152 -346 -205 -470 -137 -317 -299 -652 -428 -885 -118 -214
-178 -307 -292 -450 -82 -103 -130 -173 -123 -180 12 -12 297 365 342 453 9
18 21 30 26 27 19 -11 120 186 340 665 54 118 284 649 364 843 16 37 30 66 33
64 9 -10 -110 -314 -307 -782 -134 -319 -261 -569 -379 -743 -42 -63 -138
-216 -213 -340 -76 -125 -144 -228 -151 -230 -33 -7 -335 142 -472 233 -82 54
-82 54 55 -11 114 -55 209 -91 277 -103 50 -10 69 4 21 14 -105 23 -224 73
-383 158 -237 128 -402 254 -645 492 -274 268 -351 310 -770 415 -269 68 -345
77 -512 61 -154 -15 -183 -23 -113 -30 l50 -6 -53 -14 c-29 -7 -54 -12 -55
-10 -1 2 -10 18 -20 36 -18 32 -18 32 5 37 51 12 248 26 348 26 209 0 444 -43
680 -125 125 -44 244 -100 400 -191 63 -36 169 -96 235 -132 66 -36 206 -121
310 -190 105 -69 240 -151 300 -183 104 -54 283 -125 292 -115 7 6 -21 20
-113 56 -99 39 -244 116 -343 182 -109 73 -108 75 9 20 161 -76 330 -124 430
-121 22 1 1 8 -60 21 -52 10 -135 33 -185 49 -110 37 -357 156 -485 234 -496
303 -782 454 -944 500 -134 38 -302 50 -514 36 -165 -10 -301 -29 -364 -50
-23 -8 -32 -4 -67 28 l-41 38 128 60 c139 67 322 134 447 164 168 40 332 35
535 -16 108 -27 197 -59 144 -51 -214 32 -403 32 -639 1 -302 -41 -616 -138
-576 -178 7 -7 39 1 103 26 121 46 139 52 105 32 -49 -28 -24 -27 73 5 200 65
391 63 675 -10 307 -78 571 -198 904 -409 251 -159 379 -227 512 -272 153 -51
329 -84 329 -61 0 4 -50 17 -111 30 -255 52 -392 114 -722 325 -279 178 -459
267 -712 354 -198 67 -360 101 -520 110 -109 6 -116 8 -75 16 25 5 131 10 235
11 281 2 470 -33 751 -139 120 -44 148 -59 293 -149 209 -131 351 -191 601
-254 l148 -38 -14 -27 c-21 -39 5 -37 35 3 12 17 25 29 29 27 4 -3 16 -1 27 4
19 7 19 8 -2 8 -13 1 -23 5 -23 10 0 13 126 185 218 295 93 112 165 214 212
301 44 80 28 62 -58 -65 -67 -99 -162 -215 -130 -160 8 14 48 81 88 150 152
258 314 552 414 750 115 227 428 902 499 1077 57 137 104 232 203 404 105 184
95 176 183 147 39 -14 71 -21 71 -18 0 16 -39 40 -83 51 -26 7 -47 17 -47 22
0 5 14 34 31 64 17 30 29 56 26 59 -5 5 -128 -188 -202 -318 -22 -37 -40 -66
-42 -64 -2 1 40 99 93 217 53 118 98 219 101 226 2 6 11 9 19 6 8 -3 14 -2 14
1 0 4 -10 11 -22 16 -20 7 -17 9 17 9 29 1 36 4 28 12 -7 7 -53 11 -127 10
-78 -1 -116 2 -116 9 0 18 64 178 124 308 79 174 82 196 19 155 -25 -17 -25
-17 -19 5 7 20 6 21 -20 7 -15 -7 -30 -18 -33 -23 -9 -13 -175 -87 -266 -118
-48 -16 -114 -29 -165 -33 -60 -4 -84 -10 -83 -18 2 -7 -6 -13 -17 -13 -18 0
-20 7 -21 88 -5 366 -28 568 -90 767 -10 33 -28 101 -39 150 -31 131 -29 128
-46 114 -8 -6 -14 -18 -14 -25 0 -8 -4 -14 -8 -14 -10 0 -32 45 -32 65 0 8 -4
15 -10 15 -5 0 -10 -18 -10 -41 0 -89 -118 -358 -209 -479 -98 -130 -321 -320
-358 -305 -8 2 -51 -11 -96 -29 -104 -43 -276 -98 -291 -93 -6 2 7 10 29 17
45 14 76 37 35 25 -153 -43 -510 -165 -565 -193 -97 -48 -179 -105 -252 -175
-61 -59 -62 -59 -53 -26 5 18 29 130 52 248 39 196 42 230 42 366 0 178 -26
309 -98 490 -68 169 -69 177 -63 294 10 175 58 355 138 515 59 116 91 158 154
202 55 37 61 63 7 29 l-27 -18 30 32 c16 17 40 34 52 37 32 8 29 24 -5 24 -45
0 -230 -55 -330 -99 -51 -22 -92 -38 -92 -35 0 7 134 71 175 83 66 20 68 21
63 26 -10 10 -124 -27 -198 -64 -70 -36 -436 -256 -504 -304 -31 -22 -31 -22
-63 38 l-16 30 27 -24 c33 -31 33 -17 0 32 -35 53 -82 165 -105 255 -21 84
-29 99 -29 57 0 -83 -32 78 -51 253 -6 62 -16 115 -20 118 -5 3 -9 0 -9 -6z
m16 -171 c8 -68 24 -162 36 -209 25 -101 108 -304 148 -358 l28 -40 -46 -33
c-134 -96 -436 -388 -514 -496 -47 -66 -218 -387 -218 -410 0 -4 -55 -120
-122 -258 -237 -489 -397 -722 -595 -871 -40 -31 -73 -57 -73 -60 0 -6 37 13
75 39 l30 21 -20 -23 c-35 -41 -152 -121 -226 -155 -82 -38 -71 -48 15 -15 65
24 143 79 281 199 256 222 362 385 568 870 126 296 194 421 287 530 41 49 111
132 155 184 104 125 456 451 615 569 69 51 201 121 353 186 102 44 267 101
291 101 8 0 -52 -73 -125 -154 -111 -122 -162 -223 -214 -426 -34 -130 -31
-221 9 -320 15 -36 34 -103 42 -150 8 -47 28 -141 45 -210 84 -348 81 -517
-16 -885 -44 -169 -54 -192 -142 -337 -38 -62 -139 -232 -223 -378 -84 -146
-157 -269 -162 -275 -15 -17 49 122 161 349 60 121 100 208 90 195 -20 -25
-82 -148 -259 -514 -55 -115 -140 -281 -188 -368 -76 -137 -87 -154 -90 -128
-2 17 6 51 17 76 11 25 18 45 17 45 -2 0 -24 -35 -49 -79 -25 -43 -52 -85 -59
-93 -7 -7 -18 -23 -24 -33 -48 -84 -123 -193 -128 -188 -7 8 -9 -12 -7 -97 1
-51 -3 -72 -19 -95 l-20 -30 0 60 c0 39 6 69 16 83 9 13 14 25 11 28 -6 6 -33
-37 -81 -130 -20 -38 -34 -72 -31 -74 3 -3 6 1 6 9 1 8 5 -11 8 -41 6 -48 4
-59 -17 -90 l-24 -35 6 40 c13 80 9 161 -8 144 -3 -2 -6 -50 -7 -106 -2 -76
-7 -110 -21 -135 l-18 -33 5 115 c6 145 -11 105 -21 -48 -4 -60 -13 -120 -21
-135 -19 -38 -23 -31 -13 23 5 25 9 74 8 110 0 59 -3 51 -22 -75 -16 -106 -28
-153 -49 -193 -16 -30 -30 -52 -32 -50 -1 1 8 44 21 93 12 50 23 106 22 125
l0 35 -8 -35 c-4 -19 -11 -53 -15 -74 -4 -23 -10 -35 -14 -28 -4 7 -16 -12
-28 -46 -11 -31 -31 -82 -43 -112 -12 -30 -17 -50 -11 -45 12 12 71 158 71
176 0 7 3 10 6 6 3 -3 -2 -32 -11 -64 -10 -32 -18 -65 -19 -73 -4 -36 -118
-235 -129 -224 -3 4 -4 84 0 178 18 492 -111 858 -439 1253 -101 120 -208 307
-288 498 -23 55 -55 129 -72 165 -18 37 -33 88 -36 118 -3 33 -9 51 -16 49
-14 -5 -9 -62 14 -145 10 -37 15 -69 10 -72 -10 -6 91 -213 212 -432 48 -86
146 -246 219 -355 160 -240 191 -302 233 -474 19 -74 45 -177 59 -229 41 -154
49 -207 54 -365 4 -135 2 -159 -20 -245 l-25 -95 -1 78 c-2 149 -40 333 -103
502 -53 142 -75 185 -152 299 -35 52 -80 125 -100 163 -51 97 -107 160 -221
251 -55 44 -116 97 -136 118 -156 165 -392 528 -468 719 -21 55 -51 151 -66
212 l-27 113 109 117 c113 122 213 243 348 423 64 85 258 326 323 403 9 10 10
17 4 17 -6 0 -56 -54 -111 -120 -56 -66 -101 -117 -101 -114 0 4 28 52 63 108
77 124 137 228 211 369 67 128 176 303 242 389 27 35 143 173 259 308 116 135
231 272 256 305 77 102 284 405 339 498 50 83 69 107 56 70 -5 -15 -3 -14 9 2
9 11 13 26 10 33 -5 14 63 147 71 139 3 -2 11 -60 20 -128z m-558 -201 c33
-35 86 -94 119 -133 l61 -70 -46 -65 c-53 -75 -196 -254 -309 -386 -375 -439
-389 -459 -589 -826 -137 -250 -248 -433 -321 -526 -29 -37 -111 -143 -182
-237 -106 -140 -148 -186 -234 -258 -119 -100 -142 -123 -130 -130 5 -3 41 24
81 60 40 36 75 63 78 60 3 -2 -27 -33 -65 -68 -61 -55 -90 -99 -63 -99 4 0 19
-32 31 -72 13 -40 50 -135 83 -211 140 -330 244 -496 417 -667 149 -147 321
-333 400 -433 188 -240 331 -596 331 -828 0 -44 4 -68 10 -64 6 3 11 23 11 43
l2 37 8 -45 c4 -25 8 -65 8 -89 1 -42 0 -43 -26 -36 -16 4 -28 7 -29 8 0 1 -6
36 -13 77 -34 201 -177 524 -346 780 -127 192 -246 309 -565 556 -209 162
-306 251 -427 392 -127 148 -166 202 -215 290 -22 40 -43 71 -45 68 -9 -9 80
-165 138 -243 154 -204 291 -339 560 -548 364 -283 439 -363 602 -640 92 -158
114 -199 90 -165 -154 210 -278 344 -423 454 -54 42 -187 132 -296 202 -110
69 -260 171 -334 227 -225 167 -484 445 -556 595 -14 30 -28 51 -31 48 -14
-13 73 -158 160 -266 141 -177 289 -314 485 -450 69 -48 83 -64 25 -29 -184
111 -300 200 -456 349 -111 106 -178 184 -216 255 -14 25 -19 31 -15 15 23
-93 198 -287 417 -463 89 -71 233 -163 427 -272 223 -125 314 -184 420 -272
103 -87 165 -157 234 -267 44 -70 156 -302 156 -323 0 -4 -30 38 -67 93 -117
171 -224 305 -333 415 -152 153 -246 212 -555 348 -188 83 -308 151 -403 227
-123 98 -303 284 -383 394 -40 55 -75 98 -77 95 -10 -9 112 -175 192 -264 47
-51 86 -95 86 -98 0 -10 -130 96 -210 171 -47 44 -100 94 -119 111 l-34 30 20
-30 c71 -101 461 -418 851 -689 83 -58 110 -84 50 -48 -18 10 -78 43 -133 72
-166 88 -423 238 -541 315 -116 77 -182 141 -284 275 -34 44 -63 80 -66 80
-14 0 76 -120 160 -215 l71 -79 -60 44 c-86 63 -193 148 -200 160 -3 5 -11 10
-17 10 -24 0 52 -66 223 -195 97 -73 216 -159 265 -192 166 -111 492 -297 709
-406 72 -36 168 -93 215 -127 119 -88 332 -306 406 -415 66 -98 119 -185 111
-185 -2 0 -32 33 -65 73 -88 105 -256 274 -343 345 -107 86 -294 203 -494 310
-266 141 -379 210 -514 312 -250 190 -539 406 -589 440 -50 34 -62 53 -43 65
14 8 91 125 91 137 0 6 -10 -2 -22 -18 -12 -16 -26 -33 -31 -39 -14 -15 22 47
44 76 16 20 18 21 13 4 -5 -17 -3 -16 16 5 13 15 6 -6 -20 -53 -23 -44 -39
-81 -37 -83 2 -3 20 17 40 43 19 26 57 73 83 104 258 300 431 520 550 701 122
186 760 1251 885 1478 140 254 276 489 299 517 16 20 22 21 49 12 32 -11 37
-19 22 -34 -5 -6 -74 -140 -154 -300 -181 -362 -272 -522 -390 -689 -52 -72
-155 -223 -229 -336 -74 -113 -177 -263 -228 -335 -99 -139 -241 -350 -328
-487 -29 -45 -97 -146 -151 -222 -54 -76 -106 -153 -115 -170 l-17 -31 26 30
c65 74 189 248 331 462 213 323 437 645 402 578 -17 -31 -215 -355 -255 -417
-104 -159 -285 -416 -330 -470 -26 -31 -81 -96 -122 -145 -41 -48 -92 -107
-115 -130 -22 -24 -35 -43 -29 -43 7 0 15 5 18 10 4 6 10 8 14 6 11 -7 23 4
111 112 234 285 354 456 608 863 77 123 222 352 322 509 231 361 311 501 536
940 108 212 195 370 216 393 36 39 39 50 5 20 -19 -18 -20 -18 -3 14 l16 32
35 -20 c21 -13 42 -18 55 -14 11 4 20 2 20 -4 0 -6 -4 -11 -10 -11 -5 0 -10
-5 -10 -11 0 -7 -17 -39 -39 -73 -61 -97 -163 -280 -236 -426 -151 -297 -310
-575 -518 -905 -39 -60 -133 -213 -210 -340 -224 -369 -296 -467 -624 -848
-91 -105 -124 -160 -62 -101 131 123 267 266 340 354 165 202 486 636 601 815
270 420 601 1005 724 1282 122 273 207 423 241 423 8 0 33 -14 54 -31 43 -33
52 -29 17 8 l-22 24 42 -23 c23 -13 42 -26 42 -31 0 -12 -75 -128 -221 -342
-145 -213 -180 -270 -158 -263 7 2 56 68 109 145 85 127 139 199 99 133 -9
-14 -49 -81 -89 -150 -41 -69 -86 -141 -100 -160 -29 -38 -98 -155 -240 -410
-135 -241 -233 -393 -513 -795 -154 -221 -345 -477 -446 -600 -127 -152 -188
-230 -220 -280 l-33 -50 39 40 c46 49 361 432 465 565 121 156 396 551 528
760 68 107 142 224 165 260 39 61 107 181 255 450 35 63 85 151 111 195 26 44
95 163 154 265 60 102 119 199 131 216 26 34 31 49 12 38 -8 -4 -10 -3 -5 2 5
5 13 9 19 9 6 0 24 25 40 55 16 30 22 46 14 35 -42 -55 -44 -56 -19 -2 15 31
28 57 29 57 1 0 29 -28 62 -62z m-804 -180 c35 -24 72 -48 82 -54 18 -11 18
-14 3 -40 -10 -19 -22 -28 -35 -26 -10 2 -31 4 -46 4 -17 1 -24 6 -21 15 9 23
-13 14 -27 -12 -7 -14 -17 -25 -22 -25 -5 0 -13 -11 -17 -24 -5 -13 -66 -100
-135 -194 -69 -94 -154 -217 -189 -274 -73 -118 -115 -183 -347 -538 -92 -140
-240 -374 -328 -520 -224 -370 -464 -733 -694 -1048 -46 -62 -106 -150 -134
-195 -28 -45 -65 -96 -83 -114 -36 -37 -38 -43 -11 -43 10 0 54 -31 97 -68
189 -165 398 -330 521 -410 74 -48 190 -126 258 -174 166 -117 313 -211 459
-293 166 -94 265 -159 369 -243 169 -135 363 -339 408 -426 l20 -40 -48 38
c-80 60 -238 166 -423 281 -96 60 -224 144 -285 189 -61 44 -181 127 -266 185
-85 59 -200 140 -255 182 -55 41 -138 102 -185 134 -178 123 -400 296 -431
334 -17 22 -36 38 -40 35 -20 -12 -302 227 -315 268 -7 24 20 66 206 318 163
222 302 424 397 580 39 64 108 169 154 235 101 145 324 482 398 602 62 99 216
340 329 513 41 63 141 212 222 330 81 118 169 256 195 305 56 105 145 255 150
255 3 0 33 -19 69 -42z m148 -20 c-8 -8 -9 -4 -5 13 4 13 8 18 11 10 2 -7 -1
-18 -6 -23z m83 22 c3 -5 2 -10 -4 -10 -5 0 -13 5 -16 10 -3 6 -2 10 4 10 5 0
13 -4 16 -10z m2031 -116 c-80 -162 -135 -376 -137 -526 -1 -78 -1 -81 -14
-53 -30 68 -28 132 10 280 19 77 47 164 61 195 24 53 105 182 111 176 2 -1
-12 -34 -31 -72z m-2457 -11 c-45 -83 -238 -383 -246 -383 -3 0 1 10 9 23 8
12 50 83 93 157 81 140 172 280 181 280 3 0 -14 -35 -37 -77z m1836 -102 c-11
-10 -67 -60 -125 -112 -180 -161 -289 -270 -392 -391 -55 -65 -102 -118 -104
-118 -8 0 94 147 155 223 96 118 274 279 416 376 66 44 80 51 50 22z m-1829
-156 c-10 -14 -80 -140 -156 -280 -77 -139 -200 -352 -273 -472 -74 -120 -195
-321 -269 -448 -254 -434 -384 -634 -541 -835 -72 -91 -324 -395 -369 -445
-15 -17 21 64 49 109 14 22 98 137 187 254 283 375 345 470 611 937 81 143
196 334 255 425 151 233 217 337 305 480 42 69 107 164 144 212 64 86 90 114
57 63z m1321 -267 c-19 -24 -72 -100 -118 -170 -114 -171 -112 -169 -88 -118
39 80 126 214 179 273 60 67 77 76 27 15z m2988 -403 c42 -164 80 -384 73
-426 -3 -22 -149 623 -148 657 0 42 15 34 24 -13 4 -26 28 -124 51 -218z
m-113 219 c0 -27 -68 -210 -99 -264 -33 -58 -118 -174 -140 -191 -11 -9 -9 -2
5 16 52 69 115 169 138 222 35 79 74 201 74 231 0 31 21 17 22 -14z m68 -241
c23 -109 56 -259 72 -333 24 -107 31 -169 35 -299 5 -151 4 -165 -13 -178 -11
-8 -13 -13 -5 -13 10 0 12 -13 7 -57 -19 -162 -76 -416 -122 -545 -70 -194
-264 -558 -400 -748 -42 -58 -112 -158 -155 -222 -71 -104 -86 -120 -132 -143
-64 -31 -215 -59 -280 -51 -26 3 -45 1 -42 -4 3 -4 -1 -11 -7 -13 -7 -3 17 -6
53 -6 77 -1 220 24 262 45 27 15 28 15 17 -5 -28 -54 -263 -280 -385 -371
-194 -145 -344 -229 -562 -313 -58 -23 -54 -13 8 19 93 47 44 35 -62 -15 -57
-27 -142 -59 -189 -70 -86 -22 -293 -51 -495 -71 -60 -6 -139 -17 -175 -25
-36 -8 -126 -26 -200 -41 -298 -58 -403 -98 -562 -216 -43 -32 -81 -58 -84
-58 -3 0 -15 -10 -25 -22 l-20 -23 12 24 c6 14 26 45 44 70 36 52 203 333 289
487 30 56 74 123 97 150 22 27 65 90 94 139 30 50 61 99 70 110 24 29 -29 -67
-89 -160 -29 -44 -69 -110 -89 -148 -21 -37 -50 -79 -65 -93 -15 -15 -20 -24
-11 -21 12 4 9 -8 -13 -49 -39 -72 -28 -69 18 6 20 33 40 60 45 60 4 0 23 28
42 63 33 60 84 151 329 587 63 113 134 237 158 275 210 341 545 897 571 947
56 113 -43 -46 -444 -712 -116 -193 -172 -279 -137 -210 95 184 340 608 543
935 58 94 103 172 101 174 -5 6 11 31 -176 -269 -167 -267 -309 -512 -459
-793 -45 -84 -116 -208 -159 -277 -43 -69 -108 -177 -145 -240 -82 -139 -185
-300 -192 -300 -3 0 1 10 9 22 8 13 47 79 88 148 40 69 96 163 125 210 29 47
98 168 155 270 56 102 165 292 241 422 77 131 198 340 270 465 193 336 250
427 260 412 5 -9 15 -3 36 21 71 86 149 147 324 253 118 71 177 91 404 141
222 49 330 81 432 126 72 33 245 149 321 216 120 106 264 332 295 462 6 28 14
52 18 52 3 0 25 -89 49 -197z m-1828 -51 c26 -100 31 -138 33 -262 2 -80 1
-125 -1 -100 -9 95 -36 250 -70 395 -19 82 -37 159 -39 170 -3 11 7 -4 21 -33
14 -29 39 -105 56 -170z m-3278 -549 c-189 -313 -368 -590 -423 -653 -17 -19
38 69 122 195 85 127 184 282 222 345 56 95 183 304 241 398 8 12 16 22 19 22
2 0 -79 -138 -181 -307z m360 205 c-32 -54 -134 -208 -138 -208 -3 0 26 50 65
110 39 61 73 110 76 110 2 0 1 -6 -3 -12z m1257 -210 c-118 -241 -255 -443
-354 -520 -35 -27 -30 -20 27 42 37 41 101 125 142 185 69 104 234 399 234
419 0 5 3 7 6 3 3 -3 -21 -61 -55 -129z m2774 82 c-3 -5 -12 -10 -18 -10 -7 0
-6 4 3 10 19 12 23 12 15 0z m1456 -231 c-73 -165 -106 -246 -166 -419 -32
-90 -103 -247 -217 -473 -93 -187 -171 -337 -173 -335 -9 9 46 201 90 313 25
66 124 273 220 460 171 335 235 476 235 516 0 18 59 84 67 75 2 -2 -23 -64
-56 -137z m-26 59 c-12 -57 -50 -137 -248 -530 -202 -399 -260 -539 -292 -703
-30 -156 -93 -277 -335 -645 -82 -124 -155 -243 -164 -265 -8 -22 -10 -31 -3
-21 7 10 49 73 94 140 45 67 121 183 169 259 47 75 88 137 90 137 6 0 -47
-113 -180 -384 -109 -221 -148 -291 -214 -379 -45 -59 -76 -105 -69 -102 7 4
5 1 -3 -7 -9 -7 -38 -56 -64 -108 -53 -103 -68 -123 -194 -275 -46 -55 -102
-130 -123 -167 -36 -61 -42 -67 -67 -63 -15 2 -65 6 -112 9 -198 13 -491 85
-737 181 -224 88 -305 110 -495 135 -266 35 -261 33 -128 54 63 10 165 22 225
26 140 10 217 30 495 129 250 89 360 140 437 203 354 289 368 302 557 532 154
187 226 286 226 309 0 8 28 52 61 98 235 316 368 584 443 890 25 103 53 282
58 369 l3 45 134 13 c148 15 228 39 356 111 39 22 74 40 78 40 5 1 5 -14 2
-31z m-2235 -72 c0 -2 -28 -20 -62 -41 -35 -21 -88 -56 -118 -77 l-55 -39 52
48 c50 46 183 126 183 109z m-3943 -88 c-20 -32 -210 -329 -262 -408 -23 -36
-79 -109 -123 -162 -44 -54 -102 -127 -127 -163 -26 -36 -49 -65 -51 -65 -6 0
32 59 156 245 149 223 485 680 407 553z m5580 -75 c-3 -10 -5 -4 -5 12 0 17 2
24 5 18 2 -7 2 -21 0 -30z m-17 -137 c-37 -256 -134 -523 -272 -753 -61 -102
-75 -110 -18 -10 137 240 240 532 281 797 8 47 15 77 17 66 2 -10 -1 -55 -8
-100z m-2013 42 c-3 -8 -6 -5 -6 6 -1 11 2 17 5 13 3 -3 4 -12 1 -19z m83 19
c0 -2 -10 -12 -22 -23 l-23 -19 19 23 c18 21 26 27 26 19z m2616 -125 c11 -6
7 -22 -22 -82 -20 -41 -69 -149 -109 -240 -40 -91 -110 -244 -155 -340 -45
-96 -121 -272 -170 -390 -48 -118 -105 -253 -127 -300 -22 -47 -205 -374 -407
-728 -498 -873 -548 -963 -542 -970 11 -10 -45 -102 -62 -102 -47 1 -167 43
-252 90 -165 91 -380 195 -515 250 -71 29 -165 72 -207 96 -143 81 -357 166
-546 215 -152 40 -358 51 -494 25 -204 -39 -465 -136 -571 -213 -29 -21 -45
-29 -37 -18 33 41 176 136 292 194 102 51 154 69 303 107 259 66 378 68 700
14 126 -22 180 -39 395 -122 241 -94 537 -163 752 -175 84 -5 105 -9 101 -20
-22 -57 103 83 207 232 34 50 79 110 100 135 21 25 54 79 75 120 49 98 121
209 150 232 13 10 42 47 64 82 41 66 234 459 379 776 44 96 166 344 270 550
114 225 199 405 212 450 12 41 29 92 38 114 l15 39 74 -7 c41 -3 81 -9 89 -14z
m-5986 -206 c-33 -40 -71 -82 -83 -92 l-22 -19 21 25 c58 71 137 160 141 160
2 0 -23 -33 -57 -74z m395 -176 c8 -39 -12 -1 -35 64 -13 40 -15 57 -7 65 11
11 17 -6 42 -129z m-1087 -12 c-14 -18 -55 -76 -93 -128 -66 -93 -97 -131 -80
-100 27 48 183 260 192 260 3 0 -6 -15 -19 -32z m6684 -620 c-149 -299 -326
-632 -316 -598 33 124 167 421 263 585 88 150 164 266 169 260 3 -3 -49 -114
-116 -247z m130 165 c3 -25 -1 -43 -10 -52 -12 -13 -11 -17 6 -30 17 -13 22
-33 28 -98 6 -72 4 -85 -14 -110 -27 -38 -213 -393 -338 -645 -98 -197 -157
-327 -257 -573 -80 -197 -203 -453 -351 -729 -79 -149 -198 -379 -265 -511
-66 -132 -156 -305 -200 -384 -44 -79 -114 -223 -156 -320 -42 -97 -78 -177
-80 -179 -1 -2 -54 22 -116 52 -69 33 -187 105 -299 182 -102 70 -275 189
-385 263 -204 138 -254 175 -428 313 -232 184 -491 354 -720 473 -184 95 -316
151 -413 174 -131 31 -149 32 -169 8 -18 -21 -19 -21 -36 28 -24 69 -24 69 26
83 67 18 98 15 314 -23 343 -60 415 -89 813 -321 336 -195 358 -211 466 -325
52 -55 99 -99 105 -99 6 0 -17 28 -51 63 -34 34 -62 66 -62 70 0 4 33 -16 73
-46 461 -341 626 -443 806 -497 76 -23 76 -24 55 -75 -19 -46 58 59 131 180
43 72 124 202 180 290 124 194 194 313 274 465 33 63 61 112 61 107 0 -4 -79
-173 -176 -375 -183 -383 -278 -559 -378 -702 -33 -47 -74 -107 -92 -135 -18
-27 -38 -56 -45 -63 -6 -7 -8 -16 -5 -19 7 -7 60 55 62 75 2 8 11 24 22 36 34
37 126 177 192 291 70 121 257 499 428 865 60 129 168 357 239 505 72 149 160
342 198 430 94 222 179 399 263 545 39 69 91 168 116 220 90 191 176 383 172
387 -4 4 -94 -176 -176 -352 -28 -60 -85 -169 -126 -241 -90 -159 -181 -347
-264 -549 -62 -149 -235 -519 -350 -750 -74 -148 -71 -135 20 75 126 290 297
720 359 905 76 226 98 277 302 675 91 179 181 360 200 402 19 43 37 78 40 78
4 0 9 -17 11 -37z m-7129 -62 l15 -30 -34 16 c-26 13 -31 19 -23 30 17 20 26
16 42 -16z m28 -78 c35 -25 89 -67 119 -93 30 -25 78 -64 106 -86 28 -21 118
-91 200 -155 276 -214 318 -244 589 -429 254 -172 495 -346 495 -357 0 -7 -8
-1 -275 186 -242 170 -352 244 -540 368 -227 148 -573 410 -675 510 -58 56
-100 103 -94 103 7 0 40 -21 75 -47z m7221 -21 l57 -44 -36 -76 c-19 -43 -39
-88 -44 -101 -14 -36 -202 -419 -349 -711 -128 -255 -217 -447 -311 -672 -88
-210 -237 -525 -372 -788 -166 -321 -245 -482 -362 -740 -185 -408 -250 -535
-307 -597 l-20 -21 -116 77 c-65 43 -202 133 -307 201 -305 197 -490 323 -650
441 -82 61 -271 192 -420 291 -148 100 -373 258 -500 352 -126 94 -268 194
-315 223 -47 30 -92 62 -102 73 -20 24 -30 26 -21 4 5 -13 2 -15 -18 -9 -13 4
-37 14 -52 22 -23 12 -26 17 -17 28 7 8 10 22 6 30 -4 12 0 14 22 9 34 -9 41
-14 16 -14 -30 -1 22 -26 125 -60 106 -34 284 -122 442 -218 170 -103 193
-119 329 -223 69 -53 215 -158 325 -234 110 -76 292 -206 405 -290 218 -162
436 -311 535 -365 122 -67 245 -141 259 -156 8 -8 19 -13 23 -12 4 1 18 -2 31
-6 33 -11 41 2 14 22 l-23 18 52 109 c28 61 72 144 96 186 24 42 88 173 142
291 54 118 129 272 168 344 126 232 410 787 491 960 44 93 112 248 152 344
131 319 349 772 521 1085 l71 130 -11 61 c-14 80 -14 97 2 88 6 -4 38 -27 69
-52z m14 27 c3 -6 -5 -3 -20 6 -14 10 -26 19 -26 22 0 7 39 -17 46 -28z
m-7305 -6 c13 -16 12 -17 -3 -4 -17 13 -22 21 -14 21 2 0 10 -8 17 -17z m7355
-31 c-4 -3 -14 2 -24 12 -16 18 -16 18 6 6 13 -6 21 -14 18 -18z m-5566 -52
c12 -16 19 -30 16 -30 -2 0 -14 14 -26 30 -12 17 -19 30 -16 30 2 0 14 -13 26
-30z m-1050 -216 c0 -8 -116 77 -161 118 -24 22 2 5 59 -37 56 -43 102 -79
102 -81z m1748 -34 c161 -244 256 -509 280 -785 9 -96 8 -134 -1 -84 -21 109
-52 243 -68 289 -21 59 -24 84 -9 60 19 -30 11 17 -16 87 -14 37 -36 97 -48
133 -29 82 -57 136 -114 225 -137 211 -155 242 -117 200 20 -22 62 -78 93
-125z m-1528 30 c74 -46 207 -121 295 -168 152 -80 375 -209 375 -217 0 -4
-191 95 -280 145 -286 161 -540 315 -540 327 0 5 -14 13 150 -87z m2556 29
c-6 -38 -60 -159 -71 -159 -3 0 -5 17 -5 38 0 25 12 58 37 100 20 34 39 62 41
62 3 0 2 -18 -2 -41z m-2215 -119 c44 -22 103 -50 130 -61 99 -39 275 -128
349 -176 162 -107 311 -273 542 -603 69 -100 104 -167 132 -260 15 -47 29 -92
33 -100 10 -24 12 -40 5 -41 -4 0 -19 -3 -34 -5 -26 -4 -27 -3 -27 48 -1 126
-71 288 -190 435 -136 169 -272 290 -446 397 -70 43 -187 124 -506 349 -45 31
-79 57 -75 57 3 0 42 -18 87 -40z m5934 -39 c-14 -34 -104 -220 -199 -414
-164 -331 -217 -448 -446 -975 -51 -117 -94 -211 -96 -209 -2 2 21 64 52 138
31 74 85 204 121 289 152 362 234 542 378 830 167 333 208 410 213 405 2 -1
-8 -30 -23 -64z m-3827 -67 l-23 -39 -3 43 c-2 31 3 53 20 80 l23 37 3 -41 c2
-29 -4 -53 -20 -80z m-1220 20 c54 -48 142 -159 142 -179 0 -3 -18 15 -41 42
-22 26 -73 81 -112 121 -84 86 -78 95 11 16z m1346 24 c-23 -46 -105 -178
-110 -178 -5 0 2 12 70 128 49 83 70 109 40 50z m-170 -71 c-1 -40 -8 -64 -28
-93 l-26 -39 0 49 c0 35 8 62 25 93 14 23 27 43 28 43 1 0 2 -24 1 -53z
m-2189 -50 c28 -16 124 -69 215 -119 319 -175 451 -271 635 -460 66 -67 93
-98 60 -67 -190 178 -349 291 -708 502 -199 118 -367 237 -202 144z m5129
-134 c-156 -336 -644 -1190 -746 -1305 l-29 -33 25 45 c13 25 106 189 206 365
100 176 272 479 382 673 110 193 202 352 203 352 2 0 -17 -44 -41 -97z m-3071
-90 c-14 -24 -27 -43 -29 -43 -9 0 10 117 25 150 l15 35 7 -50 c5 -42 2 -57
-18 -92z m-1246 -125 c34 -27 97 -86 139 -131 164 -176 259 -347 279 -502 6
-49 6 -49 -51 60 -88 171 -142 264 -203 345 -55 75 -236 263 -321 334 -39 33
-35 32 25 -10 39 -26 98 -69 132 -96z m3933 -28 c-12 -16 -24 -30 -26 -30 -3
0 4 14 16 30 12 17 24 30 26 30 3 0 -4 -13 -16 -30z m-3560 -130 c106 -158
174 -314 202 -466 11 -61 21 -79 31 -51 2 6 6 -3 9 -21 4 -30 3 -33 -16 -28
-12 3 -33 6 -48 6 -27 0 -28 1 -28 61 0 50 -11 91 -66 237 -36 97 -85 216
-109 265 -23 48 -41 87 -39 87 2 0 31 -41 64 -90z m-810 -57 c0 -6 -17 4 -87
54 -35 24 -63 46 -63 49 0 3 34 -18 75 -47 41 -28 75 -53 75 -56z m300 -131
c321 -198 454 -299 463 -354 17 -98 26 -128 52 -176 43 -79 85 -123 185 -191
109 -75 172 -105 267 -126 112 -25 213 -8 123 21 -31 10 -35 16 -35 45 -1 19
-5 42 -9 52 -5 10 -6 20 -3 23 3 3 19 -20 36 -52 24 -48 30 -54 31 -34 1 24 2
24 12 4 5 -11 55 -45 111 -75 128 -68 307 -188 461 -308 151 -117 257 -191
476 -331 186 -119 360 -241 580 -404 147 -110 174 -132 150 -120 -47 25 -226
140 -360 234 -85 59 -316 214 -512 344 -196 129 -363 244 -370 254 -16 23 -76
62 -289 187 -160 94 -165 96 -209 89 -104 -17 -180 -9 -271 29 -105 44 -175
84 -256 148 -89 71 -162 155 -195 224 -26 56 -37 116 -20 114 53 -9 6 36 -273
256 -242 191 -307 246 -262 219 6 -4 59 -37 117 -72z m1410 -161 c-58 -20
-138 -54 -179 -75 -40 -20 -75 -35 -78 -33 -2 3 36 25 84 50 92 48 224 97 258
96 11 0 -27 -17 -85 -38z m-499 -193 c-6 -17 -11 -42 -11 -54 0 -15 -6 -24
-16 -24 -12 0 -14 5 -9 18 5 9 15 44 24 76 10 38 17 51 19 37 2 -12 -1 -36 -7
-53z m-372 -13 c0 -5 -8 6 -19 25 -11 19 -19 40 -19 45 0 6 8 -6 19 -25 11
-19 19 -39 19 -45z m1684 30 c91 -16 219 -59 284 -95 40 -22 39 -22 -70 16
-107 37 -264 73 -389 89 l-113 14 100 -4 c55 -3 140 -12 188 -20z m-1723 -18
c0 -5 -4 -5 -10 -2 -5 3 -10 14 -10 23 0 15 2 15 10 2 5 -8 10 -19 10 -23z
m105 -57 c3 -5 -3 -10 -15 -10 -12 0 -18 5 -15 10 3 6 10 10 15 10 5 0 12 -4
15 -10z m-226 -27 c0 -25 -1 -26 -9 -8 -12 27 -12 35 0 35 6 0 10 -12 9 -27z
m371 18 c0 -5 -9 -7 -20 -4 -11 3 -20 7 -20 9 0 2 9 4 20 4 11 0 20 -4 20 -9z
m204 -13 c-9 -30 -10 -32 -29 -24 -13 5 -13 9 -3 26 18 28 41 26 32 -2z m-250
-29 c-8 -14 -24 -10 -24 6 0 9 6 12 15 9 8 -4 12 -10 9 -15z m153 -15 c-7 -7
-57 18 -57 28 0 5 14 1 31 -7 17 -9 29 -19 26 -21z m-237 10 c0 -8 -5 -12 -10
-9 -6 4 -8 11 -5 16 9 14 15 11 15 -7z m36 -21 c-11 -11 -19 6 -11 24 8 17 8
17 12 0 3 -10 2 -21 -1 -24z m108 8 c3 -5 -1 -12 -10 -15 -22 -9 -24 -8 -24 9
0 16 25 21 34 6z m-56 -23 c-6 -18 -28 -21 -28 -4 0 9 7 16 16 16 9 0 14 -5
12 -12z m208 -9 c19 -22 19 -22 -3 -10 -13 6 -23 16 -23 21 0 15 5 12 26 -11z
m-286 -11 c0 -19 -2 -20 -10 -8 -13 19 -13 30 0 30 6 0 10 -10 10 -22z m140
-13 c-16 -19 -30 -19 -30 0 0 17 33 38 38 24 2 -5 -2 -16 -8 -24z m50 26 c0
-12 -20 -25 -27 -18 -7 7 6 27 18 27 5 0 9 -4 9 -9z m1020 -17 c45 -8 114 -27
153 -41 83 -29 240 -104 233 -110 -2 -2 -21 4 -43 15 -93 47 -361 123 -498
141 l-70 8 71 2 c40 0 109 -6 154 -15z m-975 -5 c7 -10 -21 -38 -37 -39 -12 0
-9 25 4 38 15 15 25 15 33 1z m-257 -24 c-3 -3 -9 2 -12 12 -6 14 -5 15 5 6 7
-7 10 -15 7 -18z m112 11 c0 -8 -4 -18 -10 -21 -5 -3 -10 3 -10 14 0 12 5 21
10 21 6 0 10 -6 10 -14z m-60 -32 c0 -8 -4 -12 -10 -9 -5 3 -10 13 -10 21 0 8
5 12 10 9 6 -3 10 -13 10 -21z m140 11 c0 -8 -7 -15 -15 -15 -16 0 -20 12 -8
23 11 12 23 8 23 -8z m118 3 c18 -18 15 -28 -8 -28 -13 0 -20 7 -20 20 0 23
10 26 28 8z m2302 -196 c85 -45 152 -82 149 -82 -22 0 -254 87 -322 122 -72
36 -267 155 -267 163 0 9 305 -132 440 -203z m-2590 167 c0 -6 -4 -7 -10 -4
-5 3 -10 11 -10 16 0 6 5 7 10 4 6 -3 10 -11 10 -16z m105 -9 c-5 -8 -11 -8
-17 -2 -6 6 -7 16 -3 22 5 8 11 8 17 2 6 -6 7 -16 3 -22z m22 8 c-3 -8 -6 -5
-6 6 -1 11 2 17 5 13 3 -3 4 -12 1 -19z m119 10 c7 -10 -20 -38 -38 -38 -13 0
-9 38 5 43 20 9 25 8 33 -5z m144 -13 c7 -9 8 -15 2 -15 -5 0 -12 7 -16 15 -3
8 -4 15 -2 15 2 0 9 -7 16 -15z m665 -39 c334 -79 493 -139 619 -235 81 -61
217 -183 211 -189 -2 -2 -27 14 -57 35 -153 114 -340 207 -554 278 -224 75
-494 135 -604 135 -41 0 -51 3 -40 11 9 6 64 8 140 6 100 -3 157 -11 285 -41z
m-985 24 c0 -5 -2 -10 -4 -10 -3 0 -8 5 -11 10 -3 6 -1 10 4 10 6 0 11 -4 11
-10z m118 -9 c3 -8 -1 -12 -9 -9 -7 2 -15 10 -17 17 -3 8 1 12 9 9 7 -2 15
-10 17 -17z m152 -2 c0 -5 -4 -9 -10 -9 -5 0 -10 7 -10 16 0 8 5 12 10 9 6 -3
10 -10 10 -16z m-190 -10 c0 -11 -4 -17 -10 -14 -5 3 -10 13 -10 21 0 8 5 14
10 14 6 0 10 -9 10 -21z m153 6 c7 -16 -8 -29 -23 -20 -15 9 -12 35 4 35 8 0
16 -7 19 -15z m-183 -26 c0 -21 -7 -23 -29 -10 -12 8 -12 12 -2 25 16 19 31
12 31 -15z m138 9 c4 -19 -27 -33 -41 -19 -7 7 -6 16 3 26 15 18 34 15 38 -7z
m-58 -29 c0 -5 -4 -9 -10 -9 -5 0 -10 7 -10 16 0 8 5 12 10 9 6 -3 10 -10 10
-16z m155 3 c0 -18 -20 -15 -23 4 -3 10 1 15 10 12 7 -3 13 -10 13 -16z m3609
-143 c-36 -85 -128 -273 -204 -419 -129 -246 -272 -546 -392 -819 -27 -62 -60
-130 -72 -150 -13 -20 -58 -105 -100 -188 -43 -84 -81 -153 -85 -153 -5 0 -14
-13 -21 -30 -12 -30 -33 -42 -28 -16 2 7 -24 40 -57 72 l-60 57 50 -28 c28
-16 54 -32 60 -37 12 -11 35 -10 35 1 0 6 25 47 55 92 68 101 153 268 278 544
108 240 198 423 384 785 72 140 150 299 174 352 23 54 44 96 46 94 2 -2 -26
-73 -63 -157z m-3794 125 c0 -10 6 -13 19 -9 12 3 21 0 25 -10 3 -8 12 -15 21
-15 8 0 15 -4 15 -10 0 -10 -29 -1 -80 25 -30 15 -36 26 -24 38 10 10 24 -2
24 -19z m140 1 c0 -8 -4 -15 -10 -15 -5 0 -10 7 -10 15 0 8 5 15 10 15 6 0 10
-7 10 -15z m-40 -10 c0 -8 -4 -15 -10 -15 -5 0 -10 7 -10 15 0 8 5 15 10 15 6
0 10 -7 10 -15z m100 -15 c0 -5 -7 -10 -16 -10 -8 0 -12 5 -9 10 3 6 10 10 16
10 5 0 9 -4 9 -10z m-50 -10 c0 -5 -4 -10 -10 -10 -5 0 -10 5 -10 10 0 6 5 10
10 10 6 0 10 -4 10 -10z m-30 -30 c0 -5 -7 -7 -15 -4 -8 4 -12 10 -9 15 6 11
24 2 24 -11z m48 -25 c-9 -9 -30 14 -23 25 6 9 10 8 17 -4 6 -10 8 -19 6 -21z
m57 4 c9 -17 14 -33 11 -36 -10 -11 -56 28 -56 47 0 30 28 24 45 -11z m1064
-64 c124 -53 239 -118 365 -207 208 -149 188 -140 -171 72 -116 69 -229 135
-250 147 -54 31 -40 28 56 -12z m-1149 -105 c47 -10 71 -19 55 -19 -35 -1
-140 24 -164 40 -13 9 -13 9 4 4 11 -4 58 -15 105 -25z m867 -56 c154 -85 370
-225 513 -334 311 -236 470 -352 673 -490 125 -85 274 -186 331 -225 57 -38
160 -97 229 -130 109 -52 125 -63 120 -80 -3 -11 -7 -21 -8 -23 -5 -6 -264
147 -425 251 -85 55 -288 199 -451 321 -435 325 -842 611 -1052 737 -122 73
-86 59 70 -27z m-637 46 c0 -5 -10 -10 -22 -10 -19 0 -20 2 -8 10 19 13 30 13
30 0z m371 -216 c128 -90 249 -182 249 -190 0 -8 -13 1 -160 106 -174 124
-234 170 -222 170 5 0 65 -39 133 -86z m972 -662 c98 -66 147 -108 66 -56 -80
50 -224 147 -234 157 -16 16 61 -30 168 -101z m1363 -51 c-20 -39 -38 -71 -41
-71 -3 0 12 34 32 75 20 41 39 73 41 71 2 -2 -13 -36 -32 -75z m-691 -344
c204 -120 447 -289 433 -302 -14 -15 -240 116 -332 193 -27 22 -56 40 -65 39
-9 0 -59 28 -111 63 -91 60 -360 260 -360 266 0 2 60 -33 133 -78 72 -45 209
-126 302 -181z"/>
<path d="M4917 8763 c-4 -3 -7 -11 -7 -17 0 -6 5 -5 12 2 6 6 9 14 7 17 -3 3
-9 2 -12 -2z"/>
<path d="M4850 8640 c-6 -11 -8 -20 -6 -20 3 0 10 9 16 20 6 11 8 20 6 20 -3
0 -10 -9 -16 -20z"/>
<path d="M4708 8418 c-116 -174 -283 -438 -463 -733 -229 -375 -309 -493 -507
-744 -60 -76 -81 -123 -27 -61 54 63 264 343 326 435 33 50 130 205 215 345
210 346 399 651 489 790 91 139 91 140 86 140 -2 0 -56 -78 -119 -172z"/>
<path d="M4740 8043 c0 -4 8 -16 19 -27 10 -12 28 -46 39 -76 13 -33 21 -46
21 -33 1 28 -27 102 -47 126 -15 17 -32 23 -32 10z"/>
<path d="M5515 7844 c-28 -67 -37 -118 -37 -209 0 -93 7 -121 95 -405 72 -234
99 -525 68 -729 -5 -36 -12 -93 -15 -126 l-4 -60 14 45 c38 116 43 471 9 653
-9 49 -46 184 -82 300 -66 211 -66 212 -67 332 0 98 4 130 22 178 23 62 21 79
-3 21z"/>
<path d="M5131 7350 c1 -24 37 -117 38 -95 0 11 -9 40 -19 65 -10 25 -19 38
-19 30z"/>
<path d="M4910 7158 c15 -29 50 -105 76 -167 26 -63 67 -144 91 -179 24 -36
55 -91 70 -124 14 -32 28 -57 30 -55 6 7 -47 118 -78 163 -28 41 -44 72 -150
302 -23 51 -48 97 -55 103 -7 6 0 -13 16 -43z"/>
<path d="M5194 7155 c2 -11 18 -72 35 -135 18 -63 36 -149 41 -190 5 -41 20
-101 34 -133 21 -47 26 -73 26 -145 0 -48 5 -116 11 -152 6 -36 14 -119 18
-185 l8 -120 1 105 c1 58 -2 121 -7 140 -5 19 -12 98 -14 175 -4 124 -8 146
-30 194 -14 30 -29 80 -32 110 -9 70 -48 228 -75 301 -11 30 -18 46 -16 35z"/>
<path d="M5462 6860 c0 -8 6 -31 13 -50 7 -19 13 -28 13 -20 0 8 -6 31 -13 50
-7 19 -13 28 -13 20z"/>
<path d="M5491 6754 c0 -11 3 -14 6 -6 3 7 2 16 -1 19 -3 4 -6 -2 -5 -13z"/>
<path d="M4800 6730 c14 -19 43 -58 63 -87 63 -87 116 -217 159 -387 30 -121
50 -179 84 -241 44 -81 44 -82 44 -182 0 -60 -6 -119 -15 -149 -8 -27 -14 -60
-14 -74 0 -14 11 11 24 55 17 57 24 107 24 172 1 93 1 93 -50 189 -39 75 -57
127 -84 240 -42 172 -97 302 -173 401 -55 74 -108 127 -62 63z"/>
<path d="M5505 6695 c11 -98 27 -389 23 -415 -2 -16 -1 -27 4 -24 16 10 -1
362 -23 444 l-9 35 5 -40z"/>
<path d="M5241 6405 c-1 -5 6 -46 15 -90 17 -89 23 -298 11 -360 -7 -31 -6
-37 4 -28 18 17 23 187 10 295 -11 84 -38 208 -40 183z"/>
<path d="M5625 6066 c-53 -73 -75 -106 -72 -106 7 0 89 111 85 115 -2 2 -8 -2
-13 -9z"/>
<path d="M4891 6002 c0 -19 12 -57 29 -91 27 -51 32 -75 41 -182 6 -68 14
-151 18 -184 l8 -60 2 51 c1 66 -17 257 -30 313 -6 25 -20 58 -32 75 -12 16
-24 48 -28 70 -6 39 -7 39 -8 8z"/>
<path d="M3970 5892 c0 -9 38 -52 46 -52 2 0 -5 14 -18 30 -23 31 -28 35 -28
22z"/>
<path d="M4047 5809 c7 -7 15 -10 18 -7 3 3 -2 9 -12 12 -14 6 -15 5 -6 -5z"/>
<path d="M4086 5799 c3 -5 10 -9 16 -9 5 0 24 -9 41 -21 l32 -21 -29 25 c-30
26 -71 43 -60 26z"/>
<path d="M4190 5710 c12 -16 24 -30 26 -30 3 0 -4 14 -16 30 -12 17 -24 30
-26 30 -3 0 4 -13 16 -30z"/>
<path d="M4238 5643 c56 -79 147 -268 182 -376 6 -21 14 -36 16 -34 6 6 -39
130 -81 222 -35 76 -119 215 -130 215 -4 0 2 -12 13 -27z"/>
<path d="M3846 5573 c7 -43 56 -167 94 -242 16 -33 76 -131 131 -217 122 -188
171 -291 203 -421 13 -54 25 -91 25 -82 2 40 -53 221 -89 293 -22 43 -87 152
-145 242 -110 170 -135 218 -192 369 -18 50 -31 76 -27 58z"/>
<path d="M4490 5066 c0 -11 30 -66 36 -66 2 0 -3 15 -12 33 -19 36 -24 44 -24
33z"/>
<path d="M4455 4838 c7 -32 21 -72 50 -148 25 -62 18 -156 -19 -285 -4 -11 3
-1 14 22 40 83 43 229 6 300 -7 16 -19 54 -26 86 -6 31 -16 57 -22 57 -6 0 -7
-13 -3 -32z"/>
<path d="M4301 4574 c0 -11 3 -14 6 -6 3 7 2 16 -1 19 -3 4 -6 -2 -5 -13z"/>
<path d="M2380 5663 c0 -24 44 -151 71 -204 39 -79 139 -209 207 -269 89 -80
103 -80 24 0 -40 40 -95 102 -122 138 -51 67 -131 221 -144 276 -8 31 -36 78
-36 59z"/>
<path d="M7477 6737 c-48 -70 -210 -227 -268 -261 -80 -46 -371 -148 -509
-178 -116 -25 -142 -41 -33 -22 129 24 220 52 380 115 177 70 259 124 349 225
65 74 129 163 122 170 -3 2 -21 -20 -41 -49z"/>
<path d="M7290 6259 c-125 -70 -153 -89 -134 -89 6 0 37 17 70 38 32 21 86 53
119 71 55 30 86 51 75 51 -3 0 -61 -32 -130 -71z"/>
<path d="M6400 6245 c-86 -18 -132 -35 -243 -91 -119 -60 -201 -114 -205 -136
-3 -13 4 -11 25 10 66 65 347 193 458 209 25 3 48 10 51 14 7 11 -5 10 -86 -6z"/>
<path d="M6089 6083 c-13 -17 -13 -17 6 -3 11 8 22 16 24 17 2 2 0 3 -6 3 -6
0 -17 -8 -24 -17z"/>
<path d="M6695 6075 c-38 -8 -115 -17 -170 -21 -55 -3 -134 -17 -175 -29 -110
-33 -357 -123 -388 -141 -15 -8 -18 -12 -7 -9 63 21 225 79 325 115 93 34 135
43 223 50 148 12 267 31 267 41 0 5 -1 8 -2 8 -2 -1 -34 -7 -73 -14z"/>
<path d="M6035 6044 c-18 -16 -22 -22 -9 -15 18 9 53 42 43 41 -2 -1 -17 -12
-34 -26z"/>
<path d="M5980 6010 c-9 -6 -10 -10 -3 -10 6 0 15 5 18 10 8 12 4 12 -15 0z"/>
<path d="M7429 5914 c-33 -35 -76 -59 -129 -72 -50 -12 -124 -41 -119 -47 7
-6 182 55 214 75 36 22 71 58 63 65 -2 3 -15 -7 -29 -21z"/>
<path d="M7135 5769 c-16 -10 -25 -19 -19 -19 7 0 22 9 35 20 30 24 23 24 -16
-1z"/>
<path d="M7065 5740 c-13 -6 -15 -9 -5 -9 8 0 22 4 30 9 18 12 2 12 -25 0z"/>
<path d="M6843 5693 c15 -2 37 -2 50 0 12 2 0 4 -28 4 -27 0 -38 -2 -22 -4z"/>
<path d="M6042 5644 c-144 -38 -378 -134 -396 -162 -3 -5 34 11 82 34 102 51
239 99 372 130 52 12 82 22 65 23 -16 0 -72 -11 -123 -25z"/>
<path d="M6255 5364 c39 -7 79 -13 90 -12 11 0 -9 6 -45 14 -36 7 -76 13 -90
12 -14 0 7 -6 45 -14z"/>
<path d="M5877 5348 c-84 -29 -65 -32 23 -3 41 13 66 24 55 24 -11 0 -46 -10
-78 -21z"/>
<path d="M5738 5220 c-84 -14 -203 -59 -239 -90 l-34 -30 50 30 c67 40 209 79
325 89 l95 8 -75 0 c-41 1 -96 -3 -122 -7z"/>
<path d="M6603 4703 c-32 -92 -71 -186 -113 -269 -32 -65 -41 -89 -25 -69 35
43 124 223 139 281 10 38 17 48 31 46 16 -3 17 -2 2 12 -20 20 -26 20 -34 -1z"/>
<path d="M6375 4486 c-66 -68 -98 -92 -180 -135 -55 -29 -86 -49 -70 -46 78
16 236 128 306 216 53 67 28 52 -56 -35z"/>
<path d="M5898 4263 c6 -2 18 -2 25 0 6 3 1 5 -13 5 -14 0 -19 -2 -12 -5z"/>
<path d="M5199 4234 c-131 -23 -309 -96 -309 -126 0 -6 10 -2 23 9 26 25 139
66 257 95 63 16 135 23 280 28 l195 7 -185 0 c-117 1 -213 -4 -261 -13z"/>
<path d="M4447 3818 c-30 -51 -57 -109 -60 -128 -5 -31 -5 -32 4 -10 14 33 33
70 81 158 57 103 39 89 -25 -20z"/>
<path d="M4493 3228 c-25 -12 -29 -23 -11 -34 7 -5 8 -3 4 5 -5 8 -3 11 5 10
8 -1 39 1 69 5 72 10 209 -13 321 -54 93 -33 353 -159 346 -167 -3 -2 -22 4
-44 15 -64 32 -281 112 -402 148 -124 37 -135 39 -126 24 3 -5 13 -10 21 -10
22 0 403 -141 514 -190 269 -118 461 -246 775 -515 288 -248 515 -417 730
-546 109 -66 174 -99 205 -104 55 -9 51 -3 -15 22 -120 46 -449 271 -720 492
-125 102 -265 223 -265 228 0 4 315 -207 565 -379 150 -103 275 -173 354 -199
36 -12 70 -25 75 -30 15 -13 26 -11 26 5 0 9 -30 24 -78 40 -92 31 -210 96
-372 206 -63 43 -266 180 -450 305 -184 124 -383 259 -441 299 -235 161 -530
318 -724 386 -106 37 -132 42 -230 46 -71 3 -118 0 -132 -8z"/>
<path d="M4975 2713 c15 -15 155 -103 155 -98 0 5 -107 78 -140 95 -14 7 -20
8 -15 3z"/>
<path d="M5140 2606 c0 -2 8 -10 18 -17 15 -13 16 -12 3 4 -13 16 -21 21 -21
13z"/>
<path d="M8569 5827 c-32 -40 -180 -318 -348 -655 -130 -259 -222 -464 -369
-822 -177 -428 -256 -612 -326 -755 -102 -211 -364 -677 -459 -820 -44 -66
-73 -114 -64 -106 26 21 109 137 166 230 55 92 66 100 25 20 -14 -28 -23 -56
-21 -62 2 -7 50 80 107 193 56 113 134 261 173 330 149 267 176 318 222 420
26 58 62 150 80 205 140 426 350 895 717 1598 71 137 128 251 126 253 -2 1
-15 -11 -29 -29z m-863 -1904 c-39 -97 -95 -213 -83 -173 11 35 120 290 124
287 2 -2 -17 -54 -41 -114z"/>
<path d="M8650 5810 c0 -11 4 -20 9 -20 5 0 7 9 4 20 -3 11 -7 20 -9 20 -2 0
-4 -9 -4 -20z"/>
<path d="M8640 5463 c0 -12 5 -25 10 -28 13 -8 13 15 0 35 -8 12 -10 11 -10
-7z"/>
<path d="M7296 2573 c-6 -14 -5 -15 5 -6 7 7 10 15 7 18 -3 3 -9 -2 -12 -12z"/>
</g>
</svg>
