<?xml version="1.0" standalone="no"?>
<!DOCTYPE svg PUBLIC "-//W3C//DTD SVG 20010904//EN"
 "http://www.w3.org/TR/2001/REC-SVG-20010904/DTD/svg10.dtd">
<svg version="1.0" xmlns="http://www.w3.org/2000/svg"
 width="1024.000000pt" height="1024.000000pt" viewBox="0 0 1024.000000 1024.000000"
 preserveAspectRatio="xMidYMid meet">
<metadata>
Created by potrace 1.16, written by Peter Selinger 2001-2019
</metadata>
<g transform="translate(0.000000,1024.000000) scale(0.100000,-0.100000)"
fill="#000000" stroke="none">
<path d="M4150 8929 c-30 -4 -95 -22 -144 -38 -49 -17 -91 -29 -93 -27 -2 2
11 13 29 25 18 11 28 21 23 21 -6 0 -27 -11 -47 -25 -20 -14 -45 -25 -55 -25
-14 0 -15 -2 -4 -9 11 -7 5 -19 -31 -55 -26 -25 -52 -60 -60 -78 -7 -18 -30
-64 -51 -103 -65 -121 -135 -272 -249 -535 -163 -380 -235 -578 -303 -837 -18
-71 -57 -218 -85 -328 -72 -276 -108 -427 -121 -515 -18 -119 -36 -218 -58
-315 -11 -49 -47 -211 -80 -360 -91 -410 -108 -476 -242 -955 -56 -199 -140
-474 -208 -680 -16 -47 -41 -125 -56 -175 -36 -122 -106 -303 -154 -400 -22
-44 -49 -110 -60 -146 -11 -36 -34 -97 -52 -135 -17 -38 -42 -94 -56 -124 -13
-30 -38 -83 -56 -117 -29 -58 -31 -99 -3 -60 7 9 15 17 17 17 8 0 7 -130 -1
-130 -12 0 16 -113 39 -158 35 -69 138 -171 117 -116 -4 11 -2 14 6 11 206
-88 305 -126 768 -289 365 -129 588 -199 910 -283 400 -104 564 -152 761 -220
53 -19 141 -46 195 -60 55 -15 155 -44 224 -65 150 -47 429 -121 560 -150 181
-39 401 -103 502 -146 58 -24 70 -26 151 -20 80 6 107 0 77 -19 -5 -3 -10 -11
-10 -17 0 -5 19 1 43 15 23 13 62 28 87 32 37 6 54 17 94 59 26 28 57 69 68
91 11 22 30 58 44 80 29 49 31 69 2 35 -17 -21 -20 -22 -15 -5 3 11 16 58 27
105 12 47 32 122 46 167 42 137 83 318 94 412 6 49 22 129 34 178 77 295 97
374 131 518 21 88 53 209 71 269 19 60 41 145 49 190 21 121 89 368 155 566
32 96 77 236 100 310 22 74 52 167 65 205 12 39 46 151 75 250 57 200 83 278
328 1000 94 275 196 561 227 635 31 74 70 170 86 213 31 78 46 99 35 50 -9
-47 38 65 89 207 26 74 65 168 86 208 28 51 37 80 33 97 -3 14 4 50 17 87 16
45 23 86 23 143 1 72 -2 85 -29 127 -16 26 -35 48 -41 48 -6 0 -42 25 -80 55
-48 39 -75 54 -89 51 -11 -3 -45 6 -75 20 -346 162 -630 273 -1025 401 -60 19
-137 45 -170 58 -99 37 -289 100 -470 155 -93 28 -255 80 -360 115 -253 84
-319 104 -595 174 -233 58 -493 130 -725 198 -66 20 -145 37 -175 38 -30 1
-105 14 -167 29 -61 14 -123 26 -137 26 -14 0 -26 5 -26 10 0 6 7 10 15 10 8
0 15 5 15 10 0 6 -1 9 -2 9 -2 -1 -28 -5 -58 -10z m-9 -49 c10 0 19 -6 19 -12
0 -9 23 -13 78 -14 100 -1 423 -76 837 -194 55 -16 192 -52 305 -80 247 -62
398 -106 550 -161 63 -22 218 -71 345 -109 419 -126 663 -215 1125 -410 227
-96 316 -132 385 -155 44 -15 132 -47 195 -71 63 -24 134 -48 157 -54 34 -8
47 -19 73 -61 60 -93 81 -160 76 -242 -6 -103 -46 -212 -189 -512 -114 -238
-210 -457 -288 -652 -49 -125 -178 -511 -204 -613 -38 -150 -140 -439 -294
-837 -86 -224 -139 -391 -179 -563 -17 -74 -51 -223 -76 -330 -25 -107 -68
-298 -97 -425 -28 -126 -73 -295 -100 -375 -44 -131 -123 -485 -184 -825 -8
-44 -20 -96 -25 -115 -6 -19 -28 -116 -50 -215 -54 -249 -82 -341 -116 -376
-28 -30 -57 -41 -34 -14 27 33 -1 25 -30 -8 -37 -43 -97 -73 -171 -87 -30 -6
-63 -12 -75 -14 -26 -5 -126 16 -101 22 15 3 25 22 12 22 -35 0 -187 42 -327
91 -189 66 -437 131 -569 149 -92 13 -87 11 -339 99 -153 54 -403 124 -540
152 -25 5 -97 22 -160 39 -63 17 -243 64 -400 105 -157 40 -359 99 -450 130
-91 31 -257 87 -370 124 -113 37 -242 84 -287 104 -44 19 -145 56 -224 81 -97
31 -155 56 -180 76 -38 30 -55 38 -44 20 9 -14 -3 -13 -52 6 -32 12 -43 22
-43 38 0 11 -25 59 -55 105 -30 46 -55 95 -56 110 -1 14 -3 44 -5 66 -6 67 15
155 62 252 24 51 44 94 44 97 0 13 103 266 107 263 2 -3 -7 -40 -20 -84 -28
-89 -42 -151 -33 -142 4 4 65 179 135 390 71 211 148 429 171 484 57 137 62
151 136 378 35 110 78 254 95 320 16 66 35 129 40 140 6 10 8 21 6 24 -9 8
-33 -48 -57 -132 -55 -199 -198 -633 -210 -640 -5 -3 0 19 10 48 33 95 128
401 149 477 11 41 34 125 51 185 17 61 53 202 81 315 27 113 57 223 65 245 9
21 17 51 19 65 2 14 16 68 31 120 14 52 28 106 31 120 4 25 4 25 -12 5 l-17
-20 6 20 c17 59 63 269 107 485 87 434 136 637 159 665 17 21 130 342 249 707
83 256 130 380 140 373 7 -4 137 311 180 435 24 73 64 150 96 188 20 25 22 31
10 34 -27 5 37 71 106 108 72 38 168 71 187 64 8 -2 22 -4 33 -4z m-520 -567
c-63 -159 -91 -222 -110 -253 -32 -53 -26 -33 28 92 71 164 91 208 96 208 3 0
-4 -21 -14 -47z m-151 -346 c-12 -26 -82 -228 -156 -449 -75 -222 -140 -410
-146 -418 -8 -13 -9 -12 -4 2 2 9 18 70 35 135 29 113 127 414 169 518 43 107
115 266 118 262 3 -2 -5 -25 -16 -50z m3972 -41 c162 -60 387 -153 403 -168
11 -11 -155 49 -230 82 -27 12 -99 42 -160 67 -102 41 -127 53 -112 53 3 0 48
-15 99 -34z m857 -410 c21 -36 31 -66 30 -92 0 -38 -1 -37 -18 21 -9 33 -25
75 -34 93 -28 53 -11 36 22 -22z m-558 -1673 c-12 -20 -14 -14 -5 12 4 9 9 14
11 11 3 -2 0 -13 -6 -23z m-358 -1085 c-70 -239 -263 -841 -269 -836 -5 6 75
339 106 438 18 58 53 159 78 225 60 161 111 297 117 313 2 6 6 12 9 12 2 0
-16 -68 -41 -152z m-5303 -2142 c0 -19 -40 28 -59 70 -31 66 -25 66 19 -1 22
-33 40 -64 40 -69z m2611 -852 c30 -9 58 -20 64 -25 9 -9 -73 13 -118 31 -36
15 -4 11 54 -6z m744 -205 c153 -38 186 -49 153 -49 -15 0 -366 87 -383 95
-26 13 86 -10 230 -46z"/>
<path d="M4023 8529 c-24 -12 -56 -39 -73 -62 -27 -37 -110 -230 -110 -256 0
-7 -16 -8 -45 -4 -31 4 -45 2 -45 -6 0 -6 6 -11 12 -11 7 0 2 -7 -10 -16 -32
-22 -27 -32 14 -32 19 0 37 -2 40 -4 2 -3 -3 -24 -11 -48 -32 -90 -11 -173 56
-218 28 -19 43 -23 83 -19 46 4 50 3 88 -39 40 -44 78 -58 78 -29 0 8 5 15 10
15 6 0 10 9 10 20 0 13 -7 20 -18 20 -20 0 -62 39 -62 57 0 6 8 17 17 24 23
20 95 176 132 289 41 123 54 210 38 258 -25 76 -119 103 -204 61z m96 -50 c36
-13 51 -35 51 -78 0 -58 -134 -424 -154 -423 -5 1 -18 28 -28 61 -13 42 -32
74 -59 103 l-41 43 23 55 c46 115 101 209 132 229 38 24 35 24 76 10z m22
-330 c-11 -24 -20 -41 -20 -37 -1 12 31 89 35 85 3 -2 -4 -24 -15 -48z m-213
-141 c32 -86 32 -93 -6 -96 -66 -6 -94 54 -72 150 l13 52 23 -27 c12 -14 31
-50 42 -79z m183 65 c-12 -20 -14 -14 -5 12 4 9 9 14 11 11 3 -2 0 -13 -6 -23z
m-20 -50 c-12 -20 -14 -14 -5 12 4 9 9 14 11 11 3 -2 0 -13 -6 -23z m-18 -38
c-3 -9 -8 -14 -10 -11 -3 3 -2 9 2 15 9 16 15 13 8 -4z"/>
<path d="M4355 8140 c-4 -6 -3 -16 1 -20 14 -14 293 -98 504 -151 237 -61 401
-109 511 -149 91 -33 104 -36 93 -19 -4 7 -2 9 7 5 8 -3 22 -9 31 -12 15 -5
15 -10 -4 -52 -11 -26 -37 -97 -58 -158 -20 -61 -54 -138 -75 -170 -21 -33
-122 -142 -225 -244 -202 -199 -269 -286 -320 -413 -30 -76 -51 -153 -43 -161
8 -8 -32 -24 -112 -45 -268 -68 -612 -218 -819 -355 -55 -36 -100 -65 -101
-64 -4 5 143 544 193 708 28 91 65 217 82 280 73 265 91 320 135 413 90 194
224 552 204 545 -6 -2 -21 -35 -34 -73 -23 -72 -133 -346 -142 -355 -10 -9 9
44 83 238 41 107 74 196 74 198 0 2 -4 4 -8 4 -15 0 -117 -256 -200 -500 -44
-129 -92 -266 -107 -305 -37 -95 -75 -207 -141 -410 -81 -249 -102 -330 -115
-435 -6 -52 -24 -144 -40 -205 -17 -60 -33 -126 -36 -145 -3 -19 -25 -102 -48
-185 -23 -82 -51 -186 -60 -230 -10 -44 -22 -88 -27 -97 -4 -10 -11 -42 -14
-73 -3 -30 -18 -101 -33 -157 -16 -57 -34 -128 -41 -158 -7 -30 -41 -156 -76
-280 -35 -124 -77 -279 -94 -344 -36 -138 -165 -533 -180 -551 -5 -6 -26 -58
-46 -116 -20 -57 -56 -153 -80 -214 -24 -60 -44 -115 -44 -122 0 -6 -7 -16
-15 -20 -8 -5 -28 -62 -45 -131 -34 -131 -82 -261 -103 -274 -7 -4 -7 -8 -2
-8 7 0 9 -15 7 -35 -5 -39 13 -48 23 -12 17 57 53 136 81 178 18 25 55 108 83
185 48 130 70 203 126 399 12 44 59 197 104 340 46 143 98 314 116 380 57 207
165 575 171 583 1 2 20 -8 41 -22 37 -26 77 -34 87 -18 3 5 -12 16 -32 25 -20
10 -48 25 -61 36 l-24 18 76 289 c42 159 79 305 82 324 13 66 18 65 77 -7 53
-65 202 -189 293 -243 22 -13 41 -24 42 -25 2 -1 -9 -31 -23 -66 -15 -35 -52
-138 -84 -229 -62 -178 -94 -257 -85 -207 7 36 -32 76 -98 102 -53 20 -92 14
-156 -25 -47 -30 -31 -36 39 -15 56 17 62 17 103 1 73 -28 77 -37 62 -132 -8
-53 -22 -96 -39 -123 -26 -40 -98 -101 -120 -101 -6 0 -38 -11 -71 -25 -80
-33 -89 -32 -71 3 10 20 37 39 80 60 37 17 66 35 67 39 5 56 8 74 14 108 l6
40 -20 -23 c-11 -13 -25 -21 -31 -17 -7 5 -5 12 7 20 15 12 16 17 5 34 -10 17
-10 25 0 41 28 45 -53 64 -122 28 -36 -18 -45 -28 -44 -48 1 -14 -7 -31 -17
-38 -12 -8 -19 -26 -19 -45 0 -18 -7 -41 -15 -51 -19 -25 -19 -41 0 -60 12
-12 13 -20 4 -39 -14 -32 4 -71 30 -64 14 3 17 -1 13 -19 -3 -19 0 -24 17 -24
35 0 24 -18 -28 -45 -28 -13 -61 -40 -75 -58 -42 -54 -105 -176 -95 -183 26
-16 112 43 161 110 17 23 28 32 24 21 -8 -29 -36 -194 -36 -219 -1 -14 -26
-40 -82 -81 -122 -91 -167 -185 -118 -248 30 -38 71 -43 120 -16 22 12 41 21
42 18 2 -2 10 -17 18 -34 22 -42 63 -60 100 -45 50 21 82 64 88 118 4 44 -1
62 -42 147 -25 54 -46 106 -46 117 0 11 9 63 19 116 11 54 22 114 26 135 l6
38 32 -48 c37 -54 109 -113 139 -113 18 0 19 4 13 37 -14 78 -72 162 -137 201
-30 17 -36 43 -15 59 6 6 35 18 62 27 70 23 120 67 151 134 14 31 50 109 79
172 29 63 77 183 105 265 65 187 104 272 174 379 110 170 269 308 430 375 97
40 118 44 140 28 17 -12 11 -16 -59 -42 -99 -36 -243 -131 -318 -209 -125
-130 -198 -270 -302 -576 -41 -121 -87 -244 -101 -273 -47 -93 -114 -185 -175
-240 -32 -30 -59 -57 -59 -60 0 -33 132 88 191 175 46 67 97 176 129 273 128
395 197 534 344 683 39 40 106 95 148 123 73 46 210 109 240 109 7 0 43 -20
80 -45 37 -25 72 -45 78 -45 6 0 8 -4 5 -10 -3 -5 -18 -10 -31 -10 -39 0 -204
-72 -273 -120 -115 -78 -214 -197 -290 -347 -17 -34 -60 -151 -96 -260 -37
-111 -93 -252 -126 -321 -51 -103 -73 -136 -140 -206 -81 -86 -189 -169 -196
-151 -27 63 -82 161 -95 169 -33 20 -28 -1 21 -95 47 -90 80 -174 96 -249 7
-34 7 -34 -12 -18 -17 16 -23 16 -65 3 -43 -13 -84 -31 -117 -54 -11 -7 -12
-13 -4 -23 23 -27 114 -520 99 -535 -7 -8 -77 -25 -121 -30 -22 -2 -69 2 -105
11 -36 8 -68 12 -72 8 -4 -4 -2 -27 3 -52 6 -25 9 -92 6 -150 -5 -113 -19
-169 -89 -348 -33 -85 -49 -113 -93 -158 -29 -29 -62 -54 -72 -54 -10 0 -83
20 -163 44 -85 26 -149 40 -154 35 -5 -5 -8 -11 -5 -13 8 -8 299 -97 429 -132
145 -38 194 -55 345 -116 251 -103 632 -213 1030 -298 108 -24 286 -78 376
-115 51 -22 146 -48 549 -153 85 -22 182 -42 215 -44 l59 -3 12 40 c7 22 13
32 13 22 1 -10 7 -17 13 -15 7 3 23 56 35 120 12 63 39 169 58 234 20 65 49
164 65 219 16 55 44 143 63 195 34 94 83 261 211 720 87 316 87 315 79 336 -4
12 -3 15 5 10 7 -4 10 -2 6 7 -7 21 119 434 228 742 33 94 67 191 76 218 9 26
21 47 27 47 6 0 21 38 33 85 13 47 62 208 109 358 47 150 96 310 109 356 39
141 71 228 251 686 53 135 113 316 113 342 0 12 23 81 50 151 28 71 50 132 50
137 0 4 -10 -4 -23 -18 -21 -25 -137 -282 -137 -304 0 -5 -18 -52 -41 -104
-57 -131 -147 -388 -169 -484 -10 -44 -37 -132 -59 -195 -67 -194 -78 -231
-110 -345 -17 -60 -54 -178 -81 -261 -28 -82 -50 -158 -50 -168 0 -9 -4 -14
-10 -11 -5 3 -7 0 -5 -7 3 -8 -1 -31 -10 -53 -13 -34 -15 -35 -11 -10 5 30 5
30 -11 -5 -9 -19 -16 -49 -17 -67 -1 -17 -4 -29 -8 -27 -3 2 -20 -35 -38 -83
-17 -48 -36 -93 -41 -99 -5 -7 -35 -95 -65 -196 -30 -100 -75 -241 -99 -313
-24 -71 -53 -162 -64 -200 l-21 -71 -82 -49 c-190 -113 -512 -266 -609 -290
-20 -5 -28 1 -48 37 -17 30 -19 39 -8 29 9 -7 17 -9 17 -3 0 12 -247 252 -260
252 -6 0 -10 4 -10 8 0 5 23 14 51 20 67 16 200 78 280 132 88 60 214 189 277
285 28 44 57 88 65 99 12 17 18 14 103 -43 56 -37 126 -97 182 -156 95 -99
120 -113 54 -28 -58 73 -194 195 -260 234 l-59 34 39 85 c22 47 66 150 98 230
32 80 66 162 75 184 12 29 13 37 3 34 -17 -5 -67 -106 -114 -228 -183 -478
-401 -722 -740 -830 -64 -21 -76 -22 -104 -10 l-32 13 81 24 c154 44 273 117
392 240 130 133 196 249 320 563 99 250 154 345 262 453 76 76 99 107 83 107
-3 0 -32 -22 -65 -50 -111 -92 -199 -230 -275 -427 -127 -334 -209 -486 -335
-616 -115 -120 -253 -204 -404 -246 l-78 -22 -46 28 c-25 15 -55 34 -67 40
-20 11 -54 88 -43 99 2 2 44 13 93 23 202 43 311 110 433 265 94 120 151 238
225 466 97 297 219 472 425 611 56 38 76 47 82 37 13 -19 11 -38 -4 -38 -22 0
-120 -71 -185 -134 -123 -118 -201 -256 -312 -551 -98 -258 -149 -351 -265
-474 -49 -53 -161 -134 -220 -160 -58 -26 -199 -71 -221 -71 -23 0 -40 -15
-27 -23 11 -7 142 28 213 56 96 39 168 86 251 165 128 121 189 226 299 513
111 289 177 408 291 520 56 56 176 149 193 149 2 0 19 -31 37 -70 17 -38 40
-76 49 -85 34 -31 30 3 -10 82 -36 69 -90 217 -90 245 0 5 6 8 14 5 39 -15
192 52 182 79 -16 42 -106 491 -106 530 0 51 234 61 295 13 6 -4 16 -4 24 0
10 7 10 17 1 52 -39 142 87 574 210 720 l25 30 75 -26 c41 -15 102 -42 135
-60 75 -41 142 -62 155 -49 27 27 -584 275 -863 349 -103 28 -126 30 -82 9 41
-21 17 -13 -190 56 -99 33 -185 60 -192 60 -7 0 -115 33 -240 74 -366 119
-561 175 -828 236 -103 23 -266 78 -369 124 -66 29 -66 29 -66 17 0 -5 14 -14
30 -21 17 -7 29 -15 26 -17 -5 -5 -88 19 -141 42 -22 9 -60 18 -84 20 -24 1
-47 8 -51 15 -6 9 -9 9 -15 0z m1243 -382 c-2 -5 -18 -18 -36 -30 l-33 -21 7
29 c4 16 8 32 10 35 6 10 55 -2 52 -13z m50 -35 c-21 -23 -115 -83 -130 -83
-13 0 5 40 21 45 9 3 34 20 55 39 25 20 47 31 58 28 18 -4 18 -6 -4 -29z m82
0 c12 -12 -99 -94 -157 -118 -72 -29 -84 -30 -77 -11 3 8 34 28 69 45 35 17
76 47 92 65 26 32 53 38 73 19z m70 -23 c0 -11 -91 -93 -131 -118 -41 -25
-162 -72 -185 -72 -11 0 -12 4 -5 19 6 11 36 27 68 37 67 21 164 84 193 124
14 20 26 27 40 23 11 -3 20 -9 20 -13z m38 -57 c9 -115 91 -240 235 -361 48
-40 87 -80 87 -87 0 -8 -19 -52 -43 -98 -66 -129 -85 -232 -62 -335 l16 -67
-28 -23 c-51 -41 -246 -130 -336 -152 -123 -31 -212 -26 -263 16 -75 60 -104
156 -104 344 0 118 21 278 40 309 7 12 15 11 49 -3 23 -9 55 -16 71 -16 40 0
46 -15 10 -30 -30 -13 -40 -30 -17 -30 6 0 27 9 45 20 18 11 34 20 37 20 4 0
-61 -124 -82 -155 -21 -31 -16 -54 21 -91 59 -59 77 -39 25 26 l-31 39 35 58
c57 95 94 175 101 222 13 88 -61 161 -164 161 -39 0 -39 0 -29 30 9 24 20 32
67 45 114 34 251 121 288 184 22 37 27 33 32 -26z m74 -12 c4 -24 18 -66 31
-94 26 -58 120 -165 173 -197 26 -17 34 -28 34 -51 l0 -30 -62 48 c-98 77
-173 179 -207 283 -28 84 -28 102 1 91 17 -6 25 -20 30 -50z m54 21 c6 -4 16
-29 24 -56 15 -55 89 -161 119 -171 18 -6 40 -60 28 -72 -12 -12 -144 135
-170 189 -45 95 -46 141 -1 110z m59 -20 c6 -4 19 -26 30 -50 10 -24 28 -51
40 -60 21 -17 40 -72 25 -72 -13 0 -69 68 -89 108 -35 69 -37 97 -6 74z m61
-20 c6 -4 15 -23 18 -42 8 -38 0 -32 -30 23 -14 27 -10 34 12 19z m114 -33
c58 -17 67 -23 63 -40 -3 -10 8 -90 25 -177 17 -86 40 -213 52 -282 12 -69 35
-186 51 -260 15 -74 40 -196 54 -270 33 -171 90 -436 111 -519 20 -77 18 -80
-83 -105 -51 -13 -68 -14 -74 -5 -31 51 -155 825 -188 1182 -12 123 -37 281
-65 400 -13 53 -21 97 -19 97 3 0 35 -9 73 -21z m143 -45 c46 -15 47 -17 47
-57 0 -64 27 -202 81 -422 81 -326 97 -454 62 -481 -28 -21 -43 -16 -43 12 0
15 -11 79 -25 143 -73 330 -86 396 -100 508 -12 100 -41 219 -72 300 -6 16 -6
16 50 -3z m388 -120 l290 -97 -29 -31 c-29 -31 -82 -115 -121 -193 -12 -24
-35 -95 -51 -158 -24 -94 -30 -139 -32 -250 -3 -115 -5 -134 -18 -129 -8 3
-39 10 -67 16 -33 7 -53 16 -53 25 0 7 -11 18 -25 25 -23 10 -45 54 -45 87 1
11 8 7 25 -13 21 -27 26 -29 49 -18 14 6 26 16 26 22 0 5 17 25 37 43 l36 34
-62 42 c-70 46 -74 47 -91 26 -7 -8 -16 -15 -21 -15 -18 0 -8 36 21 74 17 22
30 45 30 51 0 6 -20 16 -45 23 -25 6 -49 20 -55 31 -13 26 2 36 31 20 20 -10
27 -7 65 37 24 27 42 54 40 59 -4 16 -79 55 -105 55 -14 0 -33 -7 -43 -17 -17
-15 -18 -15 -18 3 0 11 11 36 25 57 29 41 26 57 -10 57 -24 0 -55 23 -55 41 0
12 17 12 25 -1 12 -19 34 -10 63 28 48 60 46 72 -17 90 -43 12 -57 13 -73 3
-24 -15 -23 -15 -36 32 -9 30 -8 37 4 37 8 0 145 -43 305 -96z m-39 52 c159
-53 251 -87 246 -91 -2 -2 -93 27 -203 65 -110 38 -195 69 -188 69 6 1 71 -19
145 -43z m-1298 -107 c-9 -30 -21 -59 -26 -66 -5 -7 -8 -18 -5 -25 2 -7 -2
-29 -9 -48 -7 -19 -20 -64 -29 -99 -16 -61 -21 -69 -105 -148 -109 -102 -153
-161 -196 -261 l-33 -77 -88 -22 c-48 -12 -89 -20 -91 -18 -15 15 87 226 156
326 26 37 118 139 204 227 86 88 173 185 194 216 20 31 39 55 40 53 2 -2 -3
-28 -12 -58z m1154 45 c2 -1 -6 -16 -19 -33 -17 -23 -26 -28 -35 -20 -9 7 -19
7 -33 -1 -18 -9 -21 -8 -21 10 0 11 4 20 9 20 5 0 11 9 14 21 5 18 10 19 44
13 21 -4 40 -8 41 -10z m-1026 -46 c56 -17 88 -50 88 -92 0 -43 -12 -52 -36
-25 -25 28 -67 49 -99 49 -14 0 -25 5 -25 10 0 29 82 1 121 -41 16 -17 29 -26
29 -19 0 7 -16 28 -37 47 -33 32 -40 34 -90 31 -29 -2 -53 -2 -53 -1 0 1 4 13
10 27 11 29 31 32 92 14z m987 -114 c1 -2 -4 -13 -13 -26 -9 -12 -16 -32 -17
-43 -1 -17 -27 74 -29 98 0 6 25 -6 59 -29z m-1085 -10 c4 -10 1 -14 -6 -12
-15 5 -23 28 -10 28 5 0 13 -7 16 -16z m49 -13 c3 -14 1 -18 -9 -14 -8 3 -14
11 -14 19 0 21 17 17 23 -5z m65 -3 c-3 -7 -15 -15 -27 -16 -20 -3 -22 -2 -10
12 17 18 42 21 37 4z m32 -18 c0 -5 -7 -10 -16 -10 -8 0 -12 5 -9 10 3 6 10
10 16 10 5 0 9 -4 9 -10z m1027 -60 l41 -19 -32 -36 c-26 -30 -33 -33 -42 -20
-14 19 -23 19 -46 -2 -14 -13 -18 -13 -18 -2 0 8 -3 25 -7 39 -6 22 -5 24 10
11 21 -17 49 -7 46 16 -3 39 -4 39 48 13z m-453 -127 c-53 -149 -31 -286 60
-374 27 -26 37 -43 34 -60 -3 -23 -5 -22 -55 24 -59 55 -88 107 -104 189 -14
71 6 178 53 281 28 62 33 68 36 45 2 -15 -9 -63 -24 -105z m-2178 1 c-89 -289
-122 -402 -151 -518 -34 -130 -48 -130 -20 1 16 76 82 295 144 478 23 66 41
122 41 124 0 2 2 2 5 -1 3 -3 -5 -41 -19 -84z m2904 -5 c-11 -30 -18 -40 -15
-24 7 36 26 87 31 82 2 -2 -5 -28 -16 -58z m-701 -62 c-14 -85 -3 -170 30
-216 11 -15 23 -40 27 -57 l7 -29 -26 24 c-61 55 -84 199 -51 310 21 73 28 57
13 -32z m-943 -69 c-54 -55 -84 -96 -111 -152 -20 -42 -42 -76 -50 -76 -7 0
-21 -3 -30 -6 -15 -6 -15 -4 0 32 33 81 83 151 170 242 88 92 90 94 93 65 3
-25 -9 -41 -72 -105z m1357 72 c16 0 15 -5 -10 -36 -30 -41 -26 -44 -47 39 -7
28 -6 28 16 13 12 -9 31 -16 41 -16z m-1283 -56 c0 -9 -25 -43 -54 -76 -30
-33 -63 -80 -73 -104 -15 -37 -47 -63 -61 -49 -9 9 63 125 114 183 57 63 74
74 74 46z m904 -41 c4 -31 9 -69 11 -83 4 -22 3 -21 -9 6 -19 40 -32 134 -19
134 6 0 13 -26 17 -57z m-945 -113 c-37 -52 -69 -76 -69 -52 0 11 49 83 79
115 44 48 37 5 -10 -63z m1426 51 l30 -13 -32 -27 c-18 -15 -33 -33 -33 -39 0
-7 -4 -12 -10 -12 -5 0 -10 6 -10 14 0 8 -7 22 -16 31 -13 12 -13 19 -4 30 6
8 9 19 5 25 -12 19 6 32 23 18 10 -8 31 -20 47 -27z m-101 -6 c3 -8 1 -15 -4
-15 -6 0 -10 7 -10 15 0 8 2 15 4 15 2 0 6 -7 10 -15z m-1274 -39 c0 -8 3 -21
6 -29 3 -10 -4 -16 -23 -20 -37 -7 -38 -4 -17 32 19 33 34 40 34 17z m1968
-144 c-17 -45 -33 -80 -36 -78 -4 5 25 86 49 139 25 55 17 19 -13 -61z m-1929
8 c41 -112 110 -148 260 -137 145 11 291 61 428 147 57 37 62 38 68 20 3 -11
28 -39 55 -62 l49 -43 -37 -56 c-20 -31 -42 -65 -48 -75 -10 -18 -25 -19 -190
-19 -150 1 -195 4 -274 23 -190 45 -315 97 -417 174 -55 42 -65 58 -35 59 9 0
33 6 52 13 60 23 66 21 89 -44z m646 10 c-3 -5 -16 -15 -28 -21 -21 -10 -21
-9 2 10 25 23 36 27 26 11z m-812 -21 c47 -44 175 -121 252 -150 199 -78 458
-116 610 -91 33 5 61 9 61 8 1 0 -3 -22 -9 -48 -13 -56 -15 -57 -164 -65 -124
-7 -213 4 -363 43 -100 26 -286 110 -367 165 -61 42 -153 120 -153 131 0 22
39 2 101 -52 83 -71 131 -100 251 -152 183 -79 398 -116 557 -98 53 7 100 15
104 19 4 5 -68 8 -160 8 -158 -1 -175 1 -284 30 -119 33 -262 89 -340 135 -61
36 -170 124 -162 132 13 12 44 5 66 -15z m1432 1 c3 -5 1 -10 -4 -10 -6 0 -11
5 -11 10 0 6 2 10 4 10 3 0 8 -4 11 -10z m-1560 -61 c117 -121 374 -246 605
-295 84 -17 271 -24 375 -14 47 5 50 4 53 -20 9 -71 34 -120 88 -170 31 -27
60 -50 65 -50 5 0 9 -4 9 -8 0 -5 -53 -21 -117 -36 -158 -38 -363 -46 -514
-21 -293 48 -572 177 -754 346 -91 85 -199 221 -182 230 6 3 48 14 92 24 44
10 85 20 92 22 19 8 16 -22 -7 -59 -37 -62 -17 -128 39 -128 14 0 46 14 70 30
76 51 99 32 57 -47 -31 -57 -33 -86 -7 -112 11 -11 17 -22 14 -24 -2 -3 5 -8
16 -12 26 -8 79 15 118 54 35 33 89 43 99 17 3 -7 -2 -42 -11 -76 -9 -34 -13
-75 -10 -91 13 -58 92 -89 142 -54 12 8 36 37 54 65 57 88 79 79 79 -31 0 -72
3 -82 25 -104 49 -50 92 -25 130 76 15 39 34 73 42 76 18 7 33 -13 33 -45 0
-34 47 -119 75 -138 14 -9 32 -14 40 -10 23 9 53 65 65 123 6 29 16 55 21 59
16 9 35 -12 49 -56 15 -46 52 -90 75 -90 16 0 55 55 55 78 0 19 -23 14 -43 -8
-9 -11 -21 -20 -27 -20 -5 0 -23 29 -39 63 -44 99 -88 99 -117 -1 -18 -64 -38
-92 -65 -92 -23 0 -30 11 -54 89 -22 70 -39 87 -78 77 -20 -5 -30 -19 -47 -64
-28 -75 -46 -102 -70 -102 -28 0 -40 30 -40 105 0 77 -12 105 -43 105 -30 0
-58 -21 -91 -69 -31 -45 -81 -73 -115 -64 -14 4 -18 8 -11 13 8 5 6 12 -6 25
-17 17 -17 21 -1 84 19 72 16 96 -14 111 -34 19 -75 11 -120 -23 -60 -45 -78
-51 -100 -31 -25 22 -24 33 8 94 25 48 26 54 12 79 -21 38 -59 39 -113 2 -50
-35 -68 -38 -86 -16 -10 12 -8 23 10 57 13 24 23 54 24 68 1 19 9 27 41 36 61
19 67 17 110 -27z m1195 -25 c0 -3 -11 -24 -24 -47 -88 -152 -64 -316 58 -405
58 -41 66 -50 66 -74 0 -15 -8 -13 -52 13 -141 80 -201 231 -149 369 24 65 76
150 91 150 5 0 10 -3 10 -6z m-1571 -74 c61 -95 188 -217 305 -295 368 -245
783 -319 1185 -213 64 17 125 30 136 29 11 -2 28 -3 38 -4 9 -1 17 -4 17 -8 0
-4 2 -14 5 -21 4 -10 -4 -14 -27 -16 -18 -1 -46 -6 -63 -11 -16 -5 -47 -9 -68
-10 -21 -1 -57 -8 -80 -16 -77 -25 -165 -36 -304 -36 -160 0 -238 10 -384 51
-338 95 -567 239 -778 489 -44 52 -78 98 -75 103 3 4 18 8 33 8 22 0 34 -10
60 -50z m-68 -37 c87 -135 290 -312 475 -414 l74 -40 -1 -257 c-1 -141 -4
-296 -8 -344 l-6 -87 -30 27 -30 27 -1 130 c-1 219 -58 535 -96 535 -5 0 -6
-5 -2 -11 11 -18 -35 9 -111 66 -102 76 -297 266 -354 345 l-50 69 27 10 c56
20 67 15 113 -56z m1640 -7 c-36 -72 -22 -159 38 -234 15 -21 32 -52 36 -70 6
-31 6 -33 -13 -23 -30 16 -73 70 -95 120 -15 35 -18 59 -15 115 6 81 45 179
61 151 5 -10 1 -31 -12 -59z m-1801 34 c-21 -13 77 -153 174 -250 42 -41 76
-78 76 -81 0 -4 -26 -16 -58 -28 -90 -32 -233 -128 -318 -211 -84 -82 -130
-141 -189 -240 -21 -36 -40 -67 -42 -69 -7 -9 -181 119 -257 189 -44 41 -97
88 -117 103 l-36 27 19 83 c10 45 21 92 23 104 8 36 301 210 505 299 132 57
265 102 220 74z m1838 -127 c7 -43 15 -89 18 -103 5 -24 5 -25 -11 -5 -24 30
-48 121 -40 155 11 49 21 35 33 -47z m-113 -223 c10 -11 16 -20 13 -20 -3 0
-13 9 -23 20 -10 11 -16 20 -13 20 3 0 13 -9 23 -20z m-900 -237 c26 -36 39
-66 37 -80 -2 -13 -6 -23 -10 -23 -9 1 -94 116 -109 149 -35 76 19 46 82 -46z
m-270 35 c7 -28 6 -28 -40 -28 -52 0 -181 -40 -235 -73 -171 -103 -315 -312
-384 -557 -73 -256 -99 -327 -159 -435 -48 -84 -81 -128 -146 -193 -70 -70
-187 -162 -205 -162 -2 0 -6 10 -8 23 -2 18 10 31 62 66 189 126 283 274 401
633 68 205 122 330 182 418 48 71 144 166 211 209 68 44 196 98 259 110 29 5
41 12 39 22 -6 27 16 -5 23 -33z m327 -28 c-2 -17 -7 -30 -11 -30 -3 1 -21 21
-38 45 l-33 44 43 -15 c40 -14 43 -17 39 -44z m1048 25 c27 -70 26 -71 -42
-106 -111 -59 -289 -256 -354 -392 -16 -33 -17 -33 -81 -34 l-64 -1 7 42 c12
75 34 150 82 284 47 132 47 132 82 138 114 18 205 39 275 63 44 16 81 29 83
30 1 0 7 -10 12 -24z m-973 -19 c1 -1 -24 -96 -57 -211 -70 -252 -103 -389
-98 -413 2 -9 21 46 41 123 34 124 120 433 133 476 3 11 12 15 28 12 l24 -5
-24 -61 c-48 -120 -195 -582 -190 -597 3 -11 6 -9 11 8 7 21 61 59 71 49 4 -3
-33 -95 -42 -106 -2 -2 -33 22 -69 53 -65 58 -72 73 -59 123 l6 23 19 -25 c13
-16 18 -32 14 -48 -4 -14 -2 -28 4 -31 13 -8 11 -13 62 254 83 439 71 392 99
385 14 -4 26 -8 27 -9z m-373 -123 c17 -118 36 -306 36 -366 l0 -39 -32 22
c-69 46 -241 122 -265 117 -21 -4 -27 2 -49 50 -13 30 -40 77 -59 103 l-35 48
42 37 c72 63 197 113 339 134 4 1 14 -47 23 -106z m221 34 c39 -47 46 -61 39
-78 -9 -19 -14 -15 -57 40 -29 38 -47 71 -47 88 0 15 4 23 8 18 5 -6 30 -36
57 -68z m352 46 c30 -3 52 -10 50 -16 -1 -5 -30 -20 -62 -32 -33 -12 -77 -30
-97 -39 -21 -9 -38 -13 -38 -9 0 3 8 31 18 60 16 52 18 54 46 48 17 -3 54 -8
83 -12z m319 -61 l-21 -44 -49 7 c-42 5 -53 3 -65 -13 -203 -248 -285 -366
-361 -517 -25 -50 -46 -92 -47 -94 -2 -2 -14 1 -29 7 -20 10 -24 17 -19 35 17
58 157 330 251 487 l105 176 128 0 129 0 -22 -44z m-295 -10 c-14 -26 -34 -41
-68 -51 -15 -5 -52 -18 -80 -30 -52 -20 -61 -19 -45 7 6 9 172 85 200 91 1 1
-2 -7 -7 -17z m-388 -47 c33 -40 44 -61 40 -76 -6 -20 -10 -17 -49 27 -28 32
-43 59 -44 77 0 15 2 27 4 27 2 0 24 -25 49 -55z m645 -12 c-10 -2 -26 -2 -35
0 -10 3 -2 5 17 5 19 0 27 -2 18 -5z m-313 -26 c-6 -14 -154 -82 -162 -73 -13
13 19 37 85 63 42 16 78 29 80 28 1 -1 0 -9 -3 -18z m-340 -42 c31 -38 35 -49
28 -71 l-9 -26 -32 45 c-17 25 -32 57 -32 71 0 14 2 26 4 26 2 0 20 -20 41
-45z m645 36 c0 -5 -7 -26 -16 -46 -19 -47 -53 -199 -54 -241 0 -27 -5 -33
-55 -53 -89 -37 -169 -102 -227 -186 -53 -76 -66 -84 -105 -62 -22 12 -21 13
38 122 77 140 184 298 268 398 63 74 68 77 108 77 24 0 43 -4 43 -9z m-1233
-53 c63 -106 78 -222 47 -361 -24 -104 -50 -154 -119 -223 -68 -69 -140 -102
-239 -111 -47 -5 -57 -3 -54 8 34 125 63 199 76 194 29 -11 98 31 130 81 65
98 75 197 27 269 l-23 34 30 48 c33 51 80 111 88 112 3 1 20 -23 37 -51z m881
-19 c-11 -17 -138 -75 -138 -64 0 17 18 39 39 47 106 43 118 45 99 17z m-276
-111 c-4 -18 -7 -17 -33 8 -20 19 -29 37 -29 58 l1 31 33 -39 c21 -25 32 -46
28 -58z m236 40 c-15 -23 -103 -66 -113 -56 -14 14 11 38 58 56 67 27 72 27
55 0z m-273 -55 c24 -27 33 -63 17 -63 -16 0 -46 41 -49 66 -5 31 2 30 32 -3z
m-715 -29 c7 -20 10 -62 8 -94 -5 -74 -57 -158 -113 -184 -20 -10 -38 -16 -41
-14 -14 14 107 328 127 328 4 0 13 -16 19 -36z m948 6 c-11 -18 -74 -50 -98
-50 -23 0 7 34 44 50 57 26 70 26 54 0z m-621 -16 c92 -31 220 -113 315 -202
144 -135 231 -192 293 -192 27 0 28 -3 18 -38 -5 -20 -10 -23 -36 -18 -49 10
-154 73 -229 139 -193 169 -260 216 -362 253 -51 18 -61 26 -64 48 -4 30 1 31
65 10z m403 -71 c0 -13 -4 -23 -9 -23 -12 0 -41 46 -41 65 0 14 3 14 25 -2 13
-10 25 -28 25 -40z m184 23 c-6 -15 -63 -46 -84 -46 -22 0 8 34 42 46 44 17
48 16 42 0z m-519 -83 c39 -19 81 -46 96 -59 14 -13 29 -24 34 -24 4 0 42 -31
84 -68 42 -37 94 -82 116 -99 54 -43 157 -93 188 -93 25 0 26 -1 21 -52 -9
-82 -4 -80 -93 -49 -109 38 -177 81 -284 179 -109 100 -184 153 -255 178 l-52
19 6 50 c9 75 9 76 41 64 15 -6 60 -26 98 -46z m1040 37 c15 -6 7 -9 -30 -9
-27 -1 -61 -4 -75 -8 -14 -3 -22 -3 -19 1 3 4 26 10 50 15 56 11 51 11 74 1z
m-549 -16 c-3 -9 -6 -17 -6 -20 0 -5 -57 -34 -69 -34 -20 0 2 38 32 53 41 20
51 21 43 1z m-662 -51 c-7 -32 -13 -62 -14 -67 0 -5 -2 -7 -5 -4 -8 8 20 128
29 128 2 0 -2 -26 -10 -57z m1180 -50 c-18 -49 -33 -93 -34 -99 0 -6 -13 -11
-29 -12 -133 -4 -241 -235 -161 -344 l21 -28 -44 -58 c-25 -31 -56 -67 -70
-80 -22 -21 -26 -21 -40 -8 -8 8 -25 48 -38 88 -46 147 -25 289 67 440 66 108
197 182 330 187 l31 1 -33 -87z m-997 -94 c23 -16 80 -64 126 -107 132 -123
261 -199 352 -210 38 -4 44 -8 49 -35 3 -17 5 -31 3 -33 -7 -7 -99 20 -168 51
-98 43 -200 116 -311 220 -79 76 -187 145 -225 145 -16 0 -16 2 -2 34 l12 25
61 -31 c33 -17 80 -44 103 -59z m-168 -10 c17 -6 31 -14 31 -18 0 -13 -108
-189 -166 -274 -32 -45 -99 -132 -148 -194 -82 -100 -94 -112 -123 -113 -18 0
-33 5 -33 11 0 5 4 7 10 4 5 -3 12 7 16 22 3 15 12 49 20 74 8 25 23 92 35
149 11 57 21 105 22 105 1 1 33 16 70 33 74 34 172 119 203 177 21 39 20 39
63 24z m789 -54 c-18 -35 -33 -63 -35 -61 -6 6 53 126 62 126 3 0 -10 -29 -27
-65z m-691 -12 c9 -23 -130 -292 -250 -483 l-104 -165 -94 3 c-151 5 -403 -34
-481 -74 -15 -8 -29 -14 -31 -14 -3 0 -10 21 -17 47 -10 43 -10 49 6 58 133
77 279 237 357 391 26 51 26 51 84 57 31 3 59 5 61 3 8 -8 -66 -263 -106 -368
-17 -43 -26 -78 -21 -78 5 0 15 11 21 25 10 22 18 25 58 25 47 0 48 0 122 88
149 176 313 412 338 488 10 30 14 33 31 23 11 -6 23 -17 26 -26z m1014 10
c-32 -108 -120 -293 -140 -293 -17 0 -33 71 -27 114 12 78 62 153 126 187 47
24 50 24 41 -8z m-2213 -25 c-5 -14 -108 -41 -108 -28 0 19 40 36 88 39 15 1
22 -4 20 -11z m227 -18 c-4 -12 -9 -19 -12 -17 -3 3 -2 15 2 27 4 12 9 19 12
17 3 -3 2 -15 -2 -27z m1079 -41 c60 -56 77 -84 59 -102 -12 -13 -43 26 -43
55 0 92 -37 -32 -126 -427 -34 -153 -39 -166 -60 -158 -22 8 -15 48 43 231 77
246 104 343 100 355 -4 12 -170 -481 -182 -540 -7 -34 -12 -38 -32 -25 -8 5
-4 28 16 82 16 41 53 145 83 230 31 85 68 190 84 232 16 42 25 80 21 85 -5 4
-11 3 -15 -3 -7 -11 -52 -29 -52 -21 0 14 23 67 30 67 4 0 37 -27 74 -61z
m-1318 -11 c-35 -20 -139 -58 -145 -52 -9 8 14 38 40 51 32 17 133 18 105 1z
m1254 -16 c0 -15 -25 -38 -52 -50 -35 -14 -36 -3 -3 32 23 25 55 35 55 18z
m-1250 -42 c19 -12 17 -13 -77 -54 -80 -34 -102 -34 -89 0 7 17 102 64 131 64
11 0 27 -4 35 -10z m1437 -42 c5 -7 11 -70 11 -140 1 -182 56 -488 93 -522 9
-8 10 -5 6 12 -3 12 -3 22 -1 22 12 0 162 -107 236 -169 80 -67 108 -96 212
-225 43 -53 46 -61 30 -67 -39 -15 -52 -7 -115 73 -110 139 -295 290 -455 371
l-72 36 -6 93 c-7 89 -4 226 10 445 6 93 8 102 23 93 10 -5 22 -15 28 -22z
m-216 3 c-8 -15 -57 -41 -77 -41 -13 0 13 33 35 45 38 21 54 19 42 -4z m134
-22 c9 -16 12 -29 7 -29 -16 0 -54 48 -47 59 9 15 22 5 40 -30z m-1341 6 c-6
-16 -24 -21 -24 -7 0 11 11 22 21 22 5 0 6 -7 3 -15z m1626 -102 c30 -12 81
-25 114 -29 l58 -7 25 -56 c14 -31 34 -66 46 -78 l20 -23 -22 -24 c-34 -36
-166 -93 -270 -115 -52 -12 -96 -20 -97 -18 -7 6 -34 236 -40 336 l-7 113 59
-38 c32 -21 84 -48 114 -61z m-303 65 c13 -12 23 -31 23 -42 0 -18 -3 -17 -30
9 -28 26 -40 55 -23 55 4 0 17 -10 30 -22z m-1367 2 c0 -5 -3 -10 -7 -10 -5 0
-32 -18 -61 -40 -42 -32 -54 -37 -58 -25 -9 23 2 43 38 65 35 21 88 27 88 10z
m1221 -18 c-6 -11 -21 -22 -35 -26 -13 -3 -32 -9 -43 -13 -32 -11 17 37 52 52
36 15 40 13 26 -13z m138 -42 c12 -17 21 -41 19 -52 -3 -19 -6 -16 -30 18 -43
62 -33 93 11 34z m-155 -14 c-5 -13 -102 -61 -109 -54 -8 8 25 39 56 52 43 19
60 20 53 2z m176 -125 l0 -35 -40 54 c-22 29 -40 55 -40 56 0 1 3 10 7 20 11
29 73 -52 73 -95z m-209 52 c-5 -11 -29 -25 -51 -32 -23 -7 -49 -15 -57 -18
-13 -5 -14 -3 -5 13 9 16 111 66 120 58 2 -1 -1 -11 -7 -21z m-1223 -177 c-23
-123 -36 -176 -46 -176 -9 0 -11 9 -7 33 36 208 58 313 68 319 6 4 13 6 14 4
2 -2 -11 -82 -29 -180z m1407 94 c17 -24 25 -48 23 -66 -3 -26 -5 -25 -48 32
-31 40 -44 66 -42 82 3 22 5 23 22 7 10 -9 30 -34 45 -55z m-204 21 c-6 -10
-32 -26 -59 -34 -26 -9 -56 -19 -66 -23 -16 -6 -17 -4 -7 14 6 11 35 30 63 41
69 26 82 27 69 2z m-1063 -59 c31 -44 63 -112 53 -112 -32 0 -131 123 -131
163 0 17 2 17 30 -3 16 -11 38 -33 48 -48z m-203 9 c-26 -48 -110 -139 -119
-130 -18 17 104 179 134 179 6 0 -1 -22 -15 -49z m1448 -41 c36 -44 48 -66 45
-86 -3 -25 -6 -22 -55 39 -47 57 -68 107 -45 107 4 0 29 -27 55 -60z m-202 29
c-5 -16 -30 -29 -90 -50 -79 -27 -82 -27 -69 -7 8 12 45 34 84 49 86 34 85 34
75 8z m223 -144 c18 -24 48 -111 32 -94 -2 2 -33 39 -69 82 -47 57 -63 84 -59
99 4 19 8 17 39 -18 18 -22 44 -52 57 -69z m-248 72 c-11 -44 -36 -97 -47 -97
-5 0 -42 5 -80 12 -62 10 -68 13 -55 26 14 14 160 80 180 82 4 0 6 -10 2 -23z
m207 -110 c54 -65 61 -88 22 -74 -38 15 -119 149 -87 146 4 0 33 -32 65 -72z
m-55 -18 c25 -30 20 -35 -22 -20 -18 8 -23 15 -19 30 7 27 13 26 41 -10z
m-322 10 c164 -23 405 -99 557 -176 84 -42 190 -117 274 -195 90 -83 213 -219
207 -229 -2 -4 -15 -9 -28 -11 -21 -4 -31 4 -62 49 -49 71 -195 209 -284 268
-230 153 -501 241 -770 252 -123 5 -162 2 -257 -16 -61 -12 -131 -28 -155 -37
-36 -13 -116 -21 -123 -12 -2 2 -5 12 -9 24 -6 19 1 23 71 39 208 49 425 66
579 44z m-676 -96 c14 -48 110 -716 135 -943 2 -19 7 -62 10 -95 8 -72 74
-505 80 -522 7 -20 -6 -21 -58 -4 -48 16 -53 21 -65 62 -30 103 -114 541 -143
749 -17 126 -102 592 -129 705 -5 21 -7 41 -5 43 6 7 128 40 147 41 11 1 21
-12 28 -36z m772 6 c180 -36 404 -128 553 -229 134 -90 329 -293 293 -304 -7
-2 -47 -12 -88 -21 -41 -10 -81 -20 -87 -22 -19 -8 -16 22 7 59 24 40 26 75 3
100 -24 27 -63 22 -117 -13 -63 -42 -77 -30 -47 40 25 58 27 94 6 115 -8 8
-15 19 -15 25 0 6 -10 11 -22 11 -22 0 -46 -13 -117 -65 -37 -27 -48 -30 -70
-16 -12 8 -13 21 -4 77 5 37 8 77 5 90 -7 38 -39 64 -79 64 -37 0 -80 -35
-129 -104 -14 -21 -25 -28 -37 -23 -14 5 -17 20 -17 75 0 55 -4 75 -21 96 -43
55 -96 25 -132 -73 -34 -94 -47 -92 -76 16 -13 49 -55 103 -80 103 -28 0 -59
-37 -71 -83 -30 -114 -36 -118 -74 -37 -34 76 -68 97 -97 60 -10 -14 -19 -33
-19 -43 0 -16 3 -15 30 5 35 25 40 22 64 -45 19 -50 49 -79 73 -70 18 7 43 55
43 83 0 34 29 80 50 80 29 0 48 -25 60 -84 12 -58 37 -90 67 -84 18 3 35 32
68 115 36 86 85 55 85 -53 0 -51 4 -68 20 -84 11 -11 24 -20 29 -20 16 0 59
40 80 73 11 19 36 42 56 53 35 18 35 18 55 -2 23 -22 26 -53 15 -130 -7 -46
-5 -54 15 -74 29 -29 66 -22 130 25 26 19 57 35 69 35 32 0 38 -44 12 -97 -26
-54 -26 -68 -1 -93 23 -23 44 -18 108 25 67 44 96 11 54 -63 -13 -23 -22 -51
-19 -62 4 -16 -2 -22 -31 -30 -51 -14 -56 -13 -78 11 -74 84 -260 188 -442
249 -158 53 -294 73 -444 67 l-116 -5 -7 36 c-11 61 -42 109 -100 156 l-55 44
33 11 c189 61 400 72 609 30z m-1094 -114 c45 -111 52 -166 26 -203 -17 -24
-65 -30 -82 -9 -5 6 -17 32 -25 57 -8 24 -19 46 -24 47 -6 2 -22 -12 -37 -32
-20 -26 -35 -35 -56 -35 -59 0 -69 80 -17 135 32 35 158 143 167 144 3 1 24
-46 48 -104z m438 37 c62 -40 102 -91 124 -156 18 -54 8 -169 -19 -230 -22
-51 -70 -121 -77 -113 -3 2 12 39 32 81 35 73 36 80 32 159 -5 97 -26 144 -90
204 -25 22 -49 42 -55 44 -13 5 -27 49 -15 49 5 0 35 -17 68 -38z m21 -111
c40 -52 56 -109 51 -181 -6 -78 -68 -197 -68 -130 0 12 8 33 18 47 11 19 17
46 17 88 -1 64 -19 110 -61 155 -13 14 -27 41 -31 60 l-6 35 24 -16 c13 -9 39
-35 56 -58z m2393 -4 c0 -1 -11 -38 -26 -82 -14 -44 -41 -136 -60 -205 -19
-69 -55 -195 -79 -281 -56 -196 -99 -367 -124 -489 -11 -52 -33 -140 -49 -195
-16 -55 -48 -167 -71 -250 -23 -82 -52 -172 -63 -200 -11 -27 -29 -81 -40
-120 -11 -38 -22 -72 -24 -74 -2 -2 -24 2 -50 8 -26 7 -65 15 -87 18 -22 3
-59 11 -81 19 l-41 14 40 -5 c38 -5 39 -5 20 10 -11 9 -31 18 -45 21 -115 24
-880 219 -897 228 -7 4 109 323 132 363 15 27 101 120 195 213 92 91 185 188
207 215 62 78 130 215 150 304 l18 80 70 17 c227 56 588 209 815 347 68 41 90
52 90 44z m-2421 -80 c22 -45 27 -115 11 -152 -6 -14 -9 -15 -10 -5 0 8 -9 57
-19 108 -10 50 -14 92 -10 92 4 0 17 -19 28 -43z m-674 -35 c-8 -8 -25 10 -25
26 0 13 2 13 14 -4 8 -10 13 -21 11 -22z m1164 3 c149 -15 355 -88 509 -180
82 -49 172 -120 172 -136 0 -18 -37 -8 -61 17 -63 67 -246 166 -404 217 -139
45 -245 60 -392 54 -124 -4 -133 -3 -133 14 0 15 10 19 68 21 78 3 164 1 241
-7z m61 -71 c111 -23 211 -58 335 -118 108 -53 231 -137 218 -150 -13 -13 -36
-5 -67 22 -46 41 -218 126 -322 161 -145 48 -250 64 -406 59 -125 -3 -138 -2
-138 14 0 12 11 18 43 22 23 3 56 8 72 10 48 6 184 -4 265 -20z m-95 -55 c193
-23 389 -92 532 -187 29 -19 53 -38 53 -43 0 -7 -130 -53 -135 -47 -1 2 -15
31 -30 65 -38 86 -68 111 -145 124 -76 12 -169 0 -277 -37 -95 -31 -175 -72
-168 -84 3 -5 0 -7 -8 -5 -7 3 -31 -8 -52 -25 -21 -16 -39 -30 -41 -30 -2 0
-28 25 -58 56 l-54 56 29 43 c16 24 36 59 44 79 13 30 20 35 52 39 78 8 171 7
258 -4z m1911 -107 c-4 -10 -12 -40 -20 -68 -46 -167 -83 -298 -123 -434 -25
-85 -50 -170 -55 -188 -5 -19 -11 -32 -13 -30 -7 7 26 146 92 383 36 131 66
244 67 250 5 28 40 105 48 105 5 0 7 -8 4 -18z m-3340 -124 c-20 -62 -45 -131
-56 -153 l-20 -40 4 36 c5 39 96 282 104 275 2 -3 -12 -56 -32 -118z m1746 96
c118 -61 161 -368 88 -626 l-11 -37 -37 22 c-20 12 -57 24 -82 27 l-45 6 43
18 c59 25 53 40 -8 17 l-49 -19 41 81 c23 45 41 90 40 101 -1 19 -59 86 -74
86 -15 0 -8 -22 17 -52 14 -16 25 -38 25 -48 0 -10 -25 -65 -55 -122 -67 -127
-74 -167 -43 -228 28 -55 75 -82 135 -78 40 3 42 2 36 -22 -8 -35 -9 -36 -94
-63 -88 -28 -177 -83 -221 -138 -36 -45 -58 -50 -58 -14 0 35 -45 151 -80 205
-27 42 -135 154 -205 214 -26 21 -28 27 -17 43 29 41 83 165 96 222 15 63 9
158 -13 213 -6 18 -7 29 0 33 5 4 6 11 3 17 -4 7 -2 8 4 4 7 -4 27 4 44 17 43
31 85 52 183 89 147 56 269 67 337 32z m-1222 -33 c19 -5 52 -12 73 -16 34 -5
37 -8 31 -32 -5 -18 -4 -24 5 -19 14 9 33 -39 28 -68 -3 -19 -4 -19 -17 7 -15
30 -30 36 -30 11 0 -12 -3 -14 -13 -6 -10 9 -22 0 -49 -37 l-37 -49 22 -19
c32 -28 84 -63 94 -63 5 0 14 17 19 38 l10 37 14 -27 c15 -32 8 -51 -36 -105
l-27 -33 34 -15 c43 -19 63 -35 72 -57 8 -22 -1 -22 -27 -3 -11 8 -23 15 -27
15 -3 0 -25 -25 -48 -55 l-41 -54 43 -26 c53 -30 71 -31 97 -5 19 19 20 19 20
1 0 -11 2 -26 6 -34 3 -8 -6 -28 -20 -44 -26 -31 -25 -43 4 -43 10 0 24 -7 31
-16 12 -15 11 -16 -7 -10 -14 4 -26 0 -36 -11 -18 -21 -48 -78 -48 -92 0 -17
97 -43 118 -32 22 12 32 5 32 -21 0 -22 -7 -22 -62 -4 -24 8 -77 24 -118 35
-61 17 -314 97 -369 117 -11 4 -9 8 7 20 51 36 150 210 176 311 45 173 54 289
29 391 -6 25 -3 26 47 13z m230 -28 c0 -26 14 -102 84 -468 37 -192 83 -412
91 -432 6 -17 -8 -16 -48 1 l-33 13 -26 154 c-15 85 -45 233 -67 330 -32 140
-61 331 -61 405 0 12 41 34 53 27 4 -2 7 -16 7 -30z m285 -3 c100 -62 153
-216 119 -347 -18 -71 -61 -168 -82 -185 -13 -11 -14 -9 -10 17 3 17 18 59 34
95 55 130 32 261 -64 373 -58 67 -57 84 3 47z m1320 -47 c-30 -92 -91 -216
-136 -276 -20 -27 -106 -119 -191 -205 -85 -86 -169 -179 -187 -207 -18 -27
-30 -41 -27 -30 3 11 8 37 12 58 3 21 13 41 21 44 9 4 11 8 5 12 -7 4 -4 31 8
76 10 39 21 86 24 106 5 28 16 43 47 64 98 68 205 217 239 330 12 41 12 41
103 67 51 14 95 27 98 27 4 1 -4 -29 -16 -66z m-1685 47 c0 -5 -4 -10 -10 -10
-5 0 -10 5 -10 10 0 6 5 10 10 10 6 0 10 -4 10 -10z m1440 -150 c-30 -59 -63
-105 -122 -166 -44 -46 -84 -84 -88 -84 -3 0 -5 13 -2 29 2 18 19 41 46 63 54
46 114 133 137 200 13 39 24 54 41 59 35 8 33 -11 -12 -101z m-1045 18 c36
-67 45 -169 21 -251 -9 -31 -21 -59 -27 -63 -13 -7 -11 9 12 109 16 69 2 151
-34 206 -13 20 -28 47 -32 61 -7 24 -7 25 12 7 11 -9 33 -41 48 -69z m976 -11
c-29 -60 -114 -167 -131 -167 -22 0 -1 50 37 90 24 24 52 67 64 96 20 48 48
73 58 51 2 -4 -11 -36 -28 -70z m-56 16 c-23 -46 -68 -103 -80 -103 -14 0 -3
39 16 56 12 10 30 36 40 57 11 20 26 37 34 37 12 0 10 -10 -10 -47z m-45 19
c-1 -11 -38 -57 -43 -52 -2 3 -7 16 -10 30 -5 22 -3 25 23 27 17 1 30 -1 30
-5z m-1310 -74 c-18 -33 -30 -35 -61 -9 l-24 19 28 30 29 30 21 -22 c21 -20
21 -23 7 -48z m421 -52 c6 -33 6 -68 1 -88 -8 -30 -10 -25 -20 52 -6 47 -14
96 -18 110 l-6 25 16 -22 c9 -12 21 -47 27 -77z m-347 -108 l6 -27 -29 16
c-28 16 -28 18 -12 39 17 24 24 19 35 -28z m-283 -39 c-5 -13 -10 -19 -10 -12
-1 15 10 45 15 40 3 -2 0 -15 -5 -28z m-20 -60 c-5 -13 -10 -19 -10 -12 -1 15
10 45 15 40 3 -2 0 -15 -5 -28z m285 -20 c3 -6 17 -9 30 -6 13 2 24 1 24 -4 0
-4 3 -16 6 -26 6 -15 4 -16 -7 -5 -20 19 -36 14 -43 -12 -8 -33 -30 -38 -61
-14 l-26 21 27 28 c30 32 39 35 50 18z m89 -167 c7 -43 7 -44 -15 -32 -13 7
-19 17 -16 27 3 8 6 31 7 51 0 29 2 33 8 17 5 -11 12 -40 16 -63z m872 42 c-9
-9 -28 6 -21 18 4 6 10 6 17 -1 6 -6 8 -13 4 -17z m106 -11 c19 -17 23 -43 7
-43 -5 0 -10 7 -10 15 0 8 -6 15 -14 15 -8 0 -16 6 -19 13 -3 9 -10 7 -25 -6
-23 -21 -41 -5 -21 19 15 18 54 11 82 -13z m57 -29 c0 -8 -4 -14 -10 -14 -5 0
-10 9 -10 21 0 11 5 17 10 14 6 -3 10 -13 10 -21z m-163 -37 c14 -14 31 -18
80 -15 34 1 64 0 67 -3 4 -3 1 -20 -5 -37 -10 -28 -15 -32 -49 -32 -47 0 -114
35 -129 67 -6 13 -11 36 -11 51 1 26 1 26 15 7 8 -11 22 -28 32 -38z m-443
-76 c68 -72 125 -162 146 -230 11 -35 18 -66 16 -68 -7 -7 -46 17 -46 28 0 6
-15 43 -33 82 -37 80 -130 201 -177 232 -22 15 -30 28 -30 50 l0 29 41 -39
c23 -22 60 -60 83 -84z m486 72 c0 -7 -39 17 -46 28 -3 6 5 3 20 -6 14 -10 26
-19 26 -22z m-472 -183 c33 -50 85 -161 78 -168 -11 -10 -37 16 -47 46 -16 48
-66 127 -113 176 -20 22 -39 51 -42 65 -6 24 -2 22 40 -19 26 -25 64 -70 84
-100z m-445 117 c14 13 19 -30 7 -53 -15 -27 -23 -28 -62 -11 l-28 12 21 32
c17 26 24 31 39 23 9 -5 20 -7 23 -3z m432 -194 c31 -64 32 -78 5 -63 -11 6
-20 17 -20 24 0 7 -18 38 -40 69 -22 30 -40 66 -40 79 0 21 3 19 35 -17 19
-22 46 -63 60 -92z m-414 37 c52 -17 173 -53 269 -81 201 -57 333 -100 328
-105 -13 -12 -698 196 -698 212 0 6 1 6 101 -26z m949 -5 c0 -9 -12 -21 -27
-27 -105 -43 -156 -71 -192 -107 -37 -37 -81 -55 -81 -32 0 15 96 99 141 121
41 21 134 58 152 59 4 1 7 -6 7 -14z m-582 -84 c-16 -5 -38 28 -38 58 1 24 2
23 25 -14 16 -26 21 -41 13 -44z m562 15 c0 -8 -12 -17 -27 -20 -35 -9 -132
-72 -140 -91 -6 -16 -43 -21 -43 -6 0 17 83 83 134 107 59 27 76 30 76 10z
m-20 -66 c-6 -11 -23 -26 -39 -34 -15 -8 -33 -22 -40 -30 -14 -17 -51 -22 -51
-8 0 20 101 92 128 92 10 0 10 -5 2 -20z m-17 -87 c-7 -17 -12 -19 -33 -11
l-25 9 30 25 c32 25 43 17 28 -23z m900 -280 c-7 -2 -19 -2 -25 0 -7 3 -2 5
12 5 14 0 19 -2 13 -5z"/>
<path d="M5765 7306 c-18 -13 -18 -14 3 -25 11 -6 41 -11 67 -11 58 0 103 -19
167 -70 55 -44 74 -51 59 -21 -20 36 -119 117 -158 129 -54 16 -115 15 -138
-2z"/>
<path d="M5804 7215 c-10 -8 -30 -15 -43 -15 -17 0 -22 -4 -17 -16 3 -9 6 -18
6 -20 0 -2 8 -4 18 -4 11 0 18 -7 18 -20 0 -15 -5 -18 -18 -14 -11 3 -18 0
-18 -9 0 -16 69 -107 81 -107 15 0 10 11 -17 47 -24 31 -21 46 3 22 15 -15
203 -28 211 -15 6 11 -42 55 -107 97 -30 19 -58 29 -84 29 -23 0 -36 4 -32 10
8 14 81 13 108 -1 12 -6 39 -27 60 -47 20 -20 37 -31 37 -25 0 16 -68 73 -106
89 -43 18 -75 18 -100 -1z m16 -77 c0 -6 8 -20 17 -30 16 -18 16 -18 0 -12
-26 10 -48 54 -27 54 6 0 10 -5 10 -12z m87 -33 c-4 -8 -14 -15 -23 -15 -16 0
-16 2 1 20 20 22 31 20 22 -5z m53 -10 c11 -13 8 -15 -13 -15 -19 0 -25 4 -21
15 4 8 10 15 14 15 4 0 13 -7 20 -15z"/>
<path d="M5570 6931 c0 -14 78 -63 96 -59 24 4 39 32 29 54 -8 18 -9 17 -12
-3 -5 -28 -23 -29 -56 -3 -26 21 -57 27 -57 11z"/>
<path d="M5426 6813 c-18 -19 -4 -41 32 -48 20 -3 46 -12 57 -19 11 -7 39 -15
62 -18 23 -3 55 -13 72 -21 26 -13 30 -13 35 0 11 29 6 43 -16 43 -13 0 -34 9
-48 20 -14 11 -37 20 -52 20 -15 0 -29 4 -33 9 -3 6 -23 9 -44 9 -22 0 -43 2
-49 6 -5 3 -12 3 -16 -1z"/>
<path d="M5473 6707 c-15 -25 87 -61 110 -38 8 8 6 11 -9 11 -11 0 -36 9 -57
19 -24 12 -39 15 -44 8z"/>
<path d="M4890 6425 c0 -9 5 -15 11 -13 6 2 11 8 11 13 0 5 -5 11 -11 13 -6 2
-11 -4 -11 -13z"/>
<path d="M4990 6360 c0 -5 4 -10 9 -10 6 0 13 5 16 10 3 6 -1 10 -9 10 -9 0
-16 -4 -16 -10z"/>
<path d="M5076 6293 c-11 -11 -6 -23 9 -23 8 0 15 4 15 9 0 13 -16 22 -24 14z"/>
<path d="M5204 6239 c-10 -17 13 -36 27 -22 12 12 4 33 -11 33 -5 0 -12 -5
-16 -11z"/>
<path d="M5303 6145 c-3 -9 -3 -18 0 -22 10 -10 37 6 37 22 0 20 -29 20 -37 0z"/>
<path d="M5475 6120 c-4 -6 -3 -16 3 -22 6 -6 12 -6 17 2 4 6 3 16 -3 22 -6 6
-12 6 -17 -2z"/>
<path d="M5710 6080 c0 -5 5 -10 10 -10 6 0 10 5 10 10 0 6 -4 10 -10 10 -5 0
-10 -4 -10 -10z"/>
<path d="M5835 6071 c-3 -5 -1 -12 5 -16 5 -3 10 1 10 9 0 18 -6 21 -15 7z"/>
<path d="M5590 6055 c0 -8 5 -15 10 -15 6 0 10 7 10 15 0 8 -4 15 -10 15 -5 0
-10 -7 -10 -15z"/>
<path d="M4355 6167 c-8 -13 -18 -38 -21 -56 -5 -22 -17 -39 -38 -52 -42 -25
-44 -25 -52 19 -8 42 -31 92 -43 92 -14 0 -101 -62 -116 -83 -24 -34 -19 -82
11 -106 24 -19 25 -21 8 -28 -11 -4 -30 -14 -44 -24 -14 -9 -36 -19 -50 -23
-23 -5 -25 -2 -27 29 -2 44 -52 155 -69 155 -18 0 -59 -63 -79 -119 -8 -24
-14 -66 -12 -95 3 -49 6 -54 73 -117 70 -68 181 -145 191 -135 8 7 13 3 -72
59 -90 59 -152 114 -141 124 5 4 11 2 13 -5 3 -8 19 4 43 30 l38 43 25 -23
c24 -23 46 -26 136 -23 27 1 106 75 96 91 -4 6 -28 9 -56 7 -27 -2 -49 -2 -49
0 0 2 12 15 26 28 24 23 25 25 7 25 -11 0 -30 11 -43 25 -20 21 -22 28 -12 50
6 13 30 38 54 55 39 28 43 29 52 13 6 -10 11 -48 12 -86 0 -37 4 -70 7 -74 4
-3 26 1 49 10 24 8 64 18 89 22 31 4 54 14 70 31 13 14 37 33 52 41 16 8 26
18 22 21 -9 10 -126 2 -147 -9 -10 -6 -18 -7 -18 -5 0 14 37 82 48 89 17 11
15 27 -3 27 -8 0 -21 -10 -30 -23z m62 -122 c-15 -14 -40 -25 -55 -25 -15 0
-44 -5 -65 -11 -53 -14 -70 -5 -25 15 21 9 41 15 45 14 5 0 24 6 43 15 19 9
46 16 60 16 l25 0 -28 -24z m-460 -103 c5 -29 1 -39 -38 -78 -40 -41 -45 -43
-56 -27 -27 36 -11 137 30 197 l21 29 19 -44 c10 -24 21 -59 24 -77z m213 -62
c-14 -11 -35 -23 -48 -26 -28 -8 -89 3 -98 18 -12 19 19 28 96 28 l75 0 -25
-20z"/>
<path d="M4553 5533 c-44 -30 -26 -38 36 -15 11 4 12 -1 7 -24 -6 -27 -5 -28
9 -10 18 24 19 38 3 54 -16 16 -28 14 -55 -5z"/>
<path d="M4587 5424 c-10 -11 2 -24 23 -24 26 0 45 -36 30 -55 -6 -8 -21 -15
-33 -17 -31 -4 -29 -34 2 -30 75 8 83 110 11 127 -14 3 -29 3 -33 -1z"/>
<path d="M4577 5224 c-11 -11 3 -24 24 -24 12 0 19 5 17 13 -5 14 -31 21 -41
11z"/>
<path d="M4555 5162 c8 -50 -12 -71 -51 -53 -30 14 -34 14 -34 1 0 -5 11 -17
24 -25 17 -12 30 -13 49 -6 30 12 41 41 32 87 -9 48 -28 44 -20 -4z"/>
<path d="M4404 5047 c-8 -28 -13 -32 -41 -29 -18 1 -33 -2 -33 -6 0 -17 25
-32 52 -32 30 0 48 23 48 64 0 37 -15 39 -26 3z"/>
<path d="M5802 5203 c-11 -10 -23 -33 -26 -51 -5 -27 -3 -33 11 -30 9 2 18 14
20 28 4 30 21 41 50 33 28 -6 31 12 4 27 -27 14 -36 13 -59 -7z"/>
<path d="M5641 5104 c-12 -15 -19 -34 -16 -42 3 -8 8 -25 11 -39 6 -24 5 -25
-20 -19 -23 6 -27 4 -24 -11 4 -24 32 -28 52 -8 12 12 14 26 10 57 -8 47 6 61
49 52 24 -5 28 -3 25 13 -2 12 -13 19 -34 21 -25 2 -37 -3 -53 -24z"/>
<path d="M5562 4900 c-50 -20 -48 -101 3 -120 36 -14 45 -13 45 5 0 8 -8 15
-18 15 -23 0 -42 19 -42 43 0 11 13 23 35 33 19 8 35 19 35 24 0 12 -27 12
-58 0z"/>
<path d="M5587 4724 c-10 -13 -17 -32 -15 -42 4 -21 44 -28 64 -12 18 16 18
30 -1 30 -8 0 -15 -5 -15 -12 0 -8 -3 -9 -10 -2 -7 7 -8 19 -1 37 13 34 2 34
-22 1z"/>
<path d="M4590 4136 c0 -9 7 -16 16 -16 17 0 14 22 -4 28 -7 2 -12 -3 -12 -12z"/>
<path d="M4350 4115 c0 -9 5 -15 11 -13 6 2 11 8 11 13 0 5 -5 11 -11 13 -6 2
-11 -4 -11 -13z"/>
<path d="M4485 4120 c-3 -5 -1 -10 4 -10 6 0 11 5 11 10 0 6 -2 10 -4 10 -3 0
-8 -4 -11 -10z"/>
<path d="M4690 4080 c0 -5 5 -10 10 -10 6 0 10 5 10 10 0 6 -4 10 -10 10 -5 0
-10 -4 -10 -10z"/>
<path d="M4850 4065 c-16 -19 -3 -40 16 -24 15 13 19 39 5 39 -5 0 -14 -7 -21
-15z"/>
<path d="M4942 3978 c5 -15 48 -24 48 -10 0 10 -23 22 -42 22 -5 0 -8 -6 -6
-12z"/>
<path d="M5082 3928 c6 -18 28 -21 28 -4 0 9 -7 16 -16 16 -9 0 -14 -5 -12
-12z"/>
<path d="M5165 3830 c3 -5 8 -10 11 -10 2 0 4 5 4 10 0 6 -5 10 -11 10 -5 0
-7 -4 -4 -10z"/>
<path d="M5260 3795 c0 -8 5 -15 10 -15 6 0 10 7 10 15 0 8 -4 15 -10 15 -5 0
-10 -7 -10 -15z"/>
<path d="M5654 3298 c-40 -54 -176 -174 -279 -246 -90 -63 -175 -155 -212
-229 -39 -80 -39 -165 0 -240 34 -66 67 -88 127 -87 49 0 96 23 157 77 32 28
33 28 33 7 0 -46 24 -111 54 -145 27 -31 38 -37 85 -41 73 -7 129 15 180 71
43 47 71 121 71 189 0 58 -21 150 -84 370 -72 252 -81 293 -66 311 9 11 7 14
-10 12 -13 -1 -35 -20 -56 -49z m44 -106 c6 -43 31 -139 56 -213 64 -191 72
-241 57 -327 -12 -66 -70 -199 -94 -214 -7 -4 -32 -8 -56 -8 -38 0 -49 5 -87
44 -40 40 -44 48 -44 94 0 28 -4 54 -10 57 -5 3 -10 15 -10 26 0 29 -10 24
-65 -32 -60 -62 -95 -79 -142 -69 -86 20 -122 79 -104 170 14 69 59 163 106
217 19 23 86 80 149 127 62 47 137 112 167 145 30 33 57 60 60 60 3 1 11 -34
17 -77z m-497 -368 c-17 -27 -31 -45 -31 -40 0 14 51 98 57 93 2 -3 -9 -27
-26 -53z m-39 -129 c-2 -14 -6 -25 -8 -25 -2 0 -4 11 -4 25 0 14 4 25 9 25 4
0 6 -11 3 -25z m668 -131 c-7 -23 -25 -57 -41 -76 l-29 -33 30 60 c16 33 33
80 37 105 6 39 8 41 11 16 2 -16 -2 -48 -8 -72z m-561 -40 c14 -12 -19 -1 -35
12 -18 14 -18 14 6 3 14 -6 27 -13 29 -15z"/>
<path d="M4624 3559 c-7 -13 -9 -11 46 -32 28 -11 47 -14 54 -7 6 6 3 12 -10
16 -10 4 -34 13 -51 20 -21 8 -35 9 -39 3z"/>
<path d="M4530 3499 c0 -18 4 -28 10 -24 6 3 24 -4 41 -16 17 -12 43 -21 57
-21 15 0 32 -4 37 -8 6 -4 30 -10 55 -11 40 -4 45 -1 48 17 3 18 -3 23 -30 27
-60 10 -181 46 -191 56 -19 19 -27 12 -27 -20z"/>
<path d="M4526 3337 c-15 -11 -17 -18 -8 -33 10 -17 11 -17 12 -1 0 23 26 22
57 -3 23 -18 43 -19 43 -2 0 9 -63 52 -76 52 -6 0 -18 -6 -28 -13z"/>
<path d="M4370 3222 c0 -5 9 -17 20 -27 29 -26 25 -35 -12 -24 -18 5 -66 7
-105 3 -84 -7 -84 -12 -10 -74 31 -25 64 -42 98 -49 46 -10 54 -9 90 12 30 18
36 26 27 35 -7 7 -17 12 -23 12 -5 0 -16 10 -24 21 -11 19 -11 21 3 16 24 -9
20 4 -15 46 -29 35 -49 47 -49 29z m-74 -99 c-3 -3 -13 0 -22 8 -15 12 -14 14
3 20 17 6 32 -15 19 -28z m54 2 c-16 -19 -30 -19 -30 -1 0 8 8 16 18 18 24 6
27 1 12 -17z m60 -4 c7 -13 7 -22 0 -26 -5 -3 -10 -2 -10 4 0 5 -7 17 -16 25
-14 14 -14 16 0 16 8 0 20 -9 26 -19z"/>
<path d="M4240 3094 c0 -19 56 -64 91 -74 44 -13 116 -13 124 0 4 6 -13 10
-45 10 -56 0 -113 20 -147 52 -13 12 -23 17 -23 12z"/>
<path d="M4170 3060 c0 -23 108 -119 146 -129 59 -17 154 -14 154 3 0 20 -10
25 -61 27 -76 3 -116 18 -170 64 -53 45 -69 53 -69 35z"/>
<path d="M4460 7854 c-50 -22 -109 -81 -136 -139 -31 -65 -33 -179 -4 -286 69
-255 113 -440 114 -482 1 -34 5 -46 14 -42 7 3 10 0 7 -5 -3 -6 -2 -10 2 -10
5 0 26 23 46 50 38 51 117 117 268 225 167 119 258 232 289 357 15 60 -6 138
-52 192 -27 31 -41 39 -79 43 -58 7 -107 -9 -165 -53 -24 -19 -46 -34 -48 -34
-2 0 -7 17 -11 38 -20 123 -137 193 -245 146z m101 -45 c70 -24 110 -84 111
-169 0 -22 5 -43 10 -46 6 -4 33 16 61 44 83 80 136 98 197 67 72 -37 80 -139
22 -261 -52 -106 -73 -129 -226 -244 -72 -54 -161 -127 -197 -162 l-67 -63
-15 100 c-8 55 -34 156 -57 225 -29 85 -44 149 -47 202 -11 152 45 281 133
308 39 11 37 11 75 -1z m-215 -144 c-8 -27 -15 -42 -15 -31 -1 23 22 103 26
90 1 -5 -4 -31 -11 -59z m694 -112 c0 -10 -5 -25 -10 -33 -7 -11 -10 -7 -10
18 0 17 5 32 10 32 6 0 10 -8 10 -17z m-42 -123 c-7 -10 -14 -17 -17 -15 -4 4
18 35 25 35 2 0 -1 -9 -8 -20z"/>
<path d="M3639 7737 c-79 -52 -89 -135 -39 -327 16 -63 31 -133 32 -154 2 -22
9 -41 16 -44 7 -2 27 13 45 33 17 20 64 61 102 90 132 99 186 173 189 257 1
43 -3 53 -27 74 -33 29 -91 32 -126 8 -19 -14 -25 -14 -32 -3 -5 8 -9 19 -9
26 0 20 -61 63 -89 63 -16 0 -43 -10 -62 -23z m109 -39 c5 -7 12 -33 15 -58 3
-25 6 -46 6 -47 3 -11 27 2 54 27 41 39 71 47 102 26 43 -28 30 -95 -35 -174
-15 -19 -70 -69 -121 -113 l-94 -79 -8 43 c-4 23 -14 79 -23 124 -10 48 -15
110 -12 149 4 58 8 70 32 90 30 26 68 31 84 12z m-143 -88 l-14 -55 4 48 c3
27 8 53 11 58 13 21 12 1 -1 -51z"/>
<path d="M6705 6344 c-22 -8 -41 -14 -42 -14 -1 0 -11 -16 -23 -36 -31 -48
-24 -118 19 -210 53 -112 53 -113 21 -247 -17 -67 -30 -131 -31 -142 0 -19 -1
-19 -12 -1 -48 74 -126 145 -159 146 -24 0 -23 -35 2 -104 21 -55 76 -115 125
-138 17 -7 23 -18 21 -31 -3 -25 -12 -30 -89 -58 -106 -38 -167 -123 -192
-263 -15 -88 -15 -90 5 -111 12 -13 39 -31 61 -41 36 -16 45 -16 87 -4 69 20
95 17 152 -20 53 -34 66 -35 56 -3 -9 29 -63 56 -97 49 l-28 -5 21 24 c12 14
30 25 40 25 47 0 101 51 84 79 -3 5 6 16 20 26 19 12 25 23 22 44 -1 16 2 35
8 42 20 25 23 47 10 65 -10 13 -10 24 -3 45 9 23 8 32 -8 49 -10 11 -24 19
-31 16 -7 -3 -10 2 -7 15 3 11 -1 21 -11 25 -26 10 -19 22 27 42 50 22 97 74
133 145 15 29 33 60 41 69 16 18 10 38 -12 38 -21 0 -115 -75 -143 -114 -14
-20 -26 -35 -28 -33 -1 1 8 53 22 115 13 62 22 117 19 122 -3 5 16 23 42 41
88 60 134 102 160 146 65 112 -2 207 -109 154 -42 -21 -58 -20 -58 3 0 14 -37
50 -60 58 -9 3 -34 0 -55 -8z m55 -44 c10 -5 26 -32 35 -60 9 -27 20 -50 24
-50 4 0 21 16 38 35 37 41 74 46 97 13 25 -35 19 -65 -19 -107 -32 -35 -169
-146 -181 -146 -6 0 -71 159 -83 203 -22 78 30 143 89 112z m228 -56 c-4 -3
-12 5 -18 18 -12 22 -12 22 6 6 10 -10 15 -20 12 -24z m-232 -341 c-3 -10 -20
-81 -37 -158 -17 -77 -33 -144 -36 -149 -3 -4 0 -11 6 -15 7 -5 2 -12 -14 -19
-23 -11 -26 -10 -21 5 2 10 19 86 36 168 40 189 38 185 56 185 10 0 13 -6 10
-17z m93 -159 c-34 -55 -90 -114 -110 -114 -18 0 35 84 85 133 26 26 51 46 54
43 2 -3 -10 -31 -29 -62z m-242 -61 c36 -61 25 -73 -26 -28 -43 39 -81 100
-81 132 0 24 73 -48 107 -104z m93 -156 c0 -26 -27 -50 -91 -81 -45 -22 -64
-37 -65 -51 -2 -38 -15 -100 -25 -118 -6 -11 -8 -21 -5 -24 8 -9 36 17 36 33
0 8 7 14 17 14 14 0 14 -2 -3 -21 -18 -20 -18 -21 1 -35 19 -14 19 -16 3 -25
-27 -15 -22 -46 10 -57 26 -8 23 -10 -41 -31 -76 -25 -101 -23 -145 14 l-29
24 13 77 c24 136 73 193 221 256 100 42 103 43 103 25z m55 -37 c20 -32 -68
-100 -109 -84 -24 9 -19 20 13 34 16 6 39 22 52 36 25 26 35 29 44 14z m9
-108 c-24 -40 -153 -80 -177 -55 -10 9 39 37 101 57 28 10 55 22 58 28 4 6 10
6 17 -1 8 -8 8 -17 1 -29z m-154 9 c0 -12 -20 -25 -27 -18 -7 7 6 27 18 27 5
0 9 -4 9 -9z m134 -80 c17 -26 -100 -70 -148 -55 -15 5 -2 13 55 34 86 33 86
33 93 21z m-44 -91 c0 -15 -46 -30 -93 -30 -75 0 -15 29 81 39 6 0 12 -4 12
-9z"/>
<path d="M4790 5975 c16 -19 -2 -65 -25 -65 -8 0 -15 -4 -15 -10 0 -12 30 -13
47 -2 30 19 23 92 -9 92 -6 0 -5 -7 2 -15z"/>
<path d="M4615 5877 c7 -26 -15 -57 -41 -57 -19 0 -18 -16 2 -24 9 -4 28 1 41
9 19 13 24 23 21 52 -2 20 -9 38 -16 41 -9 3 -11 -3 -7 -21z"/>
<path d="M4465 5737 c5 -18 -2 -31 -27 -55 -18 -18 -38 -30 -45 -28 -7 3 -13
1 -13 -4 0 -13 36 -13 61 0 26 14 51 67 44 90 -9 28 -27 25 -20 -3z"/>
<path d="M6380 5640 c-20 -20 -25 -45 -14 -74 9 -23 26 -20 19 4 -10 32 4 63
26 57 27 -7 34 10 10 23 -17 8 -25 6 -41 -10z"/>
<path d="M4334 5550 c7 -33 -23 -71 -57 -73 -30 -2 -36 -14 -12 -23 27 -11 64
6 80 36 19 36 19 42 -1 66 -15 18 -15 18 -10 -6z"/>
<path d="M3676 5515 c-31 -32 -31 -63 3 -116 17 -28 31 -54 31 -57 0 -4 7 -18
16 -30 l15 -22 46 37 c118 98 126 108 119 137 -10 41 -48 54 -93 32 -36 -17
-37 -17 -52 3 -23 28 -64 36 -85 16z m74 -51 c8 -16 16 -31 17 -33 1 -2 16 8
33 23 35 29 52 32 68 13 9 -10 8 -19 -3 -34 -15 -21 -113 -89 -119 -82 -1 2
-13 28 -25 57 -33 79 -8 128 29 56z"/>
<path d="M6235 5496 c-19 -28 -17 -77 3 -84 9 -3 11 3 7 21 -11 41 44 79 59
40 5 -11 10 -13 17 -6 8 8 8 17 0 32 -17 30 -66 28 -86 -3z"/>
<path d="M4237 5338 c5 -27 4 -30 -10 -25 -10 4 -24 10 -32 13 -21 8 -20 -30
1 -50 20 -21 30 -20 54 4 23 23 24 29 10 64 -14 37 -31 33 -23 -6z m-33 -34
c3 -8 2 -12 -4 -9 -6 3 -10 10 -10 16 0 14 7 11 14 -7z"/>
<path d="M6120 5335 c-6 -8 -14 -32 -17 -53 -4 -32 -1 -44 16 -61 28 -28 46
-27 27 1 -30 42 -10 118 22 86 19 -19 39 6 22 27 -16 19 -54 20 -70 0z"/>
<path d="M4164 5178 c32 -45 13 -94 -30 -78 -29 11 -40 -3 -18 -24 55 -55 122
45 69 104 -24 27 -40 26 -21 -2z"/>
<path d="M6020 5123 c-23 -30 -21 -65 7 -95 23 -26 37 -22 19 4 -32 45 -7 100
35 77 12 -6 19 -4 23 6 5 15 -21 35 -48 35 -8 0 -24 -12 -36 -27z"/>
<path d="M4060 5001 c0 -5 7 -14 15 -21 19 -16 19 -60 0 -86 -8 -11 -15 -14
-15 -6 0 13 -40 17 -40 4 0 -15 24 -32 46 -32 44 0 72 82 41 121 -14 18 -47
32 -47 20z"/>
<path d="M5946 4924 c-9 -8 -16 -24 -16 -35 0 -26 18 -59 31 -59 6 0 8 4 5 8
-11 18 -14 62 -5 67 5 4 9 1 9 -4 0 -6 5 -11 11 -11 6 0 9 7 6 14 -4 10 -1 13
8 10 8 -3 16 -13 18 -22 4 -13 5 -12 6 4 2 41 -43 58 -73 28z"/>
<path d="M6430 4912 c0 -10 -12 -25 -28 -34 -15 -9 -49 -35 -75 -58 -51 -45
-60 -76 -29 -103 22 -20 48 -21 81 -3 23 13 27 12 44 -10 24 -31 81 -33 97 -5
17 32 12 55 -31 145 -40 83 -59 105 -59 68z m50 -175 c0 -35 -28 -34 -46 1
-17 35 -21 36 -53 12 -36 -25 -66 -23 -66 5 0 12 22 35 60 62 l60 42 22 -47
c13 -26 23 -60 23 -75z"/>
<path d="M3985 4780 c8 -26 -11 -60 -35 -60 -11 0 -20 5 -20 10 0 6 -4 10 -10
10 -15 0 -12 -36 5 -50 40 -33 109 36 86 86 -13 29 -35 32 -26 4z"/>
<path d="M5872 4744 c-41 -29 -51 -104 -15 -104 12 0 13 3 3 15 -15 18 -3 58
16 51 8 -3 14 1 14 9 0 10 10 15 28 15 26 1 26 1 8 15 -25 19 -26 19 -54 -1z"/>
<path d="M3851 4623 c-1 -37 -4 -43 -22 -43 -12 0 -19 -5 -17 -12 8 -23 36
-20 53 5 14 22 14 29 1 58 l-14 34 -1 -42z"/>
<path d="M6086 4583 c-3 -3 21 -22 54 -41 33 -20 94 -66 137 -104 87 -78 111
-82 37 -7 -70 72 -212 167 -228 152z"/>
<path d="M5725 4545 c-16 -15 -25 -36 -25 -54 0 -41 18 -49 22 -9 2 22 10 36
25 44 13 6 20 14 16 17 -3 4 6 7 21 7 16 0 25 4 21 10 -11 18 -56 10 -80 -15z"/>
<path d="M5548 4403 c-8 -10 -18 -26 -21 -36 -9 -25 9 -58 28 -51 11 5 12 11
5 25 -8 14 -6 23 10 39 11 11 27 20 36 20 8 0 12 5 9 10 -10 16 -51 12 -67 -7z"/>
<path d="M6227 4362 l-35 -35 -32 26 c-26 22 -42 27 -86 27 -48 0 -58 -4 -94
-36 -56 -51 -53 -64 18 -64 l57 0 -32 -21 c-34 -21 -35 -39 -4 -39 23 0 41
-20 41 -46 0 -23 -73 -94 -96 -94 -25 0 -30 102 -9 154 8 17 5 18 -26 11 -19
-4 -64 -13 -101 -19 -51 -10 -79 -22 -117 -51 -28 -22 -51 -43 -51 -48 0 -4
27 -5 60 -1 48 5 60 4 60 -7 1 -10 4 -8 11 4 5 9 14 17 20 17 12 0 -18 -60
-42 -83 -11 -10 -17 -22 -14 -28 14 -22 34 -5 58 50 18 42 35 65 56 75 16 9
32 16 35 16 2 0 10 -25 16 -56 7 -31 18 -58 27 -61 18 -7 58 13 100 53 38 36
45 85 16 116 -14 16 -15 20 -2 32 8 8 34 21 59 29 l45 15 7 -44 c3 -25 16 -61
27 -80 12 -19 21 -42 21 -50 0 -19 24 -18 42 4 9 9 28 42 43 72 32 64 36 123
11 162 -26 40 -49 40 -89 0z m83 -59 c0 -37 -41 -133 -65 -153 -12 -10 -15 -9
-15 4 0 9 -6 29 -14 44 -32 64 -30 85 16 133 42 44 43 45 61 26 9 -11 17 -35
17 -54z m-164 34 c15 -15 -11 -22 -89 -25 l-82 -3 25 22 c21 18 34 20 82 17
32 -2 61 -7 64 -11z m-236 -132 c0 -8 -57 -34 -63 -29 -3 3 -16 0 -29 -7 -27
-15 -98 -29 -98 -20 1 15 56 44 98 51 58 9 92 12 92 5z"/>
<path d="M5372 4323 c-21 -8 -34 -51 -22 -74 16 -29 28 -23 26 13 -1 25 4 35
22 43 12 5 22 13 22 17 0 9 -28 9 -48 1z"/>
<path d="M2830 3081 c0 -9 160 -78 248 -106 50 -17 100 -16 57 0 -11 5 -82 32
-157 61 -149 58 -148 58 -148 45z"/>
<path d="M6390 2951 c-36 -36 -94 -93 -129 -126 -97 -91 -131 -178 -96 -245
27 -53 85 -65 142 -30 34 21 37 20 47 -22 6 -27 46 -48 94 -48 39 0 87 36 107
79 23 53 16 106 -40 277 -25 77 -45 149 -45 161 0 13 -3 23 -7 22 -5 -1 -37
-31 -73 -68z m89 -122 c27 -90 32 -124 29 -178 -5 -83 -24 -125 -59 -129 -34
-4 -50 17 -58 79 -3 29 -10 54 -16 55 -5 2 -23 -15 -39 -37 -15 -22 -39 -45
-52 -51 -33 -15 -70 11 -78 56 -12 62 22 119 132 223 53 51 100 93 103 93 3 0
20 -50 38 -111z m59 -240 c-6 -16 -12 -28 -14 -26 -8 7 8 67 17 62 4 -3 3 -19
-3 -36z m-161 -41 c-3 -7 -5 -2 -5 12 0 14 2 19 5 13 2 -7 2 -19 0 -25z"/>
<path d="M6040 2431 c-14 -26 -13 -41 3 -36 6 3 29 -9 49 -26 l38 -30 -25 -37
c-58 -85 -130 -374 -123 -491 4 -60 7 -66 43 -97 40 -35 89 -50 128 -40 13 3
44 21 69 40 38 30 50 47 73 111 16 42 36 104 45 138 l17 62 44 6 c42 5 40 12
-6 22 -13 3 -9 5 11 6 31 1 60 22 47 34 -3 4 -20 7 -37 7 l-31 0 3 73 c4 82
-13 130 -63 177 -23 21 -35 25 -85 23 -56 -2 -60 -1 -98 37 -44 45 -84 53
-102 21z m249 -121 c29 -15 44 -65 38 -122 -8 -64 -14 -70 -40 -36 -26 34 -77
150 -71 160 7 11 52 10 73 -2z m-119 -75 c0 -32 40 -103 80 -142 l44 -42 -33
-108 c-60 -198 -114 -252 -188 -189 -25 22 -28 30 -27 83 2 59 60 304 91 380
17 39 33 48 33 18z m-95 -112 c-46 -164 -54 -189 -54 -168 -1 42 67 281 77
271 2 -2 -9 -49 -23 -103z m215 -8 c11 -13 10 -14 -4 -9 -9 3 -16 10 -16 15 0
13 6 11 20 -6z"/>
<path d="M6631 1719 c-12 -45 -19 -84 -17 -86 5 -5 32 80 42 133 12 62 -2 35
-25 -47z"/>
</g>
</svg>
