<?xml version="1.0" standalone="no"?>
<!DOCTYPE svg PUBLIC "-//W3C//DTD SVG 20010904//EN"
 "http://www.w3.org/TR/2001/REC-SVG-20010904/DTD/svg10.dtd">
<svg version="1.0" xmlns="http://www.w3.org/2000/svg"
 width="2320.000000pt" height="464.000000pt" viewBox="0 0 2320.000000 464.000000"
 preserveAspectRatio="none">
<metadata>
Created by potrace 1.16, written by Peter Selinger 2001-2019
</metadata>
<g transform="translate(0.000000,464.000000) scale(0.100000,-0.100000)"
fill="#000000" stroke="none">
<path d="M991 3003 c-76 -97 -123 -192 -154 -308 l-24 -90 -11 65 c-12 64 -73
205 -107 245 l-17 20 8 -20 c3 -11 15 -54 25 -95 22 -87 38 -337 22 -327 -6 4
-14 19 -17 34 -4 14 -28 47 -54 72 -26 26 -58 65 -71 87 -40 70 -65 79 -232
82 -168 4 -211 -6 -223 -54 -4 -15 -17 -41 -28 -57 -19 -27 -25 -29 -65 -23
l-43 6 0 -1320 0 -1320 11600 0 11600 0 0 1430 c0 1080 -3 1430 -12 1430 -20
0 -102 -51 -124 -77 -16 -19 -33 -26 -71 -28 -78 -6 -116 -26 -147 -79 l-27
-47 -27 22 c-23 18 -35 20 -82 14 -104 -13 -133 -39 -155 -138 l-6 -28 -72 6
c-39 4 -75 9 -79 11 -4 2 -38 5 -76 5 -82 1 -116 -14 -164 -70 l-34 -40 -13
34 c-7 19 -20 39 -29 44 -29 15 -258 81 -282 81 -16 0 -46 -24 -94 -75 -39
-41 -88 -81 -108 -90 -24 -10 -88 -17 -185 -21 -91 -4 -158 -12 -174 -20 -36
-18 -74 -65 -110 -135 -28 -56 -38 -67 -52 -53 -9 10 23 105 65 189 49 97 94
163 162 233 28 28 47 52 42 52 -4 0 -35 -14 -68 -32 -70 -37 -151 -121 -202
-209 l-36 -64 5 50 c19 158 63 342 110 457 13 32 21 58 17 58 -13 -1 -81 -94
-112 -152 -54 -101 -107 -279 -122 -407 -2 -20 -8 -12 -27 35 -45 110 -123
215 -196 260 l-30 19 17 -25 c70 -102 139 -258 161 -365 8 -38 13 -71 12 -73
-4 -5 -150 70 -219 112 -67 41 -115 46 -186 21 -61 -21 -71 -20 -138 25 -33
22 -69 40 -80 40 -40 0 -295 -98 -320 -123 -14 -15 -28 -44 -33 -72 -10 -55
-7 -50 -38 -60 l-24 -7 5 162 c4 137 3 158 -9 138 -16 -28 -49 -138 -58 -191
l-6 -39 -27 52 c-30 58 -110 161 -130 168 -8 2 0 -20 18 -49 39 -67 70 -135
77 -171 l5 -27 -58 20 c-85 30 -162 17 -246 -43 -13 -10 -21 -6 -43 20 -47 56
-59 58 -130 23 -34 -17 -66 -31 -71 -31 -5 0 -21 14 -36 32 -25 31 -28 32 -60
20 -19 -6 -43 -12 -54 -12 -44 0 -223 52 -284 82 -57 29 -75 33 -145 33 -72 0
-88 -4 -160 -38 -44 -21 -88 -45 -97 -54 -14 -13 -20 -13 -33 -3 -21 18 -141
25 -191 11 -62 -17 -120 -64 -149 -121 -25 -48 -38 -60 -49 -41 -8 12 -127 24
-149 15 -10 -3 -29 -22 -42 -42 l-24 -35 -75 2 c-42 1 -84 -3 -97 -9 -26 -14
-171 -139 -182 -157 -12 -20 -26 -16 -55 15 -24 26 -36 29 -112 35 -134 10
-182 -12 -210 -99 -9 -27 -16 -34 -29 -28 -70 29 -66 29 -112 -8 -49 -41 -75
-42 -142 -6 -21 11 -71 26 -110 32 -56 10 -84 21 -119 48 -35 27 -70 41 -155
61 -60 15 -123 27 -139 27 -37 0 -132 -27 -157 -45 -17 -12 -25 -9 -64 21 -57
44 -117 47 -153 9 -30 -32 -47 -32 -133 7 -97 44 -176 44 -308 0 -52 -16 -112
-33 -134 -37 -53 -9 -81 -25 -140 -80 -27 -26 -66 -58 -85 -71 -34 -23 -39
-23 -122 -14 -58 7 -95 7 -113 0 -45 -17 -133 -100 -149 -141 -14 -34 -20 -39
-49 -39 -43 0 -72 -22 -98 -72 -17 -33 -25 -39 -42 -35 -118 30 -115 30 -162
7 -35 -17 -56 -38 -95 -98 -52 -80 -75 -96 -159 -112 l-44 -8 7 52 c3 29 15
78 26 111 11 32 20 63 20 68 0 20 -52 -39 -77 -86 -13 -27 -26 -47 -28 -45
-17 16 56 351 92 422 l15 31 -31 -30 c-75 -70 -120 -196 -128 -359 l-6 -109
-23 44 c-26 53 -105 129 -162 158 -58 30 -60 27 -13 -24 62 -67 163 -237 149
-250 -1 -2 -37 -6 -79 -10 l-76 -7 -7 27 c-12 48 -49 75 -103 75 -45 0 -176
-39 -194 -57 -4 -4 -11 -24 -16 -43 -9 -35 -9 -35 -62 -32 -30 1 -57 5 -62 7
-4 3 -15 30 -23 60 -24 80 -33 87 -133 84 l-85 -2 -18 39 c-22 49 -45 69 -95
83 -73 20 -121 14 -158 -19 -19 -16 -39 -30 -43 -29 -5 0 -31 27 -59 58 -27
32 -61 65 -75 73 -27 17 -166 40 -351 59 -105 11 -118 10 -154 -6 -21 -11 -52
-38 -68 -62 -17 -24 -34 -43 -39 -43 -4 0 -14 13 -23 29 -25 49 -43 61 -94 61
-63 0 -163 -27 -179 -48 -9 -11 -11 -31 -7 -55 l6 -39 -53 7 c-29 4 -55 9 -58
12 -3 3 7 15 23 27 15 12 27 31 27 42 0 34 -43 88 -78 100 -20 6 -39 22 -48
40 -25 49 -39 54 -155 54 -58 0 -131 5 -160 10 -74 14 -136 15 -152 1 -8 -6
-19 -29 -26 -50 -16 -54 -27 -58 -64 -23 -39 36 -128 82 -160 82 -13 0 -59 -9
-102 -20 l-79 -20 -21 24 c-64 75 -155 92 -236 44 -51 -30 -109 -90 -134 -138
-14 -26 -21 -30 -43 -26 -80 16 -120 16 -167 2 -27 -9 -95 -21 -150 -27 -94
-11 -104 -10 -157 11 -33 12 -94 50 -140 86 -107 86 -130 96 -213 102 -56 3
-86 -1 -150 -22 -43 -14 -81 -23 -83 -21 -6 5 40 68 81 112 25 27 26 31 10 27
-29 -8 -90 -61 -125 -108 l-30 -41 6 50 c7 49 38 191 51 230 6 17 3 16 -16 -5
-32 -36 -66 -116 -80 -188 l-12 -64 -24 49 c-27 52 -57 89 -87 105 -17 9 -17
8 2 -20 25 -34 62 -117 62 -137 0 -10 -18 -7 -71 12 -88 30 -123 26 -196 -24
-49 -33 -55 -34 -83 -23 -18 7 -55 11 -91 8 -59 -4 -64 -7 -111 -56 l-50 -52
-34 29 c-66 59 -157 61 -216 6 -35 -33 -60 -79 -52 -99 10 -27 -48 -19 -133
18 -67 30 -88 34 -148 33 -61 -2 -77 -6 -120 -34 -28 -18 -65 -46 -83 -64 -30
-29 -34 -31 -62 -19 -18 8 -48 10 -74 7 l-43 -6 -33 70 c-19 38 -44 79 -57 91
-26 25 -116 44 -248 54 -85 6 -94 5 -142 -20 -60 -30 -74 -27 -94 17 -16 37
-59 56 -131 56 -39 1 -51 -4 -77 -30 -17 -16 -36 -48 -42 -70 -11 -35 -15 -39
-45 -39 -31 0 -33 2 -28 28 5 22 -2 37 -31 73 -80 97 -66 89 -159 89 l-85 0
-31 -44 c-36 -53 -36 -57 -9 -114 18 -37 19 -46 8 -53 -27 -17 -37 -9 -59 45
-12 30 -29 61 -38 69 -22 19 -102 30 -134 18 -23 -9 -32 -22 -57 -93 l-10 -26
-73 19 c-56 15 -78 26 -96 49 -29 38 -114 82 -156 81 -17 0 -47 1 -66 1 -83 1
-103 -2 -125 -16 -31 -20 -37 -20 -92 5 -32 15 -57 19 -82 15 l-35 -5 55 55
c30 30 72 67 93 82 30 21 35 28 22 30 -27 6 -102 -26 -152 -64 l-45 -34 22 42
c30 58 94 153 137 200 19 21 33 41 30 43 -7 7 -101 -61 -139 -101 -20 -22 -51
-64 -69 -94 -17 -30 -29 -46 -26 -35 2 11 10 47 17 80 11 60 60 207 98 300
l21 50 -36 -40 c-47 -53 -120 -204 -142 -293 -16 -68 -32 -94 -32 -54 0 20
-78 187 -84 181 -3 -2 8 -53 24 -114 16 -60 26 -112 24 -114 -2 -2 -14 4 -25
15 -22 19 -22 19 -14 -6 12 -38 24 -94 21 -97 -1 -2 -16 2 -32 7 -23 8 -41 7
-73 -5 -24 -8 -49 -15 -56 -15 -8 0 -30 42 -50 93 -37 98 -82 155 -137 176
-74 28 -336 19 -416 -15 -41 -17 -91 -61 -132 -116 -19 -26 -31 -34 -40 -28
-12 7 -12 15 3 44 18 39 14 61 -14 76 -48 26 -138 -7 -192 -70 l-36 -42 -31
22 c-53 38 -93 44 -140 20 l-41 -21 -45 40 c-24 23 -50 41 -57 41 -25 0 -106
-31 -117 -45 -10 -12 -18 -9 -51 18 -36 29 -39 36 -39 83 0 45 -4 56 -37 91
-27 29 -51 44 -83 52 -25 6 -82 23 -127 38 -98 32 -125 27 -225 -40 -67 -45
-108 -105 -108 -159 0 -35 -4 -35 -44 -1 -17 14 -45 32 -63 40 -44 18 -117 17
-133 -2 -7 -9 -15 -13 -18 -11 -7 8 38 68 102 134 58 60 60 62 28 51 -19 -6
-56 -27 -84 -45 -28 -19 -48 -28 -45 -22 27 71 68 201 65 208 -2 5 -23 -29
-48 -76 l-45 -85 -7 83 c-7 76 -44 226 -53 216 -2 -2 1 -35 6 -73 12 -76 3
-299 -12 -289 -5 3 -9 13 -9 22 0 9 -9 35 -19 57 l-19 40 6 -100 5 -100 -27
24 c-14 14 -31 42 -37 64 -14 51 -46 83 -100 98 -95 26 -134 10 -182 -73 -33
-60 -28 -68 -87 137 -18 62 -40 117 -51 126 -10 9 -61 33 -114 54 -88 34 -101
36 -158 30 -77 -9 -90 -15 -153 -76 l-50 -50 -38 16 c-29 12 -65 15 -147 13
-60 -2 -109 -1 -109 1 0 8 92 132 139 187 28 32 48 60 46 63 -11 10 -117 -54
-154 -94 -23 -24 -41 -41 -41 -37 0 26 119 239 165 295 58 71 52 73 -33 15
-45 -31 -129 -141 -169 -223 l-25 -50 7 38 c12 74 85 284 133 380 26 53 47 97
45 97 -1 0 -29 -35 -62 -77z m20843 -504 c38 -18 40 -38 5 -57 -53 -29 -79
-53 -79 -72 0 -37 -64 -63 -99 -41 -11 7 -12 15 -5 30 12 25 131 151 144 151
5 0 20 -5 34 -11z m503 -41 c15 -7 73 -12 127 -12 65 -1 101 -5 103 -12 2 -7
-12 -14 -34 -18 -60 -11 -90 -26 -101 -52 -17 -35 -45 -35 -142 2 -36 13 -71
28 -78 32 -18 12 -5 40 27 57 32 18 61 19 98 3z m-20288 -283 c20 -10 32 -26
39 -57 7 -24 30 -70 52 -103 22 -33 40 -65 40 -71 0 -24 -38 -45 -77 -42 l-38
3 0 57 c-1 48 -6 64 -33 101 -72 101 -64 154 17 112z m15791 -155 c25 -25 21
-32 -24 -54 -55 -26 -70 -22 -62 17 11 55 51 72 86 37z m-13352 -64 c15 -8 37
-25 49 -38 22 -23 83 -159 83 -184 0 -18 -104 -76 -124 -68 -13 5 -14 16 -9
63 7 68 1 81 -68 157 -27 30 -49 61 -49 69 0 20 81 20 118 1z m13126 -20 c47
-20 51 -31 21 -70 -19 -25 -46 -42 -98 -62 -40 -15 -94 -38 -121 -51 -26 -13
-54 -22 -62 -19 -18 7 -18 36 1 63 18 25 192 145 223 152 1 1 18 -5 36 -13z
m-14467 -47 c47 -23 51 -33 27 -67 -38 -54 -116 -66 -209 -31 -78 29 -75 37
40 87 84 37 87 38 142 11z m-432 -36 c67 -32 38 -53 -72 -53 -69 0 -80 13 -43
50 24 24 68 26 115 3z m624 6 c22 -8 30 -16 27 -26 -3 -8 -6 -18 -6 -23 0 -17
-40 -21 -80 -9 -48 15 -51 30 -7 52 17 8 32 16 33 16 1 1 15 -4 33 -10z
m13871 -19 c19 -5 25 -13 25 -36 0 -28 -3 -29 -55 -36 -62 -9 -157 0 -166 14
-9 14 16 66 34 71 20 6 125 -3 162 -13z m-12382 -149 c13 -8 37 -90 29 -98 -6
-5 -96 17 -119 29 -30 15 -22 47 15 63 37 16 57 18 75 6z m5595 -10 c7 -7 0
-14 -19 -22 -75 -29 -94 -40 -125 -67 -37 -32 -119 -54 -119 -32 0 22 40 79
78 111 35 29 40 30 106 25 38 -3 74 -10 79 -15z m-5383 -30 c0 -34 -3 -38 -19
-34 -19 5 -19 7 -4 39 9 19 18 34 20 34 2 0 3 -18 3 -39z m5700 -7 c41 -17 52
-37 24 -48 -16 -6 -16 -29 1 -68 5 -14 -2 -18 -42 -24 -26 -4 -77 -15 -113
-25 -94 -27 -125 -25 -151 10 -14 19 -33 31 -58 35 -47 8 -63 19 -56 39 9 23
62 44 130 50 33 4 87 15 120 26 76 24 95 25 145 5z m4006 -16 c-3 -18 -5 -47
-5 -64 -1 -30 -4 -32 -41 -36 -23 -2 -45 -1 -51 3 -17 10 2 59 38 95 44 44 64
45 59 2z m-9177 -30 c9 -15 13 -29 10 -32 -9 -10 -119 18 -119 29 0 22 26 36
60 33 25 -2 38 -10 49 -30z m1501 6 c41 -8 80 -20 88 -28 12 -12 1 -15 -75
-26 -122 -16 -136 -21 -153 -59 -9 -21 -19 -31 -30 -27 -8 3 -49 14 -90 25
-41 12 -81 23 -88 26 -25 9 6 41 78 78 66 34 76 36 133 31 34 -4 96 -13 137
-20z m5107 -84 c26 -5 94 -14 151 -20 56 -5 115 -16 131 -24 24 -13 101 -96
101 -109 0 -3 -19 -8 -42 -12 -24 -4 -53 -14 -66 -22 -31 -19 -48 -11 -62 31
-9 27 -18 36 -43 41 -89 18 -294 78 -306 90 -34 33 36 46 136 25z m-1157 -35
c14 -8 42 -31 63 -53 49 -51 40 -55 -100 -41 -139 13 -142 15 -96 69 42 51 71
56 133 25z m-4394 7 c14 -9 24 -71 12 -78 -11 -7 -79 4 -98 16 -12 7 -10 14
15 40 28 30 50 37 71 22z m6118 -213 c30 -35 31 -42 11 -59 -12 -10 -28 -10
-78 0 -34 6 -65 14 -70 17 -4 2 5 20 19 39 36 46 81 47 118 3z"/>
</g>
</svg>
