<?xml version="1.0" standalone="no"?>
<!DOCTYPE svg PUBLIC "-//W3C//DTD SVG 20010904//EN"
 "http://www.w3.org/TR/2001/REC-SVG-20010904/DTD/svg10.dtd">
<svg version="1.0" xmlns="http://www.w3.org/2000/svg"
 width="1024.000000pt" height="1024.000000pt" viewBox="0 0 1024.000000 1024.000000"
 preserveAspectRatio="xMidYMid meet">
<metadata>
Created by potrace 1.16, written by Peter Selinger 2001-2019
</metadata>
<g transform="translate(0.000000,1024.000000) scale(0.100000,-0.100000)"
fill="#000000" stroke="none">
<path d="M8685 8247 c-45 -25 -75 -75 -75 -124 0 -50 17 -48 23 3 7 68 73 132
104 101 13 -13 13 -18 -1 -46 -9 -17 -34 -40 -56 -51 -22 -11 -40 -25 -40 -30
0 -39 100 -4 135 48 32 47 32 75 -1 101 -33 26 -40 26 -89 -2z m75 -86 c-6
-11 -20 -26 -33 -32 -19 -10 -19 -8 6 18 15 16 28 38 28 49 1 16 2 16 6 2 2
-9 -1 -26 -7 -37z"/>
<path d="M8057 8150 c-45 -36 -67 -92 -76 -193 -9 -96 -29 -150 -97 -268 -44
-75 -121 -159 -139 -153 -21 8 -62 -41 -85 -103 -42 -112 -129 -216 -233 -277
-48 -28 -192 -83 -305 -117 -84 -24 -168 -22 -189 7 -16 22 -14 131 5 177 10
28 36 55 94 98 106 81 126 132 66 169 -46 28 -95 25 -166 -11 -89 -44 -110
-74 -182 -261 -26 -67 -76 -108 -131 -108 -48 0 -144 -34 -193 -68 -47 -32
-148 -154 -144 -174 2 -7 -3 -12 -10 -10 -8 1 -11 -2 -8 -7 3 -5 -1 -14 -9
-21 -8 -6 -64 -74 -126 -151 -62 -76 -118 -139 -126 -139 -7 0 -39 13 -71 29
-70 35 -305 136 -467 201 -237 95 -556 185 -870 247 -130 26 -571 26 -662 0
-135 -38 -184 -72 -241 -167 l-26 -44 -1 -256 c-1 -236 -4 -270 -33 -454 -18
-109 -36 -215 -41 -235 -18 -66 -40 -225 -46 -326 -9 -154 -16 -206 -26 -200
-5 4 -9 -1 -9 -9 0 -18 -12 -20 -60 -6 -183 51 -678 86 -863 61 -116 -16 -244
-53 -342 -100 -230 -110 -358 -295 -342 -496 8 -111 61 -287 123 -408 71 -142
133 -232 235 -344 46 -50 161 -176 256 -280 307 -338 508 -506 923 -770 406
-259 710 -377 1365 -532 259 -61 442 -81 740 -81 240 0 354 11 705 64 471 73
583 115 768 290 157 149 189 311 110 556 -33 103 -71 171 -168 297 -99 131
-169 206 -310 337 -90 83 -93 87 -60 81 19 -4 69 -20 110 -36 41 -16 86 -29
101 -29 28 0 53 22 63 57 4 13 17 25 29 27 12 3 60 12 106 20 78 15 161 49
275 115 152 87 292 233 365 380 54 108 69 159 84 298 12 106 17 126 41 153 31
38 34 82 6 127 -14 24 -32 36 -72 48 -29 8 -91 41 -137 72 -105 71 -164 93
-265 100 -146 10 -273 -35 -395 -142 -62 -53 -102 -68 -116 -44 -10 16 34 74
140 184 123 127 140 158 139 252 l0 73 66 26 c43 18 91 28 141 32 74 4 80 3
176 -41 55 -24 112 -56 127 -70 91 -84 241 10 166 105 -12 16 -52 37 -112 58
-115 41 -158 78 -158 137 0 91 109 233 227 297 81 43 96 54 112 84 13 25 6 46
-28 76 -12 11 -21 24 -21 30 0 23 109 143 166 183 68 47 156 93 179 93 27 0
91 38 118 70 34 40 54 106 40 128 -16 26 -82 44 -148 40 -91 -5 -161 -56 -241
-173 -121 -177 -222 -252 -343 -257 -131 -6 -155 62 -73 201 20 36 58 86 83
112 44 45 125 96 136 85 3 -3 31 8 62 23 31 15 88 38 128 50 59 17 78 29 107
63 20 23 36 50 36 59 0 10 5 21 10 24 6 3 10 2 10 -3 0 -5 16 5 35 24 19 18
35 37 35 43 0 22 -42 10 -72 -19 -26 -26 -35 -30 -66 -24 -19 4 -47 13 -61 20
-34 18 -73 18 -116 0 -58 -25 -149 -92 -180 -134 -18 -24 -44 -45 -65 -52 -19
-6 -41 -14 -47 -16 -24 -10 -14 42 15 78 15 19 64 67 109 107 45 39 92 88 104
107 15 24 40 44 84 65 64 30 97 65 98 103 0 12 -3 46 -7 76 l-8 55 71 57 c114
93 211 245 232 366 13 70 -1 164 -30 202 -24 33 -69 37 -104 10z m67 -31 c-3
-6 3 -19 14 -30 28 -26 36 -77 24 -149 -10 -57 -51 -153 -74 -175 -6 -5 -1 9
11 32 29 57 51 147 51 205 0 75 -15 63 -17 -14 -2 -88 -14 -122 -74 -229 -45
-79 -178 -237 -165 -196 9 28 -9 11 -43 -40 -31 -46 -40 -83 -21 -83 5 0 13
-18 16 -41 5 -27 10 -37 17 -30 7 7 6 23 -2 51 -12 39 -7 100 7 100 6 0 9
-124 4 -157 -3 -15 -59 -44 -95 -49 -16 -2 -36 -9 -46 -16 -25 -17 -130 -135
-160 -178 -14 -19 -40 -52 -59 -74 -59 -67 -76 -135 -37 -150 35 -13 79 9 144
73 71 69 195 142 241 141 14 0 34 -7 44 -15 11 -8 35 -15 53 -15 33 0 33 0 19
-27 -24 -47 -58 -71 -131 -91 -38 -11 -99 -32 -135 -47 -92 -38 -99 -40 -63
-16 54 34 221 101 237 95 11 -4 16 -1 16 10 0 9 -4 16 -10 16 -10 0 -201 -74
-236 -91 -37 -19 -172 -143 -210 -193 -51 -67 -104 -172 -104 -204 0 -30 34
-92 51 -92 6 0 1 15 -10 34 -12 18 -21 42 -21 52 0 11 9 0 20 -23 22 -50 70
-83 120 -83 l35 -1 -30 -17 c-20 -11 -53 -17 -100 -17 -63 0 -68 -1 -47 -13
18 -9 40 -10 81 -3 162 26 293 116 486 335 88 99 144 138 204 143 56 5 87 -13
77 -45 -8 -23 -73 -69 -180 -126 -137 -74 -293 -224 -315 -303 -8 -27 -7 -44
4 -70 8 -20 12 -39 9 -44 -3 -5 -27 -20 -54 -34 -62 -31 -166 -118 -191 -158
-10 -18 -28 -54 -38 -82 -16 -43 -17 -59 -8 -114 10 -60 13 -65 53 -90 23 -15
77 -38 120 -52 71 -22 78 -27 96 -64 l19 -40 -4 40 c-5 34 -4 37 6 17 14 -29
-2 -75 -27 -80 -10 -2 -16 0 -12 6 3 5 -14 12 -39 14 -34 4 -55 16 -95 50 -78
68 -160 98 -270 98 -49 0 -91 -4 -94 -9 -3 -4 -43 -23 -88 -41 -90 -36 -137
-65 -238 -148 -57 -47 -53 -42 28 37 84 82 108 114 58 76 -10 -8 -22 -13 -26
-10 -3 2 -51 -32 -106 -75 -54 -44 -123 -91 -153 -107 -30 -15 -49 -29 -43
-31 19 -6 103 45 200 123 50 41 92 72 92 70 0 -2 -43 -42 -95 -89 -64 -56
-113 -92 -148 -105 -29 -11 -43 -20 -32 -20 11 -1 43 10 72 24 47 21 51 22 41
5 -26 -41 -124 -49 -338 -25 -479 53 -1020 212 -1559 459 -198 90 -491 261
-491 285 0 5 8 11 18 14 9 2 26 8 37 12 17 6 17 4 -4 -14 -13 -12 -22 -23 -20
-25 2 -2 50 11 107 30 198 65 371 74 565 30 64 -15 136 -36 160 -46 33 -16 65
-20 153 -20 129 0 222 23 290 71 23 16 66 34 95 40 69 15 110 36 184 97 52 41
64 47 83 39 12 -6 22 -15 22 -22 0 -6 -25 -39 -55 -72 -30 -33 -52 -63 -49
-65 2 -3 -4 -11 -13 -19 -16 -13 -17 -12 -4 4 20 25 6 21 -42 -12 -47 -31
-112 -66 -166 -87 -33 -13 -33 -14 -6 -9 17 4 54 17 84 31 30 13 56 22 58 20
10 -10 -115 -76 -164 -87 -29 -7 -53 -16 -53 -21 0 -31 150 36 248 111 45 34
82 66 82 70 0 5 30 44 66 87 36 43 80 99 97 124 150 219 256 334 325 355 22 6
21 3 -14 -50 -40 -60 -53 -127 -40 -200 6 -28 11 -35 31 -35 13 0 37 12 52 26
l28 25 -32 -22 c-40 -28 -59 -20 -66 28 -9 52 6 98 53 172 22 34 40 66 40 71
0 13 -57 1 -100 -20 -48 -25 -142 -126 -225 -244 -38 -54 -75 -100 -82 -103
-7 -3 -20 0 -28 7 -13 11 -12 16 5 39 12 14 44 60 72 101 105 154 283 365 299
355 4 -3 26 4 49 15 22 11 40 18 40 16 0 -9 73 28 131 66 31 20 68 51 82 70
36 48 90 148 84 154 -3 3 -15 -12 -27 -35 -22 -44 -35 -56 -21 -18 41 104 84
172 101 162 5 -3 21 10 35 30 32 41 94 63 132 46 13 -6 23 -17 23 -25 0 -12
-11 -14 -47 -12 -37 3 -40 2 -13 -3 60 -11 52 -40 -27 -101 l-68 -52 65 60
c36 33 62 63 58 67 -3 4 -38 -24 -76 -62 -53 -52 -74 -82 -91 -126 -36 -98
-23 -180 35 -226 27 -21 36 -23 114 -18 53 3 111 15 155 30 261 93 405 205
498 388 34 68 49 87 81 103 54 28 166 177 206 272 23 56 33 100 40 174 6 78
13 106 31 132 28 40 38 48 56 41 7 -3 13 0 13 7 0 6 5 8 10 5 6 -4 8 -11 4
-16z m-1020 -681 c-3 -13 -11 -30 -16 -38 -8 -12 -8 -11 -4 3 3 10 6 27 6 38
0 10 5 19 11 19 6 0 8 -9 3 -22z m666 -142 c0 -2 -7 -7 -16 -10 -8 -3 -12 -2
-9 4 6 10 25 14 25 6z m-79 -83 c-11 -21 -71 -80 -71 -70 0 8 70 87 77 87 2 0
-1 -8 -6 -17z m-1107 -158 c-10 -8 -23 -15 -28 -15 -6 0 -1 7 10 15 10 8 23
15 28 15 6 0 1 -7 -10 -15z m-54 -30 c0 -2 -10 -9 -22 -15 -22 -11 -22 -10 -4
4 21 17 26 19 26 11z m-85 -13 c-6 -5 -37 -33 -69 -63 -48 -44 -55 -48 -37
-21 21 30 95 92 110 92 3 0 1 -4 -4 -8z m30 -22 c-3 -5 -11 -10 -16 -10 -6 0
-7 5 -4 10 3 6 11 10 16 10 6 0 7 -4 4 -10z m-1841 -39 c214 -41 390 -86 631
-163 271 -86 706 -261 707 -283 0 -5 -6 -13 -13 -18 -10 -6 -51 8 -129 43
-213 97 -440 184 -643 247 -142 44 -115 19 33 -31 184 -63 376 -139 557 -223
115 -53 141 -69 132 -80 -24 -28 -147 -102 -185 -112 -21 -5 -93 -23 -159 -40
-167 -43 -254 -42 -429 3 -170 45 -234 51 -402 36 -159 -14 -266 -38 -364 -81
l-68 -31 -47 32 c-84 58 -239 187 -296 246 -114 118 -150 195 -140 294 l3 25
8 -25 c7 -21 8 -22 9 -5 2 34 28 62 89 95 89 49 188 62 427 56 129 -3 184 -1
155 4 -25 5 -124 12 -220 16 -146 6 -189 4 -260 -10 -106 -22 -163 -46 -201
-87 -20 -22 -28 -26 -24 -13 3 11 -2 3 -11 -16 -20 -41 -23 -119 -6 -175 41
-139 217 -313 506 -500 134 -86 453 -260 609 -332 297 -136 726 -293 1002
-367 269 -72 569 -102 771 -77 135 17 232 62 269 125 14 24 23 50 20 59 -4 9
5 23 24 37 l31 21 0 -49 c0 -77 -45 -135 -146 -189 -79 -43 -115 -55 -78 -29
17 13 12 13 -36 1 -180 -45 -478 -52 -670 -15 -178 34 -387 95 -651 191 -486
175 -681 269 -1040 500 -202 129 -300 202 -398 294 -81 77 -227 258 -258 320
-46 91 -40 168 16 224 46 46 88 66 188 91 116 28 122 28 328 25 164 -2 213 -7
359 -34z m9 32 c-7 -2 -19 -2 -25 0 -7 3 -2 5 12 5 14 0 19 -2 13 -5z m50 -10
c-7 -2 -19 -2 -25 0 -7 3 -2 5 12 5 14 0 19 -2 13 -5z m-743 -67 c0 -3 -23
-16 -50 -30 -28 -14 -48 -21 -44 -15 3 6 25 20 48 30 46 21 46 21 46 15z
m4271 -46 c23 -13 25 -58 4 -86 -8 -10 -15 -14 -15 -7 0 6 5 15 10 18 17 10
11 37 -12 62 -23 25 -19 29 13 13z m-196 -36 c-26 -20 -58 -48 -71 -62 -13
-15 -24 -22 -24 -17 0 13 76 87 105 103 40 23 35 11 -10 -24z m169 -95 c-6
-11 -66 -39 -81 -39 -7 1 76 48 85 50 2 0 0 -5 -4 -11z m-4360 -259 c15 -18
16 -21 3 -10 -21 16 -107 133 -107 145 0 5 18 -18 41 -51 23 -32 51 -70 63
-84z m3563 98 c-3 -8 -6 -5 -6 6 -1 11 2 17 5 13 3 -3 4 -12 1 -19z m-3503
-213 c162 -164 329 -287 586 -431 198 -111 489 -253 630 -309 555 -219 891
-309 1328 -358 92 -11 295 20 387 59 13 5 5 -9 -23 -42 -67 -78 -162 -199
-222 -283 -113 -159 -130 -179 -161 -186 -45 -10 -46 1 -3 41 25 24 32 35 19
31 -68 -20 -79 -21 -72 -1 6 17 5 16 -10 -2 -69 -83 -804 54 -1295 240 -563
214 -1091 532 -1274 768 -59 76 -104 124 -104 111 0 -41 241 -291 365 -377
397 -276 879 -497 1425 -655 240 -69 572 -121 770 -121 49 0 90 -3 90 -7 0 -5
-7 -17 -15 -27 -22 -29 -183 -34 -307 -11 -163 30 -399 85 -542 126 -77 21
-144 39 -150 38 -40 -2 351 -113 541 -153 140 -29 340 -50 396 -42 30 5 37 4
31 -6 -4 -7 -41 -65 -81 -128 -40 -63 -61 -101 -46 -83 16 17 55 74 87 127 40
65 65 96 78 96 10 0 18 -2 18 -5 0 -13 -89 -147 -172 -260 -125 -170 -125
-170 -111 -162 20 12 160 202 239 323 62 95 77 112 105 118 18 3 33 5 35 3 7
-7 -161 -280 -236 -384 -100 -137 -306 -347 -416 -423 -127 -88 -325 -183
-439 -211 -86 -21 -123 -24 -265 -24 -221 1 -373 35 -625 140 -121 51 -302
165 -347 219 -10 12 -18 18 -18 14 0 -4 -55 51 -122 121 -160 167 -244 308
-323 545 -77 230 -84 507 -24 904 12 75 24 157 28 180 l6 44 64 -82 c106 -134
330 -305 611 -467 207 -119 496 -249 750 -337 170 -59 159 -45 -15 19 -534
196 -981 449 -1252 708 -45 43 -98 103 -119 132 -35 52 -36 56 -26 97 6 24 13
55 17 71 3 15 10 27 15 27 6 0 10 13 10 29 0 16 7 65 15 108 9 43 16 121 15
173 0 87 -4 117 -25 175 -4 11 14 -11 40 -49 26 -38 88 -110 139 -161z m17
168 c13 -16 12 -17 -3 -4 -10 7 -18 15 -18 17 0 8 8 3 21 -13z m54 -63 c21
-22 37 -40 34 -40 -3 0 -23 18 -44 40 -21 22 -37 40 -34 40 3 0 23 -18 44 -40z
m2045 5 c-7 -9 -15 -13 -18 -10 -3 2 1 11 8 20 7 9 15 13 18 10 3 -2 -1 -11
-8 -20z m79 -12 c7 -5 -21 -33 -33 -33 -6 0 -18 4 -26 10 -12 7 -12 12 4 29
16 17 22 19 35 9 9 -7 18 -14 20 -15z m-134 -39 c-37 -31 -93 -71 -80 -57 20
22 97 83 103 83 4 -1 -6 -12 -23 -26z m-2234 -94 l-9 -45 -1 61 c-1 33 2 64 7
68 11 12 13 -34 3 -84z m4059 -18 c0 -5 -9 -17 -20 -27 -16 -14 -19 -15 -15
-4 3 9 1 28 -5 43 -5 15 -8 32 -4 37 6 10 44 -32 44 -49z m-2750 -6 c30 -8 47
-14 38 -15 -25 -2 -232 30 -238 36 -8 9 141 -7 200 -21z m-445 -21 c-105 -25
-132 -29 -122 -19 11 11 150 43 187 43 22 0 -3 -9 -65 -24z m1030 0 c-38 -13
-83 -24 -100 -24 -18 0 5 10 55 23 111 30 134 30 45 1z m-388 -41 c-3 -3 -12
-4 -19 -1 -8 3 -5 6 6 6 11 1 17 -2 13 -5z m383 -8 c-45 -24 -167 -46 -257
-46 -144 0 -127 16 24 23 76 4 161 13 188 21 65 18 76 18 45 2z m-1239 -11
c-18 -8 -36 -15 -40 -15 -13 1 45 29 59 29 8 0 0 -6 -19 -14z m912 8 c-7 -2
-19 -2 -25 0 -7 3 -2 5 12 5 14 0 19 -2 13 -5z m175 0 c-10 -2 -26 -2 -35 0
-10 3 -2 5 17 5 19 0 27 -2 18 -5z m437 -13 c-10 -11 -23 -20 -29 -20 -6 0 0
9 14 20 32 25 38 25 15 0z m1635 -119 c-5 -11 -15 -23 -21 -27 -6 -3 -3 5 6
20 20 30 30 35 15 7z m-116 -351 c8 -9 5 -11 -14 -5 -13 4 -47 11 -75 16 -49
8 -49 8 14 4 35 -2 68 -9 75 -15z m55 -40 c24 -11 42 -23 39 -25 -3 -3 -29 6
-59 19 -30 14 -47 25 -39 25 8 0 35 -8 59 -19z m-3872 -37 c-3 -10 -5 -4 -5
12 0 17 2 24 5 18 2 -7 2 -21 0 -30z m-10 -70 c-3 -10 -5 -2 -5 17 0 19 2 27
5 18 2 -10 2 -26 0 -35z m4038 9 c-3 -3 -11 0 -18 7 -9 10 -8 11 6 5 10 -3 15
-9 12 -12z m-1928 -30 c71 -21 204 -56 296 -78 92 -21 163 -40 158 -42 -28 -9
-354 72 -511 127 -118 41 -94 38 57 -7z m-2120 -59 c-3 -10 -5 -2 -5 17 0 19
2 27 5 18 2 -10 2 -26 0 -35z m3366 12 c-3 -9 -8 -14 -10 -11 -3 3 -2 9 2 15
9 16 15 13 8 -4z m-33 -2 c0 -5 -15 -16 -33 -26 l-32 -17 30 25 c33 27 35 28
35 18z m-4211 -157 c-3 -3 -50 -12 -106 -21 -90 -14 -231 -48 -288 -69 -16 -6
-17 -6 -5 3 28 21 212 73 284 81 93 10 120 11 115 6z m581 -62 c96 -14 189
-29 205 -34 27 -9 26 -9 -10 -5 -185 23 -351 35 -483 35 -85 0 -153 -2 -151
-5 3 -2 108 -9 235 -15 202 -9 349 -22 422 -36 19 -4 22 -11 22 -52 0 -64 25
-229 50 -336 11 -49 19 -90 18 -91 -2 -1 -52 5 -113 12 -168 22 -428 20 -545
-5 -238 -50 -368 -143 -405 -291 -37 -143 35 -380 171 -561 55 -73 162 -190
172 -188 4 1 32 -23 62 -52 l55 -54 -55 39 c-273 196 -634 531 -644 598 -1 8
-23 47 -50 86 -62 92 -119 216 -147 316 -19 69 -21 95 -15 190 7 136 17 169
58 212 56 58 131 94 273 129 212 53 336 68 510 61 134 -6 448 -36 548 -53 20
-4 37 -4 37 -1 0 32 -760 97 -901 77 -220 -31 -379 -94 -485 -192 -66 -61 -79
-107 -79 -273 0 -132 2 -145 33 -235 64 -184 114 -264 292 -465 186 -210 593
-531 920 -727 256 -153 624 -341 845 -431 156 -64 456 -168 620 -216 464 -133
698 -170 1140 -178 248 -5 299 -3 445 16 178 23 296 48 379 80 67 25 193 100
187 110 -3 4 14 25 37 47 l42 39 -40 -42 c-21 -24 -34 -43 -28 -43 20 0 95 93
121 150 34 73 42 201 17 286 -25 87 -74 188 -138 283 -60 88 -64 97 -45 85 17
-11 3 9 -70 101 -86 108 -162 186 -252 258 -98 79 -96 77 -82 77 20 0 183
-144 313 -277 160 -163 237 -280 296 -448 31 -87 42 -237 23 -316 -18 -78 -75
-182 -125 -228 -84 -78 -292 -165 -500 -210 -206 -44 -344 -54 -597 -42 -249
12 -313 20 -577 67 -108 20 -225 40 -261 46 -82 13 -318 78 -475 131 -157 52
-383 144 -774 314 -243 106 -907 517 -1141 706 -311 250 -551 574 -654 881
-26 78 -31 190 -12 266 25 98 53 147 125 219 58 58 78 71 163 104 144 56 312
90 543 111 85 7 307 -7 475 -30z m3450 16 c-21 -13 -142 -33 -165 -27 -12 3
-3 6 20 7 22 1 63 8 90 15 63 16 74 17 55 5z m645 -56 c28 -9 79 -37 115 -62
39 -28 100 -58 155 -76 82 -28 90 -33 93 -59 2 -17 -8 -48 -27 -81 -19 -33
-31 -67 -31 -91 0 -76 -41 -240 -80 -322 -73 -154 -155 -252 -285 -340 -112
-75 -208 -117 -362 -158 -101 -27 -133 -45 -133 -76 0 -31 -19 -31 -98 0 -217
87 -442 90 -651 10 -79 -30 -163 -91 -147 -107 4 -4 12 1 17 11 6 9 24 24 42
33 l32 17 -21 -24 c-11 -13 -28 -36 -37 -51 -35 -56 -101 -66 -126 -19 -23 42
-13 65 43 106 30 22 96 78 145 124 50 46 91 78 91 72 0 -6 -5 -11 -12 -11 -6
0 -9 -2 -6 -5 3 -3 27 -1 54 5 75 15 367 29 382 17 9 -7 12 -4 12 12 0 11 4
21 10 21 5 0 7 -6 4 -14 -7 -19 47 -81 57 -64 6 10 9 9 14 -4 7 -18 42 -33 98
-43 43 -7 52 12 10 20 -97 20 -187 99 -164 144 21 38 48 35 124 -11 71 -43 72
-43 167 -43 152 1 279 47 419 153 135 103 243 259 272 394 24 110 0 216 -67
299 l-28 34 36 -34 c56 -52 81 -120 81 -216 0 -44 -7 -107 -16 -141 -28 -109
-108 -237 -203 -323 -67 -62 -61 -66 13 -9 101 78 198 247 224 388 22 126 -19
264 -102 342 -50 48 -67 56 -132 68 -110 21 -302 -36 -378 -113 -43 -42 -77
-119 -83 -185 -7 -75 15 -63 31 18 16 78 25 91 17 24 -13 -109 -39 -145 -87
-123 -32 14 -47 49 -47 104 0 25 -4 45 -10 45 -5 0 -10 -9 -10 -20 0 -11 -4
-20 -10 -20 -5 0 -10 4 -10 9 0 5 -16 12 -35 15 -29 6 -41 2 -70 -20 -48 -36
-37 -42 14 -8 23 15 44 24 47 21 6 -6 -73 -51 -91 -52 -5 -1 -26 -15 -45 -33
-63 -58 -73 -36 -19 43 15 22 52 81 83 131 30 50 64 101 74 114 32 39 33 6 1
-41 -38 -55 -81 -139 -73 -139 4 0 -12 -16 -35 -36 -22 -20 -41 -41 -41 -46 0
-6 19 6 41 27 43 39 110 74 144 76 12 0 15 3 7 6 -8 3 -34 -3 -58 -12 -25 -9
-47 -15 -49 -13 -2 2 18 39 44 83 34 56 55 81 71 83 12 2 20 0 18 -5 -23 -47
-38 -86 -34 -90 2 -3 14 13 25 35 20 39 59 77 70 67 2 -3 -3 -13 -12 -23 -19
-21 -23 -62 -7 -62 6 0 10 6 8 14 -2 8 2 15 7 16 6 0 37 27 70 60 33 32 85 75
115 94 63 42 58 48 -9 10 -39 -22 -42 -22 -21 -4 41 36 106 70 151 80 58 12
153 5 214 -16z m68 -5 c50 -26 154 -99 141 -99 -6 0 -29 14 -52 31 -23 17 -66
44 -95 60 -60 33 -56 39 6 8z m-4818 4 c-11 -2 -85 -20 -163 -39 -143 -35
-196 -40 -105 -10 74 24 214 54 253 54 19 0 26 -2 15 -5z m4716 -185 c109 -37
159 -112 159 -241 0 -206 -143 -412 -360 -520 -117 -57 -209 -80 -311 -75 -69
3 -82 7 -124 37 -65 47 -120 52 -163 16 -18 -15 -32 -35 -32 -45 0 -25 -19
-30 -120 -30 -82 0 -91 2 -139 33 -28 17 -51 35 -51 39 0 5 25 43 55 85 31 43
97 139 147 214 82 120 95 136 120 136 18 0 59 20 111 56 45 32 90 57 98 57 9
0 26 -22 39 -51 37 -77 100 -101 155 -57 36 28 55 76 55 139 0 89 53 152 170
203 42 18 144 21 191 4z m-5394 -170 c-3 -8 -6 -5 -6 6 -1 11 2 17 5 13 3 -3
4 -12 1 -19z m-10 -95 c-2 -16 -4 -3 -4 27 0 30 2 43 4 28 2 -16 2 -40 0 -55z
m4579 50 c-20 -38 -45 -70 -46 -58 0 11 48 85 56 85 2 0 -2 -12 -10 -27z
m-4459 -45 c-3 -7 -5 -2 -5 12 0 14 2 19 5 13 2 -7 2 -19 0 -25z m4315 2 c-18
-17 -37 -30 -42 -30 -15 0 11 49 29 53 40 11 44 5 13 -23z m98 -37 c0 -5 -10
-19 -21 -33 l-20 -25 16 33 c15 30 25 41 25 25z m-2992 -29 c56 -8 106 -14
111 -14 5 0 29 -53 55 -117 25 -65 70 -161 99 -213 84 -149 84 -152 -18 -210
-31 -18 -68 -47 -83 -66 -15 -19 -32 -34 -38 -34 -30 0 -21 -128 15 -197 48
-96 163 -217 280 -296 112 -75 439 -238 566 -280 242 -81 564 -109 722 -62 67
20 131 68 150 112 16 40 13 79 -14 194 -25 105 -19 113 119 169 64 26 161 69
215 96 54 27 101 50 106 52 4 2 7 -3 7 -12 0 -54 53 -100 113 -98 21 1 48 -3
60 -10 19 -10 21 -9 9 4 -8 10 -9 19 -3 22 5 4 13 2 16 -4 4 -6 36 -33 73 -61
105 -78 268 -246 332 -341 78 -115 102 -182 101 -279 0 -113 -28 -178 -110
-259 -74 -73 -149 -113 -291 -160 -107 -35 -156 -39 -60 -6 94 34 179 73 222
103 38 26 154 160 146 168 -2 2 -26 -25 -53 -61 -56 -73 -108 -110 -227 -160
-106 -45 -204 -72 -326 -90 l-97 -14 80 5 80 4 -75 -16 c-68 -14 -89 -14 -235
2 -216 23 -425 58 -570 95 -66 18 -138 36 -160 41 -22 6 -78 25 -125 44 -47
19 -148 57 -225 86 -192 71 -670 275 -840 359 -138 68 -335 182 -477 276 -73
48 -176 144 -277 259 -29 33 -42 45 -29 26 47 -68 49 -75 8 -31 -113 120 -209
275 -254 411 -101 301 -12 462 301 545 162 44 375 50 601 18z m-1356 -219 c32
-74 91 -177 134 -235 24 -32 23 -31 -11 5 -63 69 -167 270 -164 318 0 7 3 6 6
-3 3 -8 19 -46 35 -85z m-38 -178 c26 -43 42 -76 36 -72 -12 7 -90 137 -90
150 0 13 4 7 54 -78z m4112 -112 c18 -15 18 -15 -5 -13 -14 2 -26 9 -29 16 -5
17 10 15 34 -3z m-2335 -23 c-10 -20 -80 -86 -121 -115 -24 -17 -24 -17 10 -1
19 9 45 25 57 36 20 19 43 18 43 -2 0 -4 -21 -22 -47 -39 -25 -17 -41 -31 -35
-31 7 0 30 12 52 26 22 15 43 24 47 20 9 -9 -36 -55 -77 -77 -19 -10 -29 -18
-22 -19 19 0 53 19 85 48 20 19 30 23 38 15 15 -15 6 -27 -51 -64 -28 -18 -48
-34 -46 -36 6 -7 60 23 95 53 l32 27 52 -51 c50 -48 163 -120 173 -109 3 2
-12 15 -33 28 -21 13 -57 41 -81 63 -28 25 -40 32 -36 20 4 -12 3 -15 -2 -9
-57 63 -64 73 -58 88 5 13 19 6 74 -41 38 -31 107 -81 153 -110 101 -63 278
-145 317 -146 16 -1 27 -3 25 -6 -8 -13 122 -51 275 -81 166 -33 358 -45 435
-27 l30 6 3 -76 c1 -42 9 -103 17 -135 8 -32 15 -60 15 -63 0 -7 -104 -33
-155 -38 -46 -5 -44 -4 22 14 65 17 113 36 113 44 0 1 -33 -7 -72 -18 -102
-27 -407 -34 -522 -10 -92 19 -302 93 -428 152 -102 47 -117 47 -25 0 219
-113 504 -198 665 -198 31 0 71 -5 89 -12 27 -10 55 -9 142 3 59 9 122 23 140
32 30 15 32 15 29 0 -9 -48 -175 -85 -383 -86 -104 -1 -136 3 -245 31 -309 81
-621 243 -779 406 -19 19 -37 33 -41 31 -4 -2 -18 8 -31 23 l-24 27 30 -25
c16 -14 2 3 -32 37 -39 39 -73 85 -93 128 -35 74 -39 127 -4 60 12 -22 19 -45
17 -50 -8 -24 262 -260 337 -294 21 -10 22 -9 6 1 -63 43 -182 147 -250 218
-44 46 -76 76 -73 66 4 -11 3 -15 -4 -11 -6 4 -8 14 -5 22 4 9 1 22 -5 30 -7
7 -10 16 -7 18 3 3 22 -20 43 -50 64 -93 259 -256 383 -319 17 -9 32 -14 32
-12 0 3 -12 12 -27 20 -111 57 -325 251 -393 357 -57 88 -55 100 29 144 37 20
74 47 81 60 7 14 17 25 22 25 5 0 4 -8 -1 -18z m2294 -2 c3 -5 1 -10 -4 -10
-6 0 -11 5 -11 10 0 6 2 10 4 10 3 0 8 -4 11 -10z m-2265 -28 c0 -18 -18 -42
-31 -42 -13 0 -19 33 -8 46 16 20 39 17 39 -4z m46 -77 c-18 -28 -42 -29 -40
-2 1 9 -1 16 -5 15 -21 -2 -22 5 -1 27 24 25 24 25 44 6 18 -19 18 -21 2 -46z
m94 30 c19 -19 32 -35 29 -35 -3 0 -20 16 -39 35 -19 19 -32 35 -29 35 3 0 20
-16 39 -35z m-1785 -55 c10 -11 16 -20 13 -20 -3 0 -13 9 -23 20 -10 11 -16
20 -13 20 3 0 13 -9 23 -20z m1815 -41 c56 -44 166 -111 287 -175 51 -26 91
-50 89 -52 -8 -7 -234 112 -311 164 -83 55 -135 98 -135 110 0 7 1 6 70 -47z
m-376 6 c5 -22 4 -26 -4 -15 -5 8 -10 24 -10 34 0 26 6 18 14 -19z m2790 -92
c129 -103 217 -186 285 -267 106 -128 103 -128 -22 1 -73 75 -167 159 -247
218 -72 54 -130 99 -130 101 0 2 10 4 21 4 12 0 54 -26 93 -57z m-68 -5 c94
-64 227 -181 354 -314 99 -103 187 -238 246 -374 24 -56 28 -78 29 -165 0 -91
-3 -105 -30 -160 -16 -33 -31 -64 -33 -69 -3 -5 1 -5 8 -1 9 5 11 4 6 -4 -4
-6 -11 -9 -15 -7 -4 3 -25 -13 -47 -35 -21 -23 -59 -55 -84 -72 -25 -17 -47
-34 -50 -37 -3 -4 -16 -12 -30 -19 -24 -12 -24 -12 -5 5 l20 17 -20 -8 c-103
-38 -199 -66 -268 -79 -94 -18 -298 -35 -401 -33 -74 1 -75 2 -5 17 l44 9 -54
-4 c-30 -2 -59 -9 -65 -15 -6 -6 -63 -10 -140 -9 l-131 1 114 18 c242 40 413
108 517 207 67 63 96 111 119 200 21 79 19 127 -10 206 -38 111 -119 229 -235
347 -80 81 -222 201 -268 226 -1 1 13 25 33 54 19 28 35 56 35 60 0 9 94 54
134 64 22 5 34 2 52 -15 24 -23 31 -53 15 -63 -5 -4 -12 0 -15 6 -5 10 -7 10
-12 0 -4 -9 -10 -10 -18 -2 -9 7 -18 4 -31 -10 -17 -19 -17 -22 -1 -64 11 -30
29 -52 50 -66 66 -40 174 -13 147 37 -6 12 -8 29 -5 37 4 11 1 16 -10 16 -20
0 -20 -19 0 -49 23 -32 5 -46 -57 -46 -46 0 -54 4 -85 37 -51 56 -43 88 21 88
48 0 53 54 10 90 -16 13 -16 15 2 21 50 20 90 10 169 -43z m-2752 26 c3 -8 2
-12 -4 -9 -6 3 -10 10 -10 16 0 14 7 11 14 -7z m382 -6 l19 -21 -27 18 c-29
18 -34 25 -20 25 5 0 17 -10 28 -22z m-393 -40 c8 -18 31 -55 52 -83 21 -27
28 -41 15 -30 -12 11 -31 32 -41 47 -22 30 -52 98 -44 98 2 0 11 -15 18 -32z
m837 -128 c8 -5 11 -10 5 -10 -5 0 -17 5 -25 10 -8 5 -10 10 -5 10 6 0 17 -5
25 -10z m493 -91 c23 -6 13 -7 -38 -5 -38 3 -81 9 -95 15 -19 8 -11 9 38 4 34
-3 77 -9 95 -14z m-2347 -37 c-8 -7 -25 8 -37 31 -11 21 -10 21 15 -2 14 -14
24 -26 22 -29z m1220 16 l29 -33 -32 29 c-31 28 -38 36 -30 36 2 0 16 -15 33
-32z m1369 12 c-16 -4 -68 -7 -115 -7 l-85 1 75 6 c41 4 93 7 115 7 38 1 38 0
10 -7z m-2200 -302 c155 -101 321 -192 551 -304 565 -275 991 -439 1364 -523
327 -75 497 -111 516 -111 10 0 26 -5 34 -11 12 -9 11 -10 -4 -5 -11 4 -94 9
-184 12 -143 4 -274 19 -512 60 -19 3 -32 3 -29 0 8 -9 208 -45 393 -72 161
-23 211 -34 153 -34 -46 0 -258 30 -383 55 -390 76 -942 283 -1346 506 -205
112 -654 419 -700 477 -7 9 3 5 22 -9 173 -128 439 -304 447 -296 2 3 -61 46
-139 97 -169 110 -360 254 -438 328 -50 49 -45 46 50 -26 58 -44 150 -109 205
-144z m75 5 c80 -50 178 -109 218 -133 39 -24 72 -45 72 -47 0 -12 -305 166
-428 249 -106 73 -155 116 -61 55 30 -19 119 -75 199 -124z m2211 -26 c-10 -9
-11 -8 -5 6 3 10 9 15 12 12 3 -3 0 -11 -7 -18z m1828 -307 c1 -58 -18 -144
-38 -176 -12 -19 -12 -18 -6 0 18 57 25 117 27 209 1 80 3 93 9 62 4 -22 8
-65 8 -95z m-3071 -56 c100 -42 180 -79 178 -81 -5 -5 -198 75 -306 127 -119
57 -83 45 128 -46z m-448 -110 c0 -2 -9 0 -20 6 -11 6 -20 13 -20 16 0 2 9 0
20 -6 11 -6 20 -13 20 -16z m114 -53 c50 -26 150 -74 223 -107 73 -32 131 -59
129 -61 -10 -10 -456 197 -456 212 0 10 14 4 104 -44z m3347 -4 c-10 -9 -11
-8 -5 6 3 10 9 15 12 12 3 -3 0 -11 -7 -18z m-1144 -203 c-3 -3 -12 -4 -19 -1
-8 3 -5 6 6 6 11 1 17 -2 13 -5z m-54 -11 c-7 -2 -19 -2 -25 0 -7 3 -2 5 12 5
14 0 19 -2 13 -5z m-479 -198 c71 -8 132 -17 134 -20 11 -11 -108 -4 -193 11
-84 15 -117 24 -84 24 8 0 72 -7 143 -15z m365 -15 l166 -7 -160 -1 c-121 -1
-167 2 -190 13 -24 12 -25 13 -6 9 14 -4 99 -10 190 -14z"/>
<path d="M8106 8043 c6 -33 -38 -208 -67 -265 -11 -22 -18 -42 -15 -45 8 -9
43 69 70 158 26 85 35 179 16 179 -5 0 -7 -12 -4 -27z"/>
<path d="M6861 7364 c-24 -40 -23 -59 1 -22 16 25 29 58 24 58 -2 0 -14 -16
-25 -36z"/>
<path d="M7620 7264 c-60 -60 -126 -114 -178 -146 -45 -28 -80 -53 -78 -55 13
-13 140 71 213 141 72 68 152 156 141 156 -2 0 -46 -43 -98 -96z"/>
<path d="M7435 7025 c-52 -26 -84 -59 -85 -87 0 -18 46 -55 56 -45 3 3 -4 10
-15 17 -12 6 -21 16 -21 23 0 16 44 58 88 83 17 10 32 22 32 26 0 10 3 11 -55
-17z"/>
<path d="M7235 6981 c-4 -7 4 -11 19 -11 40 0 31 -20 -31 -76 -54 -48 -57 -53
-48 -80 6 -16 19 -30 30 -32 45 -7 47 -10 29 -44 -9 -18 -46 -66 -83 -107
-116 -129 -159 -182 -164 -202 -7 -27 0 -23 17 9 8 15 56 69 107 121 50 52
105 115 120 140 31 48 38 91 15 91 -8 0 -24 8 -37 19 l-23 18 58 56 c43 42 57
61 54 79 -2 16 -11 24 -30 26 -14 2 -29 -2 -33 -7z"/>
<path d="M7115 6930 c-65 -33 -89 -40 -136 -40 -48 0 -60 4 -73 22 -15 21 -17
21 -72 8 -67 -16 -134 -58 -176 -111 -17 -21 -49 -47 -72 -59 -32 -16 -36 -20
-18 -20 35 0 61 17 127 81 41 40 79 66 122 84 73 29 73 29 73 10 0 -22 34 -35
95 -35 46 0 71 8 145 45 50 25 90 47 90 50 0 13 -33 2 -105 -35z"/>
<path d="M7398 6781 c-85 -80 -132 -158 -142 -238 -7 -53 12 -113 35 -113 5 0
2 14 -7 31 -13 26 -14 41 -5 90 13 76 49 135 132 223 38 38 67 72 65 73 -2 2
-37 -28 -78 -66z"/>
<path d="M7078 6833 c7 -3 16 -2 19 1 4 3 -2 6 -13 5 -11 0 -14 -3 -6 -6z"/>
<path d="M6964 6810 c-66 -33 -159 -124 -220 -216 -31 -47 -54 -87 -52 -90 3
-2 29 32 58 77 66 99 176 202 245 229 27 10 41 19 30 19 -11 1 -39 -8 -61 -19z"/>
<path d="M6880 6790 c-9 -6 -10 -10 -3 -10 6 0 15 5 18 10 8 12 4 12 -15 0z"/>
<path d="M6748 6678 c-41 -40 -110 -120 -155 -178 -129 -165 -260 -262 -419
-309 -40 -12 -78 -29 -85 -38 -12 -15 -12 -16 6 -9 11 5 56 21 100 36 173 60
285 147 443 345 53 66 118 144 146 173 72 77 48 63 -36 -20z"/>
<path d="M6556 6643 c-6 -14 -5 -15 5 -6 7 7 10 15 7 18 -3 3 -9 -2 -12 -12z"/>
<path d="M7078 6463 c-34 -39 -49 -83 -43 -126 12 -78 -29 -155 -115 -216 -90
-65 -88 -63 -46 -46 44 17 56 25 104 69 55 50 72 94 72 183 0 67 4 84 25 116
27 39 28 49 3 20z"/>
<path d="M6087 6368 c-52 -70 -138 -158 -202 -206 -16 -13 -21 -19 -10 -13 63
30 219 188 263 266 7 14 22 9 103 -39 51 -31 98 -56 104 -56 11 0 -186 120
-197 120 -4 0 -31 -33 -61 -72z"/>
<path d="M6595 6358 c-52 -79 -97 -128 -161 -175 -68 -50 -77 -66 -22 -37 46
24 159 139 192 197 36 60 28 72 -9 15z"/>
<path d="M6160 6353 c0 -4 25 -23 56 -41 31 -17 54 -27 52 -20 -5 14 -108 73
-108 61z"/>
<path d="M7349 6308 c-101 -18 -274 -131 -311 -203 -6 -11 14 3 43 32 101 97
211 149 342 162 l72 7 -52 5 c-28 2 -71 1 -94 -3z"/>
<path d="M7535 6273 c-16 -9 -68 -32 -114 -50 -124 -48 -169 -98 -156 -173 5
-28 1 -48 -15 -79 -30 -60 -56 -67 -160 -42 -85 21 -170 27 -184 14 -4 -4 -30
-14 -58 -23 l-52 -15 -80 78 c-74 72 -169 151 -206 172 -20 11 15 -22 153
-143 64 -57 115 -107 112 -111 -2 -5 -61 -36 -129 -70 -140 -68 -187 -76 -263
-42 -48 22 -58 38 -68 106 -14 99 -68 155 -149 155 -64 0 -134 -32 -230 -104
-103 -76 -115 -83 -196 -111 -89 -30 -133 -31 -185 -4 -22 11 -51 25 -65 30
l-25 9 25 -21 25 -21 -25 6 c-24 5 -24 4 -6 -9 14 -11 22 -12 27 -4 5 8 14 7
30 -5 23 -15 21 -16 -42 -16 -36 0 -122 12 -190 26 -68 14 -152 27 -187 28
-73 3 -62 -9 18 -19 30 -4 109 -18 174 -32 103 -22 137 -25 255 -21 124 4 142
7 206 34 39 17 106 55 151 86 89 61 166 91 231 91 59 0 83 -23 83 -82 0 -66
26 -110 90 -153 45 -30 66 -37 126 -43 95 -9 126 1 307 96 l152 81 105 -7
c161 -12 191 -10 236 13 51 26 64 41 71 88 4 23 18 48 37 67 l31 29 -35 -20
c-19 -11 -40 -31 -47 -43 -10 -20 -12 -18 -18 25 -11 68 10 89 148 161 108 56
154 86 132 85 -6 -1 -23 -8 -40 -17z m-1287 -263 c12 -12 22 -29 22 -40 0 -17
-2 -17 -27 6 -14 13 -37 27 -50 30 -25 7 -93 1 -128 -10 -11 -4 -2 3 20 14 55
27 134 27 163 0z m1037 -58 c-15 -16 -16 -15 -4 12 7 15 15 23 17 16 3 -7 -3
-19 -13 -28z m-986 -145 c7 -10 11 -17 7 -17 -15 0 -56 83 -54 109 1 16 6 27
10 25 4 -3 9 1 10 8 0 7 4 -14 7 -48 3 -34 12 -68 20 -77z m744 106 c-7 -2
-21 -2 -30 0 -10 3 -4 5 12 5 17 0 24 -2 18 -5z m44 -9 c-3 -3 -12 -4 -19 -1
-8 3 -5 6 6 6 11 1 17 -2 13 -5z"/>
<path d="M7238 6201 c-66 -45 -172 -141 -155 -141 4 0 34 25 68 56 33 30 87
73 121 95 34 21 56 39 50 39 -6 0 -43 -22 -84 -49z"/>
<path d="M4652 6189 c-58 -10 -161 -44 -175 -58 -4 -4 29 2 74 15 111 33 197
39 289 21 41 -8 76 -14 78 -12 7 6 -105 34 -158 38 -30 3 -79 1 -108 -4z"/>
<path d="M4667 6121 c-37 -10 -73 -23 -80 -31 -10 -10 -8 -12 8 -5 114 43 203
52 316 31 117 -22 144 -19 39 4 -106 24 -195 24 -283 1z"/>
<path d="M6641 6107 c14 -12 55 -46 90 -76 35 -29 74 -65 86 -80 11 -14 25
-23 29 -18 4 4 -10 22 -31 40 -22 17 -71 60 -109 95 -38 34 -74 62 -80 62 -6
-1 1 -11 15 -23z"/>
<path d="M7414 6098 l-19 -23 23 19 c21 18 27 26 19 26 -2 0 -12 -10 -23 -22z"/>
<path d="M5118 5993 c23 -2 59 -2 80 0 20 2 1 4 -43 4 -44 0 -61 -2 -37 -4z"/>
<path d="M5030 5920 c8 -5 22 -10 30 -10 13 0 13 1 0 10 -8 5 -22 10 -30 10
-13 0 -13 -1 0 -10z"/>
<path d="M6080 5867 c-25 -13 -74 -40 -110 -60 -105 -59 -190 -86 -322 -102
-159 -20 -176 -25 -58 -19 115 6 213 25 277 54 52 23 263 140 263 146 0 6 -1
5 -50 -19z"/>
<path d="M6909 5852 c5 -10 18 -25 28 -33 12 -10 11 -5 -6 19 -24 35 -38 43
-22 14z"/>
<path d="M7105 5846 c-142 -27 -223 -74 -358 -211 -92 -93 -143 -127 -227
-152 -31 -9 -35 -12 -12 -8 17 2 32 0 32 -5 0 -6 4 -10 9 -10 22 0 209 122
241 157 19 21 24 28 10 17 -49 -41 -54 -36 -10 10 60 62 131 109 227 148 69
28 92 32 193 35 121 3 167 16 72 20 -31 2 -68 5 -82 7 -14 2 -56 -1 -95 -8z"/>
<path d="M6752 5709 c2 -7 -2 -13 -9 -14 -6 0 -15 -4 -20 -9 -5 -5 -2 -6 6 -1
10 5 12 4 7 -4 -4 -6 -12 -9 -17 -5 -6 3 -21 -3 -33 -15 -34 -32 -236 -121
-274 -121 -26 0 -47 11 -90 49 -95 83 -128 88 -231 36 -38 -19 -75 -35 -83
-35 -7 0 -20 -5 -28 -11 -11 -7 0 -8 35 -3 45 6 105 32 129 55 14 13 73 11 99
-3 12 -6 44 -31 71 -55 44 -39 53 -43 100 -43 49 0 165 39 261 87 57 29 106
85 85 98 -6 4 -9 1 -8 -6z"/>
<path d="M6620 5645 c-14 -8 -20 -14 -15 -14 6 0 21 6 35 14 14 8 21 14 15 14
-5 0 -21 -6 -35 -14z"/>
<path d="M6527 5614 c-16 -9 -57 -22 -90 -29 -48 -10 -54 -14 -28 -14 39 -1
100 16 151 41 25 12 29 17 15 17 -11 0 -33 -7 -48 -15z"/>
<path d="M6448 5463 c7 -3 16 -2 19 1 4 3 -2 6 -13 5 -11 0 -14 -3 -6 -6z"/>
<path d="M4583 6923 c9 -2 23 -2 30 0 6 3 -1 5 -18 5 -16 0 -22 -2 -12 -5z"/>
<path d="M4142 6888 c-73 -6 -189 -34 -180 -43 2 -2 30 3 62 10 139 33 350 29
560 -10 44 -9 81 -13 83 -11 15 15 -215 49 -397 59 -25 2 -82 -1 -128 -5z"/>
<path d="M4031 6829 c-24 -5 -47 -11 -50 -15 -3 -4 7 -4 23 0 16 4 101 7 190
8 115 0 147 3 111 8 -66 11 -219 10 -274 -1z"/>
<path d="M3935 6783 c-4 -10 -8 -65 -10 -123 l-4 -105 9 85 c5 47 11 102 14
123 7 40 3 48 -9 20z"/>
<path d="M3878 6751 c-5 -18 -8 -59 -7 -90 l1 -56 9 40 c6 22 8 63 7 90 -3 48
-3 49 -10 16z"/>
<path d="M4123 6763 c26 -2 67 -2 90 0 23 2 2 3 -48 3 -49 0 -68 -1 -42 -3z"/>
<path d="M3976 6729 c-9 -44 -18 -194 -11 -187 4 4 11 51 15 105 7 96 6 129
-4 82z"/>
<path d="M3997 6666 c-4 -27 -6 -67 -6 -90 1 -31 4 -25 11 29 10 81 6 135 -5
61z"/>
<path d="M4643 6463 c9 -2 25 -2 35 0 9 3 1 5 -18 5 -19 0 -27 -2 -17 -5z"/>
<path d="M3802 6321 c-10 -6 -4 -12 20 -21 18 -7 41 -20 51 -28 9 -8 17 -10
17 -4 0 11 -56 62 -68 62 -4 0 -13 -4 -20 -9z"/>
<path d="M3777 6192 c-38 -40 -51 -83 -37 -125 13 -42 42 -70 62 -62 29 11 44
75 17 75 -4 0 -6 -6 -3 -14 3 -8 0 -17 -5 -21 -6 -3 -9 -10 -7 -14 3 -4 -3 -7
-13 -8 -41 -3 -59 93 -27 142 9 13 26 30 38 36 17 9 24 9 33 -5 7 -9 19 -14
27 -11 35 14 119 -105 142 -200 8 -33 15 -51 15 -39 1 28 -27 120 -51 169 -24
47 -68 102 -68 85 0 -8 -8 -7 -25 4 -36 23 -68 20 -98 -12z"/>
<path d="M3786 6171 c-9 -10 -19 -36 -21 -57 l-5 -39 10 39 c6 22 18 48 27 58
9 10 14 18 11 18 -3 0 -13 -8 -22 -19z"/>
<path d="M3811 6114 c0 -11 3 -14 6 -6 3 7 2 16 -1 19 -3 4 -6 -2 -5 -13z"/>
<path d="M4023 6099 c9 -5 17 -15 17 -20 0 -6 -4 -8 -9 -4 -6 3 -2 -16 7 -42
12 -36 17 -42 20 -26 6 38 -17 103 -36 103 -16 -1 -16 -1 1 -11z"/>
<path d="M4114 5990 c-29 -11 -64 -58 -64 -84 1 -17 3 -15 14 9 7 17 21 39 30
48 20 20 79 23 93 5 29 -38 18 -103 -13 -77 -9 7 -14 8 -14 1 0 -16 31 -23 46
-11 25 21 12 78 -25 106 -19 14 -37 15 -67 3z"/>
<path d="M3903 5947 c-42 -42 -39 -117 4 -117 11 0 8 6 -8 19 -23 19 -23 20
-6 55 19 41 44 47 72 16 10 -11 21 -18 23 -15 6 6 -48 65 -57 64 -3 0 -16 -10
-28 -22z"/>
<path d="M4081 5909 c-19 -55 -13 -93 22 -145 48 -70 103 -98 186 -96 36 1 80
6 96 11 21 6 6 8 -52 4 -106 -7 -162 12 -203 69 -42 57 -53 99 -41 144 13 47
7 56 -8 13z"/>
<path d="M4026 5880 c2 -19 6 -46 10 -59 6 -19 -4 -12 -43 27 -46 48 -73 64
-73 43 0 -5 10 -11 23 -15 21 -5 73 -64 136 -152 46 -66 116 -95 238 -99 l98
-4 -89 10 c-49 6 -111 19 -138 31 -74 32 -138 116 -138 183 0 14 -4 25 -9 25
-5 0 -12 10 -14 23 -2 12 -3 6 -1 -13z"/>
<path d="M4277 5813 c4 -38 13 -66 26 -80 31 -35 42 -27 13 8 -14 17 -26 43
-26 57 l1 27 24 -27 c29 -34 45 -36 45 -5 0 18 -2 19 -10 7 -8 -13 -12 -13
-27 3 -15 15 -16 20 -4 40 11 17 11 19 0 10 -18 -18 -42 -16 -35 2 3 8 1 15
-4 15 -5 0 -6 -26 -3 -57z"/>
<path d="M4405 5850 c3 -5 14 -10 23 -10 15 0 15 2 2 10 -20 13 -33 13 -25 0z"/>
<path d="M4371 5827 c-2 -32 30 -87 58 -102 15 -7 45 -16 66 -19 36 -6 35 -4
-15 13 -56 20 -76 40 -97 95 -7 20 -12 24 -12 13z"/>
<path d="M4550 5701 c0 -5 30 -12 67 -16 83 -9 167 -49 234 -112 27 -25 49
-41 49 -35 0 16 -87 89 -145 122 -29 17 -74 32 -101 36 -27 3 -61 7 -76 9 -16
3 -28 1 -28 -4z"/>
<path d="M4530 5628 c-17 -13 -39 -35 -48 -49 -13 -23 -13 -31 -2 -59 33 -79
88 -110 134 -77 23 17 17 51 -9 55 -20 4 -20 4 0 -11 16 -13 17 -17 6 -31 -31
-37 -89 -9 -115 54 -13 31 -13 40 0 66 8 17 32 40 52 52 20 12 32 22 26 22 -6
0 -26 -10 -44 -22z"/>
<path d="M4607 5626 c-39 -14 -70 -36 -63 -43 2 -3 18 5 34 17 54 40 157 26
231 -31 35 -28 48 -23 14 5 -67 55 -151 76 -216 52z"/>
<path d="M3647 5556 c-4 -9 -11 -64 -18 -123 -24 -239 17 -547 102 -761 30
-74 33 -60 4 20 -26 72 -59 205 -75 308 -16 101 -23 395 -12 485 11 79 10 100
-1 71z"/>
<path d="M4695 5545 c-30 -29 -32 -56 -4 -81 22 -19 48 -12 57 17 4 10 -1 9
-15 -4 -19 -17 -22 -17 -37 -2 -27 27 -16 59 29 83 11 6 14 12 7 12 -7 0 -24
-11 -37 -25z"/>
<path d="M4980 5521 c-10 -20 -3 -141 9 -141 4 0 4 27 1 60 -3 33 -2 68 3 77
8 14 12 12 23 -13 7 -16 13 -23 13 -16 1 18 -18 52 -29 52 -5 0 -14 -9 -20
-19z"/>
<path d="M5076 5521 c-19 -21 -36 -75 -35 -111 0 -14 6 -3 13 28 22 89 72 123
79 55 l4 -38 1 43 c2 38 0 42 -21 42 -13 0 -31 -8 -41 -19z"/>
<path d="M4783 5523 c9 -2 23 -2 30 0 6 3 -1 5 -18 5 -16 0 -22 -2 -12 -5z"/>
<path d="M4850 5496 c0 -2 15 -14 34 -26 65 -40 97 -149 56 -190 -33 -33 -89
-20 -114 27 -11 20 -15 23 -16 11 0 -23 33 -56 65 -64 43 -11 75 4 91 42 21
50 4 103 -50 159 -36 38 -66 57 -66 41z"/>
<path d="M5149 5433 c-12 -15 -12 -16 6 -9 44 18 55 18 55 3 0 -8 -13 -23 -28
-34 -76 -49 -135 -150 -112 -193 6 -11 16 -20 22 -20 7 0 7 5 -1 14 -53 64 83
155 189 127 51 -14 77 -34 83 -65 4 -18 4 -17 6 5 4 75 -155 104 -244 43 -54
-36 -41 -10 15 31 56 41 80 70 80 97 0 24 -52 24 -71 1z"/>
<path d="M5088 5402 c-16 -19 -28 -42 -28 -51 0 -10 5 -8 17 9 10 14 25 32 35
40 10 8 15 20 10 26 -4 8 -17 -1 -34 -24z"/>
<path d="M5430 5380 c34 -11 60 -11 35 0 -11 5 -29 8 -40 8 -16 0 -15 -2 5 -8z"/>
<path d="M4865 5345 c0 -25 9 -33 19 -16 3 4 0 16 -7 25 -11 14 -12 13 -12 -9z"/>
<path d="M5529 5345 c24 -14 59 -39 78 -55 69 -61 158 -90 186 -60 10 10 8 11
-10 6 -37 -12 -105 14 -173 64 -67 49 -102 70 -117 70 -4 0 12 -12 36 -25z"/>
<path d="M5390 5342 c0 -5 9 -17 20 -27 38 -34 19 -82 -39 -100 -18 -6 -22 -4
-15 6 6 10 3 10 -11 -1 -17 -14 -17 -15 10 -18 61 -8 105 62 71 113 -15 23
-15 23 13 15 71 -20 109 -60 120 -126 l9 -49 1 41 c2 72 -56 130 -146 149 -19
4 -33 2 -33 -3z"/>
<path d="M3684 5230 c0 -58 1 -81 3 -52 2 28 2 76 0 105 -2 28 -3 5 -3 -53z"/>
<path d="M5796 5262 c-3 -5 11 -9 31 -8 42 1 53 -17 29 -49 -12 -16 -26 -20
-78 -20 -35 0 -71 4 -80 9 -43 20 -3 -75 55 -135 20 -21 56 -45 81 -54 59 -23
161 -17 202 10 16 11 32 19 36 17 4 -1 16 10 27 25 47 59 10 143 -64 143 -25
0 -44 -8 -60 -25 -30 -29 -31 -49 -4 -76 21 -21 40 -21 47 1 3 7 0 10 -6 6
-16 -9 -24 25 -10 42 11 13 10 14 -2 10 -8 -2 -17 -18 -20 -34 -5 -24 -7 -26
-13 -11 -9 25 9 56 40 68 47 18 104 -15 102 -60 -1 -21 -2 -22 -6 -6 -8 32
-18 36 -19 7 0 -15 -4 -36 -9 -46 -6 -14 -5 -17 3 -12 8 5 10 2 6 -9 -4 -9 -9
-14 -11 -11 -3 3 -23 -5 -45 -16 -85 -45 -191 -32 -259 29 -32 29 -79 98 -79
115 0 2 32 2 70 0 89 -5 123 12 118 61 -3 29 -7 32 -40 35 -20 2 -39 -1 -42
-6z"/>
<path d="M4947 5243 c-4 -3 -7 -11 -7 -17 0 -6 5 -5 12 2 6 6 9 14 7 17 -3 3
-9 2 -12 -2z"/>
<path d="M4967 5230 c-6 -24 3 -31 31 -23 13 3 22 13 22 25 0 19 -1 19 -21 -3
l-21 -24 5 23 c6 27 -9 30 -16 2z"/>
<path d="M5208 5220 c12 -5 22 -15 22 -23 0 -20 -22 -45 -45 -50 -19 -4 -19
-5 1 -6 51 -3 75 82 24 86 -25 3 -25 3 -2 -7z"/>
<path d="M6661 5153 c-37 -50 -41 -53 -41 -30 0 25 -43 67 -56 55 -2 -3 7 -13
21 -22 33 -22 33 -60 -1 -109 -14 -21 -28 -36 -31 -33 -3 3 -1 12 6 20 18 21
31 75 20 81 -5 4 -9 -3 -9 -14 0 -28 -30 -89 -48 -96 -8 -3 -20 -1 -27 5 -9 8
-14 6 -19 -6 -9 -24 -9 -24 27 -24 48 0 91 47 200 218 4 6 6 12 3 12 -3 0 -23
-25 -45 -57z"/>
<path d="M6251 5184 c-23 -9 -31 -18 -25 -24 12 -12 83 9 84 25 2 16 -22 16
-59 -1z m39 -3 c-8 -5 -26 -11 -40 -15 -21 -5 -20 -3 5 9 32 15 60 20 35 6z"/>
<path d="M6400 5185 c-14 -8 -20 -14 -14 -15 5 0 19 7 30 15 24 18 16 19 -16
0z"/>
<path d="M3731 5156 c-3 -97 58 -406 100 -503 31 -74 30 -45 -2 52 -16 49 -41
154 -54 234 -46 277 -42 261 -44 217z"/>
<path d="M5170 5179 c0 -5 5 -7 10 -4 6 3 10 8 10 11 0 2 -4 4 -10 4 -5 0 -10
-5 -10 -11z"/>
<path d="M5433 5165 c-53 -38 -11 -105 66 -105 40 0 49 5 88 45 24 25 43 51
42 58 0 6 -6 3 -12 -7 -42 -69 -117 -102 -162 -72 -40 26 -28 84 15 73 14 -3
20 -1 17 6 -6 18 -30 19 -54 2z"/>
<path d="M6493 5173 c9 -2 23 -2 30 0 6 3 -1 5 -18 5 -16 0 -22 -2 -12 -5z"/>
<path d="M6546 5147 c3 -10 9 -15 12 -12 3 3 0 11 -7 18 -10 9 -11 8 -5 -6z"/>
<path d="M6323 5136 c-23 -8 -91 -41 -151 -75 -60 -33 -114 -61 -120 -61 -6 0
-14 -4 -17 -10 -9 -15 31 2 165 72 119 62 122 63 201 63 66 0 76 2 62 13 -21
15 -86 14 -140 -2z"/>
<path d="M5646 5111 c27 -47 110 -120 169 -147 71 -34 153 -32 279 6 55 17
115 30 135 30 28 1 32 3 20 10 -11 7 -40 3 -90 -10 -110 -30 -207 -50 -239
-50 -68 0 -142 40 -219 119 -53 54 -69 66 -55 42z"/>
<path d="M6548 5103 c-3 -12 -24 -33 -47 -47 -38 -24 -79 -71 -70 -81 3 -2 13
9 24 26 11 16 24 29 28 29 4 0 13 5 20 10 7 6 23 18 36 28 14 11 22 25 19 37
-4 19 -4 19 -10 -2z"/>
<path d="M6285 5020 c30 -12 48 -37 42 -60 -3 -11 -1 -20 4 -20 5 0 9 13 9 29
0 31 -30 62 -60 60 -10 0 -8 -3 5 -9z"/>
<path d="M3851 4552 c-2 -26 67 -180 108 -242 52 -79 50 -75 -20 70 -31 63
-63 131 -72 150 -9 19 -16 29 -16 22z"/>
<path d="M3800 4512 c0 -19 55 -124 80 -152 14 -16 9 -1 -16 45 -21 39 -44 81
-51 95 -7 14 -13 19 -13 12z"/>
<path d="M4001 4365 c-1 -28 47 -120 77 -147 19 -18 17 -11 -13 35 -20 32 -43
75 -50 95 -9 23 -14 30 -14 17z"/>
<path d="M5805 4088 c-149 -130 -316 -235 -433 -273 -29 -9 -51 -19 -49 -22 8
-8 130 38 202 75 38 20 106 64 151 97 83 61 220 183 213 189 -2 2 -40 -28 -84
-66z"/>
<path d="M5720 4083 c-136 -108 -273 -192 -410 -249 -30 -13 -49 -23 -42 -24
21 0 173 65 232 100 99 59 146 93 274 202 5 4 8 9 5 11 -2 3 -29 -16 -59 -40z"/>
<path d="M5455 3959 c-113 -79 -234 -141 -315 -163 -34 -9 -45 -15 -29 -15 39
-1 111 26 212 81 95 52 203 124 226 152 19 23 16 21 -94 -55z"/>
<path d="M5128 3903 c6 -2 18 -2 25 0 6 3 1 5 -13 5 -14 0 -19 -2 -12 -5z"/>
<path d="M4995 3880 c11 -5 34 -8 50 -8 l30 0 -30 8 c-16 4 -39 8 -50 8 l-20
1 20 -9z"/>
<path d="M4807 3860 c29 -10 74 -21 100 -25 31 -3 14 4 -47 20 -111 29 -125
31 -53 5z"/>
<path d="M5253 3867 c-18 -6 -33 -15 -33 -19 0 -5 17 -1 37 7 61 26 58 32 -4
12z"/>
<path d="M5143 3820 c-34 -14 -28 -21 7 -9 17 6 30 13 30 15 0 6 -12 4 -37 -6z"/>
<path d="M2805 5180 c-15 -7 -10 -9 23 -9 59 -1 98 -26 134 -86 24 -41 29 -45
23 -20 -18 84 -113 144 -180 115z"/>
<path d="M2705 5169 c-69 -10 -98 -28 -140 -88 -26 -38 -30 -50 -27 -103 1
-33 8 -71 15 -84 12 -22 13 -13 9 65 l-4 91 39 37 c55 52 70 63 76 56 3 -3 11
-1 18 3 7 4 27 9 43 11 17 2 35 8 40 13 6 6 6 10 1 9 -6 -1 -37 -5 -70 -10z"/>
<path d="M3413 5173 c-24 -9 -13 -20 17 -15 17 2 37 -1 45 -8 9 -7 19 -10 23
-6 19 20 -51 43 -85 29z"/>
<path d="M3155 5160 c-12 -4 -27 -15 -35 -25 -13 -15 -11 -15 21 -2 19 9 50
20 69 25 l35 10 -35 0 c-19 1 -44 -3 -55 -8z"/>
<path d="M3020 5151 c0 -5 7 -16 15 -25 36 -36 45 -108 19 -158 -12 -24 -18
-28 -25 -17 -7 12 -9 11 -9 -2 0 -24 -48 -83 -78 -96 -15 -7 -20 -12 -12 -12
25 0 56 22 98 69 49 56 62 81 62 117 0 34 -21 95 -39 117 -15 18 -31 21 -31 7z"/>
<path d="M3260 5151 c-19 -4 -45 -13 -58 -20 -28 -15 -62 -68 -61 -96 0 -14 5
-9 15 15 20 47 53 69 120 80 71 12 96 2 131 -51 20 -30 29 -38 31 -26 4 21 12
21 40 1 20 -14 22 -14 22 0 0 9 -6 16 -13 16 -8 0 -22 9 -32 20 -22 25 -42 27
-24 3 7 -10 0 -5 -16 11 -28 28 -84 57 -107 55 -7 -1 -29 -4 -48 -8z"/>
<path d="M2780 5066 c0 -25 7 -39 22 -50 25 -18 68 -21 68 -6 0 6 -13 10 -29
10 -35 0 -55 22 -49 55 3 14 1 25 -3 25 -5 0 -9 -15 -9 -34z"/>
<path d="M2850 5097 c0 -3 12 -19 26 -34 21 -22 25 -24 23 -9 -4 17 -49 57
-49 43z"/>
<path d="M2405 5028 c4 -18 11 -37 16 -43 6 -6 7 4 3 24 -5 25 -4 32 4 27 7
-4 13 -17 13 -29 1 -18 2 -19 6 -4 5 19 -22 57 -39 57 -6 0 -7 -14 -3 -32z"/>
<path d="M3401 5013 c0 -12 -11 -29 -23 -37 -12 -9 -18 -16 -13 -16 23 1 46
29 42 52 -4 22 -4 22 -6 1z"/>
<path d="M2340 5005 c0 -8 4 -15 8 -15 5 0 9 7 9 15 0 8 -4 15 -9 15 -4 0 -8
-7 -8 -15z"/>
<path d="M2380 5005 c7 -9 15 -13 17 -11 7 7 -7 26 -19 26 -6 0 -6 -6 2 -15z"/>
<path d="M3236 4988 c1 -34 -12 -61 -26 -53 -4 3 -23 -2 -41 -10 l-34 -14 41
-1 c60 0 97 44 78 94 -10 26 -19 18 -18 -16z"/>
<path d="M2656 4997 c-12 -9 -17 -23 -14 -47 4 -46 23 -49 23 -4 0 48 21 62
64 44 40 -16 65 -62 58 -107 -4 -20 -2 -31 4 -28 5 4 9 27 9 51 0 37 -6 51
-29 75 -32 32 -83 39 -115 16z"/>
<path d="M3327 4993 c-8 -10 -19 -31 -23 -48 -7 -27 -6 -29 9 -16 10 7 17 23
17 35 0 12 5 27 12 34 7 7 10 12 7 12 -3 0 -13 -8 -22 -17z"/>
<path d="M2260 4959 c-37 -15 -78 -58 -91 -96 -20 -61 25 -183 68 -183 11 0 8
6 -10 21 -49 38 -61 156 -20 201 26 29 65 47 110 49 30 2 50 -5 89 -31 36 -25
44 -28 29 -11 -45 51 -119 72 -175 50z"/>
<path d="M3460 4923 c0 -11 10 -28 21 -39 l22 -19 -18 35 c-23 45 -25 47 -25
23z"/>
<path d="M2734 4910 c23 -36 20 -77 -9 -105 -29 -30 -54 -32 -87 -5 -14 10
-28 17 -31 14 -8 -9 -67 38 -67 53 0 7 -4 13 -10 13 -14 0 -13 -13 5 -46 8
-16 15 -37 15 -46 0 -23 -20 -34 -20 -11 -1 11 -6 5 -15 -14 -17 -39 -23 -41
-35 -10 -8 21 -9 21 -9 -5 -1 -39 14 -43 55 -11 30 24 35 32 30 60 l-5 32 41
-29 c30 -22 52 -30 83 -30 53 0 81 23 89 72 6 30 2 41 -20 65 -22 24 -23 25
-10 3z"/>
<path d="M3380 4909 c0 -20 58 -69 82 -68 18 0 16 3 -14 16 -29 11 -38 21 -38
39 0 15 -6 24 -15 24 -8 0 -15 -5 -15 -11z"/>
<path d="M2840 4891 c0 -5 9 -19 20 -32 l20 -24 -16 33 c-15 32 -24 40 -24 23z"/>
<path d="M2271 4824 c0 -11 3 -14 6 -6 3 7 2 16 -1 19 -3 4 -6 -2 -5 -13z"/>
<path d="M2480 4826 c0 -8 5 -18 10 -21 6 -3 10 3 10 14 0 12 -4 21 -10 21 -5
0 -10 -6 -10 -14z"/>
<path d="M2362 4818 c-19 -19 -14 -73 9 -102 11 -14 25 -26 30 -26 6 0 1 12
-10 27 -25 31 -25 89 -1 103 13 8 13 9 0 10 -9 0 -21 -5 -28 -12z"/>
<path d="M2130 4733 c1 -5 7 -19 15 -33 10 -18 14 -20 15 -8 0 23 -11 48 -21
48 -5 0 -9 -3 -9 -7z"/>
<path d="M2290 4720 c20 -13 60 -13 60 0 0 6 -17 10 -37 10 -28 0 -34 -3 -23
-10z"/>
<path d="M2170 4592 c0 -21 7 -47 15 -58 14 -18 15 -16 8 21 -3 22 -6 48 -5
58 0 9 -3 17 -9 17 -5 0 -9 -17 -9 -38z"/>
<path d="M2446 4586 c6 -16 4 -17 -14 -7 -34 18 -47 12 -19 -9 14 -11 27 -30
29 -43 2 -12 8 -21 13 -19 12 4 7 73 -6 87 -7 7 -8 4 -3 -9z"/>
<path d="M2290 4540 c0 -5 10 -10 23 -10 18 0 19 2 7 10 -19 13 -30 13 -30 0z"/>
<path d="M2260 4523 c0 -28 47 -97 79 -116 17 -10 31 -16 31 -14 0 2 -20 25
-45 49 -31 31 -45 54 -45 72 0 14 -4 26 -10 26 -5 0 -10 -7 -10 -17z"/>
<path d="M2446 4473 c-6 -14 -5 -15 5 -6 7 7 10 15 7 18 -3 3 -9 -2 -12 -12z"/>
<path d="M2300 4360 c0 -19 63 -70 86 -70 7 0 35 -15 63 -34 68 -46 66 -27 -3
21 -29 21 -60 50 -69 66 -9 15 -23 27 -32 27 -12 0 -8 -7 12 -25 20 -17 24
-24 12 -25 -18 0 -49 30 -49 48 0 7 -4 12 -10 12 -5 0 -10 -9 -10 -20z"/>
<path d="M2381 4223 c-1 -21 32 -53 53 -53 6 0 0 7 -12 16 -13 9 -27 26 -32
38 l-9 21 0 -22z"/>
<path d="M2482 4133 c14 -33 48 -73 48 -56 0 7 -5 15 -10 18 -6 4 -8 15 -5 25
4 13 -1 22 -14 29 -29 16 -32 14 -19 -16z"/>
<path d="M2565 4037 c17 -19 34 -36 39 -36 13 -1 -38 62 -55 68 -8 2 0 -12 16
-32z"/>
<path d="M7126 5165 c-71 -29 -157 -86 -192 -128 -58 -69 -91 -180 -61 -205
13 -11 14 -6 10 32 -10 83 61 182 179 254 61 36 188 66 247 57 27 -4 31 -3 16
4 -39 19 -137 12 -199 -14z"/>
<path d="M7529 5072 c11 -16 28 -35 37 -43 15 -12 28 -15 103 -22 13 -1 26 3
28 10 3 7 -15 12 -51 15 -30 1 -52 0 -49 -4 2 -5 -1 -8 -6 -8 -6 0 -11 6 -11
13 0 14 -51 67 -64 67 -4 0 2 -13 13 -28z"/>
<path d="M6610 4190 c0 -16 49 -43 119 -67 36 -12 60 -23 54 -23 -7 0 -13 -4
-13 -10 0 -26 233 4 290 37 14 8 18 12 9 9 -146 -43 -326 -27 -423 39 -20 13
-36 20 -36 15z"/>
<path d="M6153 4143 c-24 -2 -43 -8 -43 -12 0 -8 78 -4 195 9 l70 7 -90 0
c-49 0 -109 -2 -132 -4z"/>
<path d="M6219 4099 c-127 -18 -329 -111 -329 -151 0 -6 15 1 33 14 79 61 212
110 359 133 62 9 72 13 38 13 -25 0 -70 -4 -101 -9z"/>
<path d="M3021 4728 c-52 -4 -96 -10 -99 -12 -2 -3 69 -3 159 0 117 5 207 2
313 -10 156 -16 195 -15 104 3 -46 9 -326 31 -368 28 -8 0 -57 -4 -109 -9z"/>
<path d="M2848 4693 c7 -3 16 -2 19 1 4 3 -2 6 -13 5 -11 0 -14 -3 -6 -6z"/>
<path d="M2772 4670 c-60 -27 -98 -55 -123 -93 -21 -30 -20 -30 16 6 22 21 68
54 104 72 71 37 73 47 3 15z"/>
<path d="M2584 4434 c-18 -95 30 -269 122 -444 31 -58 62 -112 71 -120 8 -8
-12 37 -46 100 -86 165 -134 312 -135 417 -1 46 -2 83 -3 83 -1 0 -5 -16 -9
-36z"/>
<path d="M3524 4305 c-74 -16 -110 -34 -147 -72 -101 -107 -36 -287 179 -493
49 -47 125 -112 169 -145 99 -73 108 -81 69 -62 -57 29 -209 155 -302 249 -66
68 -101 114 -122 159 -17 35 -28 53 -24 39 16 -68 62 -138 143 -220 90 -90
240 -208 326 -255 27 -15 67 -39 90 -55 102 -70 300 -158 544 -241 210 -72
205 -59 -9 21 -279 105 -478 211 -703 375 -159 115 -344 322 -368 411 -11 38
7 107 41 154 27 37 106 69 206 83 91 12 107 30 32 35 -80 5 -224 -42 -259 -84
-10 -14 -6 -13 18 4 42 30 51 28 14 -3 -16 -14 -39 -49 -50 -78 -15 -38 -20
-45 -20 -27 -1 14 6 38 14 54 18 35 19 39 3 30 -28 -17 21 42 52 63 45 31 91
44 185 51 61 4 73 7 50 13 -44 10 -63 9 -131 -6z"/>
<path d="M3713 4293 c9 -2 23 -2 30 0 6 3 -1 5 -18 5 -16 0 -22 -2 -12 -5z"/>
<path d="M6011 3684 c79 -58 263 -244 313 -317 74 -108 106 -254 76 -356 -5
-19 -8 -37 -5 -39 10 -11 30 91 29 153 -3 124 -67 243 -223 408 -61 64 -225
197 -245 197 -4 0 20 -21 55 -46z"/>
<path d="M5410 3585 c49 -50 69 -52 24 -2 -20 22 -16 20 14 -8 60 -56 137
-210 137 -275 0 -27 3 -46 8 -43 14 8 7 93 -13 145 -36 95 -122 206 -165 212
-8 1 -18 5 -21 9 -4 4 -12 7 -18 7 -5 0 10 -20 34 -45z"/>
<path d="M5436 3528 c21 -24 42 -42 47 -40 5 1 6 -2 3 -7 -9 -13 35 -101 46
-95 5 4 7 -11 4 -33 -4 -26 -3 -32 3 -18 l8 20 6 -20 c3 -11 3 0 0 25 -8 68
-78 195 -93 170 -4 -7 -13 -2 -24 14 -9 14 -21 26 -27 26 -6 0 6 -19 27 -42z
m78 -84 c3 -8 2 -12 -4 -9 -6 3 -10 10 -10 16 0 14 7 11 14 -7z"/>
<path d="M5491 3233 c-23 -56 -106 -92 -226 -98 -33 -2 -94 -9 -135 -15 -70
-11 -175 -9 -305 7 -35 4 -47 2 -40 -5 13 -14 181 -32 299 -32 103 0 230 21
310 51 60 22 120 78 114 105 -3 15 -6 12 -17 -13z"/>
<path d="M5455 3158 c-22 -12 -65 -29 -95 -39 -30 -10 -47 -18 -38 -18 26 -1
149 46 167 63 20 21 15 20 -34 -6z"/>
<path d="M5588 2633 c6 -2 18 -2 25 0 6 3 1 5 -13 5 -14 0 -19 -2 -12 -5z"/>
<path d="M4713 3703 c9 -2 23 -2 30 0 6 3 -1 5 -18 5 -16 0 -22 -2 -12 -5z"/>
<path d="M4768 3693 c7 -3 16 -2 19 1 4 3 -2 6 -13 5 -11 0 -14 -3 -6 -6z"/>
<path d="M4769 3670 c33 -14 184 -40 237 -40 24 0 44 -4 44 -10 0 -17 -144
-11 -243 9 -50 10 -101 19 -112 18 -11 0 -33 3 -50 7 -16 4 -8 -2 19 -13 50
-21 130 -40 91 -22 -28 13 -8 13 61 -1 49 -10 55 -13 34 -19 -14 -4 25 -7 87
-8 l111 -1 7 -59 c4 -33 13 -68 21 -78 13 -16 14 -15 7 12 -11 43 -10 124 2
127 6 2 12 -29 16 -69 3 -40 9 -76 13 -80 4 -5 5 29 1 75 -7 79 -7 82 14 82
18 0 21 -6 22 -47 1 -27 5 -59 10 -73 6 -18 8 -11 4 28 -4 55 7 102 25 102 5
0 10 -21 11 -47 2 -99 17 -99 18 0 1 63 -3 96 -9 92 -5 -3 -10 -13 -10 -21 0
-8 -7 -14 -16 -14 -10 0 -14 6 -11 15 5 12 -6 13 -71 9 -67 -5 -228 10 -332
31 l-25 6 24 -11z m-32 -36 c-3 -3 -12 -4 -19 -1 -8 3 -5 6 6 6 11 1 17 -2 13
-5z m363 -14 c0 -5 -7 -10 -15 -10 -8 0 -15 5 -15 10 0 6 7 10 15 10 8 0 15
-4 15 -10z m50 0 c0 -5 -9 -10 -20 -10 -11 0 -20 5 -20 10 0 6 9 10 20 10 11
0 20 -4 20 -10z"/>
<path d="M4174 3616 c11 -9 24 -16 30 -16 12 0 7 5 -24 19 -24 11 -24 11 -6
-3z"/>
<path d="M4788 3603 c7 -3 16 -2 19 1 4 3 -2 6 -13 5 -11 0 -14 -3 -6 -6z"/>
<path d="M3910 4161 c0 -5 7 -15 17 -22 15 -13 15 -12 4 9 -12 23 -21 28 -21
13z"/>
<path d="M6089 3909 c-28 -52 19 -132 102 -174 52 -27 129 -48 129 -35 0 4
-17 10 -37 13 -52 9 -143 65 -170 106 -23 34 -32 77 -13 66 6 -4 10 5 10 19 0
32 -6 33 -21 5z"/>
<path d="M6386 3874 c-4 -10 -2 -22 3 -27 7 -7 13 -5 17 7 4 10 2 22 -3 27 -7
7 -13 5 -17 -7z"/>
<path d="M6450 3795 c0 -20 11 -30 63 -55 88 -44 123 -74 157 -133 35 -61 37
-96 10 -155 -11 -23 -15 -40 -9 -36 16 10 39 69 39 101 0 90 -61 171 -170 225
-47 24 -66 39 -68 56 -5 30 -22 28 -22 -3z"/>
<path d="M6427 3713 c-16 -15 -5 -21 28 -16 23 4 43 0 59 -11 30 -19 36 -20
36 -5 0 22 -105 50 -123 32z"/>
<path d="M6369 3664 c-8 -9 -12 -29 -10 -43 5 -40 29 -61 70 -60 l36 2 -35 6
c-20 4 -34 12 -32 19 1 7 -2 12 -7 12 -20 0 -23 41 -5 61 9 10 12 19 7 19 -6
0 -17 -7 -24 -16z"/>
<path d="M6321 3651 c-8 -14 -7 -22 3 -30 10 -9 15 -8 20 4 3 9 2 13 -4 10
-14 -9 -12 9 2 23 9 9 9 12 0 12 -6 0 -16 -9 -21 -19z"/>
<path d="M6596 3652 c-17 -4 -16 -5 4 -15 30 -15 54 -86 45 -134 -3 -19 -18
-46 -31 -60 -27 -27 -25 -45 1 -23 44 37 61 143 29 188 -8 12 -13 26 -10 31 7
11 -13 19 -38 13z"/>
<path d="M6410 3586 c0 -2 16 -6 35 -8 19 -2 35 0 35 4 0 4 -16 8 -35 8 -19 0
-35 -2 -35 -4z"/>
<path d="M6499 3500 c-9 -5 -22 -23 -28 -39 -10 -24 -10 -34 3 -60 16 -30 53
-48 78 -38 7 3 1 6 -13 6 -34 1 -59 30 -59 68 0 34 31 68 55 59 9 -3 13 -2 10
4 -8 12 -25 12 -46 0z"/>
<path d="M6725 3445 c-20 -16 -18 -16 33 -1 32 11 27 -6 -9 -27 -18 -10 -29
-21 -25 -24 9 -9 61 31 61 48 0 20 -37 22 -60 4z"/>
<path d="M6570 3361 c0 -4 11 -6 25 -3 14 2 25 6 25 8 0 2 -11 4 -25 4 -14 0
-25 -4 -25 -9z"/>
<path d="M6713 3324 c73 -17 101 -32 161 -85 29 -26 44 -35 38 -23 -33 62
-139 124 -209 123 l-48 -1 58 -14z"/>
<path d="M6642 3286 c26 -23 26 -24 8 -41 -18 -17 -21 -17 -57 0 -21 9 -44 24
-50 33 -7 9 -13 11 -13 5 0 -16 48 -52 77 -59 59 -15 97 38 51 70 -35 25 -46
18 -16 -8z"/>
<path d="M6710 3198 c-11 -12 -20 -30 -20 -39 0 -20 18 -35 28 -24 3 3 1 10
-6 14 -10 6 -7 14 8 34 24 31 60 36 60 10 0 -15 2 -16 9 -3 14 20 4 30 -29 30
-17 0 -38 -9 -50 -22z"/>
<path d="M6922 3170 c0 -14 2 -19 5 -12 2 6 2 18 0 25 -3 6 -5 1 -5 -13z"/>
<path d="M6895 3148 c-11 -48 -42 -88 -89 -110 l-41 -19 35 5 c43 7 97 64 106
113 8 44 -2 55 -11 11z"/>
<path d="M6917 3112 c-6 -31 -56 -85 -99 -108 -75 -39 -188 -21 -188 30 0 28
29 49 54 40 11 -4 16 -1 16 10 0 31 -60 13 -80 -25 -9 -16 -8 -26 4 -43 14
-23 13 -24 -26 -35 -44 -13 -88 -51 -88 -75 0 -18 27 -46 43 -46 8 0 7 3 -2 9
-9 6 -10 11 -2 15 6 4 11 12 11 18 0 7 -4 7 -13 -1 -18 -15 -29 -3 -17 19 18
33 80 54 152 51 91 -3 137 11 191 59 40 36 69 91 54 106 -2 3 -7 -8 -10 -24z"/>
<path d="M6665 2880 c-3 -5 3 -10 13 -10 21 0 35 -22 26 -43 -10 -27 -79 -47
-165 -48 -76 -1 -80 -2 -44 -11 57 -14 158 -4 197 19 25 14 34 27 36 51 3 27
-1 34 -23 42 -32 12 -32 12 -40 0z"/>
<path d="M6370 2759 c-6 -11 -8 -33 -5 -49 6 -25 3 -30 -19 -36 -14 -3 -26
-10 -26 -16 0 -5 10 -6 23 -2 40 12 49 25 42 65 -5 30 -3 39 12 48 16 9 16 10
1 11 -10 0 -22 -9 -28 -21z"/>
<path d="M6400 2750 c-12 -9 -10 -10 10 -9 49 4 59 -1 62 -28 4 -25 5 -26 13
-9 5 11 4 25 -2 35 -12 19 -62 26 -83 11z"/>
<path d="M7709 8077 c-32 -24 -50 -64 -43 -92 l7 -27 12 36 c25 72 75 102 75
46 0 -19 -7 -34 -20 -42 -23 -15 -27 -38 -7 -38 34 0 57 53 44 103 -8 30 -39
36 -68 14z"/>
<path d="M7320 7968 c-32 -12 -40 -25 -40 -69 0 -19 -7 -44 -15 -55 -22 -30
-20 -119 5 -144 23 -23 31 -24 82 -10 29 8 44 21 63 54 35 60 32 82 -15 126
-22 20 -40 45 -40 54 0 22 19 11 30 -18 8 -20 9 -20 9 5 2 47 -35 73 -79 57z
m28 -35 c-4 -46 4 -62 37 -82 19 -11 35 -28 35 -38 0 -33 -44 -83 -84 -95 -34
-11 -40 -10 -53 8 -18 24 -11 88 12 115 13 13 16 28 12 53 -5 34 6 56 30 56 7
0 12 -8 11 -17z"/>
<path d="M6584 7811 c-77 -35 -153 -119 -174 -190 -12 -44 19 -81 67 -81 43 0
84 39 102 99 8 29 21 46 44 57 59 31 74 77 37 114 -24 24 -25 24 -76 1z m61
-22 c13 -21 -5 -57 -33 -67 -18 -6 -34 -22 -42 -43 -30 -74 -59 -109 -89 -109
-37 0 -46 25 -27 71 25 57 59 99 106 129 48 31 75 37 85 19z"/>
<path d="M6460 7608 c0 -26 20 -32 38 -13 16 17 16 17 -2 11 -12 -4 -23 -1
-28 6 -6 10 -8 9 -8 -4z"/>
<path d="M8735 7686 c-16 -7 -55 -29 -86 -49 -31 -20 -85 -43 -120 -52 -105
-27 -222 -115 -303 -230 -68 -95 -68 -109 1 -30 33 39 84 92 114 119 50 45
135 96 160 96 19 0 137 58 191 95 57 38 83 43 113 21 16 -11 17 -19 9 -47 -18
-64 -137 -130 -269 -148 -76 -11 -245 -95 -288 -144 -16 -18 -38 -42 -49 -55
-36 -40 -14 -33 38 12 27 23 65 51 84 61 19 11 58 35 87 53 45 30 64 36 140
43 148 14 240 58 274 132 23 53 24 79 2 105 -24 28 -61 35 -98 18z"/>
<path d="M8750 7650 c0 -7 6 -10 14 -7 20 8 27 -3 15 -24 -13 -26 -98 -67
-150 -74 -62 -8 -74 -25 -18 -25 80 0 196 72 187 117 -4 20 -48 32 -48 13z"/>
<path d="M9130 7532 c-36 -18 -58 -57 -47 -86 5 -13 17 -16 54 -14 40 3 50 7
63 31 13 24 13 30 0 54 -20 35 -28 36 -70 15z m60 -35 c0 -22 -36 -49 -60 -45
-31 5 -27 21 11 40 42 21 49 22 49 5z"/>
<path d="M6384 7278 c3 -13 6 -29 6 -35 0 -21 18 -15 25 7 7 21 -9 50 -27 50
-6 0 -8 -10 -4 -22z"/>
<path d="M6344 7265 c-6 -15 2 -35 16 -35 4 0 7 11 6 25 -1 28 -13 33 -22 10z"/>
<path d="M8704 7148 c-56 -38 -74 -74 -55 -114 l12 -26 107 6 c97 7 109 10
130 32 33 38 29 72 -11 89 -19 8 -39 21 -47 29 -22 27 -82 20 -136 -16z m115
-12 c6 -15 20 -25 40 -29 34 -7 41 -31 14 -45 -10 -5 -53 -13 -95 -17 -69 -6
-79 -5 -85 11 -6 16 -7 16 -14 -2 -7 -18 -8 -18 -8 3 -2 45 19 64 104 94 32
11 35 10 44 -15z"/>
<path d="M8475 6566 c-78 -22 -147 -55 -177 -84 -33 -30 -38 -85 -11 -114 13
-14 13 -18 2 -18 -10 -1 -8 -5 5 -15 32 -24 107 -18 198 16 108 40 167 40 244
2 76 -37 82 -48 61 -114 -22 -69 -12 -107 33 -134 19 -11 52 -39 74 -61 67
-68 97 -67 288 13 31 13 45 14 84 4 26 -7 60 -9 75 -6 54 12 77 81 42 123 -20
23 -127 62 -170 62 -20 0 -45 15 -85 53 -46 42 -57 60 -63 94 -11 67 -78 104
-228 124 -37 4 -91 20 -120 33 -67 32 -181 42 -252 22z m226 -36 c39 -20 86
-34 137 -40 117 -15 165 -34 196 -78 14 -21 26 -46 26 -55 0 -22 84 -114 122
-133 15 -8 44 -14 64 -14 49 0 118 -34 132 -65 10 -21 9 -28 -9 -46 -18 -18
-27 -20 -67 -13 -84 15 -135 9 -208 -25 -94 -44 -128 -44 -168 1 -17 19 -44
43 -59 52 -46 28 -53 56 -32 131 16 60 16 67 1 90 -21 31 -35 39 -124 60 -79
19 -139 16 -213 -10 -65 -23 -150 -23 -182 1 -38 28 -34 58 11 89 43 30 149
64 209 68 23 1 45 6 49 10 15 15 56 6 115 -23z"/>
<path d="M8470 6491 c-19 -4 -44 -12 -54 -18 -18 -10 -18 -11 8 -28 20 -14 46
-18 104 -17 138 2 249 -14 298 -43 61 -36 66 -50 52 -134 -14 -79 -7 -96 46
-109 19 -5 36 -18 44 -35 10 -20 21 -27 42 -27 16 0 33 6 37 13 4 8 17 17 28
21 12 5 15 10 8 13 -7 2 -25 -5 -42 -18 -32 -24 -48 -19 -61 17 -5 13 -16 24
-24 24 -8 0 -27 5 -42 12 -26 12 -26 14 -19 73 13 116 8 128 -80 172 -43 23
-66 26 -182 31 -73 3 -133 8 -133 11 0 4 -16 5 -35 3 -48 -6 -45 15 3 23 20 4
46 10 57 15 l20 9 -20 -1 c-11 0 -36 -3 -55 -7z"/>
<path d="M9423 6440 c-48 -11 -63 -28 -63 -70 0 -35 4 -40 43 -59 51 -25 69
-26 106 -6 46 24 55 74 20 119 -21 27 -45 31 -106 16z m77 -10 c8 -5 11 -10 5
-10 -5 0 -17 5 -25 10 -8 5 -10 10 -5 10 6 0 17 -5 25 -10z m4 -30 c49 -18 22
-80 -34 -80 -62 0 -107 43 -80 75 14 17 76 20 114 5z"/>
<path d="M8068 6062 c-18 -15 -48 -34 -65 -41 -39 -16 -66 -38 -81 -68 -17
-31 1 -65 47 -91 60 -34 110 -37 189 -13 39 11 93 21 122 21 89 0 139 45 110
100 -14 26 -49 40 -104 40 -38 0 -45 4 -67 38 -21 33 -29 37 -71 40 -39 3 -51
-1 -80 -26z m133 -26 c23 -40 36 -46 109 -55 50 -5 55 -9 58 -32 4 -30 -26
-47 -97 -55 -25 -2 -78 -12 -116 -21 -118 -27 -184 1 -165 68 5 17 5 29 0 29
-16 0 -31 -40 -25 -63 l7 -22 -21 21 c-14 13 -19 27 -15 38 7 19 74 56 102 56
11 0 36 16 56 35 49 46 80 46 107 1z"/>
<path d="M8025 5970 c-3 -5 -2 -10 4 -10 5 0 13 5 16 10 3 6 2 10 -4 10 -5 0
-13 -4 -16 -10z"/>
<path d="M8020 5930 c0 -5 6 -10 13 -11 6 -1 1 -5 -13 -9 -19 -6 -13 -8 30 -9
92 -2 226 11 205 20 -11 4 -59 5 -106 2 -56 -4 -93 -2 -107 6 -14 8 -22 8 -22
1z"/>
<path d="M8380 5630 c-21 -39 24 -78 77 -68 28 5 29 48 1 70 -31 23 -65 23
-78 -2z m72 -17 c11 -6 -3 -33 -17 -33 -16 0 -45 27 -45 41 0 8 43 3 62 -8z"/>
<path d="M8030 5510 c-25 -25 -25 -34 0 -85 12 -25 33 -48 52 -58 18 -9 44
-25 58 -34 13 -10 21 -12 16 -5 -9 14 3 16 24 2 11 -7 12 -10 2 -10 -11 0 -10
-3 1 -14 8 -8 17 -33 21 -55 11 -71 81 -104 124 -58 26 27 27 52 8 104 -7 21
-19 57 -25 80 -10 35 -23 51 -69 85 -89 67 -174 86 -212 48z m122 -19 c39 -8
112 -61 128 -91 6 -10 10 -29 10 -43 0 -13 7 -45 16 -71 15 -44 15 -49 0 -64
-14 -15 -18 -14 -41 8 -14 13 -25 31 -25 39 0 20 -39 85 -47 77 -3 -3 -14 -1
-25 5 -15 8 -19 18 -16 40 3 16 1 29 -4 29 -4 0 -8 -11 -8 -24 0 -19 -4 -23
-20 -19 -37 10 -70 50 -70 86 0 42 8 50 40 42 14 -3 42 -10 62 -14z m-125 -23
c-3 -8 -6 -5 -6 6 -1 11 2 17 5 13 3 -3 4 -12 1 -19z m238 -249 c11 -17 -1
-21 -15 -4 -8 9 -8 15 -2 15 6 0 14 -5 17 -11z"/>
</g>
</svg>
