<?xml version="1.0" standalone="no"?>
<!DOCTYPE svg PUBLIC "-//W3C//DTD SVG 20010904//EN"
 "http://www.w3.org/TR/2001/REC-SVG-20010904/DTD/svg10.dtd">
<svg version="1.0" xmlns="http://www.w3.org/2000/svg"
 width="2064.000000pt" height="437.000000pt" viewBox="0 0 2064.000000 437.000000"
 preserveAspectRatio="xMidYMid meet">
<metadata>
Created by potrace 1.16, written by Peter Selinger 2001-2019
</metadata>
<g transform="translate(0.000000,437.000000) scale(0.100000,-0.100000)"
fill="#000000" stroke="none">
<path d="M8521 3998 c-8 -20 -10 -21 -16 -5 -4 9 -13 17 -21 17 -16 0 -19 -16
-4 -25 21 -13 9 -24 -15 -13 -31 14 -47 1 -22 -17 18 -13 18 -14 -3 -17 -29
-4 -30 -22 -2 -26 22 -3 22 -5 6 -16 -24 -18 -9 -40 17 -26 13 7 19 7 19 0 0
-5 -4 -10 -10 -10 -5 0 -10 -4 -10 -10 0 -16 32 -11 45 7 12 16 12 14 8 -10
-5 -27 11 -39 20 -14 6 16 22 -27 31 -83 l7 -45 -21 23 c-11 12 -26 22 -33 22
-7 0 -23 3 -37 7 -24 6 -24 6 -9 -18 11 -16 13 -31 8 -44 -5 -11 -13 -40 -20
-64 l-11 -45 -29 65 c-28 62 -29 95 -5 111 8 6 7 8 -1 8 -7 0 -10 7 -6 17 5
12 3 14 -7 8 -10 -6 -12 -4 -7 8 7 17 -8 24 -17 8 -3 -4 -18 -6 -33 -3 -16 2
-25 1 -21 -2 3 -4 -3 -17 -13 -27 -24 -24 -22 -65 4 -63 9 1 17 -2 17 -7 0 -6
8 -5 19 1 28 15 31 13 30 -17 -1 -30 -37 -118 -38 -93 -1 13 -2 13 -11 0 -7
-11 -10 -3 -11 30 -1 27 -3 35 -6 20 -7 -38 -20 -45 -21 -11 0 17 -6 38 -12
48 -8 14 -9 7 -4 -29 3 -27 1 -54 -5 -65 -10 -17 -10 -17 -12 2 -1 11 -1 31 0
45 0 14 -2 19 -6 11 -4 -10 -11 -4 -24 20 l-18 34 -1 -28 c0 -15 -7 -42 -17
-60 -15 -29 -17 -30 -24 -12 -6 15 -8 11 -8 -17 -1 -21 -4 -38 -8 -38 -5 1
-21 21 -37 46 -20 32 -31 42 -37 33 -6 -10 -13 -7 -28 12 l-21 24 20 -45 c11
-25 20 -54 20 -64 0 -16 -7 -12 -35 18 -33 36 -39 49 -36 69 1 5 -3 6 -9 2 -6
-4 -17 -1 -25 5 -8 7 -3 -8 11 -34 14 -25 22 -46 16 -46 -5 0 -14 12 -21 27
-11 25 -13 25 -25 7 -7 -10 -18 -32 -24 -49 -11 -33 -13 -26 -16 52 0 24 -2
43 -4 43 -2 0 -14 -24 -27 -52 -21 -44 -25 -48 -25 -26 0 15 -5 30 -12 34 -7
4 -8 3 -4 -4 4 -6 4 -23 0 -37 -9 -35 -24 -14 -24 33 0 17 -4 32 -10 32 -5 0
-10 -17 -10 -38 0 -21 -6 -47 -14 -57 -13 -19 -15 -18 -21 16 -5 25 -2 46 9
66 12 25 12 30 1 30 -8 0 -13 -5 -12 -10 1 -5 -3 -11 -9 -13 -5 -3 -18 12 -27
32 -24 50 -30 38 -11 -20 12 -35 13 -51 5 -59 -8 -8 -11 -7 -11 4 0 9 -24 40
-52 71 -29 30 -43 43 -32 29 12 -14 31 -43 42 -64 17 -31 18 -44 9 -72 -6 -19
-14 -35 -18 -35 -8 0 -19 37 -19 68 0 13 -4 20 -10 17 -6 -4 -10 7 -10 24 0
38 -14 40 -37 5 -15 -24 -17 -25 -23 -8 -4 11 -10 40 -14 66 -4 26 -12 50 -18
54 -7 4 -7 -1 -2 -17 19 -56 -6 -219 -33 -219 -6 0 3 125 12 170 4 19 2 18
-10 -7 -8 -18 -21 -48 -28 -65 -13 -31 -14 -32 -25 -11 -9 16 -8 31 3 62 14
41 8 53 -15 27 -6 -8 -18 -12 -26 -9 -14 5 -18 -7 -15 -52 l1 -20 -9 20 c-5
11 -17 41 -27 68 -9 26 -18 46 -20 44 -2 -2 2 -38 10 -80 7 -42 9 -77 5 -77
-5 0 -9 10 -10 23 0 18 -2 19 -7 4 -6 -13 -14 -1 -36 48 -31 71 -44 82 -23 19
11 -32 11 -47 1 -79 -7 -22 -13 -32 -13 -22 -1 11 -6 15 -12 11 -9 -5 -10 7
-5 42 6 46 6 48 -10 29 -8 -11 -23 -36 -32 -56 l-16 -37 -22 47 c-12 25 -29
55 -39 66 -11 13 -10 8 4 -16 24 -42 53 -120 47 -126 -3 -3 -18 19 -35 49 -17
29 -31 47 -31 39 0 -10 -11 -5 -32 15 l-32 29 22 -28 c11 -16 18 -35 15 -43
-8 -20 -10 -18 -32 23 -18 37 -18 38 4 123 13 47 33 107 44 133 24 56 10 54
-19 -3 -28 -56 -80 -219 -80 -253 0 -15 -4 -26 -9 -23 -10 7 -47 192 -43 219
5 39 -57 187 -79 187 -10 0 27 -137 47 -173 23 -41 43 -173 35 -232 l-7 -50
-13 30 c-17 41 -62 117 -67 113 -2 -2 8 -31 21 -64 24 -58 34 -128 16 -109 -5
6 -18 39 -28 75 l-20 65 -22 -43 c-25 -50 -37 -51 -20 -3 15 41 6 51 -11 11
-7 -16 -16 -30 -20 -30 -15 0 -40 49 -33 67 6 17 6 17 -9 2 -9 -9 -20 -32 -23
-52 -14 -71 -25 -24 -26 106 -2 196 -18 97 -20 -123 -1 -104 -5 -163 -10 -147
-10 38 -14 250 -5 265 17 28 -12 9 -46 -30 l-37 -43 -11 29 c-15 39 -23 27 -9
-13 9 -25 9 -38 -2 -57 -22 -42 -30 -6 -23 111 3 61 8 119 10 130 4 17 4 18
-6 3 -8 -12 -29 -161 -30 -212 0 -14 -96 138 -118 188 -12 25 -23 46 -26 46
-3 0 4 -21 14 -46 11 -25 17 -50 14 -55 -3 -5 10 -33 29 -62 71 -107 85 -152
65 -209 -15 -44 -22 -31 -73 140 -15 51 -74 159 -75 137 0 -6 6 -20 14 -31 20
-27 56 -138 55 -166 l0 -23 -10 24 c-15 37 -19 20 -7 -27 6 -23 7 -58 3 -79
l-8 -38 -16 65 c-29 112 -102 303 -134 347 -17 24 -32 41 -34 39 -3 -2 12 -36
32 -76 43 -85 102 -256 110 -320 l6 -45 -25 55 c-14 30 -26 66 -27 80 -1 17
-3 20 -6 7 -2 -9 -8 -15 -12 -12 -5 2 -6 -18 -3 -45 2 -28 1 -50 -4 -50 -4 0
-28 19 -51 42 -43 42 -44 42 -70 26 -16 -9 -31 -31 -38 -52 -10 -36 -38 -76
-53 -76 -29 0 -44 157 -17 184 14 13 13 15 -5 13 -11 -1 -20 -5 -20 -10 0 -4
-4 -5 -10 -2 -5 3 -10 -3 -10 -14 0 -37 -32 -103 -46 -97 -18 7 -18 6 6 -49
25 -58 25 -63 0 -34 -10 13 -19 19 -20 14 0 -6 5 -16 11 -22 17 -17 3 -43 -22
-43 -15 0 -19 4 -15 16 3 9 8 28 11 42 4 18 -2 12 -15 -16 -16 -35 -24 -43
-42 -40 -33 4 -34 52 -4 172 14 55 24 101 22 103 -5 6 -40 -88 -61 -163 -25
-92 -23 -88 -40 -74 -25 21 -46 102 -39 154 6 41 9 46 19 32 15 -20 29 -21 21
0 -4 12 -1 14 14 9 25 -8 26 3 3 22 -16 12 -15 13 11 7 21 -5 27 -4 22 5 -4 6
-3 11 1 11 5 0 9 9 10 20 1 17 -4 20 -34 20 -30 0 -34 2 -23 15 10 12 10 15
-2 15 -8 0 -19 -5 -26 -12 -9 -9 -12 -8 -12 5 0 9 -7 17 -16 17 -10 0 -14 -5
-10 -15 4 -12 1 -12 -21 2 -26 17 -26 17 -21 -5 5 -19 2 -22 -20 -22 -25 0
-25 -1 -6 -15 11 -8 14 -15 7 -15 -19 0 -16 -20 3 -20 9 0 12 -5 8 -12 -5 -7
0 -9 14 -6 16 4 19 2 15 -10 -5 -11 -2 -14 10 -9 15 5 17 -1 17 -44 0 -31 -4
-48 -10 -44 -5 3 -10 12 -10 19 0 13 -31 46 -43 46 -4 0 5 -17 19 -37 32 -48
28 -112 -7 -113 -3 0 -11 19 -18 43 -7 23 -21 58 -32 77 -35 65 -58 130 -53
145 4 8 16 15 28 15 21 1 21 1 2 15 -11 9 -14 15 -7 15 13 0 41 24 41 35 0 3
-9 4 -20 0 -15 -5 -18 -3 -14 9 4 11 -1 14 -21 12 -14 -2 -28 -6 -32 -10 -3
-3 -12 -1 -20 6 -11 9 -15 7 -20 -11 -4 -17 -8 -19 -19 -10 -11 9 -14 8 -14
-5 0 -10 -9 -16 -25 -16 -25 0 -37 -19 -12 -21 6 0 1 -5 -13 -10 -18 -8 -21
-12 -11 -18 9 -6 10 -11 2 -15 -21 -13 -12 -27 10 -15 19 10 20 8 14 -10 -8
-27 9 -27 35 -1 15 15 20 16 20 6 0 -9 9 -14 20 -13 11 1 20 8 20 15 0 12 3
12 15 2 20 -16 51 -105 57 -163 5 -44 4 -46 -11 -30 -16 18 -92 63 -106 63 -3
0 3 -13 14 -29 16 -21 18 -31 9 -34 -7 -3 4 -12 25 -21 20 -9 37 -22 37 -29 0
-8 3 -7 10 3 8 12 10 12 16 -3 3 -9 10 -17 15 -17 4 0 6 7 3 15 -4 8 -1 15 5
15 14 0 14 -30 1 -50 -9 -13 -11 -13 -20 0 -8 13 -10 13 -10 -2 0 -34 -20 -28
-40 12 -27 53 -31 51 -11 -5 15 -42 14 -46 -2 -75 -10 -16 -16 -34 -13 -39 3
-5 -7 -23 -23 -40 -16 -17 -31 -37 -33 -43 -3 -7 -7 -3 -10 9 -4 13 3 34 16
55 13 18 30 53 40 77 17 43 17 44 -6 69 -27 28 -187 106 -241 116 -21 4 -37
13 -37 20 0 16 -36 25 -79 18 -29 -4 -30 -5 -14 -18 10 -7 30 -14 46 -14 15 0
27 -4 27 -9 0 -5 -16 -9 -35 -9 -43 0 -105 -43 -105 -74 0 -17 -2 -18 -15 -8
-13 10 -15 9 -16 -11 0 -22 -1 -23 -9 -4 -12 28 -12 67 0 60 5 -3 12 7 15 22
9 41 36 117 46 127 19 21 8 35 -11 16 -12 -12 -18 -25 -15 -30 4 -6 1 -10 -4
-10 -6 0 -14 -18 -17 -40 -4 -22 -10 -42 -14 -45 -4 -2 -1 35 7 83 7 48 12 96
10 107 -2 11 -7 -7 -12 -40 l-8 -60 -12 50 c-11 48 -12 47 -8 -40 2 -49 5
-119 7 -154 4 -72 -7 -65 -30 18 -7 25 -13 38 -13 28 -1 -10 11 -52 25 -93 14
-41 23 -80 21 -87 -5 -13 -10 -2 -23 48 -6 26 -8 27 -13 9 -7 -23 -49 -79 -55
-73 -2 2 -15 27 -30 56 -14 28 -31 55 -38 59 -7 5 -5 -3 4 -18 17 -26 17 -28
-4 -67 -24 -45 -37 -43 -58 9 -14 33 4 101 47 180 l25 45 -31 -35 c-17 -19
-43 -59 -57 -87 -25 -50 -44 -68 -44 -41 0 6 -3 9 -6 6 -3 -3 0 -15 7 -25 9
-16 9 -32 -4 -79 -11 -44 -15 -52 -16 -29 -3 82 -58 312 -83 343 -17 20 -31
14 -24 -10 4 -13 9 -34 12 -48 3 -13 18 -54 34 -90 27 -62 50 -180 50 -256 0
-45 -16 -36 -31 19 -7 23 -18 49 -24 57 -23 31 -49 103 -48 136 1 27 -2 31
-11 21 -10 -9 -11 -41 -7 -122 4 -65 3 -113 -3 -116 -5 -4 -5 -15 -1 -25 11
-26 13 -54 4 -54 -3 0 -9 12 -11 28 -3 15 -9 36 -13 46 -6 14 -5 17 3 12 17
-10 15 -3 -10 49 l-23 46 23 41 c28 52 21 62 -10 14 -13 -20 -29 -36 -36 -36
-7 0 -11 -4 -8 -9 3 -5 -1 -26 -8 -47 -10 -27 -15 -32 -15 -17 -1 34 -11 52
-26 47 -11 -4 -12 17 -9 112 2 65 6 126 10 136 3 10 3 18 0 18 -15 0 -26 -94
-29 -238 -1 -88 -3 -160 -4 -159 0 1 -9 31 -18 67 -18 69 -111 268 -145 310
-12 15 -2 -15 24 -70 47 -99 96 -253 96 -298 0 -25 -2 -23 -21 13 -12 22 -30
51 -41 64 -10 14 -27 44 -38 68 -10 24 -26 53 -35 66 l-17 22 7 -25 c4 -14 10
-32 13 -40 3 -8 -11 0 -31 18 -55 47 -57 39 -4 -17 46 -49 62 -87 73 -171 6
-44 6 -44 -12 -27 -10 9 -19 27 -19 39 0 12 -6 23 -12 25 -7 3 -13 -2 -13 -11
0 -19 -20 -21 -40 -3 -8 6 -6 2 4 -11 16 -18 17 -26 8 -47 -8 -17 -16 -23 -28
-18 -14 5 -16 20 -12 100 5 110 -9 100 -26 -19 l-11 -80 -24 19 -23 19 30 67
c37 81 26 79 -21 -3 l-34 -60 -22 47 c-12 27 -34 62 -48 78 l-25 30 21 -36
c11 -19 27 -64 35 -100 16 -65 14 -79 -20 -169 -4 -8 -17 24 -30 72 -25 95
-52 164 -59 156 -3 -3 4 -40 15 -84 23 -92 23 -94 10 -94 -5 0 -10 9 -10 20 0
27 -18 25 -22 -2 -3 -21 -5 -20 -26 13 -12 20 -22 45 -22 55 0 25 -59 113 -88
132 -22 14 -21 12 7 -34 41 -69 45 -87 22 -115 l-20 -24 -33 31 c-18 18 -43
37 -55 43 -13 7 -23 18 -23 27 0 16 -86 58 -100 49 -5 -3 -11 -1 -15 5 -3 5
-14 10 -23 10 -10 0 -3 -7 16 -16 17 -9 32 -20 32 -25 0 -5 8 -9 18 -9 11 0
26 -8 35 -18 16 -17 15 -19 -17 -30 -46 -17 -65 -40 -40 -48 42 -13 90 -36
113 -53 l25 -19 -38 0 c-23 0 -52 -10 -78 -27 l-40 -27 -40 39 -40 38 36 -51
36 -51 -25 -23 c-24 -23 -141 -57 -129 -38 4 5 1 20 -6 33 -9 17 -10 38 -3 79
13 74 -1 62 -29 -25 l-22 -70 -17 32 c-9 18 -24 34 -33 35 -15 2 -14 -2 4 -33
25 -42 21 -59 -14 -65 -19 -4 -27 0 -31 13 -4 11 -11 19 -16 19 -5 0 -9 17 -9
38 -1 32 -2 35 -14 20 -10 -13 -16 -14 -24 -6 -7 7 -17 13 -24 14 -7 2 -26 7
-42 11 l-28 9 39 27 c49 34 53 34 53 -2 0 -26 3 -28 30 -25 67 8 89 39 48 68
l-22 16 26 0 c32 0 44 27 23 50 -8 9 -15 21 -15 27 0 30 -56 20 -66 -10 l-7
-22 -8 23 c-14 37 -69 22 -69 -19 0 -9 -7 -19 -15 -23 -19 -7 -8 -35 18 -45
18 -7 15 -11 -28 -45 -27 -20 -59 -53 -72 -74 l-24 -37 4 110 c3 63 11 125 19
145 14 34 15 35 27 13 13 -25 51 -31 51 -9 0 8 9 17 19 21 30 9 38 46 14 65
-19 15 -19 16 1 33 l21 17 -20 17 c-12 10 -24 26 -28 36 -4 10 -17 17 -31 17
-19 0 -27 -7 -32 -26 l-7 -26 -24 31 c-28 36 -48 39 -63 11 -6 -11 -7 -20 -3
-20 4 0 -3 -7 -15 -16 -33 -23 -29 -53 8 -61 36 -7 38 -15 8 -28 -34 -15 -32
-38 4 -60 18 -11 37 -19 41 -17 4 1 5 -21 1 -50 -4 -29 -8 -92 -8 -140 -1 -60
-5 -89 -13 -93 -7 -2 -13 3 -14 13 0 13 -3 12 -11 -5 -6 -13 -14 -23 -17 -22
-14 1 -81 99 -68 99 24 0 49 37 45 67 -3 24 -7 28 -34 28 -29 0 -30 2 -21 22
7 16 6 27 -3 38 -16 19 -49 19 -57 0 -5 -14 -7 -14 -23 0 -17 16 -21 15 -50
-6 -35 -27 -35 -48 0 -66 l24 -12 -28 -10 c-35 -14 -32 -46 7 -75 l29 -21 18
23 c10 12 20 22 23 22 3 0 10 -30 17 -67 6 -38 14 -79 17 -93 4 -21 1 -20 -23
13 -27 37 -45 45 -26 11 6 -11 4 -26 -7 -48 -12 -24 -16 -27 -19 -13 -7 32
-18 17 -15 -20 2 -37 2 -36 -8 7 -6 25 -15 49 -19 54 -5 5 -2 22 6 39 9 16 11
26 5 22 -6 -3 -21 -25 -32 -48 l-21 -41 -18 22 c-13 16 -17 34 -14 64 5 42 4
42 -21 -21 -14 -35 -25 -73 -26 -85 0 -14 -2 -16 -6 -6 -3 8 -11 29 -18 45 -7
17 -16 38 -19 48 -8 25 -24 13 -34 -26 l-8 -32 -19 52 c-10 29 -22 48 -26 42
-4 -7 -8 -5 -12 5 -3 8 -1 16 5 18 7 3 9 12 5 22 -4 11 -13 16 -22 12 -10 -4
-15 1 -15 15 0 15 5 19 16 15 46 -18 72 51 28 74 -30 17 -58 -3 -50 -34 3 -12
0 -28 -5 -36 -9 -12 -10 -10 -6 8 3 12 0 22 -5 22 -6 0 -17 8 -25 18 -13 15
-14 15 -9 -10 6 -25 5 -26 -34 -21 -38 5 -40 4 -40 -20 0 -30 28 -50 51 -36
19 12 42 11 34 -1 -4 -6 -1 -18 7 -27 8 -10 8 -14 1 -10 -34 20 -92 -48 -65
-75 8 -8 6 -21 -9 -47 l-21 -36 31 35 c38 42 39 33 3 -33 l-27 -50 -6 29 c-11
51 -9 98 7 143 19 54 11 66 -12 17 -10 -20 -21 -36 -26 -36 -4 0 -8 -6 -8 -14
0 -7 -6 -19 -14 -25 -12 -10 -18 -5 -35 31 -12 25 -19 32 -16 18 8 -40 15
-107 9 -86 -4 11 -12 26 -20 34 -18 18 -18 66 1 128 18 60 18 64 0 40 -8 -11
-18 -41 -21 -68 -4 -26 -9 -48 -13 -48 -3 0 -24 32 -45 70 -50 89 -90 130 -51
52 14 -29 28 -67 30 -85 13 -104 14 -127 5 -127 -6 0 -10 5 -10 12 0 16 -122
279 -127 274 -3 -2 0 -13 6 -24 5 -10 19 -51 30 -91 15 -55 17 -71 7 -71 -8 0
-17 10 -21 23 -6 19 -8 20 -12 4 -5 -18 -5 -18 -19 0 -13 17 -13 16 -14 -6 0
-23 -1 -24 -14 -6 -12 16 -13 12 -13 -39 0 -31 -5 -62 -12 -69 -8 -8 -11 -7
-11 6 0 26 -18 20 -34 -10 l-15 -28 5 35 c15 100 59 237 114 352 15 32 21 53
14 47 -17 -14 -72 -109 -113 -196 -19 -40 -38 -70 -42 -67 -4 2 -13 -12 -19
-32 -13 -40 -20 -37 -38 17 -10 31 -9 46 9 105 22 75 47 104 88 104 14 0 40
11 56 25 l30 24 -37 1 c-28 0 -47 -8 -75 -32 -22 -20 -34 -26 -31 -16 50 131
96 215 105 191 3 -7 11 -13 19 -13 8 0 11 6 7 18 -6 16 -5 16 14 0 25 -22 37
-23 29 -2 -4 12 -2 15 9 10 8 -3 23 -9 32 -13 12 -5 15 -2 10 10 -3 8 -1 18 6
20 7 2 -1 11 -18 21 -22 12 -24 15 -7 11 12 -4 22 -2 22 3 0 12 -24 22 -53 23
-12 0 -16 3 -9 6 20 8 14 25 -7 18 -12 -3 -21 0 -25 10 -6 17 -36 21 -36 3 0
-6 -7 -4 -18 5 -32 29 -58 18 -29 -12 10 -11 8 -11 -11 -2 -13 7 -31 10 -40 8
-14 -3 -12 -6 8 -15 14 -6 20 -11 15 -11 -6 -1 -11 -10 -12 -21 -1 -14 4 -20
17 -20 13 0 17 -5 14 -15 -6 -14 6 -20 29 -16 10 2 11 4 -28 -82 -16 -37 -33
-67 -36 -67 -3 0 -10 12 -16 28 -10 26 -11 26 -12 4 -1 -13 3 -31 8 -41 7 -12
1 -45 -19 -112 -16 -52 -37 -121 -46 -154 l-17 -60 -13 130 c-14 145 -28 236
-50 309 -20 71 -19 76 15 70 31 -6 53 12 27 22 -21 8 -20 24 2 24 18 1 52 22
52 34 0 3 -10 6 -22 6 -22 1 -22 1 -4 15 31 23 10 30 -35 12 -41 -16 -41 -16
-24 3 17 19 17 20 -3 20 -11 0 -30 -12 -41 -27 -16 -22 -20 -24 -21 -10 0 23
-21 22 -27 -1 -3 -14 -11 -18 -29 -14 -14 2 -24 0 -24 -7 0 -6 6 -11 13 -12 6
0 -6 -6 -28 -13 -27 -8 -40 -18 -39 -29 1 -9 -3 -17 -8 -17 -6 0 -8 -6 -5 -14
3 -8 1 -17 -6 -19 -7 -2 -8 -8 -4 -13 4 -4 22 0 40 11 l32 18 -19 -21 c-27
-31 -12 -40 23 -15 l28 21 -5 -24 c-6 -35 15 -30 34 8 15 30 18 31 24 13 4
-11 13 -20 21 -20 32 0 87 -416 63 -479 -14 -36 -26 -14 -22 39 3 30 1 55 -3
55 -4 0 -17 -12 -28 -26 l-20 -25 -10 38 c-6 21 -11 63 -12 93 l-2 55 -6 -42
c-4 -24 -10 -45 -13 -48 -3 -3 -24 27 -46 67 -24 44 -36 76 -30 79 6 4 7 12 4
18 -4 6 0 11 9 11 9 0 14 4 11 9 -4 5 0 12 6 14 10 4 10 6 1 6 -7 1 -13 8 -13
17 0 13 -3 14 -14 5 -11 -9 -15 -9 -19 1 -4 9 -6 10 -6 1 -1 -7 -8 -10 -16 -7
-8 4 -15 1 -15 -6 0 -7 -7 -10 -15 -6 -9 3 -15 0 -15 -9 0 -8 -4 -15 -8 -15
-4 0 -8 -9 -9 -20 -1 -13 2 -18 9 -14 7 5 9 1 5 -9 -3 -10 -2 -17 2 -17 5 0
12 6 14 13 4 9 6 8 6 -2 1 -8 -12 -35 -28 -60 -16 -25 -37 -66 -47 -91 -10
-25 -20 -47 -24 -50 -3 -3 -14 -31 -25 -62 -10 -32 -23 -54 -28 -49 -9 9 6
145 33 285 11 55 18 101 16 103 -7 8 -55 -137 -72 -218 -9 -46 -21 -88 -26
-94 -11 -13 -10 18 2 49 12 34 5 33 -13 0 -13 -26 -14 -25 -41 52 -27 75 -104
219 -113 211 -2 -3 5 -28 16 -58 19 -50 20 -54 4 -72 -17 -18 -18 -17 -45 15
l-29 33 22 -39 c22 -38 22 -39 4 -52 -24 -18 -28 -10 -45 69 -6 31 -13 57 -14
57 -2 0 -1 -34 2 -75 4 -62 1 -82 -17 -121 -24 -49 -35 -49 -46 3 -5 25 -2 34
16 47 28 19 19 32 -10 16 -29 -15 -37 -8 -57 52 l-17 51 24 19 c13 10 40 27
59 38 19 10 28 19 20 19 -8 1 -39 -13 -69 -29 -30 -17 -55 -29 -56 -28 -1 2
-7 12 -13 23 -10 17 -11 16 -6 -11 5 -26 2 -33 -14 -38 -12 -4 -35 -23 -51
-42 -37 -41 -36 -42 -20 104 11 104 19 122 53 122 15 0 17 3 8 9 -10 6 -7 10
12 15 15 4 24 11 20 17 -3 6 -12 8 -20 5 -8 -3 -14 -2 -14 2 0 8 57 67 85 87
17 13 18 16 5 25 -8 5 -10 10 -5 10 6 0 11 9 12 20 2 25 -12 26 -26 3 -10 -17
-10 -16 -11 2 -1 18 -2 18 -11 -3 -5 -13 -13 -21 -18 -18 -5 3 -11 -9 -15 -27
-5 -25 -9 -29 -16 -17 -8 12 -10 10 -10 -8 0 -13 -4 -21 -9 -18 -5 3 -8 -5 -8
-19 -1 -13 -8 -31 -17 -40 -9 -9 -13 -21 -10 -26 3 -6 -1 -18 -9 -27 -9 -9
-34 -56 -58 -105 -34 -71 -44 -85 -56 -76 -11 10 -12 8 -5 -12 10 -26 -13
-109 -29 -109 -30 0 21 179 92 323 21 42 37 77 35 77 -19 0 -156 -271 -156
-309 0 -22 -17 -10 -33 24 -16 33 -15 39 7 129 35 135 86 258 114 272 12 6 26
15 30 19 4 5 0 4 -8 0 -13 -8 -13 -7 -1 8 11 14 11 17 0 17 -7 0 -4 9 10 24
13 14 18 25 12 27 -6 2 2 19 18 36 16 18 32 42 36 53 3 11 11 20 16 20 6 0 7
4 4 10 -3 5 0 20 6 32 11 21 11 22 -4 9 -10 -7 -17 -10 -17 -6 0 4 -13 -7 -30
-25 -16 -18 -30 -38 -30 -46 0 -8 -6 -11 -15 -8 -12 5 -15 -3 -15 -37 -1 -44
-1 -44 -16 -19 l-15 25 4 -32 c2 -18 0 -33 -5 -33 -4 0 -8 -7 -8 -16 0 -8 -4
-13 -9 -10 -4 3 -6 -5 -4 -17 2 -12 -16 -69 -40 -127 -24 -58 -54 -140 -67
-183 -13 -42 -25 -75 -28 -73 -2 3 4 28 13 56 21 64 15 73 -13 17 l-22 -42 0
158 c0 140 2 162 21 198 24 48 18 62 -10 28 l-20 -24 -1 40 c0 22 7 58 14 80
16 44 14 54 -7 37 -11 -9 -13 1 -14 54 0 41 -5 69 -13 74 -9 6 -9 13 -1 28 15
28 14 35 -3 29 -9 -4 -17 2 -21 14 -10 31 -25 22 -18 -11 3 -20 1 -30 -6 -30
-7 0 -10 -4 -7 -9 8 -13 19 -91 17 -127 -1 -17 5 -37 14 -44 17 -14 20 -56 5
-65 -6 -4 -2 -18 11 -37 21 -29 22 -36 16 -237 -7 -203 -12 -261 -26 -261 -14
0 -50 253 -44 308 6 55 -1 68 -17 30 l-9 -23 0 23 c-1 14 -5 21 -12 16 -8 -4
-9 4 -4 27 4 19 4 31 -1 26 -9 -9 -36 51 -28 64 3 5 1 9 -5 9 -5 0 -11 -6 -14
-12 -2 -7 -10 7 -18 32 -10 36 -14 40 -17 22 -3 -19 -6 -21 -18 -11 -19 16
-18 0 3 -23 12 -14 13 -18 3 -18 -10 0 -11 -3 -3 -11 6 -6 9 -18 6 -25 -3 -8
0 -14 6 -14 10 0 32 -42 33 -60 0 -3 5 -11 11 -19 15 -17 33 -48 53 -91 13
-27 18 -71 20 -200 3 -153 2 -161 -10 -114 -7 28 -26 77 -41 109 -15 32 -35
78 -46 102 -18 42 -96 143 -111 143 -4 0 4 -17 18 -37 44 -65 92 -175 113
-260 26 -102 26 -111 1 -88 -12 11 -21 32 -22 54 l-1 36 -4 -32 c-6 -47 -28
-42 -84 17 -56 59 -68 64 -35 13 29 -45 69 -172 64 -205 -3 -19 -9 -13 -35 37
-39 73 -82 143 -83 132 0 -4 11 -35 26 -68 27 -66 28 -104 0 -51 -9 17 -19 32
-21 32 -2 0 -5 -310 -5 -689 l0 -688 30 -13 c24 -10 36 -10 60 0 35 15 34 16
46 -30 14 -50 37 -49 74 4 17 25 48 57 68 71 l37 25 9 -26 c5 -17 4 -45 -3
-76 -9 -41 -8 -54 4 -79 35 -66 97 -13 80 69 -5 20 -8 60 -7 87 0 28 1 73 1
101 1 35 5 54 15 57 23 9 26 -2 27 -102 l1 -96 14 95 c10 68 19 99 31 108 16
12 18 10 21 -18 2 -18 -1 -45 -7 -62 -16 -45 -13 -114 8 -187 12 -45 20 -59
24 -47 10 26 9 62 -5 127 -11 56 -11 57 20 104 18 27 32 58 32 70 0 29 27 54
35 32 6 -15 -22 -115 -36 -132 -14 -14 -11 -40 12 -106 17 -49 20 -75 16 -125
-8 -81 -15 -94 -78 -134 -58 -38 -72 -66 -63 -127 4 -30 2 -50 -8 -66 -19 -29
-32 -81 -18 -72 5 3 10 10 10 15 0 5 11 26 25 46 14 21 25 51 25 70 0 70 14
70 26 -1 11 -65 10 -75 -12 -138 -21 -61 -23 -83 -20 -193 2 -79 8 -130 15
-137 9 -9 12 -2 11 33 -2 134 8 248 26 281 15 26 19 55 19 129 0 94 1 97 34
139 25 32 36 57 41 99 6 50 8 52 9 17 2 -62 18 -107 50 -142 20 -22 33 -52 41
-90 10 -46 14 -53 22 -39 14 25 -5 133 -26 151 -33 27 -46 63 -44 121 1 44 -6
79 -27 137 -28 76 -28 79 -12 110 9 18 20 63 23 100 5 52 13 76 32 98 21 25
24 37 19 74 -8 55 8 70 76 70 l49 0 -4 -47 c-3 -26 -13 -57 -22 -70 -80 -110
-79 -107 -33 -169 l32 -44 3 33 3 32 30 -17 c33 -19 34 -38 11 -109 -16 -49 8
-96 90 -182 72 -76 98 -124 98 -183 0 -48 -41 -75 -88 -58 -60 21 -119 -32
-133 -118 -5 -27 -11 -63 -15 -81 -8 -39 10 -86 42 -111 27 -22 56 -82 75
-158 11 -46 10 -58 -9 -117 -23 -70 -27 -112 -13 -134 5 -9 10 0 15 28 4 23
16 61 29 83 16 32 21 58 21 112 -1 92 -16 140 -65 214 -40 60 -41 64 -34 118
12 95 39 126 94 108 18 -5 21 -14 21 -66 0 -50 4 -63 27 -89 16 -16 57 -45 93
-63 61 -31 67 -37 90 -94 14 -33 39 -82 56 -109 18 -27 37 -66 44 -86 6 -21
14 -38 17 -38 13 0 -12 99 -42 169 -18 42 -36 87 -40 101 -13 43 -46 81 -101
116 -29 19 -58 43 -64 53 -18 35 -11 77 19 115 31 38 54 119 54 188 0 48 -39
106 -88 133 -36 19 -65 59 -65 89 0 12 5 14 26 6 37 -14 89 -12 130 5 31 13
40 13 70 0 19 -8 34 -16 34 -17 0 -2 -9 -21 -20 -42 -32 -63 -44 -141 -31
-204 6 -31 11 -75 11 -99 0 -33 6 -50 30 -75 19 -22 30 -28 30 -18 0 9 -6 22
-12 28 -26 26 -16 332 11 332 4 0 13 -17 20 -37 8 -21 34 -57 58 -80 l45 -43
-17 -42 c-9 -24 -26 -53 -38 -66 -18 -20 -21 -33 -19 -85 4 -72 18 -92 74
-109 48 -14 60 -35 52 -89 -9 -52 7 -46 26 10 18 55 7 87 -45 123 -58 41 -66
74 -28 109 50 44 63 70 63 126 0 70 -14 102 -50 116 -31 12 -37 21 -20 32 6 3
10 17 10 29 0 34 24 49 90 57 35 4 71 15 89 28 56 40 91 38 186 -8 47 -23 89
-49 92 -57 3 -9 -4 -28 -16 -42 -39 -50 -54 -86 -62 -152 -4 -36 -10 -79 -14
-96 -6 -26 -2 -37 23 -65 16 -19 35 -53 43 -77 14 -49 29 -39 29 20 0 25 -8
46 -26 67 -24 29 -25 34 -15 81 6 28 11 69 11 92 0 35 6 47 40 80 27 25 50 38
69 38 17 0 38 11 56 30 16 17 24 30 18 30 -8 0 -8 6 0 23 12 26 76 49 144 50
58 2 69 -12 44 -54 -37 -62 -45 -131 -30 -248 11 -83 18 -110 37 -133 33 -40
48 -35 23 8 -18 30 -21 51 -21 140 0 101 14 194 30 194 4 0 15 -20 24 -45 11
-27 34 -58 59 -79 l41 -34 -19 -44 c-11 -23 -30 -53 -42 -65 -21 -20 -23 -28
-17 -80 8 -74 24 -99 75 -114 48 -15 62 -37 53 -84 -3 -19 -4 -35 0 -35 10 0
36 59 36 83 0 30 -33 73 -71 92 -23 13 -29 22 -29 50 0 24 6 37 21 45 35 19
59 70 59 128 0 63 -19 104 -56 121 -20 9 -24 15 -16 23 7 7 12 22 12 33 0 36
31 55 87 55 38 0 60 7 89 26 63 43 96 42 194 -9 49 -26 86 -52 88 -62 2 -9 -7
-29 -21 -43 -37 -40 -49 -69 -58 -141 -5 -36 -12 -81 -15 -99 -5 -28 -2 -38
24 -65 17 -18 36 -52 42 -76 9 -33 14 -41 21 -30 18 29 10 86 -17 118 -24 29
-25 34 -15 81 6 28 11 68 11 89 0 44 27 84 70 106 33 17 106 20 143 6 23 -9
24 -12 20 -85 -4 -70 -2 -82 26 -140 35 -71 38 -102 15 -171 -14 -40 -15 -56
-5 -97 16 -71 15 -74 -28 -121 -21 -23 -43 -51 -48 -62 -14 -28 -23 -136 -14
-160 7 -16 11 -7 20 40 18 92 29 112 82 150 l48 34 -1 88 c-1 48 5 116 12 151
13 60 13 66 -13 145 -31 95 -33 120 -12 137 16 13 17 12 30 -45 8 -37 95 -122
132 -130 70 -14 77 -20 110 -85 17 -36 32 -73 32 -82 1 -10 6 -18 12 -18 26 0
-15 147 -53 187 -12 12 -37 28 -57 34 -61 20 -112 58 -127 96 -9 19 -13 37
-11 39 2 3 30 9 63 14 68 11 120 47 149 106 16 31 20 60 20 141 l0 103 45 19
c128 54 144 53 153 -8 3 -28 21 -62 55 -108 54 -71 72 -122 72 -200 0 -26 9
-70 19 -98 11 -27 23 -59 27 -70 16 -42 16 46 0 93 -9 26 -16 79 -16 124 0 75
1 78 19 68 11 -5 35 -10 55 -10 54 0 70 -23 62 -93 -3 -33 -1 -67 4 -78 7 -12
7 -32 -1 -62 -8 -32 -8 -55 1 -85 13 -51 31 -56 23 -7 -3 21 1 50 11 76 11 27
15 53 10 73 -6 30 -6 30 13 14 10 -9 45 -29 76 -44 44 -20 67 -25 95 -20 102
17 130 18 153 6 l24 -13 -25 27 c-23 25 -29 27 -75 21 -90 -11 -113 -9 -142
11 -15 10 -37 21 -48 24 -22 6 -47 51 -67 120 -15 52 -56 85 -121 95 -79 13
-99 57 -48 104 15 14 38 46 50 69 12 23 25 42 29 42 4 0 46 -10 94 -22 84 -22
88 -22 124 -5 34 16 39 17 53 3 13 -13 13 -21 3 -49 -19 -53 -15 -84 15 -111
36 -33 49 -22 23 19 -17 27 -19 39 -11 54 25 45 2 131 -34 131 -11 0 -7 15 16
58 46 85 76 114 118 110 33 -3 36 -6 47 -53 15 -57 60 -105 99 -105 22 0 24
-3 17 -32 -9 -42 -7 -108 5 -178 9 -52 10 -53 17 -24 4 17 7 51 6 75 -1 24 4
74 11 111 15 76 9 91 -39 94 -15 1 -30 3 -35 3 -11 1 -47 64 -47 83 0 10 14
21 38 29 20 6 65 27 99 46 35 19 67 33 72 31 4 -1 27 -25 51 -52 41 -48 42
-52 36 -102 -6 -55 -47 -154 -72 -175 -31 -26 -44 -68 -44 -145 0 -71 1 -76
15 -58 8 11 14 41 15 72 0 46 4 58 31 85 l32 31 18 -23 c13 -15 19 -39 19 -70
0 -57 27 -154 40 -146 16 10 12 190 -5 233 -14 35 -14 44 0 98 9 32 19 91 22
129 6 75 -6 114 -48 161 -19 20 -19 20 51 51 39 17 70 29 70 25 0 -3 -7 -44
-16 -91 -27 -143 -6 -340 43 -391 12 -13 12 -9 0 25 -14 41 -31 155 -23 155 3
0 15 -18 27 -40 25 -45 39 -48 16 -3 -8 15 -20 63 -27 105 -12 81 -5 133 24
174 8 12 24 54 35 94 33 117 53 119 66 7 6 -53 4 -64 -23 -116 -28 -53 -30
-64 -29 -166 0 -104 1 -108 13 -70 7 23 13 32 14 20 1 -19 1 -19 12 -1 6 11 9
47 6 87 -5 58 -2 76 17 112 32 59 41 150 21 209 -16 45 -15 47 9 89 14 24 37
80 51 124 31 92 81 156 94 120 11 -30 -16 -85 -60 -126 -52 -48 -56 -84 -14
-156 15 -26 24 -58 24 -85 1 -24 7 -56 14 -73 13 -27 13 -23 8 48 -4 69 -3 77
12 71 9 -3 16 -15 16 -25 0 -10 5 -19 10 -19 6 0 10 9 10 19 0 11 5 21 12 23
17 6 0 28 -22 28 -10 0 -32 16 -49 35 -29 34 -30 37 -17 63 8 15 26 38 41 52
41 38 55 73 55 138 0 53 3 61 33 90 37 36 46 38 87 17 l28 -15 4 -139 c2 -95
7 -144 16 -153 9 -9 12 -7 12 12 0 62 11 284 14 287 2 2 39 -13 82 -33 44 -20
99 -42 123 -49 42 -11 45 -14 67 -76 30 -81 32 -125 8 -169 -13 -25 -18 -54
-17 -103 1 -67 0 -70 -33 -99 -19 -17 -34 -37 -34 -46 0 -13 4 -12 23 5 50 45
51 44 44 -68 -4 -77 -3 -99 5 -84 16 27 31 176 29 276 -2 67 1 88 13 98 14 12
18 8 31 -23 9 -20 18 -56 22 -81 3 -24 10 -42 14 -39 15 9 10 56 -11 116 l-20
57 21 36 c16 26 23 63 30 141 4 60 14 113 21 121 26 31 69 42 122 29 l48 -11
-6 -44 c-3 -24 -6 -72 -6 -107 0 -63 0 -64 -40 -90 -43 -29 -80 -80 -80 -110
0 -15 4 -12 18 11 20 32 89 85 111 85 21 0 4 -79 -25 -117 -36 -47 -39 -80
-14 -148 40 -112 43 -133 33 -195 -5 -32 -6 -57 -2 -54 15 9 31 111 26 164
-20 198 -21 186 2 207 24 22 40 116 41 231 0 64 19 142 34 142 3 0 21 -7 40
-17 29 -13 46 -14 104 -7 l70 10 36 -44 c35 -44 36 -46 30 -113 -8 -79 3 -103
60 -138 51 -32 60 -77 41 -202 -9 -54 12 -107 54 -140 21 -17 35 -20 77 -15
27 3 64 11 81 16 53 19 117 140 74 140 -6 0 -17 -13 -25 -29 -22 -41 -73 -81
-105 -81 -18 0 -42 13 -69 38 -41 38 -41 39 -31 77 10 37 7 110 -7 163 -6 22
-5 22 52 16 75 -9 103 -23 150 -78 22 -25 51 -48 67 -51 31 -8 38 10 7 20 -31
10 -24 25 13 25 45 0 90 32 154 111 7 8 17 49 24 90 6 40 18 82 27 92 9 11 11
17 3 17 -16 0 -51 -60 -51 -90 0 -70 -43 -140 -99 -161 -30 -12 -40 -3 -16 15
10 7 15 18 11 24 -3 5 10 20 29 32 35 21 46 40 24 40 -18 0 -99 -54 -99 -66 0
-6 -10 -20 -23 -32 l-23 -22 -25 26 c-32 36 -69 50 -164 63 -114 17 -135 27
-136 65 -6 112 -9 139 -25 171 -9 20 -28 44 -41 52 -28 19 -25 49 8 91 10 14
19 35 19 49 0 41 60 68 152 68 70 0 80 3 122 33 26 17 49 32 51 32 3 0 5 -20
5 -44 0 -48 -27 -90 -74 -115 -30 -16 -56 -67 -56 -110 0 -33 -14 -72 -43
-113 -29 -43 -10 -55 28 -18 23 23 36 46 40 74 8 53 25 106 33 106 4 1 29 20
56 44 48 42 50 46 57 110 3 37 9 69 12 72 16 16 27 -14 27 -74 0 -42 8 -89 20
-125 11 -31 20 -70 20 -87 0 -16 -9 -47 -20 -67 -21 -39 -27 -98 -11 -107 5
-3 12 11 16 32 7 41 30 82 46 82 6 0 7 -5 3 -11 -4 -7 -1 -10 6 -7 25 8 59
124 66 223 4 52 10 95 14 95 4 0 14 -7 21 -17 10 -12 14 -47 13 -132 -1 -113
-1 -115 14 -81 9 19 18 68 20 108 l4 74 32 -5 c42 -6 79 11 155 72 44 35 73
51 92 51 26 0 29 -3 23 -24 -3 -13 2 -47 10 -77 9 -29 16 -67 16 -85 0 -17 6
-46 14 -64 l13 -32 6 40 c4 22 2 61 -4 88 -6 27 -13 67 -16 88 l-5 39 59 -60
c84 -86 169 -139 245 -151 35 -6 75 -8 90 -5 20 4 36 -2 59 -21 41 -35 87 -58
99 -51 17 11 11 22 -20 35 -32 13 -80 54 -80 68 0 4 17 18 39 30 59 34 104 90
140 178 34 81 46 100 69 106 10 2 13 -46 16 -217 5 -241 17 -322 30 -194 4 41
11 118 15 171 4 54 10 100 14 104 16 16 21 -13 23 -129 1 -67 5 -136 9 -154 5
-21 1 -49 -10 -83 -16 -48 -16 -56 -1 -110 10 -36 14 -73 10 -98 -5 -31 0 -53
25 -110 17 -39 31 -85 32 -104 0 -18 4 -42 8 -53 7 -16 10 -10 16 29 6 41 3
64 -19 131 -23 68 -26 87 -17 124 5 26 6 55 0 74 -13 46 -11 98 6 127 l14 25
1 -30 c0 -40 10 -75 21 -75 16 0 10 148 -7 188 -12 29 -14 55 -9 122 l7 84 29
-34 28 -35 1 41 c0 32 -9 53 -41 98 -23 32 -38 60 -34 64 4 4 28 -16 54 -45
52 -58 105 -93 139 -93 29 0 56 14 109 56 23 19 43 34 46 34 2 0 7 -20 10 -45
4 -25 16 -68 28 -95 14 -32 19 -60 16 -78 -40 -184 -39 -171 -22 -227 8 -29
15 -77 16 -107 1 -42 3 -48 9 -28 5 14 6 64 3 111 -5 69 -1 106 17 184 21 88
22 101 10 144 -8 25 -14 64 -14 86 -1 59 25 58 85 -1 75 -74 77 -39 2 53 -26
33 -32 48 -27 68 3 14 9 25 12 25 4 0 24 -19 44 -41 31 -33 42 -40 60 -34 13
4 36 9 53 12 16 3 35 13 41 21 10 13 16 13 55 -6 24 -12 71 -45 104 -73 57
-49 61 -51 107 -47 26 3 48 3 48 1 0 -2 -11 -25 -25 -52 -24 -48 -75 -88 -135
-106 -38 -11 -130 -74 -177 -122 -45 -45 -55 -82 -32 -124 9 -18 79 -55 119
-64 8 -2 28 -8 43 -14 45 -17 71 -13 118 19 62 42 139 37 139 -9 0 -34 -97
-149 -148 -175 -70 -36 -99 -69 -113 -133 -19 -84 -31 -95 -117 -96 -70 -2
-74 -3 -108 -39 -19 -21 -45 -38 -57 -38 -11 0 -34 -12 -50 -27 -24 -24 -36
-28 -82 -26 l-55 2 -50 -76 c-27 -42 -48 -78 -46 -81 3 -2 22 16 43 39 74 83
71 82 117 75 35 -6 49 -2 80 19 20 14 45 25 55 25 36 0 42 -65 11 -116 -27
-42 -9 -55 25 -18 27 29 28 34 25 114 -1 44 3 59 20 78 19 20 28 22 64 16 22
-4 50 -6 61 -5 69 8 67 9 82 -49 22 -85 57 -136 112 -165 54 -27 61 -38 61
-96 0 -46 21 -53 46 -14 13 20 14 30 5 57 -13 36 -58 88 -76 88 -12 0 -45 31
-45 42 0 3 29 -3 65 -13 48 -13 82 -32 135 -75 100 -80 137 -158 149 -314 l6
-75 14 82 c13 78 12 86 -9 155 -36 116 -41 126 -69 144 -14 10 -51 42 -82 71
-40 38 -71 58 -107 68 -85 26 -122 77 -122 172 0 66 46 123 119 144 60 18 121
81 166 171 l37 76 49 -31 50 -30 -45 -46 c-63 -64 -75 -99 -74 -214 1 -53 4
-101 8 -107 12 -19 30 48 30 111 0 82 22 130 86 184 38 33 54 54 54 71 0 40
-17 61 -57 75 -21 6 -48 18 -60 26 l-21 14 24 42 c20 36 24 55 24 134 0 92 13
129 25 73 12 -56 73 -185 106 -224 31 -37 33 -44 41 -156 9 -116 9 -117 -21
-194 -21 -51 -31 -94 -31 -128 0 -50 2 -54 54 -103 30 -28 68 -77 86 -112 30
-56 34 -75 40 -175 4 -84 8 -106 14 -85 5 16 7 77 4 136 -5 127 -28 186 -103
264 -36 38 -45 54 -45 83 0 32 37 114 51 114 4 0 25 -20 47 -44 32 -35 47 -64
71 -142 17 -55 40 -117 51 -139 l19 -40 -1 81 c0 45 2 86 6 92 4 8 20 7 51 -2
24 -8 46 -11 49 -8 3 2 13 -1 22 -9 9 -7 34 -12 59 -10 36 2 48 -2 73 -26 25
-24 33 -44 51 -133 26 -128 26 -192 2 -246 -11 -23 -22 -77 -26 -120 -4 -43
-9 -82 -12 -87 -9 -15 8 -197 18 -191 5 3 9 33 9 67 1 145 17 241 51 308 28
56 32 73 31 133 -2 61 -11 114 -29 164 -6 15 -3 14 15 -2 18 -16 22 -30 22
-83 0 -70 20 -122 48 -125 40 -3 69 5 99 28 l32 25 7 -28 c8 -39 45 -163 55
-191 5 -13 15 -22 21 -21 42 5 58 -14 83 -97 14 -46 29 -84 34 -84 12 0 35
193 27 225 -4 15 -26 55 -49 89 -22 33 -47 77 -54 96 -19 53 -16 132 7 181 15
34 20 66 20 142 0 103 -5 120 -52 177 -15 19 -28 47 -28 62 0 15 -7 43 -16 61
-13 28 -15 51 -9 121 l7 87 68 45 c38 25 93 71 122 103 65 70 87 85 161 110
l57 20 40 -63 c22 -34 58 -79 80 -100 36 -33 40 -41 40 -86 0 -49 17 -81 50
-92 23 -7 -11 -56 -50 -72 -43 -17 -70 -49 -70 -83 0 -16 -6 -23 -18 -23 -10
0 -29 -10 -41 -21 -22 -21 -23 -27 -17 -103 4 -45 10 -90 13 -101 6 -17 8 -16
14 10 4 17 7 55 8 86 1 72 12 81 85 73 48 -6 56 -4 56 10 0 9 -8 16 -19 16
-26 0 -40 21 -31 46 6 14 26 28 59 39 51 16 111 71 111 100 0 8 7 15 15 15 12
0 14 10 9 58 -5 53 -4 56 10 38 19 -23 20 -39 5 -123 -8 -48 -17 -68 -36 -83
-14 -11 -31 -20 -37 -20 -6 0 -16 -15 -23 -32 -32 -92 -43 -114 -71 -137 -39
-32 -52 -67 -52 -136 0 -46 -6 -64 -37 -112 -22 -35 -36 -70 -37 -91 -1 -45
19 -53 28 -11 3 17 26 58 51 91 42 56 45 64 45 123 0 58 3 66 42 114 57 70 74
68 43 -6 -8 -20 -18 -61 -21 -92 -4 -31 -10 -63 -14 -71 -4 -8 -1 -37 6 -65
l13 -50 -5 45 -4 45 20 -55 c43 -117 52 -186 45 -336 -5 -94 -4 -144 3 -148
15 -9 27 107 27 271 0 77 4 139 9 136 17 -11 36 -74 36 -121 0 -27 3 -64 6
-82 12 -56 24 -11 24 86 0 91 0 91 -44 158 -56 85 -73 149 -56 214 13 54 48
118 92 167 32 38 48 38 48 1 0 -13 6 -29 13 -35 8 -6 22 -29 32 -50 17 -38 17
-41 -4 -103 -12 -34 -35 -83 -51 -108 -16 -25 -30 -56 -30 -69 0 -20 7 -14 41
34 75 107 99 158 99 209 0 50 -10 78 -42 112 -19 21 -18 22 34 132 l52 110 27
-13 c45 -24 51 -63 19 -126 -18 -34 -19 -45 -9 -82 6 -23 17 -54 25 -69 18
-35 11 -63 -32 -129 -41 -64 -42 -88 -8 -176 25 -67 25 -69 10 -130 -17 -66
-20 -165 -6 -198 7 -18 8 -19 15 -2 4 9 4 32 1 50 -4 19 2 74 14 131 l21 97
-21 68 c-25 86 -25 88 10 135 16 21 34 54 41 73 10 31 13 33 27 20 8 -9 17
-39 20 -69 l6 -53 11 40 c14 48 5 88 -29 124 -13 14 -34 46 -46 70 l-22 44 21
37 c24 42 28 112 8 149 -6 14 -34 36 -62 50 -45 23 -54 34 -88 103 -21 43 -37
87 -35 99 3 19 5 18 40 -13 23 -20 45 -53 55 -82 20 -56 51 -79 39 -30 -21 87
-29 106 -54 129 -25 24 -26 25 -6 25 12 0 40 6 62 14 40 14 40 14 47 -12 l7
-27 16 33 c13 26 21 32 47 32 43 0 46 -5 29 -52 -22 -62 -17 -111 16 -176 34
-68 36 -81 14 -145 -8 -25 -14 -56 -12 -69 3 -19 9 -11 32 37 34 75 36 123 6
207 -20 54 -22 73 -15 103 6 20 15 37 20 37 6 1 20 -18 32 -42 12 -23 29 -50
38 -60 9 -10 15 -36 15 -66 0 -72 9 -79 53 -39 34 31 40 33 67 23 32 -11 46
-30 61 -82 7 -23 4 -53 -12 -116 -17 -64 -20 -95 -14 -125 l8 -40 12 60 c6 33
19 73 27 90 l16 30 7 -49 c7 -46 3 -126 -11 -228 -7 -51 1 -98 16 -98 6 0 10
21 10 48 1 43 2 45 15 28 21 -27 45 -116 51 -189 5 -45 0 -86 -15 -148 -12
-48 -21 -106 -20 -130 l1 -44 20 60 c57 175 61 314 14 458 -32 97 -36 251 -9
365 14 61 15 80 5 118 -15 54 -15 74 -2 74 6 0 10 -5 10 -11 0 -5 14 -27 31
-48 23 -29 32 -54 40 -105 10 -76 68 -203 69 -153 0 15 -7 44 -15 64 -9 20
-20 69 -26 107 -6 45 -19 84 -34 108 -14 21 -25 41 -25 45 0 5 27 21 60 37 33
16 60 33 60 39 0 5 8 3 18 -6 27 -25 81 -44 144 -52 48 -6 62 -4 97 16 l41 23
37 -31 c21 -16 45 -41 53 -56 19 -34 6 -49 -85 -92 -53 -25 -79 -45 -100 -74
-26 -39 -27 -42 -15 -92 14 -59 59 -115 107 -135 18 -8 37 -23 43 -34 10 -18
5 -27 -39 -69 -63 -59 -68 -95 -20 -136 l32 -26 -6 -94 c-4 -52 -4 -102 -1
-110 12 -30 22 -14 28 47 3 35 9 87 12 116 5 44 3 57 -13 75 -31 34 -36 58
-17 78 10 11 20 19 24 19 15 0 39 -121 50 -245 10 -118 9 -140 -9 -226 -18
-89 -19 -179 -1 -179 4 0 5 10 3 23 -3 12 8 70 23 127 25 99 26 113 20 255 -3
83 -11 169 -16 192 -8 33 -7 51 6 83 9 22 20 40 24 40 20 0 32 -62 25 -129 -8
-80 1 -161 20 -187 11 -16 13 -3 13 81 -1 55 1 128 4 163 5 61 7 65 57 111 60
56 65 84 24 138 -18 24 -26 45 -25 67 1 17 -4 54 -13 81 -10 34 -13 69 -9 112
6 53 3 66 -16 98 -26 42 -18 55 33 55 16 0 38 10 53 26 17 16 35 24 50 22 24
-3 24 -3 -16 -62 -26 -38 -40 -70 -40 -90 0 -31 4 -39 52 -118 28 -44 28 -45
12 -91 -13 -39 -14 -64 -6 -146 8 -92 12 -104 58 -181 41 -69 56 -86 90 -102
57 -25 100 -32 108 -19 4 6 0 11 -9 11 -8 0 -38 11 -64 25 -43 21 -55 35 -94
107 -41 76 -45 91 -50 173 -6 100 5 159 18 93 4 -21 4 -49 1 -63 -7 -27 3 -32
22 -13 15 15 15 58 1 95 -6 15 -15 52 -19 80 -5 30 -20 67 -34 86 -36 47 -33
78 14 147 22 33 43 74 47 92 7 38 30 68 52 68 11 0 9 -5 -8 -16 -16 -12 -20
-19 -12 -27 20 -20 12 -68 -20 -124 -35 -61 -33 -79 11 -94 36 -13 45 -40 36
-111 -6 -45 -5 -50 8 -39 23 19 39 78 32 116 -4 21 -18 43 -38 58 l-31 25 20
33 c11 19 24 48 27 64 9 39 87 120 98 102 4 -6 8 -50 8 -97 1 -63 6 -94 19
-120 19 -35 19 -35 -5 -57 -26 -24 -32 -70 -13 -105 9 -16 6 -24 -13 -45 -26
-27 -27 -54 -10 -203 6 -47 11 -93 11 -104 1 -15 4 -16 16 -6 18 15 21 143 4
199 -11 38 -1 77 33 123 10 14 10 24 0 50 -23 62 5 50 44 -19 32 -55 38 -77
38 -118 -5 -202 -4 -226 12 -256 21 -42 27 -32 14 28 -8 36 -8 67 1 114 22
123 22 154 -1 206 -19 43 -51 145 -47 150 1 1 22 -7 47 -17 25 -10 71 -24 103
-31 57 -12 58 -12 135 24 43 21 79 32 80 27 5 -15 -26 -61 -59 -88 -16 -13
-29 -30 -29 -38 0 -16 26 -19 35 -4 3 5 14 14 24 20 17 9 21 2 36 -65 15 -62
16 -90 8 -182 -5 -59 -7 -114 -3 -122 4 -8 18 41 30 110 20 109 22 132 11 198
-6 42 -8 87 -5 101 23 97 25 100 70 131 36 25 48 29 55 18 9 -16 14 -6 24 53
3 22 14 42 24 48 18 9 18 8 0 -40 -29 -77 -34 -148 -15 -214 l17 -57 -27 -32
c-25 -29 -25 -32 -8 -36 11 -2 28 8 44 28 31 36 45 39 60 12 17 -33 11 -84
-15 -126 -32 -52 -32 -105 -1 -152 14 -19 22 -42 19 -49 -3 -8 -1 -14 5 -14
20 0 21 45 2 78 -27 45 -25 67 10 122 45 70 45 123 0 173 -16 19 -33 44 -38
57 -13 34 24 244 48 273 3 4 17 -4 30 -18 18 -19 21 -28 12 -37 -19 -19 -14
-46 13 -64 14 -9 25 -22 25 -28 0 -7 18 -30 40 -51 24 -24 45 -55 51 -79 9
-34 12 -38 21 -22 14 25 -16 100 -48 120 -16 11 -24 26 -24 46 0 16 -5 32 -10
35 -16 10 -1 25 24 25 12 0 37 -16 57 -36 18 -19 55 -49 80 -65 58 -37 66 -62
34 -101 -48 -57 -41 -121 19 -177 36 -34 43 -20 12 26 -30 44 -33 79 -9 112
l16 24 38 -44 c36 -43 38 -43 94 -41 53 2 64 -1 120 -38 35 -23 80 -44 101
-47 44 -7 104 -34 128 -58 11 -12 16 -35 16 -79 0 -59 2 -64 37 -97 34 -32 37
-24 5 13 -10 12 -14 39 -13 91 1 60 -3 79 -18 98 l-19 24 68 31 c75 35 102 69
135 171 9 29 21 56 27 59 5 3 35 12 66 19 49 12 61 11 89 -2 42 -20 51 -48 24
-77 -52 -55 -48 -126 9 -181 38 -37 50 -25 16 15 -33 40 -35 91 -4 122 l22 22
15 -25 c34 -51 49 -59 108 -59 50 0 65 -5 108 -35 28 -19 76 -40 111 -48 33
-8 79 -26 102 -41 l42 -26 0 -65 c0 -58 3 -68 31 -100 41 -46 55 -45 24 1 -21
31 -25 49 -25 107 0 58 -4 75 -21 93 l-21 23 43 11 c24 6 60 22 80 35 l35 23
64 -21 c62 -20 64 -21 170 -3 105 18 107 18 174 -3 78 -24 97 -25 141 -9 29
10 36 8 67 -15 42 -33 108 -43 167 -27 39 10 46 9 77 -12 23 -15 38 -36 44
-60 20 -70 81 -121 177 -147 41 -11 42 -13 53 -69 16 -79 54 -140 97 -159 19
-8 42 -12 50 -9 12 5 13 0 8 -27 -11 -56 -26 -97 -36 -97 -4 0 -16 -14 -24
-31 -19 -37 -53 -37 -72 0 -14 29 -26 36 -74 45 -29 5 -39 2 -59 -19 -24 -26
-14 -33 20 -15 25 14 60 -7 60 -35 0 -11 -12 -42 -26 -69 -24 -45 -32 -76 -50
-201 -4 -26 -1 -53 9 -75 l15 -35 -5 51 c-4 37 0 68 16 113 11 33 21 70 21 82
0 26 18 61 39 74 9 5 40 9 68 10 l53 0 0 -40 c0 -22 16 -86 35 -142 43 -124
54 -201 55 -358 1 -99 3 -116 13 -100 8 14 12 75 11 200 0 176 -1 182 -33 275
-22 67 -30 105 -26 128 7 39 18 41 33 7 7 -14 19 -28 27 -31 27 -11 46 -61 39
-100 -9 -47 17 -111 61 -154 43 -42 45 -27 5 43 -26 46 -30 64 -30 124 l0 71
-42 36 -43 35 0 130 0 130 36 38 c53 54 82 118 75 158 -6 31 -4 34 22 40 69
15 118 -25 88 -71 -9 -13 -28 -31 -42 -40 -29 -19 -64 -82 -64 -115 0 -36 34
-189 42 -189 11 0 9 77 -3 129 -12 55 2 103 37 126 14 9 28 14 31 11 3 -3 0
-26 -6 -52 -14 -53 -6 -151 16 -204 8 -19 23 -74 33 -121 10 -47 32 -115 49
-150 l31 -64 -6 50 c-3 28 -12 74 -21 104 -10 35 -13 72 -10 104 5 37 2 60
-13 93 -30 64 -27 149 8 229 15 36 30 65 35 65 18 0 29 -49 18 -81 -15 -44
-14 -96 4 -155 8 -27 15 -60 15 -74 1 -47 37 -105 120 -190 46 -47 88 -99 95
-116 11 -28 9 -36 -16 -71 -29 -44 -49 -123 -30 -123 19 0 51 62 57 111 5 37
12 49 31 58 21 10 30 7 63 -19 29 -23 39 -39 44 -72 4 -24 17 -59 30 -78 13
-20 27 -50 30 -67 10 -42 29 -57 79 -59 56 -3 77 17 77 71 0 47 15 66 72 89
24 10 39 25 46 45 8 23 20 33 51 42 45 13 45 29 0 29 -42 0 -63 -13 -88 -55
-13 -22 -28 -35 -41 -35 -27 0 -90 -68 -90 -98 0 -23 0 -23 -24 -5 -26 19 -86
111 -86 131 0 7 9 12 19 12 37 0 138 128 179 226 12 29 16 31 71 33 32 1 72 6
90 11 l32 9 -2 -95 c-3 -92 3 -113 32 -114 16 0 30 30 21 47 -9 19 -15 170 -6
184 6 10 81 -43 100 -70 7 -10 17 -52 23 -94 10 -83 36 -140 66 -146 22 -4 45
24 45 55 0 38 22 46 76 28 43 -15 51 -15 80 0 37 17 36 19 49 -59 5 -28 18
-51 46 -78 46 -45 50 -78 18 -145 -20 -41 -21 -50 -10 -108 10 -53 9 -70 -4
-100 -8 -20 -15 -54 -15 -76 0 -32 -7 -46 -33 -71 -24 -23 -40 -52 -55 -104
-26 -84 -27 -114 -7 -152 8 -16 24 -68 36 -115 23 -90 22 -90 116 -176 16 -14
34 -35 41 -45 11 -18 12 -14 8 25 -4 35 -12 51 -37 72 -55 46 -69 76 -69 150
0 39 -7 85 -16 108 -10 23 -13 51 -10 66 8 31 82 101 116 109 42 10 69 34 85
73 15 33 14 41 0 79 -15 39 -15 45 1 79 25 52 31 31 37 -129 4 -134 4 -139
-19 -166 -13 -16 -28 -39 -33 -52 -10 -26 -15 -119 -12 -189 3 -42 3 -43 11
-15 4 17 16 68 26 114 13 63 27 96 52 129 30 40 33 49 27 86 -13 87 -16 152
-7 176 l9 25 18 -35 c12 -23 17 -54 16 -95 -1 -33 -2 -139 -4 -235 -1 -105 -6
-183 -13 -195 -18 -32 -24 -94 -12 -123 11 -26 11 -26 24 26 7 30 15 56 17 59
10 10 24 -7 30 -34 7 -32 43 -93 55 -93 7 0 -33 136 -48 165 -3 6 -3 80 0 165
4 128 9 160 24 182 23 34 36 35 66 3 18 -19 25 -42 33 -112 11 -102 21 -135
55 -174 37 -44 45 -34 17 21 -21 42 -25 63 -25 143 0 52 -3 109 -6 126 -7 35
-50 83 -91 103 -21 10 -32 30 -53 93 -14 44 -36 95 -49 112 -17 23 -25 47 -26
81 -1 32 -11 66 -28 97 -15 26 -27 58 -27 70 0 12 -7 42 -15 65 -8 23 -15 46
-15 50 0 3 22 29 50 57 66 67 68 101 10 168 -45 52 -64 107 -80 236 -10 73 -9
91 3 115 26 50 61 76 98 72 30 -3 37 -9 61 -60 28 -58 47 -74 49 -40 2 27 17
-28 18 -65 1 -25 -8 -41 -38 -71 -23 -23 -43 -55 -49 -78 -10 -38 -2 -127 12
-141 13 -13 26 21 26 69 0 43 4 50 54 97 l53 52 6 122 c5 107 3 126 -13 154
-16 27 -16 32 -3 37 8 3 16 6 18 6 3 0 12 -56 34 -210 5 -41 8 -119 6 -173 -3
-60 0 -109 7 -125 11 -25 12 -23 18 35 5 46 14 69 33 93 31 36 34 70 10 106
-16 25 -23 118 -9 131 3 3 15 -2 25 -11 16 -14 29 -16 62 -11 34 6 41 5 37 -7
-3 -7 -11 -40 -17 -73 -7 -33 -18 -76 -25 -95 -7 -19 -11 -54 -9 -76 3 -26 -1
-53 -11 -73 -10 -18 -12 -31 -6 -31 22 0 48 65 65 163 9 56 26 117 36 135 10
18 20 52 21 75 1 23 4 -1 7 -53 5 -75 9 -95 21 -95 12 0 14 -14 11 -80 -10
-212 -7 -256 23 -330 28 -67 28 -74 22 -185 -3 -63 -2 -121 3 -129 7 -11 10
-10 14 5 29 104 33 169 28 472 -1 103 2 140 14 164 8 17 15 50 16 72 0 23 4
59 8 81 l7 40 12 -55 c24 -114 32 -190 35 -340 5 -198 17 -236 86 -274 27 -14
56 -26 64 -26 8 0 33 -20 55 -45 21 -24 59 -53 84 -64 25 -10 54 -32 66 -47
l21 -29 1 32 c0 23 -8 38 -31 57 -17 14 -36 26 -43 26 -7 0 -37 27 -65 60 -29
33 -69 69 -89 79 -59 31 -84 64 -85 113 -2 94 12 268 23 288 7 14 9 40 6 69
-20 143 -19 145 0 136 11 -4 41 -10 69 -14 45 -5 50 -9 59 -39 7 -25 5 -51 -8
-101 -18 -71 -18 -162 0 -168 7 -2 13 20 16 61 4 41 13 77 27 99 16 26 21 51
21 98 0 52 4 68 20 82 11 9 20 24 20 34 0 40 14 -2 21 -64 4 -38 14 -97 23
-133 8 -36 16 -92 16 -125 1 -51 2 -57 12 -40 17 29 18 212 2 253 -10 25 -11
46 -3 85 19 104 27 108 82 47 44 -50 86 -54 129 -13 l28 27 0 453 c0 249 -3
453 -8 453 -4 0 -24 -11 -44 -25 -67 -46 -70 -29 -17 99 16 39 27 71 25 73 -6
6 -66 -103 -87 -156 l-18 -46 0 35 c-1 48 32 190 62 272 29 80 18 80 -22 0
-27 -53 -47 -111 -70 -207 -10 -37 -10 -35 -5 20 12 140 48 280 115 450 50
125 42 129 -17 12 -50 -98 -88 -206 -115 -326 -25 -113 -30 -112 -44 7 -6 56
-4 65 29 133 20 40 34 74 32 76 -2 3 -19 -21 -37 -51 -19 -31 -37 -56 -40 -56
-4 0 -9 21 -13 46 -6 45 22 186 53 267 6 16 11 33 11 39 0 25 -16 -8 -51 -110
-28 -80 -40 -102 -44 -86 -4 12 -18 43 -31 70 -13 27 -22 40 -19 29 41 -139
40 -129 14 -235 -13 -55 -27 -96 -30 -92 -4 4 -21 60 -39 125 -28 108 -76 237
-65 177 3 -14 16 -83 30 -155 14 -71 28 -164 31 -205 l5 -75 -32 85 c-17 47
-46 108 -65 135 -44 66 -120 153 -147 166 -19 10 -19 8 4 -17 33 -36 108 -161
116 -193 3 -12 -1 -37 -9 -54 l-15 -32 -40 86 c-43 92 -99 179 -158 244 -34
38 -34 37 9 -29 25 -38 67 -110 92 -160 41 -79 44 -88 23 -73 -70 50 -231 118
-278 117 -9 -1 33 -26 92 -57 124 -63 227 -150 227 -189 0 -31 -7 -30 -40 4
-15 15 -47 38 -71 51 l-44 23 39 -40 c37 -38 38 -43 32 -86 -8 -50 -11 -53
-40 -31 -19 14 -19 16 -2 51 22 48 15 54 -10 9 -28 -53 -39 -38 -37 54 1 44 0
81 -2 81 -2 0 -9 -31 -15 -70 -6 -38 -13 -70 -15 -70 -1 0 -22 7 -45 15 -23 8
-52 15 -64 14 -14 0 -10 -4 15 -12 20 -7 48 -22 62 -33 l27 -22 -18 -41 c-9
-22 -20 -41 -24 -41 -5 0 -8 19 -9 43 0 23 -3 37 -5 30 -3 -7 -18 -9 -40 -6
-30 5 -36 3 -41 -16 -7 -29 -23 -27 -23 3 0 24 -23 56 -41 56 -12 0 -11 -11 6
-60 14 -40 14 -45 -2 -62 -16 -17 -18 -18 -29 -3 -10 14 -12 14 -18 0 -3 -8
-1 -15 4 -15 6 0 10 -9 10 -20 0 -33 -17 -23 -34 20 -10 25 -16 70 -16 120 0
74 2 80 20 80 27 0 97 47 103 69 5 19 -27 46 -43 36 -6 -4 -10 5 -10 19 0 34
-42 46 -70 21 -12 -11 -20 -13 -20 -7 0 18 -41 14 -56 -5 -27 -36 -13 -73 45
-113 16 -11 21 -24 20 -60 -1 -25 -4 -56 -8 -70 l-7 -25 -8 23 c-5 15 -18 25
-37 29 l-30 6 32 33 c18 19 29 34 23 34 -5 0 -31 -23 -57 -52 l-48 -53 6 42
c9 61 0 84 -33 80 -24 -3 -27 -8 -26 -43 0 -21 4 -48 9 -59 6 -16 6 -18 -6 -7
-14 13 -68 16 -85 4 -22 -15 -24 -42 -3 -63 20 -20 20 -22 4 -77 -16 -52 -18
-55 -31 -37 -8 10 -14 23 -14 29 0 5 -2 7 -5 4 -3 -3 2 -22 10 -42 26 -62 13
-77 -18 -22 l-27 49 25 79 c32 100 48 209 40 269 -6 43 -5 47 22 58 15 6 42
29 60 50 28 34 30 41 19 62 -7 15 -21 24 -37 25 -14 0 -35 10 -47 22 -12 12
-27 22 -33 22 -22 0 -49 -21 -49 -39 0 -14 -6 -17 -24 -14 -30 6 -52 -27 -37
-55 15 -27 64 -69 90 -77 24 -7 24 -8 18 -114 -5 -95 -28 -198 -56 -249 -5 -8
-18 20 -35 72 -16 47 -34 93 -41 103 -11 15 -9 20 15 34 21 13 28 27 33 60 7
54 -11 81 -39 58 -9 -7 -20 -22 -24 -34 -8 -17 -9 -17 -9 -2 -1 26 -41 37 -69
19 -12 -8 -20 -17 -17 -20 2 -3 -1 -12 -7 -20 -10 -12 -5 -20 25 -48 20 -19
37 -37 37 -40 0 -2 -18 -28 -39 -57 -22 -29 -48 -71 -58 -93 -12 -26 -24 -40
-34 -38 -11 1 -16 -6 -16 -22 -1 -24 -9 -41 -17 -33 -2 2 2 36 10 74 7 39 13
95 13 125 l-1 55 -26 -58 -27 -58 -24 52 c-21 47 -22 56 -11 93 7 23 23 63 37
89 13 27 22 51 20 54 -6 5 -44 -58 -78 -129 -20 -42 -25 -46 -38 -34 -17 16
-49 29 -93 40 -21 5 -28 3 -28 -8 0 -8 9 -18 20 -21 24 -7 24 -13 5 -39 -18
-23 -14 -26 -58 49 -35 59 -117 149 -117 128 0 -5 14 -28 31 -49 69 -87 111
-207 107 -311 -1 -40 -5 -73 -8 -73 -3 0 -17 46 -29 103 -25 107 -71 251 -78
243 -3 -2 1 -30 8 -61 12 -55 12 -57 -13 -82 l-26 -26 -26 40 c-26 39 -26 42
-12 84 19 53 13 63 -10 17 -9 -18 -18 -35 -20 -37 -3 -3 -23 13 -46 35 l-41
39 36 -51 c34 -48 36 -54 26 -85 -14 -40 -31 -63 -22 -29 4 16 3 21 -5 16 -6
-4 -16 -26 -22 -49 -6 -23 -18 -62 -28 -87 -9 -25 -16 -48 -17 -52 -1 -21 -15
-16 -21 8 -6 25 -1 62 21 144 4 17 -2 11 -21 -18 -14 -24 -28 -41 -30 -40 -1
2 8 45 22 97 35 134 29 152 -11 37 -19 -55 -37 -101 -39 -103 -2 -2 -11 8 -20
22 -16 25 -16 30 3 103 10 42 22 86 25 97 4 11 -9 -11 -28 -49 -18 -38 -40
-95 -47 -125 l-14 -56 -3 40 c-2 22 2 63 8 91 7 28 10 58 8 65 -7 19 -28 -58
-28 -103 0 -63 -14 -79 -20 -23 -3 28 -1 60 4 73 7 16 6 26 -1 30 -6 4 -10 24
-8 46 2 21 -1 43 -6 50 -5 6 -19 22 -30 36 l-21 25 5 -35 c5 -34 21 -104 34
-144 4 -15 2 -18 -13 -12 -18 6 -18 5 -1 -8 13 -10 17 -28 17 -85 0 -41 -4
-71 -10 -71 -5 0 -10 6 -10 13 0 6 -11 34 -25 61 -14 27 -25 54 -25 60 0 6
-10 22 -21 36 -18 23 -18 21 3 -22 24 -52 21 -66 -10 -49 -26 14 -62 14 -62 1
0 -5 -4 -10 -9 -10 -5 0 -17 35 -26 78 -17 76 -42 140 -31 77 34 -184 32 -262
-7 -281 l-23 -10 8 65 c5 36 14 81 19 99 17 52 5 47 -21 -8 -29 -61 -54 -68
-44 -12 4 20 13 52 21 70 14 35 12 38 -17 22 -14 -8 -30 -6 -56 5 -32 13 -35
18 -29 42 9 39 63 173 81 203 10 16 4 13 -16 -10 -17 -19 -47 -69 -66 -110
-71 -152 -118 -240 -126 -240 -27 0 31 169 73 215 5 5 9 13 9 18 0 10 -41 -38
-58 -68 -9 -16 -11 -17 -12 -4 0 24 45 176 69 232 11 26 16 45 10 41 -13 -8
-82 -153 -110 -229 -13 -38 -18 -44 -19 -25 -1 21 -6 17 -26 -25 -13 -27 -24
-56 -24 -62 0 -7 -4 -13 -10 -13 -15 0 -12 86 5 127 13 31 13 34 0 23 -12 -10
-15 -9 -15 6 0 16 37 189 55 258 3 12 -12 -15 -35 -59 -30 -60 -40 -74 -41
-55 -1 24 -4 13 -27 -105 -4 -22 -11 -40 -16 -40 -4 0 -16 20 -25 45 -19 51
-71 143 -77 137 -2 -2 7 -29 21 -60 13 -31 34 -87 46 -123 l21 -66 -24 -24
-24 -24 -29 67 c-35 82 -83 171 -98 180 -7 4 -8 0 -3 -13 41 -102 72 -212 65
-229 -5 -14 -8 -16 -9 -5 -1 8 -3 20 -5 25 -1 6 -3 22 -3 38 -1 15 -6 27 -11
27 -4 0 -6 -11 -3 -25 2 -14 0 -25 -6 -25 -16 0 -34 39 -28 58 4 9 -3 6 -13
-8 -17 -20 -23 -23 -38 -14 -48 30 -12 124 87 223 75 76 93 106 57 96 -20 -6
-87 -69 -87 -81 0 -3 -14 -25 -31 -49 -29 -40 -56 -61 -66 -51 -8 8 40 133 93
240 30 61 45 100 34 86 -26 -32 -97 -172 -140 -275 -19 -44 -39 -86 -45 -94
-5 -8 -11 -24 -12 -35 -4 -48 -28 -156 -34 -156 -18 0 -19 24 -4 73 9 28 20
60 26 70 5 9 5 17 1 17 -11 0 35 271 50 295 10 16 46 128 48 150 4 35 0 38
-18 14 -28 -36 -48 -96 -51 -148 -1 -11 -4 -11 -18 0 -15 12 -16 12 -9 -6 16
-40 15 -72 -9 -208 -25 -140 -39 -186 -48 -157 -13 40 -37 194 -43 270 -7 92
-40 223 -55 214 -5 -3 -7 -22 -3 -42 3 -20 8 -57 11 -82 3 -25 10 -48 14 -51
10 -6 39 -188 38 -234 0 -20 -7 -5 -20 44 -16 64 -61 161 -74 161 -2 0 2 -15
9 -32 25 -61 40 -163 28 -184 -11 -19 -11 -19 -12 1 0 17 -40 91 -40 75 0 -3
8 -35 19 -71 16 -58 17 -68 4 -93 -8 -15 -16 -26 -18 -24 -2 2 -8 32 -14 66
-6 35 -16 76 -24 92 -13 26 -13 32 10 72 l25 43 -32 -35 c-17 -19 -55 -86 -86
-147 -33 -68 -60 -113 -69 -113 -24 0 -17 31 20 93 19 32 35 60 35 63 0 6 -34
-29 -54 -57 l-17 -24 7 40 c5 32 39 143 71 235 2 8 -4 2 -14 -15 -34 -53 -93
-191 -113 -267 l-20 -73 5 65 c4 62 4 64 -10 35 -8 -16 -17 -45 -21 -62 -7
-39 -21 -43 -30 -9 -5 20 4 69 23 124 4 13 2 13 -9 -2 -14 -18 -15 -14 -6 40
8 50 16 91 43 209 3 11 -11 -11 -29 -50 -20 -40 -35 -61 -35 -50 -2 33 -21 -4
-21 -40 0 -16 -7 -50 -14 -75 l-14 -45 -12 30 c-26 68 -70 152 -87 168 -13 11
-9 -4 14 -51 18 -37 40 -98 50 -136 17 -64 17 -68 1 -80 -10 -7 -18 -19 -18
-27 0 -23 -16 3 -40 66 -25 64 -90 188 -96 183 -2 -2 12 -52 32 -111 19 -60
31 -113 27 -120 -4 -7 -12 3 -19 28 -9 28 -13 33 -13 17 -1 -33 -25 -22 -29
13 l-4 29 -18 -24 c-15 -20 -20 -22 -32 -9 -29 29 -29 51 -3 105 14 29 54 81
88 116 53 54 87 99 87 114 0 3 -10 -1 -22 -7 -27 -14 -66 -57 -110 -121 -18
-26 -43 -52 -56 -58 -23 -10 -23 -9 -17 22 9 38 84 212 120 277 15 25 18 38
10 31 -19 -15 -142 -265 -183 -371 -17 -42 -33 -101 -37 -133 -7 -50 -19 -76
-30 -64 -2 2 2 28 10 58 8 30 23 120 35 200 12 80 31 170 42 200 34 95 50 149
46 167 -5 29 -44 -43 -59 -110 -9 -41 -16 -56 -26 -53 -16 6 -17 -6 -2 -21 8
-8 5 -50 -11 -149 -20 -127 -44 -214 -55 -203 -6 7 -44 279 -44 319 0 40 -38
170 -50 170 -15 0 -1 -99 24 -175 15 -44 49 -294 42 -301 -3 -3 -8 16 -12 42
-10 71 -43 169 -64 196 -19 23 -19 23 -5 -32 17 -64 29 -160 21 -160 -3 0 -16
21 -28 46 -13 25 -27 48 -32 51 -5 3 -2 -8 7 -24 23 -46 29 -122 13 -168 l-14
-40 -8 80 c-4 44 -11 82 -15 85 -4 3 -14 19 -23 35 l-16 30 7 -35 c11 -57 9
-125 -5 -123 -9 2 -11 -9 -6 -42 4 -32 2 -45 -6 -45 -8 0 -10 8 -6 21 6 19 4
21 -15 16 -20 -5 -22 -3 -16 25 5 23 3 29 -8 25 -21 -8 -27 30 -16 99 14 84
11 120 -5 56 -20 -85 -30 -84 -60 10 -32 101 -67 178 -76 172 -4 -2 -10 4 -14
15 -3 10 -15 27 -27 37 -12 11 -19 15 -16 9 14 -29 48 -105 48 -110 0 -3 -7
-5 -15 -5 -21 0 -19 -8 11 -33 28 -24 54 -111 54 -182 l0 -40 -20 30 c-11 17
-20 47 -20 68 0 37 -19 45 -20 9 -1 -9 -7 -30 -16 -47 l-14 -30 5 35 c5 32 4
33 -9 15 -12 -16 -15 -17 -19 -5 -2 8 -15 48 -28 88 -18 57 -21 75 -11 81 19
11 23 51 7 67 -17 17 -24 17 -58 2 -28 -14 -36 -45 -16 -65 8 -8 3 -18 -18
-38 -28 -27 -14 -25 19 3 22 19 36 8 60 -45 l20 -45 -28 -29 c-16 -16 -35 -27
-42 -24 -9 3 -12 0 -9 -9 3 -8 -1 -22 -8 -33 -13 -17 -14 -16 -14 12 0 19 11
43 29 65 44 50 37 60 -10 15 -39 -38 -40 -38 -41 -15 -1 19 -3 17 -9 -10 -7
-33 -8 -34 -15 -11 l-8 23 -14 -28 -13 -29 5 29 c3 15 14 47 25 70 10 22 21
52 25 66 6 23 3 22 -24 -10 -17 -19 -36 -47 -43 -62 -15 -33 -28 -18 -28 32 0
45 20 87 118 248 44 72 77 132 73 132 -15 0 -119 -116 -156 -174 -33 -52 -90
-168 -124 -250 -9 -22 -15 -26 -21 -17 -4 8 -13 10 -19 7 -17 -11 -14 18 14
130 28 119 83 260 131 340 19 31 33 59 30 61 -2 2 -25 -24 -51 -59 -65 -86
-138 -242 -170 -363 -42 -161 -45 -167 -39 -100 5 55 21 146 39 220 14 58 -15
11 -50 -81 -33 -85 -34 -87 -35 -48 0 61 37 327 59 419 11 44 18 81 17 83 -6
5 -45 -102 -65 -178 -11 -41 -23 -104 -27 -140 -4 -36 -9 -69 -12 -74 -2 -4
-14 29 -26 75 -33 123 -72 187 -46 74 24 -104 50 -326 41 -343 -8 -13 -10 -6
-11 31 0 30 -4 46 -10 42 -9 -6 -11 0 -15 45 0 8 -3 20 -7 25 -3 6 -13 35 -23
65 -19 61 -102 225 -121 241 -7 6 8 -39 32 -100 l45 -110 -25 -40 c-37 -59
-76 -160 -83 -215 l-6 -49 -15 28 c-10 21 -13 45 -8 89 5 52 4 59 -8 43 -12
-16 -14 -15 -19 12 -4 16 -2 43 3 60 9 34 -5 44 -15 11 -3 -11 -10 -20 -14
-20 -8 0 -31 59 -31 78 0 7 -9 21 -20 32 -11 11 -20 28 -20 38 0 11 -5 8 -15
-12 -14 -27 -14 -30 15 -63 37 -41 38 -53 4 -53 -34 0 -26 -24 9 -28 30 -4 50
-32 41 -56 -7 -19 -15 -20 -49 -4 -23 10 -28 10 -37 -6 -10 -18 -11 -18 -25 5
-12 22 -13 20 -7 -25 10 -76 10 -77 -13 -93 -23 -15 -23 -15 -23 38 1 30 7 72
15 94 18 49 10 60 -9 14 l-15 -34 -1 63 c0 86 -17 78 -23 -10 -3 -40 -12 -104
-20 -143 l-15 -70 -1 56 c-1 32 4 61 12 68 10 11 10 14 0 18 -7 3 -13 21 -13
41 0 48 -26 167 -40 189 -10 16 -11 16 -5 -2 19 -60 33 -204 23 -248 -13 -62
-28 -60 -28 4 0 31 -4 48 -10 44 -5 -3 -10 -15 -10 -26 0 -10 -4 -19 -10 -19
-5 0 -10 7 -10 15 0 18 -48 136 -60 149 -5 5 -2 -12 5 -39 16 -52 9 -77 -27
-96 -20 -11 -20 -10 -16 51 4 54 3 60 -9 44 -7 -10 -13 -22 -13 -27 0 -20 -18
5 -24 34 -3 18 -9 30 -11 27 -3 -3 -1 -26 5 -51 12 -54 3 -129 -17 -154 -15
-19 -15 -20 2 82 5 30 5 30 -12 -5 l-16 -35 -13 45 -12 45 -1 -41 c-1 -23 -8
-57 -16 -75 l-14 -34 -1 46 c0 55 -45 129 -100 167 -38 25 -55 24 -55 -3 0
-16 -8 -19 -48 -20 -42 0 -45 2 -30 14 17 13 17 13 -2 6 -11 -4 -25 -9 -31
-12 -7 -2 -17 8 -23 24 l-11 28 5 -27 c5 -27 4 -28 -43 -28 -49 0 -82 -20 -82
-48 0 -7 -4 -12 -10 -12 -5 0 -10 6 -10 13 0 7 -13 28 -30 47 l-29 35 26 -50
c19 -37 24 -58 19 -78 l-7 -28 -28 27 c-28 26 -29 28 -13 53 l16 26 -25 -22
c-29 -26 -46 -28 -71 -9 -24 17 -23 26 7 70 13 20 20 36 14 36 -5 0 -30 -32
-55 -71 -34 -52 -49 -68 -55 -58 -15 25 -10 58 26 148 19 48 35 92 35 97 0 16
-40 -48 -76 -121 -19 -38 -34 -65 -35 -60 0 6 -6 -8 -14 -30 l-13 -40 -2 35
c-1 19 -6 46 -10 60 -8 25 -8 25 -9 -4 l-1 -29 -21 27 c-11 14 -26 26 -34 26
-7 0 -18 6 -24 14 -14 16 -70 8 -120 -18 -27 -15 -38 -16 -62 -6 -16 7 -34 10
-41 7 -21 -7 -58 11 -58 29 0 13 -3 14 -15 4 -12 -10 -22 -9 -52 3 -42 16
-120 10 -148 -13 -24 -20 -29 -4 -17 52 17 71 7 72 -13 1 -9 -32 -18 -65 -21
-75 -3 -9 -11 -21 -18 -27 -11 -9 -15 2 -21 64 -4 41 -11 75 -16 75 -5 0 -9
-6 -9 -12 0 -7 -11 -35 -24 -63 l-24 -50 -1 40 c-1 26 -4 35 -10 27 -15 -24
-36 44 -22 74 22 50 -10 12 -53 -63 l-45 -75 -7 37 c-5 28 0 56 18 109 14 39
28 80 32 91 4 11 -9 -9 -28 -45 -20 -36 -43 -89 -52 -118 -9 -30 -18 -51 -21
-48 -6 6 34 139 54 181 9 18 10 25 3 19 -6 -7 -23 -34 -37 -60 -13 -27 -22
-40 -18 -29 18 56 50 223 41 215 -3 -4 -21 -60 -39 -125 l-34 -119 -7 50 c-11
84 -21 76 -17 -14 1 -48 1 -85 -2 -82 -3 3 -11 36 -17 73 -10 66 -58 232 -65
225 -1 -1 5 -36 16 -76 10 -40 21 -107 24 -150 l5 -77 -21 58 c-12 32 -22 57
-24 55 -2 -2 5 -34 15 -73 11 -38 19 -90 19 -115 -1 -41 -2 -38 -19 35 -19 86
-45 157 -84 233 -35 67 -62 97 -31 34 14 -29 30 -65 36 -80 9 -26 9 -26 -7 -7
l-17 20 8 -20 c39 -101 58 -179 34 -145 -7 11 -8 5 -3 -22 3 -21 4 -38 1 -38
-3 0 -22 29 -42 64 -20 35 -42 69 -50 76 -8 6 -1 -12 15 -42 16 -29 30 -58 30
-64 0 -6 -15 -10 -34 -10 -31 1 -36 6 -70 71 -20 39 -48 84 -61 100 -20 24
-16 10 20 -67 46 -100 52 -118 36 -118 -11 0 -25 30 -22 50 1 11 -3 10 -14 -4
-8 -11 -15 -25 -15 -30 -1 -6 -7 0 -15 14 -14 25 -14 25 -9 -10 4 -26 3 -31
-5 -20 -6 8 -11 27 -11 42 0 38 -10 58 -25 52 -10 -4 -11 -12 -4 -31 14 -39 9
-62 -6 -28 -13 27 -14 28 -15 7 0 -16 -4 -21 -12 -15 -7 4 -26 6 -42 4 l-28
-3 27 36 c15 20 30 36 34 36 3 0 11 11 17 24 10 22 9 25 -13 31 -15 3 -23 12
-21 23 2 11 -3 17 -14 16 -10 -1 -18 2 -18 7 0 5 -7 9 -15 9 -16 0 -38 -45
-32 -64 2 -6 -14 -33 -35 -59 -21 -27 -38 -53 -38 -58 0 -5 -6 -9 -14 -9 -7 0
-19 -7 -27 -16 -11 -14 -14 -10 -26 28 -18 61 -16 81 14 177 l26 86 7 -39 c12
-64 41 -72 89 -22 40 41 36 74 -10 83 l-30 6 21 21 c40 43 20 73 -51 78 l-44
3 0 -36 c0 -35 0 -35 -26 -20 -40 23 -57 10 -57 -43 0 -51 21 -73 60 -60 16 5
20 3 15 -9 -10 -26 -45 -151 -53 -187 -6 -29 -8 -32 -14 -15 -6 17 -8 15 -14
-10 -4 -17 -13 -36 -19 -44 -10 -11 -13 -9 -18 10 -6 23 -7 22 -14 -9 -10 -43
-22 -49 -18 -9 l3 32 -11 -27 c-17 -45 -27 -32 -23 30 l3 57 -14 -40 c-9 -22
-13 -45 -10 -53 2 -7 1 -10 -4 -7 -5 3 -12 -4 -16 -15 -9 -29 -24 -25 -39 10
-7 17 -15 27 -19 23 -11 -10 -8 43 4 93 8 31 16 44 25 40 8 -3 20 6 29 24 16
30 11 60 -9 60 -28 0 -44 -27 -50 -84 -10 -89 -19 -96 -40 -29 -10 32 -27 75
-38 96 l-19 38 22 -11 c27 -15 48 3 54 46 6 46 -8 61 -43 48 -27 -10 -28 -10
-24 12 5 30 -14 38 -59 27 -40 -11 -50 -44 -23 -74 16 -18 16 -19 -5 -19 -50
0 -86 -51 -46 -66 8 -4 15 -15 15 -25 0 -10 6 -19 13 -19 7 0 18 -5 24 -11 13
-13 -2 -101 -27 -149 -23 -42 -26 -24 -5 27 20 47 12 55 -11 11 -9 -18 -19
-28 -20 -23 -2 6 -8 30 -14 54 -15 56 -22 49 -9 -9 11 -47 5 -90 -11 -90 -6 0
-10 7 -10 15 0 9 -6 12 -16 8 -14 -5 -16 0 -13 35 3 22 1 39 -2 36 -8 -4 -19
46 -20 90 0 25 -2 27 -8 11 -7 -18 -11 -15 -30 23 -30 60 -33 52 -5 -15 32
-78 34 -192 4 -211 -18 -11 -20 -10 -20 18 0 16 -4 30 -9 30 -11 0 -36 61 -33
80 1 8 -3 5 -11 -8 -12 -21 -14 -21 -30 -5 -17 17 -18 17 -9 -6 5 -13 6 -35 4
-49 -5 -25 -5 -25 -23 9 -17 33 -17 35 3 69 l20 35 -31 -35 c-17 -19 -31 -38
-31 -42 0 -5 -4 -8 -10 -8 -10 0 -6 29 15 115 12 48 12 49 -4 26 -9 -13 -23
-48 -31 -79 -12 -43 -24 -62 -57 -89 l-42 -34 13 48 c7 26 25 71 39 100 15 29
27 56 27 60 -1 15 -70 -112 -76 -139 -8 -40 -24 -34 -24 9 0 20 -3 33 -7 30
-11 -12 -33 15 -34 42 -2 23 -2 24 -6 4 -2 -13 -9 -23 -15 -23 -6 0 -8 8 -5
18 3 9 12 38 21 65 8 26 13 47 11 47 -3 0 -16 -25 -30 -55 -23 -48 -30 -55
-56 -55 -34 0 -35 4 -10 70 11 27 17 50 15 50 -2 0 -18 -28 -35 -62 -35 -70
-51 -86 -61 -60 -5 14 -7 13 -7 -4 -1 -25 -36 -72 -46 -63 -3 4 1 33 9 64 18
70 5 61 -19 -12 -9 -29 -21 -53 -27 -53 -12 0 -10 7 31 119 17 47 29 82 26 79
-3 -3 -25 -45 -49 -94 -39 -79 -44 -84 -39 -49 4 36 31 149 48 200 l7 20 -13
-20 c-7 -11 -32 -78 -56 -150 -43 -129 -45 -129 -28 5 l6 45 -24 -60 c-24 -59
-25 -59 -32 -30 -3 17 -15 57 -25 90 l-19 60 6 -52 c4 -42 0 -62 -21 -109
l-27 -59 -52 121 c-46 104 -87 181 -87 163 0 -4 14 -37 31 -74 31 -70 33 -96
3 -51 -27 43 -26 23 2 -27 22 -40 49 -154 39 -165 -2 -2 -31 51 -65 118 -34
67 -64 119 -66 117 -3 -2 11 -35 30 -73 37 -75 67 -165 65 -198 -1 -12 -6 -1
-11 24 -13 59 -28 74 -29 29 l0 -34 -19 45 c-10 25 -19 59 -20 75 -1 28 -2 29
-10 7 -6 -13 -6 -32 0 -48 14 -35 12 -44 -6 -37 -11 4 -14 13 -10 29 4 16 2
23 -5 22 -7 -2 -17 12 -22 30 -12 40 -23 41 -32 1 -4 -18 -10 -27 -14 -21 -4
7 -12 -9 -19 -33 -7 -25 -16 -45 -22 -45 -5 0 -7 7 -4 15 4 8 2 15 -4 15 -6 0
-9 25 -7 62 4 71 -11 61 -21 -14 -4 -26 -10 -45 -15 -42 -5 3 -9 -3 -9 -12 0
-10 -3 -15 -6 -11 -9 9 34 143 67 209 16 32 29 61 29 65 0 19 -77 -109 -106
-175 -17 -40 -34 -75 -37 -78 -2 -3 -7 19 -11 47 -4 29 -14 68 -22 88 -10 24
-13 51 -9 81 8 57 -8 37 -31 -40 -9 -30 -26 -75 -38 -100 -13 -25 -27 -58 -31
-75 -4 -16 -10 -24 -12 -17 -3 7 5 40 17 73 13 33 21 62 18 64 -2 3 -13 -19
-23 -48 l-19 -52 -13 45 c-8 25 -11 54 -9 65 5 20 5 20 -9 1 -8 -11 -15 -26
-15 -33 0 -18 -5 -17 -51 17 -69 50 -138 49 -195 -2 -26 -23 -32 -23 -37 5 -4
19 -4 18 -6 -5 0 -16 -4 -28 -7 -28 -3 0 -30 15 -60 33 -50 30 -53 34 -54 72
0 72 -50 125 -107 113 -13 -3 -7 -10 25 -26 40 -21 42 -25 42 -66 0 -42 -2
-45 -35 -56 -20 -7 -41 -23 -49 -37 l-13 -26 -31 54 c-18 30 -41 65 -53 79
-24 29 -17 14 23 -49 15 -25 28 -53 28 -62 0 -15 -4 -16 -32 -6 -18 7 -39 19
-46 27 -11 13 -11 13 -6 -1 3 -11 -2 -18 -18 -23 -45 -12 -49 -8 -43 37 l5 42
-14 -41 c-23 -68 -37 -89 -47 -73 -6 10 -9 7 -9 -11 -1 -46 -16 -55 -30 -18
l-12 33 -9 -32 c-11 -37 -29 -53 -30 -26 0 17 -1 17 -8 0 -6 -17 -8 -17 -18 6
-10 21 -9 28 8 43 20 18 24 40 13 69 -6 14 -9 13 -22 -6 -14 -20 -16 -21 -28
-5 -11 16 -13 16 -27 -4 -15 -22 -15 -22 -20 7 -3 15 -9 48 -12 73 -4 25 -9
53 -12 64 -3 12 -1 16 6 12 15 -10 14 7 -1 23 -7 8 -1 6 13 -3 29 -18 45 -11
26 12 -10 13 -9 15 6 9 20 -7 22 3 5 22 -7 7 -8 12 -3 11 21 -5 36 0 30 10 -3
6 -18 10 -33 11 -25 0 -26 1 -6 9 12 5 25 13 28 19 10 16 -12 23 -34 11 -23
-12 -25 -7 -10 21 14 25 -14 27 -29 2 -9 -16 -10 -16 -11 5 0 12 -5 22 -10 22
-6 0 -15 -10 -19 -22z m2808 -373 c11 -29 22 -69 26 -91 l6 -39 -21 45 c-12
25 -34 59 -50 75 -28 29 -29 33 -18 63 12 30 14 31 25 15 7 -9 22 -40 32 -68z
m-2792 60 c35 -15 36 -15 31 -66 -3 -27 -11 -56 -18 -62 -10 -10 -11 -5 -7 23
l6 35 -15 -27 c-8 -16 -17 -28 -20 -28 -2 0 -2 12 1 28 l6 27 -16 -25 -16 -25
3 37 c2 20 0 34 -4 32 -10 -6 -11 50 -1 59 9 9 8 9 50 -8z m1198 -81 c4 -47 2
-63 -4 -49 -9 19 -10 18 -11 -5 -1 -23 -2 -23 -11 -7 -7 12 -8 44 -4 89 9 85
22 73 30 -28z m-1315 -47 c0 -43 -2 -47 -15 -33 -8 8 -15 20 -15 27 0 7 -6 4
-15 -7 -14 -18 -14 -18 -15 6 0 13 8 44 17 69 l17 45 13 -30 c6 -16 12 -51 13
-77z m-1801 10 l-1 -72 -18 59 c-14 45 -16 63 -7 77 19 30 27 11 26 -64z
m2273 71 c9 0 20 -8 24 -20 7 -22 -12 -49 -24 -33 -4 6 -20 12 -37 14 -37 4
-38 5 -30 31 5 16 11 19 28 14 12 -4 30 -7 39 -6z m236 -15 c2 -13 -1 -23 -7
-23 -6 0 -11 -9 -11 -20 0 -25 -5 -25 -32 -1 -30 29 -18 73 20 69 19 -2 28 -9
30 -25z m449 5 c-3 -8 -6 -5 -6 6 -1 11 2 17 5 13 3 -3 4 -12 1 -19z m-613 -4
c20 -8 21 -28 2 -43 -11 -9 -16 -6 -24 19 -11 30 -7 35 22 24z m210 -7 c14
-10 16 -21 10 -56 -6 -40 -8 -42 -21 -26 -10 14 -13 15 -14 4 -1 -8 -5 1 -9
19 -8 34 -3 72 9 72 4 0 15 -6 25 -13z m1083 -9 c-3 -8 -6 -5 -6 6 -1 11 2 17
5 13 3 -3 4 -12 1 -19z m-2671 -42 c-8 -52 -23 -69 -24 -28 -1 29 18 86 26 78
2 -3 1 -25 -2 -50z m641 22 c-3 -7 -5 -2 -5 12 0 14 2 19 5 13 2 -7 2 -19 0
-25z m250 10 c-3 -8 -6 -5 -6 6 -1 11 2 17 5 13 3 -3 4 -12 1 -19z m-1635 -79
l-8 -34 -11 31 c-8 24 -7 38 5 65 l16 34 4 -31 c2 -18 -1 -47 -6 -65z m218 24
c0 -7 -4 -13 -10 -13 -13 0 -30 34 -30 62 0 22 1 21 20 -7 11 -16 20 -36 20
-42z m2330 46 c0 -18 -2 -19 -15 -9 -15 12 -12 30 6 30 5 0 9 -10 9 -21z m30
1 c0 -11 -4 -20 -10 -20 -5 0 -10 9 -10 20 0 11 5 20 10 20 6 0 10 -9 10 -20z
m-2660 -42 c0 -25 -16 -22 -24 5 -11 41 -7 54 9 33 8 -11 15 -28 15 -38z m345
33 c-3 -11 3 -33 15 -53 11 -18 20 -42 19 -53 0 -13 -6 -5 -16 20 -10 22 -23
46 -30 53 -15 16 -18 46 -3 37 6 -3 10 -1 10 4 0 6 3 11 6 11 3 0 3 -9 -1 -19z
m1522 -3 c-3 -8 -6 -5 -6 6 -1 11 2 17 5 13 3 -3 4 -12 1 -19z m2653 -27 c0
-3 -11 -24 -25 -46 -27 -44 -30 -36 -18 50 l6 48 19 -22 c10 -13 18 -26 18
-30z m548 37 c8 -8 15 -8 27 2 21 17 19 4 -6 -36 -11 -19 -28 -34 -37 -35 -9
0 -27 -2 -39 -5 -29 -5 -29 2 3 48 29 41 34 44 52 26z m-2578 -23 c0 -7 -7
-16 -16 -19 -14 -5 -15 -4 -4 9 8 10 9 15 1 15 -6 0 -11 4 -11 10 0 5 7 7 15
4 8 -4 15 -12 15 -19z m187 -27 c-2 -13 -4 -5 -4 17 -1 22 1 32 4 23 2 -10 2
-28 0 -40z m521 -18 c0 -32 -1 -33 -8 -10 -4 14 -8 39 -8 55 -1 25 1 27 8 10
5 -11 8 -36 8 -55z m-1829 10 c0 -23 -1 -23 -9 -5 -5 11 -9 29 -9 40 -1 17 1
17 9 5 5 -8 9 -26 9 -40z m67 4 c-11 -30 -15 -33 -15 -16 -1 24 17 67 25 59 2
-2 -2 -21 -10 -43z m648 30 c7 -18 -1 -37 -13 -29 -5 2 -11 14 -14 25 -6 24
18 28 27 4z m1413 -31 c-3 -10 -5 -2 -5 17 0 19 2 27 5 18 2 -10 2 -26 0 -35z
m-3682 -66 c4 -60 3 -65 -5 -32 -5 22 -9 56 -10 75 0 26 -3 31 -10 20 -11 -17
-13 0 -4 25 12 30 25 -9 29 -88z m392 66 c-3 -10 -5 -4 -5 12 0 17 2 24 5 18
2 -7 2 -21 0 -30z m357 21 c3 -8 2 -12 -4 -9 -6 3 -10 10 -10 16 0 14 7 11 14
-7z m5234 -11 c7 -21 4 -39 -10 -71 -10 -24 -18 -50 -18 -57 0 -30 -19 -23
-26 9 -6 36 21 146 37 146 4 0 12 -12 17 -27z m-5351 -5 c-3 -8 -6 -5 -6 6 -1
11 2 17 5 13 3 -3 4 -12 1 -19z m520 0 c-3 -8 -6 -5 -6 6 -1 11 2 17 5 13 3
-3 4 -12 1 -19z m303 -22 c0 -5 -7 -1 -15 10 -8 10 -14 24 -14 29 0 6 6 1 14
-9 8 -11 15 -24 15 -30z m1387 22 c-3 -8 -6 -5 -6 6 -1 11 2 17 5 13 3 -3 4
-12 1 -19z m808 -26 c-6 -23 -8 -24 -16 -10 -7 12 -5 24 3 38 16 24 23 9 13
-28z m2423 -7 c-1 -30 -5 -60 -10 -67 -5 -8 -6 -1 -3 17 l6 30 -16 -27 c-16
-29 -27 -37 -20 -15 28 91 37 117 40 117 3 0 4 -25 3 -55z m-5919 -13 c-3 -93
-17 -112 -18 -24 -1 53 3 81 9 77 6 -3 9 -27 9 -53z m1234 43 c4 -8 2 -17 -3
-20 -6 -4 -10 3 -10 14 0 25 6 27 13 6z m-268 -5 c3 -5 1 -10 -4 -10 -6 0 -11
5 -11 10 0 6 2 10 4 10 3 0 8 -4 11 -10z m2940 -6 c29 -12 34 -18 25 -28 -14
-18 -47 -9 -65 17 l-15 21 0 -22 c0 -17 -6 -22 -26 -22 -18 0 -25 4 -21 14 10
24 -29 25 -87 1 -31 -13 -56 -19 -56 -15 0 12 33 38 55 42 49 11 156 7 190 -8z
m1012 -61 c-2 -16 -4 -3 -4 27 0 30 2 43 4 28 2 -16 2 -40 0 -55z m-5439 23
c32 -35 39 -49 34 -68 -5 -18 -7 -19 -10 -5 -2 9 -8 17 -14 17 -5 0 -7 -8 -4
-17 6 -16 6 -16 -12 0 -19 18 -37 23 -28 9 3 -5 -3 -20 -12 -34 -16 -24 -19
-25 -37 -12 -17 13 -18 18 -6 66 15 60 28 88 40 88 5 0 27 -20 49 -44z m1079
7 c-3 -10 -5 -4 -5 12 0 17 2 24 5 18 2 -7 2 -21 0 -30z m1744 28 c6 10 9 8 9
-8 0 -16 -4 -21 -15 -17 -8 4 -15 14 -14 23 0 12 2 12 6 2 5 -11 7 -11 14 0z
m-1601 -46 c0 -25 -4 -45 -10 -45 -11 0 -14 49 -4 74 10 26 14 18 14 -29z
m190 -28 c-7 -17 -9 -10 -9 28 1 43 2 46 9 22 5 -16 5 -38 0 -50z m265 16
c-16 -27 -16 -27 -11 -3 3 14 6 34 6 45 1 18 1 18 11 3 7 -13 5 -25 -6 -45z
m1438 14 c-13 -24 -18 -28 -21 -15 -4 22 16 60 28 53 6 -4 3 -20 -7 -38z m164
11 c-3 -7 -5 -2 -5 12 0 14 2 19 5 13 2 -7 2 -19 0 -25z m1354 5 c-12 -20 -14
-14 -5 12 4 9 9 14 11 11 3 -2 0 -13 -6 -23z m129 -3 c0 -16 -4 -30 -10 -30
-5 0 -10 14 -10 30 0 17 5 30 10 30 6 0 10 -13 10 -30z m343 10 c3 -10 -1 -24
-9 -31 -8 -6 -14 -8 -15 -3 0 5 -9 -9 -19 -31 -12 -27 -19 -33 -19 -20 -1 26
35 105 47 105 5 0 12 -9 15 -20z m-4513 -43 c0 -16 -4 -26 -10 -22 -5 3 -10
23 -10 43 0 28 3 33 10 22 5 -8 10 -28 10 -43z m167 31 c-3 -8 -6 -5 -6 6 -1
11 2 17 5 13 3 -3 4 -12 1 -19z m53 2 c0 -11 -2 -20 -4 -20 -2 0 -6 9 -9 20
-3 11 -1 20 4 20 5 0 9 -9 9 -20z m777 -17 c-3 -10 -5 -4 -5 12 0 17 2 24 5
18 2 -7 2 -21 0 -30z m2576 22 c-3 -9 -8 -14 -10 -11 -3 3 -2 9 2 15 9 16 15
13 8 -4z m140 1 c7 -16 -22 -26 -73 -25 l-35 1 40 19 c48 22 61 23 68 5z m367
-32 c0 -25 -4 -43 -9 -40 -5 4 -8 21 -7 39 4 42 5 47 11 47 3 0 5 -21 5 -46z
m727 24 c-3 -8 -6 -5 -6 6 -1 11 2 17 5 13 3 -3 4 -12 1 -19z m646 -58 c4 -22
3 -29 -2 -20 -5 8 -11 35 -15 60 -6 50 6 21 17 -40z m-6618 -16 l5 -29 -14 31
c-8 17 -17 44 -21 60 l-5 29 14 -31 c8 -17 17 -44 21 -60z m364 23 c1 -16 -3
-26 -9 -22 -5 3 -10 25 -9 48 0 33 2 38 9 22 5 -11 9 -33 9 -48z m528 11 c-2
-13 -4 -5 -4 17 -1 22 1 32 4 23 2 -10 2 -28 0 -40z m1193 19 c0 -5 -4 -5 -10
-2 -5 3 -10 14 -10 23 0 15 2 15 10 2 5 -8 10 -19 10 -23z m227 1 c-3 -8 -6
-5 -6 6 -1 11 2 17 5 13 3 -3 4 -12 1 -19z m2373 -16 c0 -6 -6 -12 -14 -15 -9
-4 -13 4 -14 24 -1 25 1 27 14 15 8 -8 14 -19 14 -24z m1720 24 c0 -8 -4 -18
-10 -21 -5 -3 -10 3 -10 14 0 12 5 21 10 21 6 0 10 -6 10 -14z m401 -46 c-9
-23 -10 -23 -10 11 -1 20 2 39 7 43 11 12 14 -27 3 -54z m-5598 30 c3 -11 2
-20 -3 -20 -4 0 -10 9 -13 20 -3 11 -2 20 3 20 4 0 10 -9 13 -20z m3435 -5 c0
-14 -4 -28 -9 -30 -6 -4 -6 39 0 53 4 9 9 -2 9 -23z m68 -2 c-10 -10 -19 5
-10 18 6 11 8 11 12 0 2 -7 1 -15 -2 -18z m1456 -5 c-12 -13 -22 -17 -22 -11
0 15 31 46 38 38 3 -3 -4 -15 -16 -27z m770 10 c-7 -7 -12 -8 -12 -2 0 14 12
26 19 19 2 -3 -1 -11 -7 -17z m2316 -30 c9 -49 8 -56 -19 -108 l-30 -55 6 40
c4 22 8 51 11 65 l4 25 -11 -25 c-6 -14 -22 -54 -35 -89 -28 -77 -47 -102 -38
-51 13 74 79 250 94 250 4 0 12 -24 18 -52z m-3501 20 c-3 -8 -6 -5 -6 6 -1
11 2 17 5 13 3 -3 4 -12 1 -19z m335 -3 c-2 -14 -8 -25 -13 -25 -5 0 -9 11 -9
25 0 14 6 25 14 25 9 0 12 -8 8 -25z m38 15 c0 -5 -5 -10 -11 -10 -5 0 -7 5
-4 10 3 6 8 10 11 10 2 0 4 -4 4 -10z m1094 0 c17 -6 24 -14 20 -25 -3 -8 -11
-12 -17 -8 -7 4 -8 0 -4 -11 5 -13 3 -17 -7 -13 -8 3 -17 3 -20 -1 -4 -3 -15
-6 -26 -7 -16 -1 -20 5 -20 31 0 26 5 34 23 37 12 2 23 5 24 6 1 0 13 -3 27
-9z m-6549 -31 c9 -17 15 -33 13 -35 -3 -2 -12 12 -21 31 -21 43 -13 47 8 4z
m2938 11 c-3 -12 -8 -19 -11 -16 -5 6 5 36 12 36 2 0 2 -9 -1 -20z m1202 4
c-11 -8 -28 -21 -38 -30 -18 -14 -18 -14 -12 8 6 19 5 21 -6 11 -18 -17 -30
-16 -23 1 6 15 29 22 74 24 24 1 25 1 5 -14z m462 -6 c-3 -8 -6 -5 -6 6 -1 11
2 17 5 13 3 -3 4 -12 1 -19z m314 -9 c-5 -13 -10 -19 -10 -12 -1 15 10 45 15
40 3 -2 0 -15 -5 -28z m83 -1 c-8 -27 -12 -33 -19 -27 -7 8 7 49 17 49 5 0 6
-10 2 -22z m-5004 -63 c0 -17 -2 -17 -17 5 -17 24 -19 32 -13 63 2 17 29 -43
30 -68z m1420 65 c0 -5 -2 -10 -4 -10 -3 0 -8 5 -11 10 -3 6 -1 10 4 10 6 0
11 -4 11 -10z m4160 3 c-1 -13 -40 -56 -45 -51 -3 3 4 17 16 31 21 27 29 33
29 20z m882 -15 c-7 -7 -12 -8 -12 -2 0 14 12 26 19 19 2 -3 -1 -11 -7 -17z
m173 12 c-4 -6 -11 -8 -16 -5 -5 4 -9 1 -9 -4 0 -6 -4 -11 -10 -11 -5 0 -7 7
-4 15 4 8 15 15 26 15 10 0 16 -5 13 -10z m-7215 -21 c0 -5 -4 -9 -10 -9 -5 0
-10 7 -10 16 0 8 5 12 10 9 6 -3 10 -10 10 -16z m5387 -1 c-3 -8 -6 -5 -6 6
-1 11 2 17 5 13 3 -3 4 -12 1 -19z m2888 7 c34 -15 19 -20 -19 -5 -17 6 -26 6
-26 0 0 -6 -7 -10 -16 -10 -8 0 -12 5 -9 10 3 6 2 10 -4 10 -5 0 -13 -4 -16
-10 -3 -5 -12 -10 -18 -10 -7 0 -6 4 3 11 15 9 -37 5 -82 -8 -26 -7 -22 6 5
17 34 14 148 11 182 -5z m-7598 -42 c-3 -10 -5 -2 -5 17 0 19 2 27 5 18 2 -10
2 -26 0 -35z m1149 5 c3 -26 2 -29 -5 -13 -11 22 -14 62 -5 53 3 -4 7 -21 10
-40z m5069 12 c-4 -12 -9 -19 -12 -17 -3 3 -2 15 2 27 4 12 9 19 12 17 3 -3 2
-15 -2 -27z m-5868 -2 c-3 -8 -6 -5 -6 6 -1 11 2 17 5 13 3 -3 4 -12 1 -19z
m6453 7 c7 -8 9 -23 5 -32 -7 -17 -8 -16 -15 2 -8 20 -9 20 -9 0 -1 -18 -2
-18 -18 -3 -13 14 -14 20 -3 32 16 20 24 20 40 1z m-1250 -11 c0 -8 -4 -12
-10 -9 -5 3 -10 10 -10 16 0 5 5 9 10 9 6 0 10 -7 10 -16z m1900 6 c0 -5 -12
-10 -27 -10 -16 -1 -53 -9 -83 -20 -30 -10 -57 -17 -59 -15 -2 3 2 7 10 10
121 45 159 54 159 35z m-12393 -6 c-3 -3 -12 -4 -19 -1 -8 3 -5 6 6 6 11 1 17
-2 13 -5z m4757 -9 c7 -19 -7 -57 -28 -74 -14 -12 -16 -10 -16 18 0 54 30 92
44 56z m7286 5 c0 -5 -5 -10 -11 -10 -5 0 -7 5 -4 10 3 6 8 10 11 10 2 0 4 -4
4 -10z m468 -1 c-16 -9 -96 -4 -107 7 -2 2 25 4 60 4 48 -1 60 -3 47 -11z
m-8923 -61 c-5 -29 -10 -47 -13 -40 -5 17 8 106 15 99 3 -3 2 -30 -2 -59z
m1035 45 c0 -10 -4 -24 -9 -32 -7 -11 -11 -10 -19 6 -8 14 -8 23 0 31 17 17
28 15 28 -5z m177 -5 c-3 -8 -6 -5 -6 6 -1 11 2 17 5 13 3 -3 4 -12 1 -19z
m6140 0 c-3 -8 -6 -5 -6 6 -1 11 2 17 5 13 3 -3 4 -12 1 -19z m698 -5 c1 -13
-3 -20 -12 -17 -46 14 -46 14 -33 30 18 20 43 14 45 -13z m45 17 c0 -5 -2 -10
-4 -10 -3 0 -8 5 -11 10 -3 6 -1 10 4 10 6 0 11 -4 11 -10z m279 -17 c0 -25
-1 -26 -9 -8 -12 27 -12 35 0 35 6 0 10 -12 9 -27z m-409 7 c0 -5 -5 -10 -11
-10 -5 0 -7 5 -4 10 3 6 8 10 11 10 2 0 4 -4 4 -10z m875 0 c21 -5 7 -8 -50
-8 -53 0 -73 2 -60 8 24 10 69 10 110 0z m165 0 c12 -6 16 -17 13 -30 -5 -20
-5 -20 -30 0 -14 11 -33 20 -42 20 -14 0 -14 2 -1 10 19 12 37 12 60 0z m-439
-16 c11 -14 10 -15 -11 -12 -13 1 -25 9 -28 16 -5 17 23 15 39 -4z m718 -36
c1 -10 -3 -18 -9 -18 -5 0 -10 17 -9 38 0 30 2 33 9 17 5 -11 9 -28 9 -37z
m-8614 31 c11 -17 2 -18 -19 -3 -17 12 -17 14 -4 14 9 0 20 -5 23 -11z m8569
-57 c-25 -38 -31 -9 -8 35 17 30 19 32 22 13 2 -12 -4 -33 -14 -48z m403 31
c-3 -10 -5 -4 -5 12 0 17 2 24 5 18 2 -7 2 -21 0 -30z m203 -78 c-33 -56 -37
-46 -15 39 21 78 28 88 36 46 6 -29 2 -44 -21 -85z m-9220 77 c0 -15 -2 -15
-10 -2 -13 20 -13 33 0 25 6 -3 10 -14 10 -23z m8936 6 c5 -13 8 -39 6 -58
l-4 -35 -14 40 c-16 45 -18 75 -6 75 5 0 13 -10 18 -22z m-9724 -92 l-19 -40
-12 35 c-9 29 -9 42 5 75 l17 39 14 -35 c14 -31 13 -38 -5 -74z m698 90 c0 -3
-4 -8 -10 -11 -5 -3 -10 -1 -10 4 0 6 5 11 10 11 6 0 10 -2 10 -4z m417 -48
c-7 -4 -15 1 -19 13 -12 31 3 46 18 18 9 -18 9 -26 1 -31z m7683 45 c0 -5 -5
-15 -10 -23 -8 -12 -10 -11 -10 8 0 12 5 22 10 22 6 0 10 -3 10 -7z m-8700
-44 c0 -33 -3 -39 -13 -31 -10 9 -13 6 -12 -11 0 -12 4 -28 8 -34 4 -7 4 -20
-1 -29 -6 -11 -12 -1 -22 40 -11 49 -11 58 4 81 24 36 36 31 36 -16z m660 26
c0 -8 -4 -15 -10 -15 -5 0 -7 7 -4 15 4 8 8 15 10 15 2 0 4 -7 4 -15z m8507
-7 c-3 -8 -6 -5 -6 6 -1 11 2 17 5 13 3 -3 4 -12 1 -19z m-9521 -33 c3 -19 4
-40 2 -47 -3 -7 -9 11 -15 39 -5 29 -6 50 -2 47 5 -2 11 -20 15 -39z m165 22
c8 -17 5 -33 -12 -71 -27 -63 -41 -44 -26 37 12 61 21 70 38 34z m1080 -10
c-10 -9 -11 -8 -5 6 3 10 9 15 12 12 3 -3 0 -11 -7 -18z m76 -44 c-22 -22 -27
-2 -9 37 l16 35 4 -29 c2 -17 -3 -35 -11 -43z m170 35 c-3 -7 -5 -2 -5 12 0
14 2 19 5 13 2 -7 2 -19 0 -25z m9170 -15 c-3 -10 -5 -2 -5 17 0 19 2 27 5 18
2 -10 2 -26 0 -35z m-10757 -17 c5 -23 4 -36 -2 -36 -7 0 -9 -24 -5 -66 4 -60
4 -63 -9 -39 -14 28 -19 122 -8 163 8 29 14 23 24 -22z m10735 -16 c-4 -17 -9
-29 -12 -26 -3 2 -2 19 2 36 4 17 9 29 12 26 3 -2 2 -19 -2 -36z m892 -44
c-23 -46 -44 -82 -45 -80 -10 8 32 119 53 140 13 13 26 24 29 24 2 0 -15 -38
-37 -84z m-15512 -39 c-12 -59 -24 -110 -28 -113 -3 -3 -13 8 -22 25 -15 31
-15 33 25 118 22 47 42 84 44 82 2 -2 -6 -52 -19 -112z m4915 98 c0 -8 -4 -15
-10 -15 -5 0 -7 7 -4 15 4 8 8 15 10 15 2 0 4 -7 4 -15z m9010 5 c0 -5 -4 -10
-10 -10 -5 0 -10 5 -10 10 0 6 5 10 10 10 6 0 10 -4 10 -10z m614 -5 c7 -20
-14 -65 -30 -65 -7 0 -12 6 -10 13 3 6 7 24 10 40 7 30 21 35 30 12z m-267
-17 c-3 -8 -6 -5 -6 6 -1 11 2 17 5 13 3 -3 4 -12 1 -19z m618 -18 c8 -50 -1
-85 -20 -70 -7 6 -18 24 -25 41 -11 25 -10 32 5 49 26 28 32 25 40 -20z
m-10609 -75 c-3 -11 -12 -29 -21 -40 -15 -19 -16 -16 -12 46 6 85 18 108 29
54 5 -22 7 -49 4 -60z m9634 85 c0 -5 -4 -10 -10 -10 -5 0 -10 5 -10 10 0 6 5
10 10 10 6 0 10 -4 10 -10z m-9907 -114 c4 -21 4 -36 0 -33 -9 10 -31 126 -24
132 6 6 13 -23 24 -99z m154 82 c-3 -8 -6 -5 -6 6 -1 11 2 17 5 13 3 -3 4 -12
1 -19z m790 -10 c-3 -7 -5 -2 -5 12 0 14 2 19 5 13 2 -7 2 -19 0 -25z m110 10
c-3 -8 -6 -5 -6 6 -1 11 2 17 5 13 3 -3 4 -12 1 -19z m11401 -55 c-41 -81 -54
-101 -45 -68 3 11 11 39 17 63 10 41 40 82 58 82 5 0 -9 -35 -30 -77z m-11671
35 c-3 -7 -5 -2 -5 12 0 14 2 19 5 13 2 -7 2 -19 0 -25z m9893 -25 c-10 -16
-11 -15 -6 7 3 14 6 32 7 40 1 8 4 5 6 -7 2 -12 -1 -30 -7 -40z m1464 -40 c-5
-33 -11 -43 -25 -43 -24 0 -25 29 -2 96 l17 49 8 -30 c4 -17 5 -49 2 -72z
m-2218 60 c-10 -10 -19 5 -10 18 6 11 8 11 12 0 2 -7 1 -15 -2 -18z m817 -24
c-6 -6 -7 3 -4 23 4 28 6 29 9 9 2 -13 0 -27 -5 -32z m4946 -84 c-7 -27 -12
-61 -12 -75 1 -17 -3 -10 -12 18 -12 37 -12 53 3 120 l16 76 9 -44 c7 -31 5
-60 -4 -95z m-16006 105 c3 -11 1 -23 -4 -26 -5 -3 -9 6 -9 20 0 31 6 34 13 6z
m114 -17 c-3 -10 -5 -4 -5 12 0 17 2 24 5 18 2 -7 2 -21 0 -30z m10474 0 c-10
-17 -10 -16 -11 3 0 23 13 41 18 25 2 -6 -1 -18 -7 -28z m563 -4 c-7 -12 -31
-11 -39 1 -4 6 -1 18 6 26 12 14 14 14 26 -2 7 -9 10 -21 7 -25z m133 9 c-3
-7 -5 -2 -5 12 0 14 2 19 5 13 2 -7 2 -19 0 -25z m554 -65 c-9 -12 -19 -23
-23 -23 -12 0 -9 46 4 75 l12 26 11 -28 c10 -23 9 -32 -4 -50z m-15785 -33
l-14 -55 -1 40 c0 22 5 58 11 80 10 34 13 36 15 15 2 -14 -3 -50 -11 -80z
m3724 61 c0 -4 -7 -16 -15 -27 -13 -16 -16 -17 -25 -4 -5 8 -10 27 -10 43 0
27 0 27 25 11 14 -9 25 -19 25 -23z m11878 -51 c0 -32 -1 -33 -8 -10 -4 14 -8
43 -8 65 0 38 1 39 8 10 4 -16 8 -46 8 -65z m-11729 62 c5 -10 6 -24 1 -31 -6
-11 -10 -9 -19 7 -6 11 -11 25 -11 31 0 17 18 13 29 -7z m140 -12 c11 -24 11
-24 -3 -6 -9 11 -16 24 -16 30 0 12 5 7 19 -24z m10748 -5 c-6 -19 -12 -33
-14 -32 -6 7 9 67 17 67 5 0 3 -16 -3 -35z m-13737 13 c0 26 17 10 43 -43 31
-64 33 -72 11 -54 -21 17 -76 21 -72 5 2 -6 28 -23 58 -37 59 -30 85 -66 96
-140 5 -31 4 -40 -5 -35 -6 4 -9 16 -6 27 5 14 2 17 -8 13 -17 -6 -34 13 -40
46 -4 25 -4 25 -12 3 -6 -19 -12 -22 -34 -16 -35 8 -34 5 -21 53 16 58 6 61
-16 5 -12 -32 -20 -42 -26 -33 -6 11 -10 10 -17 -1 -5 -8 -7 -20 -4 -28 3 -7
0 -13 -7 -13 -6 0 -10 8 -8 18 2 9 -2 22 -10 28 -11 8 -12 18 -2 54 19 70 63
161 72 147 6 -9 8 -9 8 1z m15547 -20 c-3 -7 -5 -2 -5 12 0 14 2 19 5 13 2 -7
2 -19 0 -25z m-12603 7 c3 -8 1 -15 -4 -15 -6 0 -10 7 -10 15 0 8 2 15 4 15 2
0 6 -7 10 -15z m-622 -12 c10 -9 18 -23 18 -32 0 -9 7 -26 15 -37 18 -26 13
-32 -24 -26 -24 3 -30 10 -35 40 -12 74 -7 85 26 55z m11677 -47 c-9 -8 -10
-7 -5 7 3 10 7 28 7 40 2 16 3 14 6 -7 3 -16 -1 -34 -8 -40z m246 54 c3 -5 1
-10 -4 -10 -6 0 -11 5 -11 10 0 6 2 10 4 10 3 0 8 -4 11 -10z m-14859 -149
c-10 -34 -14 -39 -15 -21 -1 14 -4 36 -8 49 -6 23 -7 24 -15 5 -5 -12 -7 -5
-3 23 3 23 10 54 17 68 11 26 12 25 25 -26 11 -44 11 -59 -1 -98z m16143 70
c2 -54 -10 -29 -14 30 -3 39 -2 47 4 29 5 -14 9 -40 10 -59z m194 58 c7 -27
-12 -59 -36 -59 -16 0 -16 3 -2 36 8 20 15 38 15 40 0 14 19 0 23 -17z
m-16405 -55 c-12 -32 -23 -61 -26 -64 -4 -5 -32 30 -32 40 0 10 72 91 76 87 3
-2 -5 -31 -18 -63z m3302 32 c0 -21 -6 -36 -15 -40 -12 -4 -14 0 -9 22 14 63
24 71 24 18z m11895 -21 c-3 -26 -9 -45 -12 -42 -2 3 -1 26 2 52 4 25 10 44
12 41 3 -3 2 -26 -2 -51z m-14851 -2 c20 -61 47 -177 39 -169 -28 28 -80 216
-60 216 3 0 12 -21 21 -47z m3106 26 c0 -6 -4 -7 -10 -4 -5 3 -10 11 -10 16 0
6 5 7 10 4 6 -3 10 -11 10 -16z m11686 -27 c-12 -11 -18 7 -10 30 l8 23 4 -23
c2 -13 1 -26 -2 -30z m4295 -39 c10 -31 18 -58 16 -59 -2 -2 -20 16 -40 40
-34 41 -36 47 -25 76 13 38 18 32 49 -57z m-16326 68 c3 -5 1 -12 -4 -15 -12
-8 -41 3 -41 15 0 12 37 12 45 0z m12439 -22 c-8 -13 -24 -1 -24 18 0 13 3 13
15 3 8 -7 12 -16 9 -21z m158 6 c6 -29 -2 -38 -21 -26 -10 7 -10 13 -2 30 15
27 18 26 23 -4z m-12502 -36 c0 -24 -4 -38 -10 -34 -5 3 -10 24 -10 46 0 24 4
38 10 34 6 -3 10 -24 10 -46z m200 31 c0 -11 -4 -20 -9 -20 -5 0 -7 9 -4 20 3
11 7 20 9 20 2 0 4 -9 4 -20z m340 5 c0 -8 -2 -15 -4 -15 -2 0 -6 7 -10 15 -3
8 -1 15 4 15 6 0 10 -7 10 -15z m11873 -5 c3 -11 1 -20 -4 -20 -5 0 -9 2 -9 4
0 2 -3 11 -6 20 -3 9 -2 16 4 16 5 0 12 -9 15 -20z m-15906 -96 c-16 -52 -30
-41 -22 19 10 83 18 99 26 53 3 -21 2 -54 -4 -72z m139 50 c-11 -28 -28 -1
-20 32 7 27 8 28 17 7 5 -12 7 -30 3 -39z m15568 22 c-9 -29 -14 -33 -23 -17
-13 20 -2 51 15 44 10 -3 12 -13 8 -27z m735 -18 c-13 -60 -19 -70 -14 -23 2
22 4 48 5 58 0 10 4 16 9 13 5 -4 5 -23 0 -48z m-669 33 c0 -6 -4 -13 -10 -16
-5 -3 -10 1 -10 9 0 9 5 16 10 16 6 0 10 -4 10 -9z m1325 -31 c-4 -17 -9 -29
-12 -26 -3 2 -2 19 2 36 4 17 9 29 12 26 3 -2 2 -19 -2 -36z m-9602 -17 c-20
-58 -108 -149 -178 -183 -43 -21 -52 -22 -98 -11 -46 11 -137 55 -137 67 0 2
17 -4 38 -15 30 -15 55 -19 115 -17 86 3 100 9 71 31 -14 12 -33 14 -75 10
-43 -4 -70 -1 -110 15 -30 11 -63 20 -73 20 -18 0 -66 36 -66 49 0 4 37 4 82
2 62 -2 86 -7 95 -20 11 -14 18 -13 75 17 35 17 73 32 83 33 11 0 52 11 90 24
106 35 107 35 88 -22z m8881 31 c9 -24 7 -28 -9 -14 -17 14 -20 30 -6 30 5 0
12 -7 15 -16z m-16667 -6 c11 -18 13 -38 4 -38 -4 0 -13 11 -19 25 -12 25 0
35 15 13z m9818 -30 c-5 -32 -1 -54 14 -88 24 -52 27 -98 8 -124 -16 -23 -46
-10 -65 26 -15 30 -32 129 -32 185 l0 43 41 0 40 0 -6 -42z m213 0 c-3 -140 4
-338 12 -338 10 0 25 51 36 125 l7 50 13 -50 c7 -27 16 -80 20 -117 4 -37 10
-66 14 -63 4 3 11 56 15 118 7 125 15 151 33 113 6 -13 26 -45 45 -70 32 -41
57 -114 57 -166 0 -32 -74 -36 -158 -9 -76 24 -175 85 -180 110 -1 9 13 40 33
69 50 75 52 94 16 162 -17 32 -31 64 -31 71 0 8 15 19 33 25 17 5 33 10 34 11
1 1 2 -18 1 -41z m7052 21 c0 -4 -7 -6 -15 -3 -8 4 -15 10 -15 15 0 4 7 6 15
3 8 -4 15 -10 15 -15z m160 -10 c0 -10 -7 -19 -15 -19 -16 0 -19 9 -9 34 8 20
24 11 24 -15z m-14500 -120 c11 -28 16 -57 13 -62 -4 -6 -10 -2 -14 9 -6 15
-8 13 -8 -11 l-1 -30 -27 40 c-26 39 -63 141 -63 176 0 32 79 -63 100 -122z
m13890 126 c0 -8 -2 -15 -4 -15 -2 0 -6 7 -10 15 -3 8 -1 15 4 15 6 0 10 -7
10 -15z m3608 -170 l-3 -50 -13 30 c-7 17 -17 40 -23 52 -11 21 -4 126 9 148
10 16 33 -124 30 -180z m-3888 140 c0 -19 -4 -35 -8 -35 -4 0 -6 16 -4 35 2
19 6 35 8 35 2 0 4 -16 4 -35z m600 22 c0 -7 -6 -21 -13 -31 -12 -17 -14 -17
-20 -2 -4 9 -4 23 -1 31 7 18 34 20 34 2z m64 -2 c3 -9 0 -15 -9 -15 -9 0 -12
6 -9 15 4 8 7 15 9 15 2 0 5 -7 9 -15z m133 -7 c-3 -8 -6 -5 -6 6 -1 11 2 17
5 13 3 -3 4 -12 1 -19z m-16930 -20 c-3 -7 -5 -2 -5 12 0 14 2 19 5 13 2 -7 2
-19 0 -25z m2712 11 c13 -12 20 -28 18 -38 -32 -100 -57 -129 -57 -67 0 20 5
36 10 36 6 0 10 -5 10 -12 0 -6 3 -9 6 -5 4 3 -4 22 -16 42 -20 33 -22 65 -2
65 4 0 18 -10 31 -21z m568 7 c-59 -16 -60 -18 -66 -67 -1 -4 -12 -6 -26 -6
-23 0 -24 1 -8 13 13 10 14 13 4 14 -11 0 -10 5 4 20 21 23 65 38 110 38 24 1
20 -2 -18 -12z m-3453 -72 l-8 -59 -9 44 c-10 50 -2 100 14 84 7 -7 8 -32 3
-69z m397 19 c-9 -15 -10 -13 -11 13 0 17 3 34 8 38 11 12 14 -32 3 -51z m90
-56 c-7 -36 -9 -39 -14 -17 -13 56 -17 98 -10 115 12 34 33 -49 24 -98z
m16046 91 c-3 -8 -6 -5 -6 6 -1 11 2 17 5 13 3 -3 4 -12 1 -19z m2033 -33 c0
-4 -7 -2 -16 6 -14 11 -16 9 -13 -17 5 -61 2 -66 -26 -42 -29 25 -31 38 -10
78 l15 29 25 -23 c14 -13 25 -27 25 -31z m379 -94 c22 -64 29 -97 22 -104 -13
-13 -30 27 -42 98 l-8 50 3 -60 c2 -33 7 -68 11 -77 6 -15 -1 -13 -40 7 -25
14 -62 25 -81 25 -32 0 -35 2 -29 23 7 24 23 53 70 134 l30 51 15 -27 c9 -14
31 -68 49 -120z m-15609 98 c-9 -15 -15 -18 -23 -10 -7 7 -5 16 8 32 22 24 32
10 15 -22z m265 21 c6 -4 28 -11 50 -15 40 -7 90 -29 99 -43 2 -4 -13 -9 -34
-9 -30 -2 -38 1 -33 13 4 10 -2 14 -21 14 -34 0 -146 31 -146 40 0 4 -19 4
-42 -1 -60 -11 -67 -10 -38 7 19 10 42 13 90 8 36 -3 70 -9 75 -14z m12634
-23 c1 -5 -3 -5 -9 -2 -5 3 -10 16 -9 28 0 21 1 21 9 2 5 -11 9 -24 9 -28z
m-15886 13 c3 -11 1 -20 -4 -20 -5 0 -9 9 -9 20 0 11 2 20 4 20 2 0 6 -9 9
-20z m11212 0 c-3 -5 4 -34 16 -64 32 -88 12 -113 -70 -85 -34 12 -38 31 -25
112 6 31 12 39 38 46 33 9 50 5 41 -9z m5696 -40 l-10 -25 0 27 c-1 14 2 35 6
45 7 17 8 17 11 -2 1 -12 -2 -32 -7 -45z m323 52 c7 -12 -15 -82 -26 -82 -12
0 -40 69 -33 80 8 12 52 13 59 2z m-16949 -76 c-14 -20 -15 -19 -15 11 0 17 3
39 7 49 6 15 8 13 14 -10 6 -20 3 -36 -6 -50z m2532 52 c-3 -8 -6 -5 -6 6 -1
11 2 17 5 13 3 -3 4 -12 1 -19z m7465 -3 c26 -14 68 -28 92 -31 43 -6 44 -7
35 -33 -12 -31 -26 -41 -59 -41 -14 0 -59 -15 -101 -33 -62 -27 -88 -46 -143
-105 -38 -40 -72 -72 -76 -72 -3 0 -3 30 2 67 7 47 16 75 34 96 18 22 24 40
23 66 -6 86 -3 91 44 92 23 1 53 5 67 9 14 4 27 8 30 9 3 1 26 -10 52 -24z
m1061 14 c43 -12 111 -68 132 -110 25 -48 37 -119 23 -136 -20 -24 -101 -12
-151 24 -39 27 -42 33 -39 70 1 22 -7 66 -18 98 -11 32 -20 60 -20 62 0 6 36
3 73 -8z m5827 -40 c0 -33 -8 -41 -31 -28 -14 7 -18 17 -14 36 9 53 45 47 45
-8z m2308 -26 c-6 -24 -14 -43 -18 -43 -18 0 -27 70 -14 105 6 15 8 15 25 -2
16 -16 17 -24 7 -60z m-19069 45 c0 -13 -4 -32 -9 -43 -7 -18 -8 -19 -15 -2
-9 21 2 67 15 67 6 0 10 -10 9 -22z m755 -106 c-16 -24 -19 -25 -22 -8 -2 11
2 47 9 80 l13 61 9 -53 c7 -44 6 -57 -9 -80z m746 44 c8 -23 7 -27 -5 -22 -8
3 -21 -1 -28 -9 -12 -11 -14 -4 -16 48 l-1 62 20 -25 c11 -14 24 -38 30 -54z
m551 3 l-9 -54 -1 56 c0 31 2 59 6 63 13 12 14 -8 4 -65z m209 54 c0 -30 -12
-63 -21 -63 -17 0 -31 51 -18 66 16 20 39 17 39 -3z m14170 -4 c0 -6 -4 -7
-10 -4 -5 3 -10 11 -10 16 0 6 5 7 10 4 6 -3 10 -11 10 -16z m-13765 1 c3 -5
-1 -10 -9 -10 -9 0 -16 5 -16 10 0 6 4 10 9 10 6 0 13 -4 16 -10z m3237 -127
c-1 -63 -6 -122 -10 -130 -10 -18 -34 182 -26 217 12 51 14 54 27 41 8 -8 11
-47 9 -128z m11591 107 c17 -29 17 -31 -5 -70 -26 -45 -38 -51 -38 -16 0 41
12 116 19 116 4 0 15 -13 24 -30z m-1216 -2 c-3 -8 -6 -5 -6 6 -1 11 2 17 5
13 3 -3 4 -12 1 -19z m1593 -64 c0 -18 -8 -42 -19 -55 l-18 -23 -8 23 c-4 13
-1 50 6 83 14 60 14 60 26 32 7 -16 12 -43 13 -60z m-18191 39 c0 -29 -2 -33
-8 -18 -7 18 -4 55 5 55 2 0 4 -17 3 -37z m410 10 c12 -31 12 -103 0 -103 -4
0 -11 21 -14 48 -3 26 -8 55 -10 65 -5 27 11 20 24 -10z m280 5 c0 -13 -4 -32
-9 -43 -7 -15 -9 -10 -9 23 -1 23 4 42 9 42 6 0 10 -10 9 -22z m455 -15 c-8
-44 -23 -78 -24 -53 0 21 20 90 26 90 3 0 2 -17 -2 -37z m328 -65 c-9 -9 -12
-6 -12 14 0 14 -2 41 -5 59 -4 28 -2 25 12 -14 13 -36 14 -50 5 -59z m868 62
c0 -22 -4 -40 -10 -40 -12 0 -24 45 -16 65 11 29 26 15 26 -25z m8646 8 c-8
-42 -9 -42 -46 -23 l-33 17 29 19 c44 29 58 25 50 -13z m6943 -77 c7 -46 7
-52 -5 -37 -7 10 -10 24 -7 31 2 8 0 22 -6 32 -8 14 -10 15 -11 3 0 -13 -1
-13 -10 0 -13 21 -12 54 2 68 15 15 22 -6 37 -97z m-18082 67 c-3 -7 -5 -2 -5
12 0 14 2 19 5 13 2 -7 2 -19 0 -25z m16900 10 c-3 -8 -6 -5 -6 6 -1 11 2 17
5 13 3 -3 4 -12 1 -19z m543 12 c0 -5 -2 -10 -4 -10 -3 0 -8 5 -11 10 -3 6 -1
10 4 10 6 0 11 -4 11 -10z m-15387 -96 c-4 -11 -9 -12 -19 -3 -15 12 -18 56
-7 85 5 13 10 6 19 -26 7 -23 10 -49 7 -56z m608 58 c3 -17 4 -33 2 -36 -11
-10 -43 20 -43 40 0 46 31 43 41 -4z m13203 5 c4 -19 3 -26 -4 -22 -5 3 -10
18 -10 32 0 32 5 28 14 -10z m1636 24 c0 -5 -9 -11 -20 -14 -13 -3 -20 0 -20
9 0 8 9 14 20 14 11 0 20 -4 20 -9z m1900 -1 c0 -5 -2 -10 -4 -10 -3 0 -8 5
-11 10 -3 6 -1 10 4 10 6 0 11 -4 11 -10z m-19300 -7 c0 -5 -5 -15 -10 -23 -8
-12 -10 -11 -10 8 0 12 5 22 10 22 6 0 10 -3 10 -7z m597 -30 c-3 -10 -5 -4
-5 12 0 17 2 24 5 18 2 -7 2 -21 0 -30z m811 12 c-3 -3 -9 2 -12 12 -6 14 -5
15 5 6 7 -7 10 -15 7 -18z m11456 12 c17 -13 18 -15 1 -46 -12 -24 -15 -46
-11 -80 8 -65 8 -71 1 -118 -9 -52 -23 -48 -65 16 -37 58 -38 89 -4 161 39 83
47 90 78 67z m6336 -6 c0 -11 3 -26 6 -35 3 -9 1 -16 -5 -16 -6 0 -11 6 -11
14 0 8 -5 18 -10 21 -7 4 -9 -2 -4 -19 7 -28 -10 -37 -20 -10 -6 16 -2 28 19
51 15 18 25 16 25 -6z m292 -21 c-5 -61 -21 -70 -22 -12 0 39 3 52 13 49 7 -2
11 -18 9 -37z m-19331 -34 c-8 -46 -30 -86 -26 -49 7 66 19 113 26 106 5 -5 5
-29 0 -57z m99 23 c0 -24 -4 -38 -10 -34 -17 10 -11 75 7 75 2 0 3 -18 3 -41z
m1124 25 c7 -18 0 -34 -15 -34 -5 0 -9 11 -9 25 0 28 15 34 24 9z m1305 -27
c0 -27 -2 -29 -9 -12 -12 28 -12 57 0 50 6 -3 10 -21 9 -38z m6427 -14 c2 -28
12 -59 24 -75 24 -32 12 -38 -15 -8 -13 14 -20 41 -23 83 -2 34 -1 59 3 55 4
-4 9 -29 11 -55z m1419 41 c17 -8 22 -12 12 -9 -10 3 -35 5 -55 5 -28 0 -33 3
-22 10 20 13 29 12 65 -6z m2573 -95 c57 -82 80 -159 47 -159 -9 0 -44 -12
-78 -26 -59 -25 -65 -26 -129 -14 -48 9 -68 18 -68 28 0 32 24 92 37 92 16 0
53 -36 53 -52 0 -8 7 -6 17 5 16 16 16 20 3 45 -8 15 -30 34 -47 42 -40 19
-41 38 -6 100 l27 48 53 -26 c37 -19 63 -43 91 -83z m4330 78 c4 -29 -9 -35
-27 -13 -13 16 -4 49 13 43 6 -2 12 -16 14 -30z m164 -19 c-9 -9 -12 -4 -11
23 0 32 1 33 11 11 8 -17 8 -26 0 -34z m1361 5 c7 -36 0 -45 -31 -36 -14 3
-22 14 -23 27 0 14 -4 9 -11 -14 -18 -65 -28 -62 -52 18 -10 32 10 27 22 -5
l10 -28 1 25 c1 18 11 29 34 40 37 18 42 16 50 -27z m392 -14 c-8 -30 -33 -65
-41 -57 -3 4 -2 32 1 63 7 56 8 57 27 38 13 -14 17 -27 13 -44z m-18039 25
c-4 -9 -9 -15 -11 -12 -3 3 -3 13 1 22 4 9 9 15 11 12 3 -3 3 -13 -1 -22z
m12394 5 c17 -31 8 -37 -30 -21 -33 13 -34 15 -15 28 25 19 32 18 45 -7z
m3330 6 c0 -8 -4 -15 -10 -15 -5 0 -7 7 -4 15 4 8 8 15 10 15 2 0 4 -7 4 -15z
m277 -17 c-3 -7 -5 -2 -5 12 0 14 2 19 5 13 2 -7 2 -19 0 -25z m2303 -43 c0
-16 -4 -13 -20 13 -27 44 -27 78 0 37 11 -16 20 -39 20 -50z m-18603 43 c-3
-8 -6 -5 -6 6 -1 11 2 17 5 13 3 -3 4 -12 1 -19z m792 -9 c14 -41 14 -43 -4
-26 -8 9 -20 17 -27 19 -13 5 -4 38 11 38 5 0 14 -14 20 -31z m277 -18 c-15
-15 -16 -13 -4 19 9 26 13 30 16 16 2 -10 -3 -26 -12 -35z m138 -13 c-3 -10
-1 -18 5 -18 6 0 11 -4 11 -10 0 -24 -28 5 -39 39 -15 53 -14 60 9 31 11 -14
17 -33 14 -42z m2957 36 c26 -16 39 -31 37 -42 -4 -23 -130 -104 -142 -92 -5
5 -9 37 -10 71 -1 61 -1 61 34 74 19 7 36 13 38 14 1 0 21 -10 43 -25z m12032
6 c-3 -11 -9 -20 -14 -20 -11 0 -11 3 -3 24 9 23 23 20 17 -4z m891 5 c3 -8 1
-15 -3 -15 -5 0 -11 7 -15 15 -3 8 -1 15 3 15 5 0 11 -7 15 -15z m-15436 -34
c10 -29 10 -32 -3 -21 -8 7 -15 24 -15 38 0 31 3 27 18 -17z m8284 9 c32 -17
46 -31 38 -33 -8 -3 -33 -10 -56 -17 -59 -18 -88 -11 -92 22 -2 18 4 31 20 42
30 21 30 21 90 -14z m5768 3 c0 -20 -3 -24 -11 -16 -7 7 -9 19 -6 27 10 24 17
19 17 -11z m2054 -15 c-8 -47 -22 -91 -23 -69 -1 10 -4 11 -14 3 -20 -17 -35
0 -30 36 4 20 11 32 22 33 10 0 11 2 4 6 -26 10 -13 33 17 33 30 0 30 0 24
-42z m-18069 -125 c-10 -43 -23 -15 -20 49 3 106 7 116 17 44 5 -38 7 -79 3
-93z m352 135 c-3 -8 -6 -5 -6 6 -1 11 2 17 5 13 3 -3 4 -12 1 -19z m1003 -4
c0 -8 -4 -12 -10 -9 -5 3 -10 13 -10 21 0 8 5 12 10 9 6 -3 10 -13 10 -21z
m420 -7 c0 -12 -5 -29 -10 -37 -7 -11 -10 -3 -10 28 0 26 4 41 10 37 6 -3 10
-16 10 -28z m16630 -39 c0 -11 -6 -15 -20 -11 -32 9 -42 36 -23 63 l17 24 13
-30 c6 -16 12 -36 13 -46z m418 55 c2 -40 -9 -86 -20 -75 -6 6 -7 27 -3 51 7
41 21 56 23 24z m-10348 -47 c0 -6 -7 -1 -15 10 -8 10 -14 26 -14 34 0 16 28
-28 29 -44z m2475 -6 c19 -26 35 -50 35 -53 0 -8 -84 -57 -97 -57 -6 0 -13 26
-16 58 -4 31 -9 69 -13 83 -5 24 -4 25 25 21 23 -3 40 -17 66 -52z m6235 8
c-20 -49 -30 -56 -30 -19 0 42 18 77 32 63 8 -8 7 -21 -2 -44z m-16010 18 c0
-8 -7 -19 -15 -26 -12 -10 -15 -10 -15 3 0 25 11 47 21 41 5 -3 9 -11 9 -18z
m137 -28 c-2 -13 -4 -5 -4 17 -1 22 1 32 4 23 2 -10 2 -28 0 -40z m11953 7
c51 -32 142 -45 179 -26 39 21 15 -43 -33 -88 -27 -25 -117 -54 -141 -45 -8 3
-24 27 -36 52 -12 26 -35 66 -51 89 -15 23 -28 46 -28 51 0 16 62 -3 110 -33z
m-13220 21 c0 -8 -4 -18 -10 -21 -5 -3 -10 3 -10 14 0 12 5 21 10 21 6 0 10
-6 10 -14z m877 -18 c-3 -7 -5 -2 -5 12 0 14 2 19 5 13 2 -7 2 -19 0 -25z
m173 12 c8 -15 7 -25 -3 -41 -13 -17 -15 -18 -21 -4 -9 25 -7 65 4 65 5 0 14
-9 20 -20z m467 -12 c-3 -7 -5 -2 -5 12 0 14 2 19 5 13 2 -7 2 -19 0 -25z
m8270 -26 c3 -49 19 -96 58 -162 16 -27 19 -61 9 -98 -9 -33 -27 -21 -37 24
-17 82 -28 114 -51 141 -46 55 -76 106 -76 130 0 22 3 24 47 21 l47 -3 3 -53z
m8305 -20 c-2 -18 -8 -32 -13 -32 -11 0 -12 70 -2 96 6 16 8 15 13 -7 4 -14 5
-39 2 -57z m545 41 c-3 -10 -5 -4 -5 12 0 17 2 24 5 18 2 -7 2 -21 0 -30z
m-18275 -5 c-8 -8 -9 -4 -5 13 4 13 8 18 11 10 2 -7 -1 -18 -6 -23z m189 9
c-10 -9 -11 -8 -5 6 3 10 9 15 12 12 3 -3 0 -11 -7 -18z m250 -24 c-9 -16 -10
-16 -11 -1 0 9 3 25 7 35 7 16 8 17 11 1 2 -10 -1 -25 -7 -35z m7167 -106 c8
-29 6 -47 -6 -78 l-15 -39 -58 6 c-42 4 -72 1 -110 -11 -42 -14 -58 -15 -90
-6 -42 13 -64 41 -54 70 9 30 85 76 174 107 69 24 89 35 110 65 l26 36 7 -56
c4 -31 11 -73 16 -94z m4889 136 c7 -19 -36 -37 -53 -22 -20 16 -17 27 9 32
29 6 40 3 44 -10z m-11417 -24 c0 -11 -4 -17 -10 -14 -5 3 -10 15 -10 26 0 11
5 17 10 14 6 -3 10 -15 10 -26z m2820 -69 c9 -17 8 -20 -13 -20 -32 0 -125 28
-132 40 -3 5 10 16 30 24 20 9 48 25 63 37 l27 21 7 -41 c4 -22 12 -49 18 -61z
m4924 -6 c-6 -54 -14 -89 -21 -92 -24 -7 -26 29 -8 114 24 114 42 100 29 -22z
m9236 34 c4 -21 4 -38 0 -38 -4 0 -10 17 -13 38 -3 20 -8 46 -12 57 -6 20 -6
20 6 0 7 -11 16 -36 19 -57z m47 35 c-3 -10 -5 -4 -5 12 0 17 2 24 5 18 2 -7
2 -21 0 -30z m-16880 5 c-3 -8 -6 -5 -6 6 -1 11 2 17 5 13 3 -3 4 -12 1 -19z
m11368 8 c19 -8 45 -32 60 -55 15 -22 51 -59 81 -81 33 -25 63 -59 79 -88 13
-26 34 -62 46 -79 l21 -33 -41 0 c-36 0 -43 4 -65 38 -13 20 -29 54 -36 75 -7
23 -25 47 -48 64 -58 42 -102 86 -102 101 0 8 -14 27 -31 43 -35 33 -21 39 36
15z m3708 7 c3 -5 -1 -21 -8 -38 l-12 -30 -8 27 c-7 27 -1 48 15 48 5 0 11 -3
13 -7z m184 -29 c-3 -20 -9 -39 -12 -42 -11 -12 -16 8 -10 42 9 48 29 48 22 0z
m1358 9 c25 -29 32 -67 16 -92 -7 -11 -11 -10 -20 7 -6 11 -11 32 -11 46 0 14
-4 26 -10 26 -5 0 -10 9 -10 20 0 27 6 25 35 -7z m-17204 -40 c-9 -16 -10 -16
-11 4 0 12 3 30 7 40 7 16 8 16 11 -4 2 -12 -1 -30 -7 -40z m12568 -10 c3 -2
-8 -17 -24 -33 -41 -43 -140 -90 -188 -90 l-39 0 48 33 c37 24 56 47 77 90
l28 57 47 -27 c26 -14 49 -28 51 -30z m3112 34 c-10 -9 -11 -8 -5 6 3 10 9 15
12 12 3 -3 0 -11 -7 -18z m-15851 -25 c0 -21 -2 -24 -10 -12 -13 20 -13 53 0
45 6 -3 10 -18 10 -33z m79 -6 c-9 -8 -10 -7 -5 7 3 10 7 24 7 30 1 7 3 4 6
-7 3 -10 -1 -23 -8 -30z m298 22 c-3 -8 -6 -5 -6 6 -1 11 2 17 5 13 3 -3 4
-12 1 -19z m161 -9 c-3 -8 -7 -3 -11 10 -4 17 -3 21 5 13 5 -5 8 -16 6 -23z
m96 16 c3 -8 1 -15 -4 -15 -6 0 -10 7 -10 15 0 8 2 15 4 15 2 0 6 -7 10 -15z
m17066 8 c0 -5 -5 -15 -10 -23 -8 -12 -10 -11 -10 8 0 12 5 22 10 22 6 0 10
-3 10 -7z m-19050 -33 c0 -16 -4 -30 -8 -30 -5 0 -7 14 -4 30 2 17 6 30 8 30
2 0 4 -13 4 -30z m1003 15 c-3 -9 -8 -14 -10 -11 -3 3 -2 9 2 15 9 16 15 13 8
-4z m16929 -38 c-4 -17 -6 -18 -14 -3 -5 9 -6 26 -2 39 7 21 7 21 14 2 4 -11
5 -28 2 -38z m445 21 c-3 -7 -5 -2 -5 12 0 14 2 19 5 13 2 -7 2 -19 0 -25z
m732 -5 c0 -35 -1 -36 -10 -14 -5 14 -7 31 -5 38 10 24 16 13 15 -24z m-18506
7 c-3 -12 -8 -19 -11 -16 -5 6 5 36 12 36 2 0 2 -9 -1 -20z m1174 -12 c-3 -7
-5 -2 -5 12 0 14 2 19 5 13 2 -7 2 -19 0 -25z m11303 22 c0 -3 -17 -23 -39
-44 l-38 -37 -6 28 c-3 15 -8 35 -11 43 -5 12 3 15 44 15 27 0 50 -2 50 -5z
m4626 -56 c-3 -8 -10 -14 -16 -14 -12 0 -5 53 9 75 8 13 14 -42 7 -61z m792
-9 c0 -5 -6 4 -13 20 -8 17 -14 37 -14 45 0 8 7 -1 14 -20 7 -19 13 -39 13
-45z m29 28 c-3 -10 -5 -4 -5 12 0 17 2 24 5 18 2 -7 2 -21 0 -30z m49 -4 c-2
-22 -7 -43 -10 -47 -8 -7 -8 52 0 72 11 28 15 17 10 -25z m575 -36 c-8 -15
-10 -10 -11 23 0 22 3 44 8 48 11 12 14 -52 3 -71z m-754 45 c-3 -8 -6 -5 -6
6 -1 11 2 17 5 13 3 -3 4 -12 1 -19z m273 2 c6 -11 8 -20 6 -20 -3 0 -10 9
-16 20 -6 11 -8 20 -6 20 3 0 10 -9 16 -20z m175 10 c3 -5 2 -21 -1 -37 -7
-25 -8 -25 -15 -8 -11 28 -11 55 0 55 6 0 12 -4 16 -10z m-17199 -58 c-11 -10
-14 3 -8 33 l7 30 3 -28 c2 -16 1 -31 -2 -35z m17691 21 c-3 -10 -5 -4 -5 12
0 17 2 24 5 18 2 -7 2 -21 0 -30z m-2101 -19 c-11 -30 -15 -33 -15 -16 -1 24
17 67 25 59 2 -2 -2 -21 -10 -43z m-15899 14 c-3 -8 -6 -5 -6 6 -1 11 2 17 5
13 3 -3 4 -12 1 -19z m-780 -35 c-3 -10 -5 -2 -5 17 0 19 2 27 5 18 2 -10 2
-26 0 -35z m4348 26 c-4 -11 -10 -50 -13 -87 l-7 -67 -19 63 -19 62 23 25 c29
30 44 32 35 4z m4110 -9 c3 -10 34 -32 69 -48 60 -28 84 -52 116 -115 10 -20
23 -29 49 -33 43 -7 63 -20 81 -53 l12 -24 17 27 c9 15 22 24 29 21 8 -3 24
-5 37 -5 26 0 160 -113 182 -153 7 -12 12 -44 13 -72 0 -27 7 -90 16 -140 9
-49 18 -104 21 -122 3 -18 -3 -57 -12 -87 -10 -31 -15 -64 -12 -76 3 -14 -3
-26 -20 -40 -48 -37 -57 -29 -68 66 -8 65 -23 95 -66 131 -15 13 -37 39 -48
57 -14 22 -32 36 -52 40 -31 6 -199 106 -219 131 -8 9 -3 16 21 25 63 27 81
107 39 174 -18 31 -20 41 -11 67 9 27 9 30 -4 19 -8 -7 -15 -21 -15 -31 0 -10
-4 -21 -10 -24 -6 -4 -10 6 -10 23 0 34 -26 51 -35 23 -3 -11 -15 -21 -25 -24
-28 -7 -26 -51 6 -92 31 -41 28 -65 -10 -84 -25 -12 -33 -12 -55 2 -14 8 -34
28 -43 44 -15 25 -16 34 -4 73 7 25 16 85 19 133 4 79 3 91 -14 105 -10 9 -19
20 -19 25 0 5 -9 21 -19 36 l-20 27 29 -4 c17 -2 32 -12 35 -22z m8095 -17 c0
-7 -4 -13 -10 -13 -5 0 -10 12 -10 28 0 21 2 24 10 12 5 -8 10 -21 10 -27z
m-2915 -8 c30 -20 55 -37 55 -38 0 -1 -13 -36 -28 -77 -31 -84 -54 -104 -151
-126 -56 -13 -56 -13 -126 22 -62 31 -155 112 -155 134 0 4 27 6 60 3 53 -5
70 -2 149 32 49 20 100 48 112 61 12 13 24 24 26 24 1 0 27 -16 58 -35z m5082
13 c-3 -8 -6 -5 -6 6 -1 11 2 17 5 13 3 -3 4 -12 1 -19z m-668 -21 c0 -21 -1
-21 -9 -2 -12 28 -12 37 0 30 6 -3 10 -16 9 -28z m-8003 -76 c9 -31 23 -66 31
-78 11 -16 12 -27 3 -42 -6 -12 -20 -50 -31 -86 -11 -36 -24 -63 -29 -60 -4 3
-10 1 -12 -5 -1 -6 -3 20 -4 57 0 38 -5 96 -11 130 -6 34 -9 89 -6 124 l6 62
19 -23 c10 -12 25 -48 34 -79z m7854 77 c0 -19 -2 -20 -10 -8 -13 19 -13 30 0
30 6 0 10 -10 10 -22z m-17839 -15 c-12 -20 -14 -14 -5 12 4 9 9 14 11 11 3
-2 0 -13 -6 -23z m18526 -15 c-3 -7 -5 -2 -5 12 0 14 2 19 5 13 2 -7 2 -19 0
-25z m-4555 10 c9 -7 28 -35 42 -61 14 -26 33 -59 42 -72 16 -25 16 -25 -14
-25 -51 0 -62 10 -101 91 l-37 79 26 0 c14 0 33 -6 42 -12z m-3360 -13 c36 -5
39 -9 53 -60 16 -53 13 -119 -6 -130 -9 -6 -29 57 -29 90 0 26 -27 65 -44 65
-8 0 -21 11 -29 24 -15 22 -15 24 1 20 9 -1 34 -6 54 -9z m7555 -37 c-3 -8 -6
-5 -6 6 -1 11 2 17 5 13 3 -3 4 -12 1 -19z m223 18 c0 -3 -4 -8 -10 -11 -5 -3
-10 -1 -10 4 0 6 5 11 10 11 6 0 10 -2 10 -4z m-4219 -32 c8 -2 36 0 61 4 57
11 85 0 172 -66 74 -57 73 -63 -16 -86 l-56 -14 -81 39 c-52 26 -92 54 -115
81 -51 60 -48 64 35 42z m-10686 -54 c-20 -44 -34 -52 -36 -20 -1 11 -2 25 -3
32 -1 13 45 41 53 33 2 -3 -4 -23 -14 -45z m5541 -2 c-3 -13 -6 -29 -6 -36 0
-14 -32 1 -81 39 l-24 19 59 0 c56 0 58 -1 52 -22z m2314 -54 c0 -19 -56 -103
-105 -158 -30 -33 -37 -37 -50 -26 -20 16 -45 64 -45 84 0 32 47 68 115 92 85
28 85 28 85 8z m-7958 -31 c4 -34 1 -42 -34 -74 -21 -20 -57 -44 -81 -54 -23
-9 -50 -21 -59 -26 -13 -6 -20 -4 -27 9 -14 27 -23 99 -16 131 6 28 9 29 88
39 133 15 124 17 129 -25z m-294 -134 c12 -35 21 -73 20 -84 -6 -45 -153 -105
-259 -105 -103 0 -153 -35 -183 -127 -24 -73 -37 -81 -74 -43 -36 36 -73 39
-121 9 l-33 -20 -25 23 -24 23 65 62 c68 65 108 83 180 83 22 0 59 9 82 20 23
11 61 26 85 33 48 14 81 53 98 115 12 40 37 72 60 72 9 1 27 7 41 15 37 20 61
0 88 -76z m-308 76 c0 -31 -82 -121 -100 -110 -17 11 -117 -18 -184 -53 -76
-40 -128 -87 -157 -144 -24 -46 -50 -49 -124 -14 -56 26 -69 40 -109 109 l-27
47 26 0 c42 0 79 25 104 72 13 23 25 44 27 46 1 2 39 -8 84 -22 131 -42 231
-31 328 35 41 27 68 39 95 39 20 0 37 -2 37 -5z m-970 -87 c7 -29 16 -58 21
-64 10 -13 1 -246 -10 -257 -13 -13 -84 28 -102 60 -10 16 -19 64 -23 112 -4
47 -9 102 -12 122 -5 30 -2 39 17 53 37 25 56 20 63 -17 7 -39 31 -75 42 -64
4 4 1 30 -8 57 -9 28 -13 50 -8 50 4 0 14 -24 20 -52z m9633 17 c28 -58 21
-71 -54 -113 l-35 -20 0 32 c0 17 -4 43 -8 58 -7 24 -5 29 16 37 13 5 30 16
37 25 19 23 25 20 44 -19z m-1605 -20 c-12 -27 -28 -34 -28 -12 0 14 20 37 32
37 4 0 2 -11 -4 -25z m-7870 -55 c12 -25 32 -52 44 -61 12 -9 35 -45 52 -80
30 -62 33 -65 115 -106 l83 -41 -42 -31 c-65 -47 -90 -42 -149 28 -27 33 -52
75 -56 93 -15 67 -37 109 -67 124 -27 14 -30 19 -25 51 4 20 2 45 -4 55 -9 17
-8 19 8 16 10 -1 28 -23 41 -48z m14057 41 c12 -21 -111 -40 -152 -24 -13 6
-5 10 32 19 63 15 112 17 120 5z m-15553 -7 c3 -3 0 -31 -7 -62 -10 -43 -22
-65 -50 -90 -87 -80 -106 -145 -59 -201 24 -29 25 -32 13 -84 l-13 -54 -43 2
c-23 1 -51 9 -61 18 -25 23 -64 21 -92 -3 -30 -26 -54 -25 -106 5 -25 15 -67
28 -101 32 -53 5 -61 10 -97 52 l-39 46 71 5 c83 6 112 23 157 96 27 44 30 56
28 127 -1 42 1 77 4 77 3 0 14 -11 25 -25 16 -20 23 -23 34 -14 8 6 14 20 14
30 0 10 5 21 10 24 6 4 10 -8 10 -29 0 -57 22 -186 31 -186 5 0 9 11 9 24 0
13 7 43 15 66 8 23 15 54 15 69 0 14 5 33 10 41 9 13 13 11 29 -9 l18 -24 22
22 c11 11 31 21 44 21 12 1 36 7 52 15 34 15 49 18 57 9z m971 -2 c3 -4 0 -31
-6 -61 -9 -46 -18 -63 -63 -105 -58 -57 -74 -83 -74 -121 0 -30 24 -81 42 -87
9 -3 8 -17 -4 -59 l-15 -54 -41 -1 c-29 0 -48 6 -59 18 -21 24 -68 23 -93 -2
-25 -25 -68 -25 -100 0 -14 11 -57 25 -97 32 -68 11 -74 14 -103 54 -16 23
-30 45 -30 48 0 3 28 6 63 6 85 0 116 21 157 104 30 61 32 71 26 134 l-6 67
21 -27 c27 -36 48 -35 56 2 10 51 23 44 24 -12 0 -65 24 -199 31 -178 5 14 34
145 44 198 6 29 17 28 34 -3 l13 -25 23 25 c13 14 31 25 41 26 10 0 34 6 53
13 43 16 57 18 63 8z m-1565 -14 c7 -7 12 -19 12 -27 0 -9 9 -27 20 -41 23
-29 26 -73 6 -89 -8 -7 -58 -22 -111 -35 l-96 -24 -10 25 c-5 13 -9 33 -9 44
0 11 -17 38 -39 62 -21 23 -42 53 -46 66 -7 23 -6 24 31 17 94 -17 140 -17
179 -2 50 18 49 18 63 4z m982 -22 c6 -19 18 -40 26 -46 30 -26 6 -110 -31
-110 -44 0 -161 -36 -186 -58 -38 -31 -99 -151 -99 -193 0 -25 -6 -33 -30 -42
-16 -6 -30 -15 -30 -19 0 -4 -18 -8 -41 -8 -22 0 -49 -5 -60 -10 -31 -17 -34
12 -5 69 31 61 32 82 5 107 -11 10 -25 27 -30 37 -14 26 16 71 65 97 59 33 94
68 102 104 3 16 16 43 27 58 20 28 22 28 96 22 56 -4 87 -2 116 9 57 22 62 21
75 -17z m-1330 -48 c0 -23 49 -119 80 -158 l31 -39 -21 -33 c-11 -18 -20 -41
-20 -50 0 -10 -13 -32 -28 -49 l-29 -32 -46 18 c-26 10 -47 20 -47 22 0 3 14
23 31 45 44 55 48 106 15 181 -14 32 -26 60 -26 62 0 7 43 45 52 45 4 0 8 -6
8 -12z m2021 -98 c12 -104 29 -145 73 -171 40 -23 54 -53 35 -75 -10 -13 -14
-13 -29 1 -21 19 -64 19 -80 0 -18 -21 -8 -27 24 -16 25 10 56 6 56 -8 0 -18
-28 -31 -67 -31 -24 0 -59 -9 -79 -19 -23 -13 -47 -18 -64 -14 -15 3 -31 0
-34 -6 -11 -17 -36 -13 -36 7 0 9 11 35 25 57 32 53 31 80 -5 122 -16 18 -30
38 -30 43 0 19 54 71 106 100 57 33 74 54 74 91 0 17 3 20 11 12 6 -6 15 -48
20 -93z m7579 -39 l-1 -86 -26 50 c-17 33 -27 72 -31 115 l-5 65 32 -29 c30
-29 31 -32 31 -115z m-4069 82 c13 -16 12 -17 -3 -4 -10 7 -18 15 -18 17 0 8
8 3 21 -13z m10780 -15 c51 -27 65 -38 67 -59 2 -21 -4 -31 -32 -49 -20 -12
-36 -25 -36 -30 0 -12 -31 -21 -50 -15 -20 6 -36 41 -49 105 -5 25 -12 53 -16
63 -12 28 43 21 116 -15z m579 -28 c27 -19 56 -59 140 -196 38 -62 145 -157
197 -176 64 -23 27 -88 -50 -88 -24 0 -68 -5 -98 -11 -47 -9 -60 -8 -100 10
-54 24 -119 108 -119 154 0 15 1 27 3 27 1 0 23 -8 49 -18 31 -12 55 -30 70
-52 16 -23 35 -37 58 -43 38 -9 75 -20 103 -32 10 -4 17 -3 17 4 0 17 -50 61
-69 61 -9 0 -27 6 -41 13 -21 11 -24 18 -22 54 3 41 -16 95 -39 109 -9 5 -10
-6 -5 -40 4 -25 3 -46 -2 -46 -21 0 -102 33 -112 45 -9 11 -8 25 6 60 15 40
15 51 4 86 -8 22 -32 61 -53 85 l-40 46 37 -16 c20 -8 50 -25 66 -36z m208 24
c19 -5 23 -13 21 -38 -6 -98 20 -143 110 -185 66 -31 83 -24 190 84 46 47 89
85 95 85 20 0 36 -23 36 -51 0 -29 -44 -71 -125 -120 -22 -13 -59 -41 -83 -63
l-42 -39 -42 29 c-75 52 -155 133 -178 180 -11 25 -32 64 -46 85 l-24 39 32 0
c18 0 43 -3 56 -6z m-14684 -26 c7 -13 21 -46 30 -75 10 -28 33 -72 51 -96
l35 -45 -51 -7 c-48 -7 -53 -5 -82 24 -18 18 -43 40 -56 49 -14 11 -22 25 -19
37 3 17 10 13 51 -28 26 -27 47 -53 47 -58 0 -5 5 -9 10 -9 6 0 10 19 10 41 0
36 -6 47 -41 79 -38 35 -41 41 -35 74 8 41 29 47 50 14z m15053 -2 c4 -4 -5
-18 -21 -29 -15 -12 -57 -50 -92 -85 l-64 -63 -41 23 c-54 30 -79 63 -79 103
0 35 12 50 45 57 36 8 243 3 252 -6z m-14629 -186 l24 -20 -23 -32 c-12 -18
-38 -50 -56 -71 -18 -20 -33 -47 -33 -59 0 -21 -1 -21 -17 -6 -9 10 -18 37
-19 64 -1 25 -5 48 -8 51 -4 5 93 91 104 92 3 0 16 -8 28 -19z m159 4 c-3 -3
-12 -4 -19 -1 -8 3 -5 6 6 6 11 1 17 -2 13 -5z m14663 -3 c0 -19 -55 -74 -113
-112 -54 -36 -63 -39 -84 -28 -32 17 -16 33 82 78 44 21 86 45 94 54 15 19 21
21 21 8z m540 -33 c11 -24 20 -56 20 -71 0 -15 9 -55 21 -89 11 -33 19 -75 17
-92 l-4 -31 -7 30 c-5 17 -26 66 -47 111 -46 94 -63 157 -47 173 18 18 27 13
47 -31z m-17957 -7 c15 -22 27 -43 27 -47 0 -4 12 -20 26 -35 30 -32 49 -126
23 -116 -71 29 -92 31 -139 14 -59 -21 -94 -22 -114 -2 -20 21 -12 39 27 56
27 12 34 22 44 67 11 52 45 102 67 102 6 0 23 -18 39 -39z m958 12 c74 -81
131 -228 82 -208 -51 21 -85 25 -118 16 -34 -9 -36 -8 -50 26 -23 53 -18 94
15 146 16 26 33 47 38 47 5 0 19 -12 33 -27z m16739 -144 c0 -62 11 -95 39
-116 13 -10 9 -12 -27 -13 -40 0 -49 5 -92 50 -52 54 -82 62 -131 36 -23 -11
-29 -11 -47 3 -27 20 -24 25 69 117 l72 72 58 -45 59 -44 0 -60z m-15669 35
c32 -5 44 -14 68 -51 29 -43 29 -46 15 -85 -8 -22 -13 -59 -12 -81 3 -38 1
-41 -30 -50 -23 -7 -40 -6 -60 3 -15 7 -33 14 -40 16 -7 1 -25 10 -39 19 -16
11 -36 15 -57 11 -17 -3 -47 -1 -66 3 -19 5 -28 9 -21 10 11 1 12 4 4 12 -9 9
-7 16 8 28 19 15 19 18 4 55 -12 27 -20 35 -27 28 -6 -6 -17 -8 -26 -4 -12 4
-14 1 -8 -14 18 -42 17 -52 -6 -79 l-24 -27 -47 36 c-26 20 -53 36 -60 36 -6
0 -36 11 -65 25 -66 31 -137 33 -184 6 -18 -11 -56 -22 -85 -26 -46 -6 -52 -5
-58 14 -9 29 -25 26 -25 -3 0 -14 -11 -38 -25 -53 -24 -27 -24 -28 -25 -5 0
12 7 39 15 58 8 20 12 41 8 48 -10 15 -33 80 -30 83 6 5 83 -21 98 -34 17 -14
77 -16 119 -4 15 4 43 2 68 -7 34 -11 49 -12 69 -3 26 12 36 9 71 -22 20 -18
26 -19 55 -9 19 7 44 12 58 12 13 1 35 7 49 15 14 8 44 14 68 15 49 0 86 17
121 54 l24 25 29 -24 c16 -14 47 -28 69 -31z m-1830 5 c19 -6 48 -18 66 -27
27 -14 41 -14 87 -5 42 9 62 9 92 -2 20 -7 54 -10 75 -8 28 4 44 0 67 -17 26
-20 35 -21 59 -12 15 6 46 14 68 18 22 4 46 11 52 16 18 15 33 -30 20 -59 -7
-16 -7 -26 1 -36 8 -9 6 -21 -10 -45 -11 -18 -22 -32 -25 -32 -3 0 -27 15 -53
34 -26 18 -58 37 -71 41 -13 3 -44 16 -69 28 -57 26 -123 26 -175 -1 -22 -11
-61 -23 -86 -27 -41 -6 -47 -5 -52 14 -7 29 -27 26 -27 -3 0 -14 -12 -38 -26
-53 l-25 -28 6 45 c3 24 10 50 16 56 6 8 7 19 1 31 -11 21 -31 83 -28 83 2 0
18 -5 37 -11z m17383 -184 c26 -33 39 -39 142 -65 52 -13 67 -46 23 -48 -16
-1 -35 -2 -41 -3 -7 0 -34 8 -61 18 -55 21 -73 14 -98 -37 l-16 -33 -6 33
c-15 72 -2 170 22 170 5 0 21 -16 35 -35z m485 -31 c1 -11 -11 -29 -28 -41
l-28 -21 3 21 c1 12 10 40 19 62 16 35 19 38 26 20 4 -11 8 -29 8 -41z m-1089
-37 c0 -7 -15 -28 -34 -46 l-34 -33 -21 30 c-16 23 -18 32 -8 40 27 22 97 28
97 9z"/>
<path d="M8126 3885 c-16 -12 -22 -12 -29 -2 -6 9 -10 9 -13 1 -3 -7 -14 -10
-25 -7 -14 4 -18 1 -14 -10 5 -11 0 -13 -22 -9 -25 5 -27 4 -14 -11 12 -15 11
-17 -7 -17 -26 0 -40 -20 -15 -21 10 0 13 -3 6 -6 -25 -10 -13 -25 14 -18 24
6 25 5 12 -11 -15 -19 -16 -19 36 2 11 4 15 -1 16 -17 l0 -24 11 22 11 22 19
-22 19 -22 -6 29 c-5 26 -4 28 9 17 26 -22 42 -7 19 16 l-21 21 35 -5 c26 -4
34 -3 29 5 -4 7 -15 12 -24 13 -13 0 -12 3 6 11 35 17 26 31 -15 25 l-38 -6
25 19 c16 13 20 20 10 19 -8 0 -24 -6 -34 -14z"/>
<path d="M8673 3840 c3 -11 1 -22 -4 -26 -5 -3 -3 -11 4 -18 6 -8 15 -12 19
-10 4 3 3 -10 -2 -28 -11 -35 -6 -52 5 -19 7 23 21 27 28 9 4 -10 8 -10 15 1
8 11 10 11 15 0 4 -9 6 -10 6 -2 1 7 8 10 18 6 10 -4 14 -2 10 4 -4 6 -1 14 5
16 10 4 10 8 -1 15 -7 5 -10 15 -7 21 4 6 2 11 -4 11 -6 0 -8 5 -5 10 3 6 -1
10 -9 10 -9 0 -16 4 -16 8 0 4 -9 8 -20 8 -11 0 -20 -5 -20 -10 0 -6 -5 -5
-12 2 -18 18 -31 14 -25 -8z"/>
<path d="M9352 3735 c-17 -37 -14 -45 4 -12 9 16 14 31 11 33 -2 2 -9 -7 -15
-21z"/>
<path d="M8130 3717 c0 -7 4 -17 10 -23 6 -6 -7 -8 -35 -6 -44 4 -57 -6 -32
-25 19 -15 96 -32 102 -22 6 8 -31 89 -40 89 -3 0 -5 -6 -5 -13z"/>
<path d="M4909 3704 c-8 -10 -8 -18 -1 -26 5 -7 13 -29 17 -48 7 -33 7 -34
-11 -20 -15 12 -15 10 3 -12 11 -15 24 -44 28 -64 3 -20 9 -34 11 -31 3 3 -2
40 -11 83 -14 70 -14 79 0 86 8 5 15 15 15 22 0 19 -37 27 -51 10z"/>
<path d="M14570 3581 c0 -5 5 -13 10 -16 6 -3 10 -2 10 4 0 5 -4 13 -10 16 -5
3 -10 2 -10 -4z"/>
<path d="M12880 3565 c-7 -9 -11 -18 -8 -20 3 -3 11 1 18 10 7 9 11 18 8 20
-3 3 -11 -1 -18 -10z"/>
<path d="M11040 2433 c0 -5 7 -18 15 -29 12 -16 14 -16 15 -3 0 9 -7 22 -15
29 -8 7 -15 8 -15 3z"/>
</g>
</svg>
