<?xml version="1.0" standalone="no"?>
<!DOCTYPE svg PUBLIC "-//W3C//DTD SVG 20010904//EN"
 "http://www.w3.org/TR/2001/REC-SVG-20010904/DTD/svg10.dtd">
<svg version="1.0" xmlns="http://www.w3.org/2000/svg"
 width="1024.000000pt" height="1024.000000pt" viewBox="0 0 1024.000000 1024.000000"
 preserveAspectRatio="xMidYMid meet">
<metadata>
Created by potrace 1.16, written by Peter Selinger 2001-2019
</metadata>
<g transform="translate(0.000000,1024.000000) scale(0.100000,-0.100000)"
fill="#000000" stroke="none">
<path d="M6154 8486 c-16 -7 -46 -32 -66 -55 l-35 -41 -62 25 c-150 62 -298
69 -469 26 -174 -45 -272 -106 -377 -234 -163 -198 -230 -405 -205 -635 20
-196 71 -303 285 -602 88 -122 128 -194 140 -248 l7 -34 -32 17 c-93 48 -203
-58 -172 -164 13 -41 80 -111 107 -111 19 0 19 -14 -1 -31 -33 -27 -44 -65
-37 -131 5 -59 3 -66 -21 -95 -17 -20 -52 -41 -99 -59 -87 -33 -91 -36 -111
-77 -12 -27 -13 -46 -5 -101 10 -75 1 -106 -32 -106 -28 0 -77 -27 -89 -49
-13 -26 -13 -70 1 -110 13 -36 64 54 -476 -836 -120 -198 -286 -476 -369 -619
l-152 -259 -49 -19 c-73 -28 -88 -47 -95 -120 -4 -35 -2 -73 3 -85 8 -18 -1
-39 -55 -125 -65 -104 -432 -704 -561 -918 -151 -249 -287 -493 -303 -543 -9
-29 -23 -59 -30 -68 -8 -8 -14 -24 -13 -35 0 -17 1 -16 9 4 12 29 17 28 18 -7
1 -38 57 -136 91 -160 67 -48 176 -52 258 -8 43 22 55 37 118 146 39 66 76
126 82 132 9 9 29 2 80 -26 37 -21 83 -47 101 -57 18 -10 35 -18 38 -18 2 0
30 39 61 88 30 48 57 89 59 91 7 8 63 -22 88 -48 l27 -28 -21 -54 c-11 -30
-28 -67 -38 -84 l-18 -30 54 -50 c30 -27 89 -76 131 -108 115 -87 425 -234
397 -188 -4 6 6 28 23 48 41 53 149 252 157 289 5 29 2 34 -39 63 -25 17 -58
36 -73 41 -25 10 -31 7 -71 -35 -23 -25 -43 -50 -43 -56 0 -7 -39 14 -89 48
-3 2 93 170 115 202 2 1 36 -15 76 -37 l74 -41 41 43 c23 24 58 76 78 116 42
83 42 81 -47 141 -32 22 -58 42 -58 46 0 3 30 52 66 109 l66 103 27 -16 c63
-39 62 -38 31 -108 l-29 -64 32 -24 c40 -30 92 -57 110 -57 19 0 56 42 114
130 65 97 93 153 93 184 0 47 -79 111 -267 217 -59 34 -133 79 -163 100 -42
29 -61 36 -82 32 -15 -3 -26 -9 -23 -13 2 -4 -2 -16 -10 -26 -13 -18 -14 -18
-8 6 4 19 -4 12 -31 -25 -73 -100 -83 -104 -136 -55 -27 26 -31 34 -25 62 4
18 20 59 36 91 35 70 36 75 3 87 -14 6 -57 31 -96 55 -75 49 -75 48 -33 114
19 32 32 41 53 41 15 0 46 9 70 20 34 15 47 29 63 65 17 39 19 51 9 81 -11 32
-9 40 38 127 27 50 164 281 304 512 140 231 307 508 371 615 64 107 158 260
209 340 94 144 94 145 138 152 62 10 94 48 86 99 -3 20 -8 44 -12 52 -9 25 42
74 90 86 28 7 53 22 71 43 26 31 26 33 20 137 -8 137 5 166 82 191 66 21 80
33 95 81 6 22 13 39 15 39 2 0 20 -9 40 -20 24 -13 57 -20 90 -20 46 0 58 4
90 33 31 29 37 41 41 90 4 54 3 58 -32 93 -20 20 -36 37 -36 39 0 2 25 9 56
16 45 10 83 10 192 0 76 -7 189 -17 252 -22 207 -19 334 5 503 93 132 69 279
222 351 366 15 29 41 94 58 145 42 123 43 252 4 401 -49 187 -132 315 -279
431 l-37 30 14 40 c31 83 15 147 -52 207 -22 20 -59 42 -81 49 l-39 12 5 52
c4 38 0 73 -17 126 -19 64 -29 80 -88 139 -58 58 -77 69 -140 89 -107 35 -199
20 -295 -46 l-38 -26 -32 31 c-60 58 -145 77 -213 48z m69 -26 c-23 -5 -52
-14 -64 -20 -16 -9 -20 -9 -14 0 11 17 45 29 85 28 35 0 35 0 -7 -8z m525 -15
c46 -20 117 -88 143 -138 27 -51 37 -114 29 -176 -5 -39 -4 -51 6 -47 7 3 15
-2 18 -10 3 -8 1 -14 -4 -14 -19 0 -10 -19 13 -25 101 -30 157 -147 114 -234
l-16 -32 42 -26 c70 -44 153 -121 197 -184 142 -202 189 -500 106 -679 -9 -19
-14 -26 -11 -16 3 11 8 47 10 80 l5 61 -15 -65 c-9 -36 -27 -88 -41 -117 -31
-64 -143 -185 -232 -253 -196 -147 -348 -179 -708 -148 -168 14 -247 4 -341
-42 -60 -30 -133 -99 -133 -127 0 -16 12 -17 27 -2 32 32 103 -35 88 -82 -17
-51 -93 -77 -146 -49 -27 15 -49 63 -49 108 0 39 49 132 70 132 5 0 10 7 10
15 0 13 -6 12 -37 -4 -65 -33 -103 -88 -103 -148 0 -22 -3 -24 -25 -19 -15 4
-25 2 -25 -4 0 -6 -5 -8 -11 -4 -8 5 -8 9 1 14 10 6 -96 89 -161 126 -14 8
-13 14 8 59 14 28 22 39 19 25 -16 -67 -15 -73 4 -34 28 59 44 208 31 294 -14
87 -13 94 5 46 23 -64 26 -135 10 -226 -8 -46 -14 -86 -12 -88 9 -8 37 98 42
158 8 78 -11 161 -56 249 -16 33 -30 64 -30 69 0 4 26 6 58 4 74 -5 134 11
176 48 37 33 46 36 46 17 0 -25 57 -68 96 -74 l39 -5 -3 -64 c-3 -55 1 -73 27
-127 17 -34 38 -72 46 -84 l16 -21 -88 -1 c-138 -1 -230 -38 -310 -124 -72
-78 -68 -94 5 -24 78 74 151 114 228 122 l49 6 -61 -20 c-33 -12 -88 -39 -123
-61 -68 -44 -161 -127 -161 -143 0 -6 16 5 37 24 l36 34 -32 -47 c-18 -27 -28
-48 -24 -48 4 0 40 30 78 68 84 80 147 116 248 142 101 25 219 27 249 3 26
-21 77 -43 99 -43 16 0 8 7 -27 26 -155 82 -228 197 -226 359 0 59 -2 71 -16
72 -38 4 -104 21 -114 31 -5 5 -16 27 -23 48 -13 34 -15 36 -21 17 -3 -13 -11
-20 -20 -16 -10 4 -11 10 -4 23 18 33 11 33 -28 -2 -54 -49 -134 -72 -234 -66
-70 4 -90 10 -170 51 -77 39 -87 42 -67 20 13 -13 37 -32 54 -40 68 -36 124
-130 155 -262 18 -76 8 -230 -20 -311 -12 -36 -23 -66 -25 -68 -4 -5 -65 27
-97 51 -28 21 -28 21 -8 39 38 35 60 94 60 158 0 33 -4 60 -10 60 -5 0 -10
-10 -10 -23 0 -33 -48 -125 -75 -143 -31 -20 -89 -20 -120 0 -76 50 -61 166
22 166 39 0 76 -31 66 -56 -12 -31 19 -9 39 26 23 44 24 137 2 211 -23 78 -55
136 -160 295 -105 157 -166 279 -189 375 -44 189 9 491 111 629 24 33 47 60
51 60 5 1 22 12 38 25 49 41 14 28 -43 -15 -75 -57 -49 -15 36 56 116 99 262
151 452 160 91 5 118 2 205 -20 55 -14 122 -37 148 -51 57 -29 57 -29 57 -12
0 21 52 63 93 77 52 16 112 4 153 -32 28 -25 37 -28 49 -18 9 8 15 8 15 2 0
-6 22 4 50 23 55 37 142 60 185 49 20 -5 26 -4 21 5 -10 16 27 14 72 -4z
m-1684 -481 c-42 -133 -57 -244 -51 -394 3 -74 8 -146 11 -160 3 -14 -3 2 -15
35 -30 88 -37 267 -14 371 15 70 76 224 88 224 3 0 -6 -34 -19 -76z m2056 -45
c6 -22 10 -45 8 -51 -2 -6 -11 14 -20 45 -8 31 -11 54 -7 51 5 -3 13 -23 19
-45z m-10 -139 c0 -5 -5 -10 -11 -10 -5 0 -7 5 -4 10 3 6 8 10 11 10 2 0 4 -4
4 -10z m-2048 -350 c30 -93 58 -145 165 -304 89 -130 163 -266 163 -298 0 -7
-17 17 -39 54 -21 36 -66 102 -99 145 -66 87 -164 244 -193 308 -10 22 -20 74
-23 115 -6 80 -6 80 26 -20z m773 -450 c-9 -15 -82 -50 -102 -49 -10 0 -1 7
20 14 20 8 47 21 59 30 26 18 32 19 23 5z m-300 -30 c3 -5 2 -10 -4 -10 -5 0
-13 5 -16 10 -3 6 -2 10 4 10 5 0 13 -4 16 -10z m442 -36 c-3 -3 -12 -4 -19
-1 -8 3 -5 6 6 6 11 1 17 -2 13 -5z m63 -84 l-7 -75 -2 62 c-1 53 6 100 14 91
1 -2 -1 -37 -5 -78z m1245 -147 c-84 -131 -247 -255 -405 -309 -105 -35 -128
-29 -35 10 94 39 165 79 257 148 69 51 208 192 208 211 0 6 3 8 6 4 3 -3 -11
-32 -31 -64z m-1821 -155 c-20 -34 -49 -68 -56 -68 -5 0 6 18 24 40 33 40 45
51 32 28z m-94 -88 c0 -5 -8 -10 -17 -10 -15 0 -16 2 -3 10 19 12 20 12 20 0z
m1514 -20 c-5 -5 -42 -23 -83 -40 -68 -28 -83 -30 -190 -30 -64 0 -150 5 -191
11 -41 6 -127 14 -190 18 l-115 7 60 13 c46 10 89 11 180 5 189 -14 432 -10
485 9 57 19 56 19 44 7z m-1450 -35 c11 -8 15 -15 10 -15 -6 0 -19 7 -30 15
-10 8 -14 14 -9 14 6 0 19 -6 29 -14z m-11 -31 c47 -24 280 -167 300 -185 15
-12 -30 -99 -50 -99 -18 1 -61 27 -52 33 2 1 16 9 32 17 15 7 27 20 27 28 0
12 -5 10 -23 -6 -31 -29 -54 -28 -107 8 -25 17 -83 52 -130 77 -104 56 -120
70 -120 99 0 23 33 54 58 54 7 0 36 -12 65 -26z m421 -64 c-10 -16 -20 -27
-22 -25 -5 5 26 55 34 55 3 0 -3 -13 -12 -30z m-489 -60 c-14 -5 -6 -13 41
-40 32 -18 84 -49 114 -70 30 -20 79 -49 108 -65 31 -17 48 -31 41 -36 -6 -3
-50 19 -98 51 -47 32 -122 77 -166 102 -57 31 -81 50 -83 65 -3 21 -1 22 29
11 27 -9 30 -12 14 -18z m462 -17 c-3 -10 -5 -4 -5 12 0 17 2 24 5 18 2 -7 2
-21 0 -30z m-364 -110 c67 -43 69 -44 53 -66 -29 -39 -49 -90 -66 -167 -10
-44 -22 -74 -29 -72 -23 5 -10 -14 22 -32 27 -16 30 -16 16 -2 -14 16 -14 24
8 99 27 94 68 187 81 187 5 0 14 -6 20 -13 8 -9 4 -26 -14 -64 -16 -31 -30
-83 -35 -130 -7 -53 -16 -84 -29 -97 -21 -22 -17 -23 -112 52 -58 46 -291 192
-307 192 -15 0 -14 6 5 35 10 15 40 33 75 46 63 23 134 77 144 110 6 19 8 19
53 -7 26 -15 78 -47 115 -71z m374 45 c-3 -8 -6 -5 -6 6 -1 11 2 17 5 13 3 -3
4 -12 1 -19z m-47 -50 c0 -55 -62 -86 -106 -53 -19 14 -18 14 4 15 24 0 62 51
62 84 0 18 1 18 20 1 11 -10 20 -31 20 -47z m-168 -132 c-13 -24 -17 -57 -17
-147 0 -134 -7 -149 -78 -168 -34 -8 -45 -7 -57 5 -13 13 -13 16 0 24 8 5 21
8 28 5 39 -16 44 -16 22 0 -14 10 -27 20 -29 21 -2 2 6 15 16 31 12 17 24 60
31 108 6 45 20 102 31 128 19 45 22 46 45 36 25 -12 25 -12 8 -43z m-496 -20
c27 -19 100 -69 162 -112 89 -60 110 -79 101 -90 -12 -15 -36 -2 -160 87 -69
49 -86 58 -74 39 9 -15 1 -13 -50 12 -42 20 -45 25 -45 60 0 21 4 38 9 38 5 0
31 -15 57 -34z m-23 -82 c27 -14 245 -150 256 -160 2 -1 -5 -14 -16 -27 l-19
-25 -82 52 c-45 29 -107 65 -137 81 -48 24 -55 31 -49 49 4 11 7 27 7 34 0 15
2 15 40 -4z m-53 -62 c0 -5 46 -36 103 -70 56 -34 126 -77 156 -96 30 -20 59
-37 65 -39 6 -3 8 -7 5 -11 -4 -4 -67 29 -139 74 -154 94 -210 124 -218 116
-3 -3 -3 -8 -1 -10 9 -9 231 -147 259 -161 29 -15 30 -16 15 -45 -8 -16 -19
-31 -24 -35 -6 -3 -74 33 -152 80 -125 74 -179 98 -179 80 0 -3 23 -19 51 -36
27 -17 48 -33 45 -36 -5 -5 -88 46 -98 61 -9 13 -10 68 -2 90 4 10 18 16 39
16 18 0 38 7 45 15 14 16 30 20 30 7z m400 -84 c0 -14 -20 -18 -40 -8 -17 9
-19 14 -10 25 9 11 16 12 31 2 10 -6 19 -15 19 -19z m-59 -38 c22 -12 24 -29
6 -54 -12 -17 -14 -17 -36 1 -20 17 -22 22 -12 41 13 25 15 26 42 12z m60 -40
c18 -10 18 -12 3 -35 -18 -27 -22 -29 -42 -16 -10 6 -11 13 -1 34 14 31 14 31
40 17z m-409 -78 c40 -26 119 -74 176 -106 64 -37 101 -64 98 -71 -6 -16 -76
-115 -81 -115 -2 0 7 19 20 43 28 48 34 85 9 52 -9 -11 -47 -73 -86 -139 -73
-123 -412 -643 -431 -661 -12 -11 -17 -19 130 216 168 267 371 624 361 634 -2
2 -46 -69 -97 -158 -52 -89 -207 -344 -346 -567 -253 -406 -342 -553 -469
-773 -73 -126 -88 -170 -20 -59 23 37 126 204 229 372 103 168 192 310 198
315 6 6 4 -1 -5 -15 -58 -95 -141 -243 -232 -413 -58 -108 -128 -233 -156
-277 -27 -44 -50 -83 -50 -86 0 -34 105 136 260 421 51 94 120 215 153 270 72
121 315 496 330 510 6 6 4 -1 -5 -15 -186 -305 -602 -1007 -653 -1100 -37 -69
-73 -131 -80 -138 -10 -11 -36 2 -143 74 l-131 87 68 101 c89 133 236 376 404
669 75 130 185 319 245 419 194 325 291 501 260 468 -20 -21 -396 -651 -498
-835 -157 -284 -292 -510 -434 -727 l-57 -88 -40 27 c-21 14 -39 30 -39 35 0
19 62 129 132 233 204 303 270 400 276 405 3 3 -1 -6 -9 -20 -139 -226 -311
-521 -307 -525 11 -12 539 860 778 1285 158 281 146 258 128 240 -15 -15 -43
-61 -298 -492 -67 -115 -124 -208 -127 -208 -6 0 44 90 190 340 66 113 149
256 185 318 43 76 69 111 78 108 8 -3 47 -27 86 -54z m391 -72 c6 -45 -8 -70
-38 -70 -34 0 -39 16 -16 49 12 16 21 35 21 43 0 7 -10 -4 -23 -24 -17 -28
-26 -35 -37 -28 -12 7 -11 13 9 34 14 14 21 29 17 33 -4 5 -17 -4 -28 -19 -15
-22 -23 -26 -38 -18 -17 9 -17 11 2 49 l20 40 53 -27 c46 -24 54 -31 58 -62z
m-19 84 c9 -3 16 -12 16 -20 0 -12 -4 -12 -20 -2 -30 19 -27 34 4 22z m-69
-144 c3 -5 2 -10 -4 -10 -5 0 -13 5 -16 10 -3 6 -2 10 4 10 5 0 13 -4 16 -10z
m-856 -547 c-52 -96 -199 -342 -263 -440 -50 -78 -75 -102 -31 -30 14 23 94
156 177 295 150 251 198 322 117 175z m-539 -988 c13 -14 45 -39 72 -56 26
-17 48 -33 48 -35 0 -7 -52 22 -89 50 -19 14 -37 23 -40 20 -10 -10 61 -61
202 -145 l137 -81 0 -52 c0 -75 -24 -94 -73 -56 -25 20 -25 22 -11 55 16 38
18 65 6 65 -5 0 -13 -17 -18 -37 -10 -42 -22 -49 -48 -30 -18 13 -18 15 -3 38
19 26 23 79 7 79 -5 0 -10 -13 -10 -28 0 -16 -6 -36 -12 -45 -12 -15 -26 -9
-141 59 -71 41 -138 76 -149 77 -22 4 -38 24 -38 49 0 27 41 68 85 83 52 18
48 19 75 -10z m-70 -175 c36 -22 58 -40 50 -39 -24 1 -124 53 -128 67 -6 20 9
14 78 -28z m35 -87 c57 -38 129 -83 160 -102 54 -34 55 -35 37 -55 -31 -36
-86 -126 -177 -291 -92 -167 -110 -197 -187 -314 -58 -86 -102 -163 -123 -216
-31 -76 10 -16 95 137 44 80 88 152 97 160 15 12 15 11 4 -10 -22 -41 -4 -36
28 8 16 23 71 111 121 195 l92 153 66 -41 c37 -22 77 -48 90 -58 l22 -17 -24
-29 c-40 -48 -68 -108 -61 -136 10 -40 83 -87 153 -97 l42 -7 52 71 c28 39 55
75 59 80 4 5 83 -40 176 -99 92 -59 198 -126 235 -147 37 -22 70 -44 73 -48 3
-5 -16 -42 -43 -82 -27 -40 -64 -101 -82 -135 -18 -35 -37 -63 -42 -63 -11 0
20 60 94 183 33 55 57 101 54 104 -10 11 -126 -171 -155 -244 l-13 -32 -39 26
c-22 14 -38 29 -37 32 2 3 16 30 31 59 27 51 27 55 11 73 -27 29 -100 69 -128
69 -14 0 -34 -9 -44 -20 -33 -36 -113 -184 -108 -202 2 -9 -1 -19 -7 -21 -6
-2 -11 -13 -12 -26 -1 -16 10 -30 41 -52 23 -16 47 -29 52 -29 5 0 15 -7 22
-15 10 -12 5 -26 -28 -77 -21 -35 -42 -73 -46 -85 -4 -13 -12 -23 -17 -23 -6
0 -42 18 -80 41 -69 40 -71 40 -91 22 -27 -24 -106 -159 -120 -206 -10 -34 -9
-40 13 -63 13 -15 44 -35 67 -46 l44 -20 25 24 c14 12 32 37 41 55 l17 32 47
-35 47 -35 -60 -91 c-32 -49 -73 -117 -91 -150 -18 -35 -36 -57 -44 -54 -7 3
-54 36 -106 74 -93 69 -188 129 -305 192 l-62 34 18 25 c25 36 61 136 61 170
0 23 -9 35 -46 60 -25 16 -62 35 -81 42 -30 10 -39 9 -61 -8 -23 -17 -76 -86
-101 -132 -7 -11 -26 -3 -99 44 l-91 58 38 56 c43 63 161 266 161 277 0 14
-111 -139 -159 -220 -28 -48 -51 -89 -51 -92 0 -3 -19 -28 -42 -54 -24 -26
-74 -102 -111 -168 -48 -85 -74 -121 -85 -120 -9 2 -36 -4 -60 -12 -42 -13
-44 -13 -70 13 l-27 27 32 0 c17 0 36 7 43 15 8 10 30 15 61 15 44 0 49 2 49
23 0 13 -5 28 -12 35 -9 9 -4 12 22 13 l35 1 -29 7 c-17 3 -28 11 -26 16 2 6
5 18 8 28 4 17 22 24 22 9 0 -5 7 -17 16 -28 15 -18 15 -18 10 6 -4 20 0 28
17 35 16 8 21 17 19 37 -2 19 3 28 17 33 23 7 35 37 26 64 -3 11 -1 22 5 26 5
3 10 11 10 17 0 6 -7 5 -17 -3 -11 -9 -5 7 14 44 52 96 21 64 -38 -39 -29 -53
-60 -99 -66 -101 -7 -3 -13 -13 -13 -23 0 -11 -5 -22 -10 -25 -6 -4 -17 -22
-25 -42 -13 -31 -18 -34 -42 -28 -26 6 -27 6 -11 -12 15 -17 15 -20 -3 -42
-18 -22 -23 -23 -41 -12 -23 14 -37 6 -20 -11 21 -21 13 -38 -15 -38 -37 0
-46 7 -72 55 -20 36 -21 37 -16 10 6 -29 6 -29 -14 -11 -35 31 -24 7 20 -45
51 -61 39 -62 -26 -2 l-50 46 1 63 c0 53 5 69 30 104 191 270 760 1207 875
1443 18 37 35 67 36 67 2 0 50 -30 108 -67z m70 17 c3 -6 -1 -7 -9 -4 -18 7
-21 14 -7 14 6 0 13 -4 16 -10z m151 -118 c-7 -6 -69 34 -92 59 -12 14 2 8 39
-16 31 -21 55 -40 53 -43z m72 -20 c2 -7 -5 -12 -17 -12 -14 0 -19 5 -14 15 6
17 25 15 31 -3z m-158 -170 c0 -5 -7 -17 -15 -28 -14 -18 -14 -17 -4 9 12 27
19 34 19 19z m230 -132 c0 -5 -4 -10 -10 -10 -5 0 -10 5 -10 10 0 6 5 10 10
10 6 0 10 -4 10 -10z m-821 -72 c-66 -124 -386 -648 -395 -648 -6 0 -15 -15
86 155 119 202 311 515 316 515 3 0 -1 -10 -7 -22z m766 -138 c4 -6 -4 -5 -19
2 -14 6 -26 19 -26 28 0 28 12 31 26 5 7 -14 16 -29 19 -35z m670 -165 c11 -9
2 -7 -20 6 -22 12 -44 26 -50 32 -16 15 48 -20 70 -38z m-1615 -590 c0 -28 -4
-35 -20 -35 -24 0 -24 3 -5 40 20 39 25 38 25 -5z m125 -35 c3 -5 2 -10 -4
-10 -5 0 -13 5 -16 10 -3 6 -2 10 4 10 5 0 13 -4 16 -10z m445 -31 c0 -6 -4
-7 -10 -4 -5 3 -10 11 -10 16 0 6 5 7 10 4 6 -3 10 -11 10 -16z m-612 -17 c3
-18 -2 -22 -21 -22 -23 0 -24 2 -14 25 14 29 31 28 35 -3z m-88 -137 c17 -21
-1 -39 -29 -30 -17 5 -19 10 -11 26 13 23 23 24 40 4z m-205 -121 l30 -25 -32
15 c-17 9 -35 20 -38 26 -11 18 10 10 40 -16z m172 -20 c-3 -3 -12 -4 -19 -1
-8 3 -5 6 6 6 11 1 17 -2 13 -5z m921 -73 c85 -55 107 -74 50 -45 -45 23 -178
113 -178 120 0 4 10 0 23 -8 12 -8 59 -38 105 -67z m302 -81 c-11 -22 -23 -40
-25 -40 -3 0 4 18 15 40 11 22 23 40 25 40 3 0 -4 -18 -15 -40z"/>
<path d="M5590 8395 c-75 -16 -197 -62 -206 -77 -4 -6 -1 -8 7 -5 127 52 348
97 405 83 14 -4 24 -2 24 4 0 15 -152 11 -230 -5z"/>
<path d="M6595 8347 c-63 -21 -100 -44 -129 -78 -25 -29 -28 -30 -44 -16 -34
31 -93 49 -131 41 -20 -4 -40 -8 -46 -8 -5 -1 -9 -10 -7 -20 3 -15 -2 -13 -25
9 -36 34 -63 49 -63 35 0 -6 7 -13 16 -17 28 -11 155 -215 142 -228 -2 -2 -17
21 -33 52 -33 64 -110 147 -172 186 -55 35 -68 34 -23 -1 116 -90 188 -184
216 -280 36 -122 9 -275 -58 -339 -54 -50 -94 -66 -159 -61 -70 5 -117 37
-148 101 -37 77 -21 149 42 187 38 24 68 25 106 6 41 -22 69 -104 41 -121 -19
-12 0 -25 21 -15 70 38 64 208 -12 323 -33 50 -130 121 -209 152 -25 9 -92 21
-150 25 -97 8 -111 7 -180 -17 -41 -13 -100 -40 -130 -58 -70 -43 -162 -131
-201 -192 -36 -57 -69 -160 -69 -214 0 -55 17 -48 22 9 5 54 35 120 78 172
l29 35 -20 -53 c-47 -127 -35 -235 36 -309 36 -37 47 -43 83 -43 29 0 49 7 71
26 l31 26 0 -29 c0 -53 -59 -103 -122 -103 -38 0 -108 41 -133 78 -16 24 -25
31 -25 19 0 -9 18 -35 39 -56 43 -43 103 -65 148 -55 22 4 25 3 13 -5 -8 -6
-36 -11 -61 -11 -37 0 -58 8 -103 37 -32 21 -56 45 -56 55 0 21 -16 32 -24 16
-4 -7 -4 -3 -2 10 5 25 -21 32 -30 7 -11 -28 24 -194 53 -257 85 -181 343
-305 483 -233 53 27 98 103 71 119 -6 4 -11 2 -11 -4 0 -19 -46 -29 -84 -19
-52 14 -70 47 -63 111 8 67 38 98 100 105 63 7 109 -11 155 -61 61 -66 80
-165 47 -243 -18 -44 -19 -48 -2 -34 10 7 17 7 24 0 8 -8 13 -8 17 0 4 6 22
11 41 11 25 0 40 -8 59 -31 14 -17 26 -39 26 -50 0 -10 5 -19 11 -19 6 0 8 -9
4 -22 -5 -17 5 -10 37 24 54 58 99 78 176 78 81 0 139 -31 170 -90 12 -24 22
-57 22 -73 0 -63 -54 -117 -118 -117 -59 0 -119 81 -86 115 14 13 14 15 0 15
-8 0 -24 -12 -35 -26 -76 -97 -24 -237 122 -333 153 -99 305 -108 481 -28 35
16 56 32 56 43 0 12 -6 15 -25 10 -14 -4 -25 -2 -25 3 0 6 -7 8 -15 5 -46 -18
-157 62 -175 124 -15 55 -11 62 10 16 27 -62 79 -97 148 -100 55 -3 56 -3 15
6 -56 12 -96 34 -126 69 -47 57 -43 134 10 168 21 14 21 13 21 -30 0 -84 48
-127 142 -127 90 0 163 43 248 145 l34 40 -17 -40 c-28 -69 -62 -120 -109
-163 -25 -23 -46 -45 -46 -47 0 -3 18 4 40 15 79 40 171 177 201 300 20 80 17
250 -5 335 -18 67 -44 131 -31 75 3 -14 -8 1 -24 32 -61 113 -204 217 -327
236 -93 15 -228 -27 -273 -84 -27 -35 -37 -72 -22 -87 8 -8 11 -7 11 6 0 49
99 60 146 16 51 -48 34 -149 -33 -190 -51 -31 -146 -24 -198 15 -138 106 -76
315 123 409 62 30 75 32 167 31 86 0 113 -5 190 -32 102 -36 125 -34 42 3 -70
30 -122 44 -212 54 l-70 8 75 1 c41 1 103 -4 138 -12 34 -7 62 -11 62 -9 0 2
-20 12 -45 23 -25 11 -45 25 -45 32 0 9 3 9 11 -2 17 -24 0 61 -17 88 -8 13
-33 35 -54 50 -37 25 -39 29 -32 62 21 106 -9 217 -72 265 -40 30 -107 39
-161 22z m119 -21 c30 -12 76 -62 76 -82 0 -4 -15 6 -32 23 -18 18 -53 41 -78
52 -34 15 -39 20 -22 20 12 1 38 -5 56 -13z m-6 -68 c18 -11 39 -33 47 -48 19
-36 20 -169 3 -192 -7 -9 -38 -23 -69 -32 -68 -19 -165 -82 -215 -139 -20 -23
-34 -33 -29 -22 4 11 14 56 22 100 16 88 11 165 -13 223 -8 21 -11 38 -5 40 5
2 30 19 55 39 82 64 135 72 204 31z m-814 -38 c36 -18 73 -41 82 -51 14 -15 7
-14 -31 7 -64 37 -142 53 -250 55 -90 1 -90 1 -50 15 66 23 172 12 249 -26z
m420 11 c47 -52 83 -266 58 -351 -9 -32 -10 -29 -11 35 -1 110 -26 189 -92
293 -12 20 -12 24 1 32 21 13 25 13 44 -9z m55 -6 c64 -32 86 -176 53 -334
-21 -102 -20 -134 5 -104 14 17 14 17 9 1 -8 -27 7 -22 40 13 41 44 143 119
184 137 19 8 57 21 84 28 46 12 53 12 83 -7 39 -24 43 -38 9 -32 -39 8 -132
-16 -206 -53 -95 -48 -172 -120 -200 -188 l-23 -53 -46 25 c-25 14 -48 27 -50
28 -2 2 11 24 28 50 46 70 56 115 56 254 0 119 -2 128 -31 188 -17 34 -29 62
-27 62 2 0 17 -7 32 -15z m-355 -44 c47 -32 106 -95 106 -113 0 -6 -31 19 -70
55 -38 37 -83 73 -100 82 -16 8 -30 18 -30 20 0 9 53 -16 94 -44z m411 39 c3
-5 1 -10 -4 -10 -6 0 -11 5 -11 10 0 6 2 10 4 10 3 0 8 -4 11 -10z m-810 -10
c-11 -5 -27 -9 -35 -9 -9 0 -8 4 5 9 11 5 27 9 35 9 9 0 8 -4 -5 -9z m252 -45
c68 -20 169 -89 210 -143 40 -53 41 -65 6 -55 -79 22 -159 -5 -201 -68 -35
-50 -28 -147 13 -215 69 -112 237 -138 354 -54 28 19 28 19 46 0 10 -11 33
-25 51 -32 33 -12 34 -14 34 -68 0 -154 95 -260 234 -262 172 -3 253 152 151
287 l-35 45 34 0 c51 0 149 -34 206 -70 69 -44 137 -123 174 -200 29 -60 31
-73 31 -170 0 -97 -2 -110 -31 -170 -41 -86 -92 -142 -156 -174 -82 -41 -155
-31 -184 25 -19 37 -18 52 6 82 l20 26 -21 6 c-60 19 -142 -39 -169 -119 -24
-75 17 -168 98 -218 l37 -23 -30 -6 c-67 -15 -201 -9 -257 10 -120 41 -208
124 -208 196 l0 26 29 -22 c18 -13 50 -24 78 -26 154 -13 208 201 80 314 -83
73 -239 68 -324 -10 -22 -19 -23 -19 -29 -1 -16 52 -27 66 -61 80 -20 9 -49
13 -65 10 l-28 -5 0 62 c0 158 -95 267 -233 267 -109 0 -199 -109 -167 -204
11 -35 73 -96 97 -96 7 0 13 -4 13 -10 0 -15 -45 -23 -99 -18 -115 11 -225
102 -293 243 -22 47 -38 88 -35 91 3 3 23 -4 46 -15 76 -39 185 -22 231 37 45
56 48 149 7 193 -21 22 -22 23 -25 4 -2 -11 -14 -30 -25 -43 -18 -19 -28 -22
-57 -17 -142 27 -136 265 11 416 105 108 270 144 436 94z m-467 -68 c0 -2 -10
-12 -22 -23 l-23 -19 19 23 c18 21 26 27 26 19z m-91 -69 c-43 -57 -57 -70
-35 -33 19 31 56 75 64 75 2 0 -11 -19 -29 -42z m1579 -143 c7 -14 12 -27 12
-29 0 -1 -25 -1 -55 2 -99 8 -216 -25 -314 -88 l-46 -30 45 41 c85 77 202 127
306 128 34 1 43 -3 52 -24z m-508 -261 c0 -2 -13 2 -30 11 -16 9 -30 18 -30
21 0 2 14 -2 30 -11 17 -9 30 -18 30 -21z m585 -3 c33 -16 71 -38 85 -49 19
-16 11 -14 -34 9 -32 16 -90 38 -127 49 -38 12 -69 23 -69 26 0 12 89 -9 145
-35z m166 -140 c34 -42 75 -123 84 -166 4 -20 -7 -6 -30 39 -34 64 -127 169
-185 210 -14 9 3 2 38 -15 35 -18 77 -49 93 -68z m-1839 -158 c49 -68 55 -81
30 -60 -51 46 -122 191 -122 250 0 12 13 -15 29 -60 15 -45 44 -103 63 -130z
m1915 -75 c-3 -8 -6 -5 -6 6 -1 11 2 17 5 13 3 -3 4 -12 1 -19z m10 -65 c-3
-10 -5 -2 -5 17 0 19 2 27 5 18 2 -10 2 -26 0 -35z m-17 -268 c-12 -31 -24
-54 -26 -52 -2 2 6 29 19 60 12 30 23 54 26 52 2 -2 -7 -29 -19 -60z m-393
-346 c-9 -6 -50 -17 -89 -25 -58 -12 -85 -13 -138 -4 -36 6 -72 16 -80 21 -12
9 -11 9 5 4 42 -15 190 -16 245 -1 68 17 80 18 57 5z"/>
<path d="M5941 7810 c-5 -52 -1 -72 20 -101 58 -81 222 -77 288 7 36 45 23 49
-23 6 -70 -65 -148 -76 -222 -31 -38 23 -53 51 -57 109 -3 41 -4 42 -6 10z"/>
<path d="M6461 7611 c-18 -33 -23 -96 -12 -138 29 -108 144 -165 229 -113 17
11 32 24 32 30 0 5 -16 -2 -36 -15 -45 -31 -77 -31 -128 -2 -73 41 -105 142
-72 222 16 36 4 49 -13 16z"/>
<path d="M7286 7508 c41 -75 90 -224 100 -299 7 -55 23 -101 24 -68 0 40 -32
194 -54 253 -24 66 -84 176 -97 176 -4 0 8 -28 27 -62z"/>
<path d="M5675 7418 c-23 -12 -45 -37 -45 -51 0 -5 14 3 31 17 48 41 107 37
161 -11 27 -26 37 -31 30 -17 -23 43 -71 74 -115 74 -23 0 -51 -6 -62 -12z"/>
<path d="M5877 7258 c5 -56 2 -73 -16 -112 -32 -66 -93 -115 -175 -141 -10 -3
-17 -8 -14 -10 10 -10 97 23 132 50 59 45 90 107 90 179 0 34 -5 70 -12 81 -9
16 -10 6 -5 -47z"/>
<path d="M6248 7060 c-46 -14 -87 -50 -118 -103 -25 -44 -30 -63 -30 -122 0
-38 5 -77 10 -85 6 -10 8 2 3 36 -9 83 12 149 66 204 78 81 182 91 248 25 27
-27 33 -41 33 -77 0 -24 -5 -49 -12 -56 -9 -9 -9 -12 0 -12 17 0 32 34 32 73
0 46 -37 99 -80 114 -40 14 -112 15 -152 3z"/>
<path d="M5563 6993 c9 -2 23 -2 30 0 6 3 -1 5 -18 5 -16 0 -22 -2 -12 -5z"/>
<path d="M6150 6636 c0 -2 7 -9 15 -16 13 -11 14 -10 9 4 -5 14 -24 23 -24 12z"/>
<path d="M5278 6070 c-43 -43 -78 -81 -78 -84 0 -25 120 85 144 133 9 17 15
30 14 30 -2 -1 -38 -36 -80 -79z"/>
<path d="M5586 5963 c-10 -20 -22 -77 -28 -127 -5 -50 -14 -99 -20 -109 -5
-10 -7 -21 -5 -24 13 -13 35 60 40 134 4 45 13 99 22 119 20 49 14 54 -9 7z"/>
<path d="M5135 5423 c-10 -15 -69 -111 -130 -213 -61 -102 -220 -360 -352
-575 -315 -513 -505 -847 -489 -862 2 -3 17 19 32 49 33 66 193 337 332 563
341 553 637 1053 628 1062 -2 2 -11 -9 -21 -24z"/>
<path d="M4216 3609 c-3 -18 -4 -34 -1 -37 2 -2 10 7 16 22 9 18 9 30 2 37 -7
7 -12 0 -17 -22z"/>
<path d="M3927 3433 c-73 -112 -186 -303 -344 -583 -164 -290 -180 -320 -166
-305 20 21 146 230 313 520 95 165 175 305 179 310 17 23 72 125 68 125 -3 0
-25 -30 -50 -67z"/>
<path d="M3983 3398 c-15 -24 -92 -158 -172 -298 -79 -140 -213 -376 -298
-524 -84 -148 -152 -271 -150 -273 9 -8 288 468 522 892 70 127 129 233 132
238 2 4 2 7 -1 7 -3 0 -18 -19 -33 -42z"/>
<path d="M3916 2984 c-70 -114 -125 -209 -122 -211 7 -7 185 276 235 375 43
85 10 37 -113 -164z"/>
<path d="M3480 3058 c-24 -40 -96 -156 -160 -258 -64 -102 -156 -252 -205
-335 -48 -82 -116 -198 -151 -256 -35 -58 -64 -114 -63 -125 0 -16 2 -16 9 4
6 13 38 67 73 120 35 53 106 169 157 257 52 88 130 219 175 290 107 169 219
365 212 371 -2 3 -24 -28 -47 -68z"/>
<path d="M3997 3013 c-27 -43 -57 -99 -57 -108 0 -3 5 -5 10 -5 6 0 10 5 10
11 0 6 16 38 35 71 39 67 41 93 2 31z"/>
<path d="M4520 2972 c0 -4 19 -17 43 -29 23 -11 83 -50 134 -87 51 -36 98 -66
105 -66 19 0 -159 128 -224 161 -32 16 -58 26 -58 21z"/>
<path d="M4004 2916 c-3 -21 -4 -39 -1 -42 3 -4 9 10 13 30 3 21 4 39 1 42 -3
4 -9 -10 -13 -30z"/>
<path d="M4451 2874 c-12 -20 -20 -38 -18 -41 3 -2 14 13 26 33 12 20 20 38
18 41 -3 2 -14 -13 -26 -33z"/>
<path d="M3903 2697 c-39 -62 -61 -127 -43 -127 5 0 12 4 15 10 3 5 31 -11 62
-36 31 -25 67 -51 81 -57 22 -10 24 -16 18 -53 -5 -41 -43 -133 -59 -145 -10
-7 7 -21 60 -48 73 -37 82 -31 137 77 20 40 39 72 41 72 3 0 23 -12 45 -26 21
-14 55 -30 75 -34 37 -8 37 -8 57 37 18 40 18 49 7 71 -8 14 -32 37 -54 51
-22 14 -42 26 -44 28 -2 1 1 8 6 15 6 7 28 46 48 87 l38 74 -31 28 c-36 33
-95 47 -117 29 -8 -7 -29 -37 -46 -66 -17 -30 -33 -54 -35 -54 -3 0 -40 25
-83 55 -73 51 -111 69 -96 45 3 -5 1 -10 -5 -10 -7 0 -14 9 -17 20 -3 11 -8
20 -12 20 -4 0 -25 -28 -48 -63z m411 -2 c19 -15 19 -16 -2 -62 -12 -27 -28
-68 -36 -91 -13 -40 -13 -45 4 -62 11 -11 38 -29 60 -40 40 -20 41 -22 27 -43
-17 -25 -21 -24 -94 5 -28 11 -58 18 -66 15 -8 -3 -36 -37 -61 -76 -25 -39
-49 -71 -54 -71 -5 0 -16 8 -25 18 -16 17 -15 23 13 88 16 38 30 77 30 86 0 9
-17 27 -37 39 -21 13 -66 43 -100 67 l-63 43 20 40 c11 21 22 39 24 39 3 0 42
-22 88 -49 99 -58 151 -70 166 -38 15 32 71 107 80 107 4 0 16 -7 26 -15z
m-234 -242 c0 -5 -5 -15 -10 -23 -8 -12 -10 -11 -10 8 0 12 5 22 10 22 6 0 10
-3 10 -7z m-50 -174 c0 -6 -4 -7 -10 -4 -5 3 -10 11 -10 16 0 6 5 7 10 4 6 -3
10 -11 10 -16z"/>
<path d="M3657 2563 c-66 -111 -157 -277 -157 -286 1 -20 121 183 157 266 11
24 11 38 0 20z"/>
<path d="M3654 2433 c-56 -100 -64 -114 -64 -120 0 -12 37 45 69 105 38 73 34
84 -5 15z"/>
<path d="M3705 2400 c-3 -5 -1 -10 4 -10 6 0 11 5 11 10 0 6 -2 10 -4 10 -3 0
-8 -4 -11 -10z"/>
<path d="M3981 2021 c-24 -33 -28 -56 -5 -26 20 26 36 55 30 55 -3 0 -14 -13
-25 -29z"/>
<path d="M4007 1969 c-23 -22 -33 -36 -22 -31 22 11 83 72 71 72 -4 0 -26 -18
-49 -41z"/>
<path d="M4062 1979 c-17 -45 -23 -87 -13 -93 5 -4 12 -2 16 4 3 5 15 15 26
21 19 9 20 7 17 -27 -4 -44 13 -54 39 -25 26 30 35 26 27 -14 -5 -29 -3 -35
12 -35 9 0 26 7 36 17 17 15 18 15 18 -10 0 -15 3 -27 8 -27 9 0 9 56 -1 66
-4 4 -18 -3 -32 -16 l-25 -23 0 36 c0 44 -16 57 -36 28 -24 -34 -37 -26 -29
19 8 44 -5 52 -37 23 -25 -23 -32 -11 -18 32 13 40 6 62 -8 24z"/>
</g>
</svg>
